<svg width="287" height="58" viewBox="0 0 287 58" fill="none" xmlns="http://www.w3.org/2000/svg">
<g clip-path="url(#clip0_1_136)">
<path d="M32.0384 37.687C30.3935 37.687 29.0477 37.1289 27.9261 35.9756L11.6639 19.755V52.1963C11.6639 53.7588 11.1032 55.1353 9.94425 56.2886C8.78533 57.442 7.43949 58 5.83196 58C4.26182 58 2.8786 57.442 1.71968 56.2886C0.560766 55.1353 0 53.796 0 52.1963V5.80372C0 4.24118 0.560766 2.86466 1.71968 1.71135C2.8786 0.55805 4.26182 0 5.83196 0C7.40211 0 8.78533 0.55805 9.94425 1.71135L32.0758 23.7357L54.2074 1.71135C55.3663 0.55805 56.7121 0 58.3196 0C59.8898 0 61.273 0.55805 62.4319 1.71135C63.5908 2.86466 64.1516 4.20398 64.1516 5.80372V52.1963C64.1516 53.7588 63.5908 55.1353 62.4319 56.2886C61.273 57.442 59.9272 58 58.3196 58C56.7495 58 55.3663 57.442 54.2074 56.2886C53.0485 55.1353 52.4877 53.796 52.4877 52.1963V19.755L36.1507 35.9756C35.0666 37.1289 33.6833 37.687 32.0384 37.687Z" fill="#141414"/>
<path d="M138.397 52.1963V11.6074H123.817C122.247 11.6074 120.864 11.0494 119.705 9.89609C118.546 8.74278 117.985 7.40346 117.985 5.80372C117.985 4.24118 118.546 2.86466 119.705 1.71135C120.864 0.55805 122.21 0 123.817 0H164.603C166.174 0 167.557 0.55805 168.716 1.71135C169.875 2.86466 170.435 4.20398 170.435 5.80372C170.435 7.36626 169.875 8.74278 168.716 9.89609C167.557 11.0494 166.211 11.6074 164.603 11.6074H150.024V52.1963C150.024 53.7588 149.463 55.1353 148.304 56.2886C147.145 57.442 145.799 58 144.192 58C142.621 58 141.238 57.442 140.079 56.2886C138.995 55.1353 138.397 53.7588 138.397 52.1963Z" fill="#141414"/>
<path d="M221.465 26.0795V52.1591C221.465 53.7216 220.904 55.0981 219.746 56.2514C218.587 57.4048 217.241 57.9628 215.633 57.9628C214.063 57.9628 212.68 57.4048 211.521 56.2514C210.362 55.0981 209.801 53.7588 209.801 52.1591V40.5516H180.679V52.1591C180.679 53.7216 180.118 55.0981 178.959 56.2514C177.8 57.4048 176.454 57.9628 174.847 57.9628C173.277 57.9628 171.893 57.4048 170.735 56.2514C169.576 55.0981 169.015 53.7588 169.015 52.1591V26.0795C169.015 18.8993 171.594 12.7607 176.716 7.62668C181.838 2.56703 188.006 0 195.221 0C202.437 0 208.605 2.56703 213.764 7.66389C218.886 12.7607 221.465 18.8993 221.465 26.0795ZM180.641 26.0795V28.9814H209.764V26.0795C209.764 22.0988 208.343 18.6761 205.502 15.8486C202.661 13.0212 199.221 11.6074 195.221 11.6074C191.221 11.6074 187.782 13.0212 184.941 15.8486C182.062 18.7133 180.641 22.0988 180.641 26.0795Z" fill="#141414"/>
<path d="M285.28 9.85888L266.065 28.9814L285.28 48.1039C286.439 49.1828 287 50.5593 287 52.1963C287 53.7588 286.439 55.1353 285.28 56.2886C284.121 57.442 282.776 58 281.168 58C279.523 58 278.177 57.442 277.056 56.2886L257.84 37.1661L238.625 56.2886C237.54 57.442 236.157 58 234.512 58C232.942 58 231.559 57.442 230.4 56.2886C229.241 55.1353 228.68 53.796 228.68 52.1963V5.80372C228.68 4.24118 229.241 2.86466 230.4 1.71135C231.559 0.55805 232.905 0 234.512 0C236.082 0 237.466 0.55805 238.625 1.71135C239.783 2.86466 240.344 4.20398 240.344 5.80372V38.245L277.056 1.71135C278.215 0.55805 279.56 0 281.168 0C282.738 0 284.121 0.55805 285.28 1.71135C286.439 2.86466 287 4.20398 287 5.80372C287 7.36626 286.439 8.74278 285.28 9.85888Z" fill="#141414"/>
<path d="M102.433 46.0577L99.6294 46.0949C99.5173 46.0949 99.4051 46.0949 99.293 46.0577H102.433Z" fill="white"/>
<path d="M121.387 23.7357C121.312 29.1674 121.238 34.6363 121.163 40.068H115.219V46.0577C113.013 46.0577 110.807 46.0577 108.564 46.0577C108.564 43.3791 108.527 40.7005 108.49 38.0218C108.452 35.2688 108.602 32.5157 108.602 29.7627C108.602 28.5722 108.527 27.4189 108.415 26.2284C108.303 25.0379 108.116 23.8102 107.742 22.6568C106.994 20.2386 105.536 18.0436 103.592 16.4067C101.499 14.6581 98.8817 13.5792 96.1527 13.356C91.8908 12.984 87.4795 14.8441 84.7504 18.118C82.0214 21.3919 81.0494 26.0424 82.1709 30.1347C83.2924 34.0783 86.358 37.4638 90.2085 38.9519C91.8535 39.5844 93.6105 40.0308 95.3676 40.068C96.0779 40.068 96.7508 40.0308 97.4611 39.9936C97.648 39.9936 97.835 39.9936 98.0593 39.9564C98.7322 39.9192 99.4425 39.9192 100.115 39.9192C100.265 39.9192 100.377 39.9192 100.527 39.9192C100.9 39.9192 101.274 39.9192 101.648 39.9192C101.872 39.9192 102.134 39.9192 102.358 39.9192C102.396 39.9192 102.433 39.9192 102.433 39.9192V45.9461C102.396 45.9833 102.396 46.0205 102.358 46.0577H99.2182C98.9565 46.0577 98.6948 46.0577 98.4705 46.0577C98.2836 46.0577 98.0593 46.0949 97.8723 46.0949H94.2461V52.9776C93.9096 53.052 93.5731 53.052 93.2367 53.052C91.8535 52.9776 90.4702 52.5683 89.1244 52.2335C75.7034 48.9968 67.3293 37.0917 68.8621 23.3637C70.3201 10.3425 81.498 0.558065 94.9564 0.520861C108.938 0.483658 119.705 9.93331 121.387 23.7357Z" fill="white"/>
<path d="M118.471 48.8108H113.536V53.796H118.471V48.8108Z" fill="white"/>
<path d="M109.387 47.4343H103.443V53.796H109.387V47.4343Z" fill="white"/>
<path d="M99.293 46.0577H98.5453C98.7696 46.0205 99.0313 46.0577 99.293 46.0577Z" fill="white"/>
<path d="M102.508 45.9461V46.0577H102.433C102.471 46.0205 102.508 45.9833 102.508 45.9461Z" fill="white"/>
</g>
<defs>
<clipPath id="clip0_1_136">
<rect width="287" height="58" fill="white"/>
</clipPath>
</defs>
</svg>
