<svg width="177" height="51" viewBox="0 0 177 51" fill="none" xmlns="http://www.w3.org/2000/svg">
<path d="M176.02 45.0815C176.02 47.7972 173.774 49.997 170.996 49.997H6.60886C3.83262 49.997 1.5791 47.7972 1.5791 45.0815V5.88189C1.5791 3.16745 3.83262 0.959961 6.60886 0.959961H170.995C173.774 0.959961 176.018 3.16745 176.018 5.88189L176.02 45.0815Z" fill="black"/>
<path d="M170.466 1.0208C173.491 1.0208 175.952 3.42071 175.952 6.37004V44.5903C175.952 47.5396 173.491 49.9395 170.466 49.9395H7.13195C4.10704 49.9395 1.6456 47.5396 1.6456 44.5903V6.37004C1.6456 3.42071 4.10704 1.0208 7.13195 1.0208H170.466ZM170.466 0H7.13195C3.54028 0 0.598633 2.86811 0.598633 6.37004V44.5903C0.598633 48.0922 3.54028 50.9603 7.13195 50.9603H170.466C174.057 50.9603 176.999 48.0922 176.999 44.5903V6.37004C176.999 2.86811 174.057 0 170.466 0Z" fill="#A6A6A6"/>
<path d="M39.9659 25.2051C39.928 21.0989 43.4142 19.1013 43.5736 19.0083C41.5992 16.2017 38.539 15.8182 37.4636 15.7876C34.8934 15.5239 32.4003 17.2871 31.091 17.2871C29.7556 17.2871 27.7394 15.8131 25.5664 15.8564C22.7701 15.8985 20.1541 17.477 18.7195 19.9281C15.7585 24.9261 17.9668 32.2707 20.8036 36.3106C22.2226 38.2891 23.8808 40.4983 26.0512 40.4206C28.1745 40.3352 28.9677 39.1007 31.53 39.1007C34.0689 39.1007 34.8137 40.4206 37.0272 40.3709C39.306 40.3352 40.7408 38.3834 42.1102 36.3871C43.75 34.1193 44.4086 31.886 44.4347 31.7713C44.3811 31.7535 40.009 30.1265 39.9659 25.2051Z" fill="white"/>
<path d="M35.7856 13.1293C36.9276 11.7368 37.7089 9.84239 37.4921 7.91992C35.8391 7.99127 33.772 9.03467 32.5816 10.3966C31.5284 11.5967 30.5876 13.5638 30.8307 15.4136C32.6874 15.5487 34.5938 14.5001 35.7856 13.1293Z" fill="white"/>
<path d="M70.6951 40.1361H67.7276L66.1021 35.156H60.4521L58.9037 40.1361H56.0146L61.6124 23.1816H65.0699L70.6951 40.1361ZM65.6122 33.0666L64.1421 28.6395C63.9866 28.1872 63.6952 27.1221 63.2654 25.4455H63.2131C63.0419 26.1666 62.7662 27.2317 62.3873 28.6395L60.9434 33.0666H65.6122Z" fill="white"/>
<path d="M85.0892 33.8724C85.0892 35.9516 84.5129 37.5951 83.3611 38.8015C82.3284 39.8755 81.0469 40.4118 79.5166 40.4118C77.8649 40.4118 76.6785 39.8335 75.9561 38.6767H75.9036V45.1167H73.1181V31.9347C73.1181 30.6275 73.0828 29.2861 73.0146 27.9102H75.4645L75.6204 29.8479H75.6721C76.6013 28.3879 78.011 27.6592 79.9033 27.6592C81.3826 27.6592 82.6176 28.2287 83.6054 29.3689C84.5953 30.5103 85.0892 32.0111 85.0892 33.8724ZM82.2512 33.9718C82.2512 32.7819 81.9769 31.8009 81.4253 31.0288C80.8235 30.2237 80.0142 29.8212 79.0002 29.8212C78.313 29.8212 77.6887 30.0454 77.1304 30.4874C76.5714 30.9333 76.2057 31.5155 76.034 32.2366C75.9479 32.5729 75.9051 32.8481 75.9051 33.0647V35.1031C75.9051 35.9924 76.1847 36.7427 76.7437 37.3555C77.3028 37.9683 78.0297 38.2741 78.923 38.2741C79.9722 38.2741 80.7891 37.8792 81.3736 37.0918C81.9589 36.3032 82.2512 35.2636 82.2512 33.9718Z" fill="white"/>
<path d="M99.5122 33.8724C99.5122 35.9516 98.9359 37.5951 97.7818 38.8015C96.7513 39.8755 95.4691 40.4118 93.9388 40.4118C92.2871 40.4118 91.1007 39.8335 90.3798 38.6767H90.3273V45.1167H87.5418V31.9347C87.5418 30.6275 87.5066 29.2861 87.4384 27.9102H89.8882L90.0441 29.8479H90.0958C91.0235 28.3879 92.4339 27.6592 94.327 27.6592C95.8048 27.6592 97.0398 28.2287 98.0306 29.3689C99.0168 30.5103 99.5122 32.0111 99.5122 33.8724ZM96.6741 33.9718C96.6741 32.7819 96.3983 31.8009 95.8468 31.0288C95.2443 30.2237 94.4379 29.8212 93.4232 29.8212C92.7345 29.8212 92.1109 30.0454 91.5519 30.4874C90.9928 30.9333 90.6279 31.5155 90.457 32.2366C90.3716 32.5729 90.3273 32.8481 90.3273 33.0647V35.1031C90.3273 35.9924 90.6069 36.7427 91.1637 37.3555C91.7228 37.9671 92.4497 38.2741 93.346 38.2741C94.3952 38.2741 95.212 37.8792 95.7958 37.0918C96.3811 36.3032 96.6741 35.2636 96.6741 33.9718Z" fill="white"/>
<path d="M115.636 35.3817C115.636 36.8238 115.123 37.9972 114.092 38.903C112.96 39.8929 111.382 40.3872 109.356 40.3872C107.484 40.3872 105.985 40.0356 104.849 39.3311L105.495 37.0672C106.718 37.7882 108.059 38.1501 109.521 38.1501C110.57 38.1501 111.387 37.9182 111.974 37.457C112.558 36.9958 112.849 36.3766 112.849 35.6046C112.849 34.9167 112.609 34.337 112.127 33.8669C111.647 33.3968 110.846 32.9598 109.728 32.556C106.683 31.4489 105.163 29.8271 105.163 27.6945C105.163 26.3007 105.695 25.1579 106.763 24.2687C107.827 23.3782 109.245 22.9336 111.02 22.9336C112.603 22.9336 113.917 23.2024 114.966 23.7388L114.27 25.9529C113.29 25.4331 112.182 25.1732 110.942 25.1732C109.962 25.1732 109.196 25.4089 108.647 25.8777C108.184 26.2969 107.951 26.8078 107.951 27.4129C107.951 28.083 108.216 28.6372 108.749 29.0729C109.213 29.4755 110.056 29.9112 111.279 30.3813C112.775 30.9686 113.874 31.6553 114.581 32.4426C115.285 33.2274 115.636 34.2096 115.636 35.3817Z" fill="white"/>
<path d="M124.846 29.9487H121.776V35.8842C121.776 37.3939 122.317 38.148 123.402 38.148C123.899 38.148 124.312 38.1059 124.639 38.0219L124.716 40.0845C124.168 40.2845 123.444 40.3851 122.55 40.3851C121.449 40.3851 120.589 40.0577 119.969 39.4042C119.351 38.7493 119.04 37.6511 119.04 36.1084V29.9462H117.21V27.9078H119.04V25.6694L121.776 24.8643V27.9078H124.846V29.9487Z" fill="white"/>
<path d="M138.701 33.9227C138.701 35.8019 138.15 37.3447 137.05 38.5511C135.896 39.7932 134.364 40.4124 132.456 40.4124C130.616 40.4124 129.152 39.8174 128.059 38.6275C126.966 37.4377 126.421 35.9356 126.421 34.1253C126.421 32.2309 126.982 30.6792 128.11 29.4727C129.235 28.265 130.753 27.6611 132.663 27.6611C134.502 27.6611 135.982 28.2561 137.1 29.4472C138.169 30.6027 138.701 32.0946 138.701 33.9227ZM135.811 34.0106C135.811 32.8832 135.564 31.9162 135.064 31.1098C134.48 30.1339 133.645 29.6472 132.563 29.6472C131.443 29.6472 130.593 30.1352 130.008 31.1098C129.508 31.9175 129.261 32.8998 129.261 34.0616C129.261 35.1891 129.508 36.156 130.008 36.9612C130.611 37.937 131.452 38.4237 132.538 38.4237C133.602 38.4237 134.436 37.9268 135.039 36.9357C135.552 36.114 135.811 35.1368 135.811 34.0106Z" fill="white"/>
<path d="M147.757 30.2989C147.481 30.2492 147.187 30.2237 146.878 30.2237C145.898 30.2237 145.14 30.5843 144.608 31.3067C144.144 31.9437 143.911 32.7488 143.911 33.7209V40.1355H141.127L141.153 31.7602C141.153 30.3511 141.117 29.0682 141.048 27.9114H143.474L143.576 30.2505H143.654C143.947 29.4466 144.411 28.7994 145.046 28.314C145.667 27.877 146.337 27.6592 147.06 27.6592C147.317 27.6592 147.55 27.677 147.757 27.7089V30.2989Z" fill="white"/>
<path d="M160.216 33.4452C160.216 33.9319 160.184 34.3421 160.114 34.6772H151.757C151.79 35.8849 152.194 36.8086 152.969 37.4456C153.674 38.0151 154.585 38.3004 155.703 38.3004C156.941 38.3004 158.07 38.1081 159.085 37.722L159.522 39.6076C158.335 40.1122 156.934 40.3631 155.318 40.3631C153.373 40.3631 151.848 39.805 150.737 38.6903C149.628 37.5755 149.073 36.0786 149.073 34.2007C149.073 32.3572 149.59 30.822 150.623 29.5977C151.705 28.2905 153.167 27.637 155.007 27.637C156.814 27.637 158.182 28.2905 159.111 29.5977C159.847 30.636 160.216 31.9202 160.216 33.4452ZM157.56 32.7407C157.578 31.9355 157.397 31.2398 157.019 30.6525C156.537 29.897 155.796 29.5199 154.799 29.5199C153.888 29.5199 153.148 29.8881 152.582 30.6271C152.118 31.2144 151.842 31.919 151.757 32.7394H157.56V32.7407Z" fill="white"/>
<path d="M64.691 12.7504C64.691 14.2499 64.2297 15.3786 63.3085 16.1366C62.4553 16.836 61.2427 17.1864 59.6721 17.1864C58.8933 17.1864 58.2269 17.1533 57.6689 17.087V8.89397C58.3968 8.77931 59.1808 8.7207 60.0275 8.7207C61.5236 8.7207 62.6513 9.03793 63.4118 9.67238C64.2637 10.3896 64.691 11.4152 64.691 12.7504ZM63.2471 12.7873C63.2471 11.8153 62.9832 11.07 62.4553 10.5502C61.9274 10.0317 61.1565 9.77176 60.1412 9.77176C59.71 9.77176 59.3428 9.79978 59.0383 9.85839V16.0869C59.2069 16.1124 59.5153 16.1239 59.9635 16.1239C61.0114 16.1239 61.8202 15.8398 62.3899 15.2716C62.9597 14.7034 63.2471 13.8753 63.2471 12.7873Z" fill="white"/>
<path d="M72.3466 14.0618C72.3466 14.9855 72.0759 15.7423 71.5349 16.3359C70.9679 16.9462 70.2165 17.2507 69.2783 17.2507C68.3741 17.2507 67.6541 16.9589 67.1171 16.3729C66.5813 15.7881 66.3135 15.0505 66.3135 14.1612C66.3135 13.2312 66.5892 12.4681 67.1432 11.8757C67.6973 11.2832 68.442 10.9863 69.3802 10.9863C70.2845 10.9863 71.0109 11.2781 71.5611 11.8629C72.0837 12.4311 72.3466 13.1649 72.3466 14.0618ZM70.926 14.1052C70.926 13.551 70.8032 13.0758 70.5588 12.6796C70.2714 12.2005 69.8624 11.961 69.3306 11.961C68.7805 11.961 68.3623 12.2005 68.0749 12.6796C67.8292 13.0758 67.7077 13.5586 67.7077 14.1294C67.7077 14.6836 67.8305 15.1588 68.0749 15.555C68.3715 16.034 68.7844 16.2735 69.3175 16.2735C69.8402 16.2735 70.2504 16.0302 70.5458 15.5422C70.7992 15.1384 70.926 14.6594 70.926 14.1052Z" fill="white"/>
<path d="M82.6113 11.1084L80.6838 17.1141H79.4293L78.6312 14.5062C78.4288 13.8552 78.2639 13.208 78.1358 12.5659H78.1111C77.9919 13.2259 77.8278 13.8718 77.6157 14.5062L76.7681 17.1141H75.4994L73.6865 11.1084H75.0939L75.7909 13.9635C75.9587 14.6387 76.0974 15.2821 76.2083 15.8911H76.2338C76.3357 15.3891 76.5043 14.7496 76.7419 13.9763L77.6157 11.1097H78.7316L79.5694 13.9151C79.7718 14.5992 79.9366 15.2579 80.0633 15.8924H80.1015C80.1937 15.2745 80.3338 14.6158 80.5197 13.9151L81.2668 11.1097H82.6113V11.1084Z" fill="white"/>
<path d="M89.711 17.1134H88.3411V13.6735C88.3411 12.6134 87.9282 12.0835 87.1001 12.0835C86.6939 12.0835 86.3657 12.2287 86.1109 12.5204C85.8591 12.8123 85.7309 13.1562 85.7309 13.5499V17.1121H84.361V12.8237C84.361 12.2962 84.3445 11.7242 84.3115 11.105H85.5151L85.5788 12.044H85.617C85.7766 11.7522 86.0142 11.5114 86.3267 11.3191C86.6977 11.0948 87.1128 10.9814 87.5677 10.9814C88.1425 10.9814 88.6214 11.1624 89.0013 11.5254C89.4742 11.9701 89.711 12.6339 89.711 13.5155V17.1134Z" fill="white"/>
<path d="M93.4866 17.1131H92.1182V8.35156H93.4866V17.1131Z" fill="white"/>
<path d="M101.549 14.0618C101.549 14.9855 101.28 15.7423 100.739 16.3359C100.171 16.9462 99.4188 17.2507 98.4813 17.2507C97.576 17.2507 96.8558 16.9589 96.3207 16.3729C95.7849 15.7881 95.5166 15.0505 95.5166 14.1612C95.5166 13.2312 95.7924 12.4681 96.3462 11.8757C96.9008 11.2832 97.6457 10.9863 98.5824 10.9863C99.4877 10.9863 100.213 11.2781 100.765 11.8629C101.287 12.4311 101.549 13.1649 101.549 14.0618ZM100.128 14.1052C100.128 13.551 100.006 13.0758 99.7605 12.6796C99.475 12.2005 99.0643 11.961 98.5337 11.961C97.9822 11.961 97.564 12.2005 97.2785 12.6796C97.0327 13.0758 96.9113 13.5586 96.9113 14.1294C96.9113 14.6836 97.0342 15.1588 97.2785 15.555C97.5745 16.034 97.9874 16.2735 98.521 16.2735C99.0433 16.2735 99.4525 16.0302 99.7478 15.5422C100.003 15.1384 100.128 14.6594 100.128 14.1052Z" fill="white"/>
<path d="M108.176 17.1144H106.947L106.845 16.4226H106.807C106.387 16.9742 105.787 17.2507 105.008 17.2507C104.426 17.2507 103.956 17.0685 103.602 16.7067C103.28 16.378 103.12 15.969 103.12 15.4836C103.12 14.7498 103.433 14.1905 104.064 13.8032C104.695 13.4159 105.58 13.2261 106.721 13.235V13.1229C106.721 12.3318 106.295 11.9368 105.442 11.9368C104.834 11.9368 104.298 12.0859 103.836 12.3814L103.558 11.5048C104.13 11.1596 104.837 10.9863 105.67 10.9863C107.28 10.9863 108.088 11.8145 108.088 13.4707V15.6824C108.088 16.2824 108.118 16.7602 108.176 17.1144ZM106.755 15.0505V14.1243C105.245 14.0988 104.489 14.5027 104.489 15.3346C104.489 15.648 104.575 15.8824 104.752 16.0391C104.928 16.1958 105.153 16.2735 105.421 16.2735C105.721 16.2735 106.002 16.1805 106.259 15.9958C106.516 15.8098 106.674 15.5741 106.733 15.2849C106.747 15.2199 106.755 15.1409 106.755 15.0505Z" fill="white"/>
<path d="M115.957 17.113H114.742L114.678 16.1485H114.64C114.252 16.8824 113.59 17.2493 112.662 17.2493C111.919 17.2493 111.302 16.9652 110.812 16.397C110.321 15.8288 110.077 15.0911 110.077 14.1853C110.077 13.2132 110.342 12.4259 110.875 11.8246C111.392 11.2639 112.024 10.9837 112.777 10.9837C113.604 10.9837 114.182 11.255 114.512 11.7991H114.538V8.35156H115.909V15.495C115.909 16.0797 115.925 16.6186 115.957 17.113ZM114.538 14.5802V13.5789C114.538 13.4056 114.525 13.2655 114.5 13.1585C114.423 12.8374 114.257 12.5673 114.005 12.3495C113.75 12.1316 113.443 12.022 113.089 12.022C112.578 12.022 112.179 12.2195 111.884 12.6157C111.592 13.0119 111.445 13.5177 111.445 14.1356C111.445 14.7293 111.585 15.2109 111.866 15.5816C112.163 15.9765 112.562 16.174 113.063 16.174C113.512 16.174 113.871 16.0097 114.145 15.6797C114.409 15.3752 114.538 15.0083 114.538 14.5802Z" fill="white"/>
<path d="M127.669 14.0618C127.669 14.9855 127.398 15.7423 126.857 16.3359C126.29 16.9462 125.54 17.2507 124.6 17.2507C123.697 17.2507 122.977 16.9589 122.439 16.3729C121.903 15.7881 121.636 15.0505 121.636 14.1612C121.636 13.2312 121.912 12.4681 122.465 11.8757C123.019 11.2832 123.764 10.9863 124.704 10.9863C125.607 10.9863 126.335 11.2781 126.883 11.8629C127.405 12.4311 127.669 13.1649 127.669 14.0618ZM126.249 14.1052C126.249 13.551 126.126 13.0758 125.882 12.6796C125.593 12.2005 125.186 11.961 124.653 11.961C124.104 11.961 123.685 12.2005 123.397 12.6796C123.151 13.0758 123.03 13.5586 123.03 14.1294C123.03 14.6836 123.153 15.1588 123.397 15.555C123.694 16.034 124.107 16.2735 124.639 16.2735C125.162 16.2735 125.574 16.0302 125.869 15.5422C126.122 15.1384 126.249 14.6594 126.249 14.1052Z" fill="white"/>
<path d="M135.033 17.1134H133.665V13.6735C133.665 12.6134 133.252 12.0835 132.423 12.0835C132.016 12.0835 131.688 12.2287 131.435 12.5204C131.181 12.8123 131.054 13.1562 131.054 13.5499V17.1121H129.684V12.8237C129.684 12.2962 129.668 11.7242 129.636 11.105H130.838L130.901 12.044H130.94C131.1 11.7522 131.338 11.5114 131.649 11.3191C132.021 11.0948 132.436 10.9814 132.892 10.9814C133.465 10.9814 133.943 11.1624 134.324 11.5254C134.798 11.9701 135.033 12.6339 135.033 13.5155V17.1134Z" fill="white"/>
<path d="M144.248 12.107H142.74V15.0245C142.74 15.766 143.008 16.1367 143.539 16.1367C143.785 16.1367 143.988 16.1163 144.149 16.0743L144.184 17.0871C143.914 17.1865 143.558 17.2362 143.121 17.2362C142.58 17.2362 142.159 17.0756 141.854 16.7546C141.548 16.4335 141.397 15.8934 141.397 15.1353V12.107H140.497V11.1069H141.397V10.0063L142.739 9.61133V11.1057H144.247L144.248 12.107Z" fill="white"/>
<path d="M151.497 17.1131H150.126V13.6987C150.126 12.6222 149.713 12.0832 148.886 12.0832C148.251 12.0832 147.817 12.3954 147.58 13.0197C147.539 13.1509 147.515 13.3114 147.515 13.5V17.1118H146.147V8.35156H147.515V11.9711H147.541C147.973 11.3124 148.591 10.9837 149.392 10.9837C149.959 10.9837 150.428 11.1646 150.801 11.5277C151.264 11.98 151.497 12.6527 151.497 13.542V17.1131Z" fill="white"/>
<path d="M158.976 13.8262C158.976 14.0657 158.957 14.267 158.925 14.4314H154.818C154.836 15.0251 155.032 15.4774 155.412 15.7908C155.76 16.0711 156.208 16.2112 156.757 16.2112C157.364 16.2112 157.918 16.1169 158.417 15.9271L158.632 16.8546C158.048 17.1017 157.361 17.2254 156.565 17.2254C155.611 17.2254 154.859 16.9514 154.316 16.4036C153.77 15.8558 153.499 15.1207 153.499 14.1982C153.499 13.2924 153.752 12.5382 154.26 11.9368C154.79 11.2947 155.507 10.9736 156.413 10.9736C157.299 10.9736 157.972 11.2947 158.426 11.9368C158.794 12.4464 158.976 13.0771 158.976 13.8262ZM157.669 13.4809C157.679 13.0847 157.589 12.7433 157.403 12.4553C157.166 12.0846 156.804 11.8986 156.314 11.8986C155.867 11.8986 155.502 12.0795 155.224 12.4426C154.996 12.7318 154.862 13.0771 154.818 13.4809H157.669Z" fill="white"/>
</svg>
