<svg width="70" height="70" viewBox="0 0 70 70" fill="none" xmlns="http://www.w3.org/2000/svg">
<path d="M67.732 22.8181L67.7323 22.8189C68.6649 25.3456 67.373 28.1507 64.8446 29.0833C64.8443 29.0834 64.8441 29.0834 64.8439 29.0835L54.0599 33.0662L54.0597 33.0663C46.9548 35.6894 43.3223 43.5749 45.946 50.6802L45.946 50.6803L49.9271 61.4653L49.9274 61.4663L48.6787 61.9272C49.3587 63.7649 48.4196 65.8036 46.581 66.4811L67.732 22.8181ZM67.732 22.8181C66.7976 20.2916 63.9942 18.9992 61.467 19.9326C61.4669 19.9326 61.4668 19.9327 61.4668 19.9327L50.6807 23.9148L51.1417 25.1635L50.6807 23.9148C43.5756 26.5381 35.6901 22.9055 33.0667 15.801L29.0841 5.01552C28.151 2.48845 25.3459 1.19629 22.8188 2.12942L23.2799 3.37809L22.8188 2.12942C20.2917 3.06256 18.9995 5.86765 19.9327 8.39472L23.9153 19.1802C26.5386 26.2847 22.9063 34.1702 15.8015 36.7941C15.8015 36.7941 15.8014 36.7942 15.8014 36.7942L5.01638 40.7759L5.01568 40.7762C2.48864 41.7108 1.19723 44.5142 2.12924 47.0422L2.12953 47.043C3.06282 49.5695 5.86775 50.8618 8.39545 49.9274C8.39569 49.9273 8.39592 49.9272 8.39616 49.9271L19.1806 45.9456L19.1807 45.9455C26.2854 43.3217 34.1709 46.9541 36.7946 54.0594L36.7946 54.0595L40.7781 64.8437L40.7784 64.8446L42.027 64.3834L67.732 22.8181Z" fill="#00C6AE" stroke="black" stroke-width="2.66215"/>
</svg>
