<svg width="146" height="42" viewBox="0 0 146 42" fill="none" xmlns="http://www.w3.org/2000/svg">
<path d="M144.527 36.9765C144.527 39.2038 142.684 41.0081 140.407 41.0081H5.57988C3.30287 41.0081 1.45459 39.2038 1.45459 36.9765V4.82591C1.45459 2.59959 3.30287 0.789062 5.57988 0.789062H140.405C142.684 0.789062 144.525 2.59959 144.525 4.82591L144.527 36.9765Z" fill="black"/>
<path d="M139.972 0.838212C142.453 0.838212 144.471 2.80656 144.471 5.22553V36.5728C144.471 38.9918 142.453 40.9602 139.972 40.9602H6.00935C3.52839 40.9602 1.50958 38.9918 1.50958 36.5728V5.22553C1.50958 2.80656 3.52839 0.838212 6.00935 0.838212H139.972ZM139.972 0.000976562H6.00935C3.06354 0.000976562 0.650879 2.35333 0.650879 5.22553V36.5728C0.650879 39.445 3.06354 41.7974 6.00935 41.7974H139.972C142.917 41.7974 145.331 39.445 145.331 36.5728V5.22553C145.331 2.35333 142.917 0.000976562 139.972 0.000976562Z" fill="#A6A6A6"/>
<path d="M32.9389 20.6728C32.9079 17.305 35.7672 15.6666 35.8979 15.5903C34.2785 13.2884 31.7686 12.9739 30.8866 12.9488C28.7786 12.7325 26.7338 14.1787 25.66 14.1787C24.5647 14.1787 22.9111 12.9697 21.1288 13.0052C18.8354 13.0397 16.6898 14.3344 15.5131 16.3448C13.0846 20.4439 14.8958 26.4678 17.2225 29.7813C18.3863 31.404 19.7463 33.2159 21.5264 33.1521C23.2679 33.0821 23.9185 32.0696 26.02 32.0696C28.1023 32.0696 28.7132 33.1521 30.5287 33.1114C32.3977 33.0821 33.5745 31.4813 34.6976 29.844C36.0426 27.984 36.5827 26.1523 36.6041 26.0583C36.5602 26.0436 32.9743 24.7092 32.9389 20.6728Z" fill="white"/>
<path d="M29.5097 10.7697C30.4463 9.62761 31.0872 8.07383 30.9093 6.49707C29.5536 6.55559 27.8582 7.41136 26.8818 8.52837C26.018 9.51267 25.2464 11.126 25.4458 12.6432C26.9686 12.754 28.5322 11.894 29.5097 10.7697Z" fill="white"/>
<path d="M58.1421 32.9203H55.7083L54.3751 28.8357H49.741L48.4711 32.9203H46.1016L50.6927 19.0146H53.5285L58.1421 32.9203ZM53.9732 27.1221L52.7675 23.491C52.64 23.1201 52.401 22.2465 52.0484 20.8714H52.0055C51.8651 21.4629 51.639 22.3364 51.3282 23.491L50.144 27.1221H53.9732Z" fill="white"/>
<path d="M69.9482 27.7825C69.9482 29.4878 69.4755 30.8357 68.5308 31.8252C67.6838 32.7061 66.6328 33.1459 65.3776 33.1459C64.0229 33.1459 63.05 32.6716 62.4574 31.7228H62.4144V37.0048H60.1297V26.1932C60.1297 25.1211 60.1009 24.0209 60.0449 22.8924H62.0542L62.1821 24.4817H62.2245C62.9866 23.2842 64.1428 22.6865 65.6948 22.6865C66.9081 22.6865 67.9211 23.1536 68.7312 24.0888C69.5431 25.025 69.9482 26.2559 69.9482 27.7825ZM67.6205 27.864C67.6205 26.888 67.3955 26.0835 66.9432 25.4502C66.4496 24.7899 65.7858 24.4597 64.9541 24.4597C64.3905 24.4597 63.8785 24.6436 63.4206 25.0062C62.9621 25.3719 62.6621 25.8494 62.5214 26.4408C62.4507 26.7167 62.4156 26.9424 62.4156 27.12V28.7919C62.4156 29.5212 62.6449 30.1366 63.1034 30.6392C63.562 31.1418 64.1582 31.3926 64.8908 31.3926C65.7513 31.3926 66.4213 31.0687 66.9007 30.423C67.3808 29.7762 67.6205 28.9235 67.6205 27.864Z" fill="white"/>
<path d="M81.7776 27.7825C81.7776 29.4878 81.305 30.8357 80.3584 31.8252C79.5133 32.7061 78.4616 33.1459 77.2065 33.1459C75.8518 33.1459 74.8788 32.6716 74.2875 31.7228H74.2445V37.0048H71.9598V26.1932C71.9598 25.1211 71.9309 24.0209 71.875 22.8924H73.8843L74.0121 24.4817H74.0546C74.8155 23.2842 75.9723 22.6865 77.5249 22.6865C78.737 22.6865 79.7499 23.1536 80.5625 24.0888C81.3714 25.025 81.7776 26.2559 81.7776 27.7825ZM79.45 27.864C79.45 26.888 79.2238 26.0835 78.7714 25.4502C78.2772 24.7899 77.6158 24.4597 76.7836 24.4597C76.2187 24.4597 75.7073 24.6436 75.2488 25.0062C74.7903 25.3719 74.491 25.8494 74.3508 26.4408C74.2807 26.7167 74.2445 26.9424 74.2445 27.12V28.7919C74.2445 29.5212 74.4737 30.1366 74.9304 30.6392C75.389 31.1408 75.9852 31.3926 76.7203 31.3926C77.5808 31.3926 78.2508 31.0687 78.7296 30.423C79.2096 29.7762 79.45 28.9235 79.45 27.864Z" fill="white"/>
<path d="M95.0012 29.0201C95.0012 30.203 94.5802 31.1653 93.7344 31.9083C92.8057 32.7202 91.5119 33.1256 89.8498 33.1256C88.3151 33.1256 87.0851 32.8372 86.1533 32.2594L86.6831 30.4026C87.6863 30.994 88.7865 31.2907 89.9857 31.2907C90.8462 31.2907 91.5162 31.1006 91.9974 30.7223C92.4762 30.344 92.7153 29.8362 92.7153 29.203C92.7153 28.6388 92.518 28.1634 92.1228 27.7778C91.7294 27.3922 91.0724 27.0338 90.1553 26.7026C87.658 25.7946 86.4109 24.4645 86.4109 22.7153C86.4109 21.5722 86.8479 20.6349 87.7238 19.9056C88.5959 19.1752 89.7595 18.8105 91.215 18.8105C92.5131 18.8105 93.5912 19.031 94.4517 19.4709L93.8807 21.2869C93.0768 20.8606 92.1677 20.6474 91.1511 20.6474C90.3471 20.6474 89.7189 20.8407 89.269 21.2253C88.8885 21.569 88.698 21.988 88.698 22.4844C88.698 23.034 88.9156 23.4885 89.3526 23.8459C89.733 24.1761 90.4245 24.5334 91.427 24.9189C92.6545 25.4006 93.5556 25.9639 94.1352 26.6096C94.713 27.2533 95.0012 28.0589 95.0012 29.0201Z" fill="white"/>
<path d="M102.556 24.5647H100.038V29.4328C100.038 30.671 100.482 31.2895 101.371 31.2895C101.779 31.2895 102.118 31.255 102.386 31.1861L102.449 32.8778C101.999 33.0418 101.406 33.1244 100.672 33.1244C99.77 33.1244 99.0644 32.8558 98.5555 32.3198C98.049 31.7827 97.7939 30.882 97.7939 29.6167V24.5626H96.293V22.8908H97.7939V21.0549L100.038 20.3945V22.8908H102.556V24.5647Z" fill="white"/>
<path d="M113.919 27.8241C113.919 29.3653 113.467 30.6307 112.564 31.6202C111.618 32.6389 110.362 33.1468 108.796 33.1468C107.287 33.1468 106.086 32.6588 105.19 31.6828C104.294 30.707 103.847 29.475 103.847 27.9902C103.847 26.4365 104.307 25.1638 105.232 24.1743C106.155 23.1838 107.4 22.6885 108.966 22.6885C110.474 22.6885 111.689 23.1764 112.605 24.1534C113.482 25.1011 113.919 26.3247 113.919 27.8241ZM111.548 27.8962C111.548 26.9715 111.346 26.1784 110.935 25.517C110.457 24.7166 109.772 24.3174 108.884 24.3174C107.966 24.3174 107.268 24.7176 106.789 25.517C106.379 26.1794 106.176 26.9851 106.176 27.938C106.176 28.8627 106.379 29.6558 106.789 30.3162C107.283 31.1165 107.973 31.5157 108.864 31.5157C109.736 31.5157 110.421 31.1082 110.915 30.2953C111.336 29.6213 111.548 28.8199 111.548 27.8962Z" fill="white"/>
<path d="M121.347 24.8516C121.121 24.8108 120.88 24.7899 120.627 24.7899C119.823 24.7899 119.201 25.0856 118.764 25.6781C118.384 26.2005 118.193 26.8609 118.193 27.6582V32.9193H115.909L115.931 26.0501C115.931 24.8944 115.901 23.8422 115.845 22.8934H117.835L117.919 24.8119H117.982C118.223 24.1525 118.603 23.6217 119.124 23.2236C119.633 22.8652 120.183 22.6865 120.775 22.6865C120.987 22.6865 121.177 22.7012 121.347 22.7273V24.8516Z" fill="white"/>
<path d="M131.565 27.4318C131.565 27.8309 131.539 28.1674 131.481 28.4422H124.627C124.654 29.4328 124.985 30.1903 125.621 30.7128C126.199 31.1798 126.947 31.4139 127.864 31.4139C128.878 31.4139 129.805 31.2561 130.637 30.9395L130.995 32.486C130.022 32.8998 128.873 33.1057 127.548 33.1057C125.953 33.1057 124.701 32.6479 123.79 31.7336C122.881 30.8193 122.426 29.5916 122.426 28.0514C122.426 26.5394 122.849 25.2802 123.697 24.2761C124.584 23.204 125.784 22.668 127.293 22.668C128.775 22.668 129.897 23.204 130.658 24.2761C131.262 25.1277 131.565 26.181 131.565 27.4318ZM129.387 26.8539C129.401 26.1935 129.253 25.623 128.943 25.1413C128.547 24.5216 127.94 24.2123 127.122 24.2123C126.375 24.2123 125.768 24.5143 125.304 25.1204C124.923 25.6021 124.697 26.18 124.627 26.8529H129.387V26.8539Z" fill="white"/>
<path d="M53.2173 10.4584C53.2173 11.6882 52.839 12.6139 52.0834 13.2357C51.3837 13.8093 50.3891 14.0967 49.1009 14.0967C48.4622 14.0967 47.9156 14.0695 47.458 14.0152V7.29543C48.055 7.20139 48.698 7.15332 49.3924 7.15332C50.6195 7.15332 51.5444 7.4135 52.1681 7.93387C52.8669 8.52215 53.2173 9.3633 53.2173 10.4584ZM52.0331 10.4887C52.0331 9.6914 51.8166 9.08013 51.3837 8.65381C50.9507 8.22853 50.3184 8.01537 49.4857 8.01537C49.132 8.01537 48.8309 8.03836 48.5812 8.08642V13.1949C48.7194 13.2158 48.9723 13.2252 49.3399 13.2252C50.1994 13.2252 50.8628 12.9922 51.3301 12.5262C51.7973 12.0602 52.0331 11.381 52.0331 10.4887Z" fill="white"/>
<path d="M59.4961 11.5342C59.4961 12.2917 59.274 12.9124 58.8304 13.3993C58.3653 13.8999 57.749 14.1496 56.9795 14.1496C56.2379 14.1496 55.6474 13.9103 55.2069 13.4296C54.7675 12.95 54.5479 12.345 54.5479 11.6157C54.5479 10.8529 54.774 10.227 55.2284 9.74112C55.6828 9.25518 56.2936 9.01172 57.0631 9.01172C57.8048 9.01172 58.4006 9.251 58.8518 9.73068C59.2805 10.1967 59.4961 10.7986 59.4961 11.5342ZM58.331 11.5697C58.331 11.1152 58.2302 10.7254 58.0298 10.4005C57.794 10.0076 57.4586 9.81113 57.0224 9.81113C56.5712 9.81113 56.2282 10.0076 55.9925 10.4005C55.791 10.7254 55.6913 11.1214 55.6913 11.5896C55.6913 12.0441 55.7921 12.4339 55.9925 12.7588C56.2358 13.1517 56.5744 13.3481 57.0117 13.3481C57.4404 13.3481 57.7769 13.1486 58.0191 12.7484C58.227 12.4171 58.331 12.0242 58.331 11.5697Z" fill="white"/>
<path d="M67.9156 9.11133L66.3347 14.0371H65.3058L64.6512 11.8982C64.4852 11.3642 64.35 10.8334 64.2449 10.3068H64.2246C64.1269 10.848 63.9923 11.3778 63.8183 11.8982L63.1231 14.0371H62.0825L60.5957 9.11133H61.75L62.3216 11.453C62.4593 12.0068 62.573 12.5345 62.664 13.034H62.6849C62.7685 12.6223 62.9068 12.0977 63.1016 11.4635L63.8183 9.11237H64.7335L65.4207 11.4133C65.5867 11.9744 65.7219 12.5147 65.8258 13.035H65.8571C65.9327 12.5282 66.0477 11.988 66.2001 11.4133L66.8129 9.11237H67.9156V9.11133Z" fill="white"/>
<path d="M73.7381 14.0371H72.6145V11.2158C72.6145 10.3463 72.2759 9.91166 71.5967 9.91166C71.2635 9.91166 70.9943 10.0308 70.7853 10.2701C70.5788 10.5094 70.4737 10.7915 70.4737 11.1144V14.036H69.3501V10.5188C69.3501 10.0862 69.3366 9.61699 69.3096 9.10917H70.2967L70.3489 9.87926H70.3803C70.5112 9.63998 70.7061 9.44249 70.9624 9.28471C71.2666 9.10081 71.6071 9.00781 71.9802 9.00781C72.4517 9.00781 72.8444 9.15619 73.1561 9.45399C73.5439 9.81866 73.7381 10.3631 73.7381 11.0862V14.0371Z" fill="white"/>
<path d="M76.8352 14.0366H75.7129V6.85059H76.8352V14.0366Z" fill="white"/>
<path d="M83.447 11.5342C83.447 12.2917 83.2257 12.9124 82.7819 13.3993C82.3166 13.8999 81.6995 14.1496 80.9306 14.1496C80.1881 14.1496 79.5974 13.9103 79.1585 13.4296C78.7191 12.95 78.499 12.345 78.499 11.6157C78.499 10.8529 78.7252 10.227 79.1794 9.74112C79.6343 9.25518 80.2452 9.01172 81.0136 9.01172C81.7561 9.01172 82.351 9.251 82.8034 9.73068C83.2318 10.1967 83.447 10.7986 83.447 11.5342ZM82.281 11.5697C82.281 11.1152 82.1808 10.7254 81.9798 10.4005C81.7456 10.0076 81.4088 9.81113 80.9736 9.81113C80.5212 9.81113 80.1782 10.0076 79.9441 10.4005C79.7425 10.7254 79.6429 11.1214 79.6429 11.5896C79.6429 12.0441 79.7437 12.4339 79.9441 12.7588C80.1869 13.1517 80.5255 13.3481 80.9632 13.3481C81.3916 13.3481 81.7272 13.1486 81.9693 12.7484C82.1783 12.4171 82.281 12.0242 82.281 11.5697Z" fill="white"/>
<path d="M88.8834 14.0378H87.8754L87.7918 13.4704H87.7604C87.4156 13.9228 86.9233 14.1496 86.2846 14.1496C85.8077 14.1496 85.4223 14.0002 85.1316 13.7034C84.8679 13.4338 84.7363 13.0984 84.7363 12.7003C84.7363 12.0984 84.9933 11.6397 85.5108 11.3221C86.0277 11.0044 86.7542 10.8487 87.6897 10.856V10.7641C87.6897 10.1152 87.3406 9.79128 86.6405 9.79128C86.142 9.79128 85.7026 9.91353 85.3233 10.156L85.0953 9.437C85.5649 9.15383 86.1445 9.01172 86.828 9.01172C88.1483 9.01172 88.8109 9.69097 88.8109 11.0493V12.8633C88.8109 13.3555 88.8354 13.7473 88.8834 14.0378ZM87.7174 12.345V11.5854C86.4789 11.5645 85.8593 11.8957 85.8593 12.578C85.8593 12.8351 85.93 13.0274 86.0744 13.1559C86.2195 13.2844 86.4039 13.3481 86.6233 13.3481C86.8698 13.3481 87.1003 13.2719 87.3105 13.1204C87.5213 12.9678 87.651 12.7745 87.6996 12.5373C87.7112 12.484 87.7174 12.4192 87.7174 12.345Z" fill="white"/>
<path d="M95.2649 14.0365H94.2686L94.2157 13.2455H94.185C93.8666 13.8473 93.3239 14.1483 92.5623 14.1483C91.9532 14.1483 91.4467 13.9153 91.0447 13.4492C90.6428 12.9832 90.4424 12.3782 90.4424 11.6353C90.4424 10.838 90.66 10.1923 91.097 9.69906C91.5205 9.23924 92.0392 9.00936 92.6563 9.00936C93.3349 9.00936 93.8094 9.23193 94.0799 9.67816H94.1014V6.85059H95.2256V12.7094C95.2256 13.1891 95.2385 13.631 95.2649 14.0365ZM94.1014 11.9592V11.1379C94.1014 10.9958 94.0903 10.8809 94.07 10.7931C94.0067 10.5298 93.8709 10.3082 93.6638 10.1296C93.4548 9.95089 93.2028 9.86102 92.9127 9.86102C92.4935 9.86102 92.1659 10.023 91.9243 10.348C91.6852 10.6729 91.5641 11.0877 91.5641 11.5945C91.5641 12.0814 91.6791 12.4764 91.9096 12.7805C92.153 13.1044 92.4806 13.2664 92.8911 13.2664C93.2599 13.2664 93.5544 13.1316 93.7787 12.8609C93.9951 12.6112 94.1014 12.3103 94.1014 11.9592Z" fill="white"/>
<path d="M104.871 11.5342C104.871 12.2917 104.649 12.9124 104.205 13.3993C103.74 13.8999 103.125 14.1496 102.354 14.1496C101.614 14.1496 101.023 13.9103 100.582 13.4296C100.142 12.95 99.9229 12.345 99.9229 11.6157C99.9229 10.8529 100.149 10.227 100.603 9.74112C101.057 9.25518 101.668 9.01172 102.439 9.01172C103.18 9.01172 103.777 9.251 104.227 9.73068C104.655 10.1967 104.871 10.7986 104.871 11.5342ZM103.707 11.5697C103.707 11.1152 103.606 10.7254 103.405 10.4005C103.169 10.0076 102.834 9.81113 102.397 9.81113C101.947 9.81113 101.604 10.0076 101.367 10.4005C101.166 10.7254 101.066 11.1214 101.066 11.5896C101.066 12.0441 101.167 12.4339 101.367 12.7588C101.611 13.1517 101.949 13.3481 102.386 13.3481C102.815 13.3481 103.153 13.1486 103.395 12.7484C103.602 12.4171 103.707 12.0242 103.707 11.5697Z" fill="white"/>
<path d="M110.91 14.0371H109.788V11.2158C109.788 10.3463 109.45 9.91166 108.769 9.91166C108.436 9.91166 108.167 10.0308 107.959 10.2701C107.751 10.5094 107.647 10.7915 107.647 11.1144V14.036H106.523V10.5188C106.523 10.0862 106.51 9.61699 106.483 9.10917H107.469L107.522 9.87926H107.553C107.684 9.63998 107.88 9.44249 108.134 9.28471C108.44 9.10081 108.78 9.00781 109.154 9.00781C109.624 9.00781 110.016 9.15619 110.329 9.45399C110.718 9.81866 110.91 10.3631 110.91 11.0862V14.0371Z" fill="white"/>
<path d="M118.468 9.93168H117.231V12.3245C117.231 12.9326 117.451 13.2367 117.886 13.2367C118.088 13.2367 118.255 13.22 118.387 13.1855L118.416 14.0162C118.194 14.0977 117.902 14.1385 117.543 14.1385C117.1 14.1385 116.755 14.0068 116.505 13.7435C116.254 13.4802 116.13 13.0371 116.13 12.4154V9.93168H115.392V9.11142H116.13V8.20869L117.231 7.88477V9.11038H118.467L118.468 9.93168Z" fill="white"/>
<path d="M124.415 14.0366H123.291V11.2362C123.291 10.3532 122.952 9.91118 122.273 9.91118C121.753 9.91118 121.397 10.1672 121.202 10.6792C121.169 10.7869 121.149 10.9185 121.149 11.0732V14.0355H120.027V6.85059H121.149V9.81923H121.171C121.525 9.27901 122.031 9.00942 122.688 9.00942C123.153 9.00942 123.538 9.1578 123.844 9.4556C124.224 9.82654 124.415 10.3783 124.415 11.1077V14.0366Z" fill="white"/>
<path d="M130.549 11.3416C130.549 11.538 130.533 11.7031 130.507 11.8379H127.138C127.153 12.3249 127.314 12.6958 127.626 12.9529C127.911 13.1827 128.279 13.2977 128.729 13.2977C129.227 13.2977 129.681 13.2204 130.091 13.0647L130.266 13.8254C129.788 14.0281 129.224 14.1295 128.571 14.1295C127.789 14.1295 127.172 13.9048 126.727 13.4555C126.279 13.0062 126.057 12.4032 126.057 11.6467C126.057 10.9037 126.264 10.2852 126.681 9.7919C127.116 9.26527 127.704 9.00195 128.447 9.00195C129.174 9.00195 129.725 9.26527 130.098 9.7919C130.399 10.2099 130.549 10.7272 130.549 11.3416ZM129.477 11.0584C129.485 10.7334 129.411 10.4534 129.259 10.2172C129.064 9.91311 128.767 9.76056 128.365 9.76056C127.999 9.76056 127.7 9.90893 127.472 10.2067C127.285 10.444 127.175 10.7272 127.138 11.0584H129.477Z" fill="white"/>
</svg>
