<svg width="35" height="36" viewBox="0 0 35 36" fill="none" xmlns="http://www.w3.org/2000/svg">
<g clip-path="url(#clip0_1056_3929)">
<g clip-path="url(#clip1_1056_3929)">
<path d="M17.5002 1.43457C8.22174 1.43457 0.700195 8.9561 0.700195 18.2346C0.700195 27.5131 8.22174 35.0346 17.5002 35.0346C26.7787 35.0346 34.3002 27.5131 34.3002 18.2346C34.3002 8.9561 26.7787 1.43457 17.5002 1.43457ZM21.4797 13.0441H18.9544C18.6552 13.0441 18.3227 13.4378 18.3227 13.9611V15.7846H21.4814L21.0037 18.3851H18.3227V26.1918H15.3424V18.3851H12.6387V15.7846H15.3424V14.2551C15.3424 12.0606 16.8649 10.2773 18.9544 10.2773H21.4797V13.0441Z" fill="white"/>
</g>
</g>
<defs>
<clipPath id="clip0_1056_3929">
<rect width="35" height="35" fill="white" transform="translate(0 0.734375)"/>
</clipPath>
<clipPath id="clip1_1056_3929">
<rect width="35" height="35" fill="white" transform="translate(0 0.734375)"/>
</clipPath>
</defs>
</svg>
