<svg width="145" height="42" viewBox="0 0 145 42" fill="none" xmlns="http://www.w3.org/2000/svg">
<path d="M139.601 41.7974H5.82234C2.88054 41.7974 0.471191 39.445 0.471191 36.5728V5.22553C0.471191 2.35333 2.88054 0.000976562 5.82234 0.000976562H139.601C142.542 0.000976562 144.952 2.35333 144.952 5.22553V36.5728C144.952 39.445 142.542 41.7974 139.601 41.7974Z" fill="black"/>
<path d="M139.601 0.838212C142.078 0.838212 144.094 2.80656 144.094 5.22553V36.5728C144.094 38.9918 142.078 40.9602 139.601 40.9602H5.82234C3.34475 40.9602 1.32871 38.9918 1.32871 36.5728V5.22553C1.32871 2.80656 3.34475 0.838212 5.82234 0.838212H139.601ZM139.601 0.000976562H5.82234C2.88054 0.000976562 0.471191 2.35333 0.471191 5.22553V36.5728C0.471191 39.445 2.88054 41.7974 5.82234 41.7974H139.601C142.542 41.7974 144.952 39.445 144.952 36.5728V5.22553C144.952 2.35333 142.542 0.000976562 139.601 0.000976562Z" fill="#A6A6A6"/>
<path d="M51.219 10.7053C51.219 11.5778 50.9515 12.2766 50.4244 12.7977C49.8184 13.4155 49.0291 13.7264 48.0618 13.7264C47.1374 13.7264 46.3481 13.4103 45.7006 12.7872C45.0518 12.1551 44.728 11.3793 44.728 10.4506C44.728 9.52191 45.0518 8.7461 45.7006 8.11915C46.3481 7.49092 47.1374 7.1748 48.0618 7.1748C48.522 7.1748 48.9608 7.26756 49.3796 7.43997C49.7969 7.61367 50.1368 7.84877 50.3829 8.13876L49.8237 8.68992C49.3943 8.19488 48.8097 7.95068 48.0618 7.95068C47.3876 7.95068 46.803 8.18056 46.3066 8.64419C45.8157 9.10917 45.5695 9.71135 45.5695 10.4506C45.5695 11.1899 45.8157 11.7972 46.3066 12.2622C46.803 12.7207 47.3876 12.9558 48.0618 12.9558C48.7775 12.9558 49.3796 12.7207 49.8545 12.257C50.1675 11.95 50.3454 11.5268 50.3923 10.9861H48.0618V10.2312H51.1709C51.2084 10.3944 51.219 10.5525 51.219 10.7053Z" fill="white" stroke="white" stroke-width="0.0983442" stroke-miterlimit="10"/>
<path d="M56.151 8.08668H53.2306V10.0719H55.8633V10.8269H53.2306V12.8122H56.151V13.5815H52.4038V7.31738H56.151V8.08668Z" fill="white" stroke="white" stroke-width="0.0983442" stroke-miterlimit="10"/>
<path d="M59.632 13.5815H58.8049V8.08668H57.0137V7.31738H61.4243V8.08668H59.632V13.5815Z" fill="white" stroke="white" stroke-width="0.0983442" stroke-miterlimit="10"/>
<path d="M64.6162 13.5815V7.31738H65.4417V13.5815H64.6162Z" fill="white" stroke="white" stroke-width="0.0983442" stroke-miterlimit="10"/>
<path d="M69.1008 13.5815H68.2809V8.08668H66.4824V7.31738H70.8987V8.08668H69.1008V13.5815Z" fill="white" stroke="white" stroke-width="0.0983442" stroke-miterlimit="10"/>
<path d="M79.249 12.7768C78.6159 13.4103 77.8323 13.7264 76.8974 13.7264C75.9563 13.7264 75.1727 13.4103 74.5402 12.7768C73.9083 12.1446 73.5942 11.3688 73.5942 10.4506C73.5942 9.53236 73.9083 8.75655 74.5402 8.12438C75.1727 7.49092 75.9563 7.1748 76.8974 7.1748C77.8267 7.1748 78.611 7.49092 79.2435 8.1296C79.8803 8.767 80.195 9.53758 80.195 10.4506C80.195 11.3688 79.8803 12.1446 79.249 12.7768ZM75.1511 12.2518C75.6275 12.7207 76.2065 12.9558 76.8974 12.9558C77.5821 12.9558 78.1666 12.7207 78.6374 12.2518C79.1126 11.7828 79.3535 11.1807 79.3535 10.4506C79.3535 9.72044 79.1126 9.11833 78.6374 8.64941C78.1666 8.18056 77.5821 7.94545 76.8974 7.94545C76.2065 7.94545 75.6275 8.18056 75.1511 8.64941C74.6766 9.11833 74.4357 9.72044 74.4357 10.4506C74.4357 11.1807 74.6766 11.7828 75.1511 12.2518Z" fill="white" stroke="white" stroke-width="0.0983442" stroke-miterlimit="10"/>
<path d="M81.355 13.5815V7.31738H82.3581L85.4781 12.1892H85.5143L85.4781 10.9849V7.31738H86.3035V13.5815H85.4418L82.1749 8.46936H82.1387L82.1749 9.67881V13.5815H81.355Z" fill="white" stroke="white" stroke-width="0.0983442" stroke-miterlimit="10"/>
<path d="M73.3916 22.7301C70.8776 22.7301 68.8241 24.5979 68.8241 27.1749C68.8241 29.7311 70.8776 31.6184 73.3916 31.6184C75.9104 31.6184 77.9639 29.7311 77.9639 27.1749C77.9639 24.5979 75.9104 22.7301 73.3916 22.7301ZM73.3916 29.8682C72.0123 29.8682 70.8254 28.7567 70.8254 27.1749C70.8254 25.5723 72.0123 24.4804 73.3916 24.4804C74.7708 24.4804 75.9626 25.5723 75.9626 27.1749C75.9626 28.7567 74.7708 29.8682 73.3916 29.8682ZM63.4262 22.7301C60.9074 22.7301 58.859 24.5979 58.859 27.1749C58.859 29.7311 60.9074 31.6184 63.4262 31.6184C65.9438 31.6184 67.9931 29.7311 67.9931 27.1749C67.9931 24.5979 65.9438 22.7301 63.4262 22.7301ZM63.4262 29.8682C62.0457 29.8682 60.8551 28.7567 60.8551 27.1749C60.8551 25.5723 62.0457 24.4804 63.4262 24.4804C64.8055 24.4804 65.9918 25.5723 65.9918 27.1749C65.9918 28.7567 64.8055 29.8682 63.4262 29.8682ZM51.5681 24.0925V25.9811H56.1874C56.0523 27.0365 55.6911 27.8123 55.1373 28.3531C54.463 29.0062 53.4129 29.7311 51.5681 29.7311C48.7253 29.7311 46.4992 27.491 46.4992 24.7155C46.4992 21.9399 48.7253 19.6998 51.5681 19.6998C53.1052 19.6998 54.2235 20.2863 55.049 21.0465L56.4122 19.7155C55.2577 18.6393 53.7219 17.8125 51.5681 17.8125C47.6698 17.8125 44.3936 20.9094 44.3936 24.7155C44.3936 28.5216 47.6698 31.6184 51.5681 31.6184C53.6751 31.6184 55.2577 30.9445 56.5018 29.6801C57.7767 28.4354 58.174 26.6851 58.174 25.2719C58.174 24.833 58.1366 24.4294 58.0697 24.0925H51.5681ZM100.058 25.5566C99.6814 24.5627 98.5216 22.7301 96.1588 22.7301C93.8176 22.7301 91.8686 24.5313 91.8686 27.1749C91.8686 29.6644 93.798 31.6184 96.3838 31.6184C98.4749 31.6184 99.6814 30.3737 100.177 29.6488L98.6261 28.6391C98.1079 29.3784 97.4029 29.8682 96.3838 29.8682C95.3709 29.8682 94.6443 29.415 94.1791 28.5216L100.267 26.0621L100.058 25.5566ZM93.8502 27.0365C93.798 25.3228 95.2135 24.4451 96.2271 24.4451C97.0218 24.4451 97.6961 24.833 97.921 25.3881L93.8502 27.0365ZM88.9017 31.348H90.903V18.2866H88.9017V31.348ZM85.6237 23.7202H85.5573C85.1074 23.2003 84.25 22.7301 83.1639 22.7301C80.8842 22.7301 78.7999 24.6841 78.7999 27.1893C78.7999 29.6801 80.8842 31.6184 83.1639 31.6184C84.25 31.6184 85.1074 31.1443 85.5573 30.6088H85.6237V31.2462C85.6237 32.9455 84.6944 33.8585 83.1946 33.8585C81.9721 33.8585 81.2136 32.9964 80.9001 32.2715L79.1601 32.9807C79.6616 34.1589 80.9899 35.6087 83.1946 35.6087C85.5407 35.6087 87.5212 34.2607 87.5212 30.981V23.0005H85.6237V23.7202ZM83.3348 29.8682C81.9555 29.8682 80.8012 28.741 80.8012 27.1893C80.8012 25.6232 81.9555 24.4804 83.3348 24.4804C84.6944 24.4804 85.7657 25.6232 85.7657 27.1893C85.7657 28.741 84.6944 29.8682 83.3348 29.8682ZM109.427 18.2866H104.64V31.348H106.637V26.3991H109.427C111.644 26.3991 113.818 24.833 113.818 22.3422C113.818 19.8527 111.638 18.2866 109.427 18.2866ZM109.48 24.5822H106.637V20.1035H109.48C110.969 20.1035 111.82 21.3116 111.82 22.3422C111.82 23.3531 110.969 24.5822 109.48 24.5822ZM121.817 22.7053C120.375 22.7053 118.876 23.327 118.259 24.705L120.031 25.4299C120.412 24.705 121.112 24.4699 121.854 24.4699C122.889 24.4699 123.939 25.0772 123.955 26.1496V26.2868C123.594 26.083 122.821 25.7813 121.87 25.7813C119.962 25.7813 118.018 26.8066 118.018 28.7201C118.018 30.4703 119.581 31.5975 121.337 31.5975C122.68 31.5975 123.422 31.0059 123.887 30.3175H123.955V31.3271H125.883V26.3168C125.883 24.001 124.112 22.7053 121.817 22.7053ZM121.577 29.863C120.924 29.863 120.014 29.5469 120.014 28.7567C120.014 27.7457 121.149 27.3578 122.131 27.3578C123.01 27.3578 123.422 27.5472 123.955 27.7966C123.799 29.0062 122.733 29.863 121.577 29.863ZM132.906 22.9914L130.612 28.6535H130.544L128.172 22.9914H126.02L129.584 30.904L127.55 35.307H129.636L135.127 22.9914H132.906ZM114.915 31.348H116.916V18.2866H114.915V31.348Z" fill="white"/>
<path d="M11.6384 7.87846C11.324 8.1998 11.1421 8.7 11.1421 9.34784V32.4558C11.1421 33.1037 11.324 33.6039 11.6384 33.9252L11.716 33.9957L24.9789 21.052V20.7464L11.716 7.80273L11.6384 7.87846Z" fill="url(#paint0_linear_1056_3887)"/>
<path d="M29.395 25.3697L24.979 21.053V20.7474L29.4004 16.4307L29.4994 16.4868L34.7355 19.3956C36.2298 20.221 36.2298 21.5793 34.7355 22.41L29.4994 25.3135L29.395 25.3697Z" fill="url(#paint1_linear_1056_3887)"/>
<path d="M29.4999 25.3129L24.9795 20.8994L11.6392 33.9255C12.1355 34.4349 12.9449 34.4964 13.8652 33.9869L29.4999 25.3129Z" fill="url(#paint2_linear_1056_3887)"/>
<path d="M29.4999 16.4862L13.8652 7.81215C12.9449 7.30801 12.1355 7.36935 11.6392 7.87878L24.9795 20.8997L29.4999 16.4862Z" fill="url(#paint3_linear_1056_3887)"/>
<defs>
<linearGradient id="paint0_linear_1056_3887" x1="23.8013" y1="32.6965" x2="6.27037" y2="14.7405" gradientUnits="userSpaceOnUse">
<stop stop-color="#00A0FF"/>
<stop offset="0.0066" stop-color="#00A1FF"/>
<stop offset="0.2601" stop-color="#00BEFF"/>
<stop offset="0.5122" stop-color="#00D2FF"/>
<stop offset="0.7604" stop-color="#00DFFF"/>
<stop offset="1" stop-color="#00E3FF"/>
</linearGradient>
<linearGradient id="paint1_linear_1056_3887" x1="36.6813" y1="20.8987" x2="10.7852" y2="20.8987" gradientUnits="userSpaceOnUse">
<stop stop-color="#FFE000"/>
<stop offset="0.4087" stop-color="#FFBD00"/>
<stop offset="0.7754" stop-color="#FFA500"/>
<stop offset="1" stop-color="#FF9C00"/>
</linearGradient>
<linearGradient id="paint2_linear_1056_3887" x1="27.0418" y1="18.5002" x2="3.2682" y2="-5.84934" gradientUnits="userSpaceOnUse">
<stop stop-color="#FF3A44"/>
<stop offset="1" stop-color="#C31162"/>
</linearGradient>
<linearGradient id="paint3_linear_1056_3887" x1="8.28114" y1="41.6138" x2="18.8971" y2="30.7407" gradientUnits="userSpaceOnUse">
<stop stop-color="#32A071"/>
<stop offset="0.0685" stop-color="#2DA771"/>
<stop offset="0.4762" stop-color="#15CF74"/>
<stop offset="0.8009" stop-color="#06E775"/>
<stop offset="1" stop-color="#00F076"/>
</linearGradient>
</defs>
</svg>
