<svg width="35" height="36" viewBox="0 0 35 36" fill="none" xmlns="http://www.w3.org/2000/svg">
<g clip-path="url(#clip0_1056_3938)">
<g clip-path="url(#clip1_1056_3938)">
<path d="M22.7502 18.2346C22.7502 19.6269 22.1971 20.9623 21.2125 21.9469C20.228 22.9314 18.8926 23.4846 17.5002 23.4846C16.1078 23.4846 14.7724 22.9314 13.7879 21.9469C12.8033 20.9623 12.2502 19.6269 12.2502 18.2346C12.2502 17.9353 12.2817 17.6431 12.3359 17.3596H10.5002V24.3543C10.5002 24.8408 10.8939 25.2346 11.3804 25.2346H23.6217C23.8549 25.2341 24.0783 25.1412 24.243 24.9762C24.4077 24.8111 24.5002 24.5875 24.5002 24.3543V17.3596H22.6644C22.7187 17.6431 22.7502 17.9353 22.7502 18.2346ZM17.5002 21.7346C17.96 21.7344 18.4151 21.6438 18.8398 21.4678C19.2646 21.2917 19.6505 21.0337 19.9755 20.7085C20.3005 20.3834 20.5582 19.9974 20.7341 19.5726C20.9099 19.1479 21.0003 18.6925 21.0002 18.2328C21.0001 17.7731 20.9094 17.3178 20.7333 16.8931C20.5574 16.4685 20.2993 16.0826 19.9742 15.7576C19.649 15.4326 19.263 15.1748 18.8382 14.999C18.4135 14.8232 17.9582 14.7327 17.4984 14.7328C16.57 14.7331 15.6796 15.1021 15.0232 15.7588C14.3668 16.4155 13.9982 17.306 13.9984 18.2346C13.9987 19.1631 14.3677 20.0535 15.0244 20.7098C15.6811 21.3662 16.5717 21.7348 17.5002 21.7346ZM21.7002 14.5596H23.7984C23.9379 14.5596 24.0715 14.5043 24.1703 14.4059C24.2691 14.3075 24.3247 14.1739 24.3252 14.0346V11.9363C24.3252 11.7966 24.2697 11.6627 24.1709 11.5638C24.0721 11.465 23.9381 11.4096 23.7984 11.4096H21.7002C21.5605 11.4096 21.4265 11.465 21.3277 11.5638C21.229 11.6627 21.1734 11.7966 21.1734 11.9363V14.0346C21.1752 14.3233 21.4114 14.5596 21.7002 14.5596ZM17.5002 1.43457C13.0446 1.43457 8.7714 3.20457 5.6208 6.35518C2.47019 9.50576 0.700195 13.7789 0.700195 18.2346C0.700195 22.6902 2.47019 26.9634 5.6208 30.114C8.7714 33.2646 13.0446 35.0346 17.5002 35.0346C19.7064 35.0346 21.891 34.6 23.9292 33.7557C25.9675 32.9115 27.8195 31.674 29.3796 30.114C30.9396 28.5539 32.1771 26.7019 33.0214 24.6637C33.8657 22.6254 34.3002 20.4407 34.3002 18.2346C34.3002 16.0284 33.8657 13.8437 33.0214 11.8055C32.1771 9.76721 30.9396 7.9152 29.3796 6.35518C27.8195 4.79515 25.9675 3.55768 23.9292 2.71339C21.891 1.86911 19.7064 1.43457 17.5002 1.43457ZM26.2502 25.0403C26.2502 26.1096 25.3752 26.9846 24.3059 26.9846H10.6944C9.62523 26.9846 8.75023 26.1096 8.75023 25.0403V11.4288C8.75023 10.3596 9.62523 9.4846 10.6944 9.4846H24.3059C25.3752 9.4846 26.2502 10.3596 26.2502 11.4288V25.0403Z" fill="white"/>
</g>
</g>
<defs>
<clipPath id="clip0_1056_3938">
<rect width="35" height="35" fill="white" transform="translate(0 0.734375)"/>
</clipPath>
<clipPath id="clip1_1056_3938">
<rect width="35" height="35" fill="white" transform="translate(0 0.734375)"/>
</clipPath>
</defs>
</svg>
