<svg width="35" height="37" viewBox="0 0 35 37" fill="none" xmlns="http://www.w3.org/2000/svg">
<g clip-path="url(#clip0_1056_3932)">
<g clip-path="url(#clip1_1056_3932)">
<path d="M17.4997 1.04492C8.22255 1.04492 0.702148 8.74442 0.702148 18.2425C0.702148 27.7405 8.22255 35.44 17.4997 35.44C26.7768 35.44 34.2972 27.7405 34.2972 18.2425C34.2972 8.74442 26.7768 1.04492 17.4997 1.04492ZM13.3878 25.3704H9.98626V14.1634H13.3878V25.3704ZM11.666 12.7876C10.5917 12.7876 9.89703 12.0084 9.89703 11.0446C9.89703 10.0611 10.6127 9.30509 11.7098 9.30509C12.8069 9.30509 13.4788 10.0611 13.4998 11.0446C13.4998 12.0084 12.8069 12.7876 11.666 12.7876ZM25.811 25.3704H22.4095V19.1597C22.4095 17.7139 21.916 16.7323 20.686 16.7323C19.7463 16.7323 19.1882 17.3969 18.9415 18.0364C18.8505 18.2639 18.8277 18.5864 18.8277 18.907V25.3687H15.4245V17.7373C15.4245 16.3381 15.3807 15.1684 15.3352 14.1616H18.2906L18.4463 15.7183H18.5145C18.9625 14.9874 20.0595 13.909 21.895 13.909C24.133 13.909 25.811 15.4443 25.811 18.744V25.3704Z" fill="white"/>
</g>
</g>
<defs>
<clipPath id="clip0_1056_3932">
<rect width="35" height="35.8281" fill="white" transform="translate(0 0.328125)"/>
</clipPath>
<clipPath id="clip1_1056_3932">
<rect width="34.9949" height="35.8281" fill="white" transform="translate(0.00244141 0.328125)"/>
</clipPath>
</defs>
</svg>
