<svg width="35" height="36" viewBox="0 0 35 36" fill="none" xmlns="http://www.w3.org/2000/svg">
<g clip-path="url(#clip0_1056_3935)">
<g clip-path="url(#clip1_1056_3935)">
<path d="M17.5002 1.43457C8.22174 1.43457 0.700195 8.9561 0.700195 18.2346C0.700195 27.5131 8.22174 35.0346 17.5002 35.0346C26.7787 35.0346 34.3002 27.5131 34.3002 18.2346C34.3002 8.9561 26.7787 1.43457 17.5002 1.43457ZM24.3339 15.1966C24.3409 15.3401 24.3427 15.4836 24.3427 15.6236C24.3427 19.9986 21.0159 25.0403 14.9294 25.0403C13.1309 25.0433 11.3699 24.5268 9.85794 23.5528C10.1152 23.5843 10.3794 23.5966 10.6472 23.5966C12.1977 23.5966 13.6239 23.0698 14.7562 22.1808C14.0662 22.1673 13.3976 21.9388 12.8436 21.5272C12.2896 21.1157 11.8779 20.5415 11.6657 19.8848C12.1612 19.9791 12.6717 19.9593 13.1584 19.8271C12.4095 19.6756 11.7361 19.2699 11.2522 18.6784C10.7684 18.0871 10.5039 17.3467 10.5037 16.5826V16.5423C10.9499 16.7891 11.4609 16.9396 12.0034 16.9571C11.3013 16.4897 10.8043 15.7717 10.614 14.9501C10.4237 14.1284 10.5545 13.265 10.9797 12.5366C11.8109 13.5586 12.8474 14.3946 14.0222 14.9906C15.197 15.5866 16.4839 15.9292 17.7994 15.9963C17.6322 15.2864 17.7042 14.541 18.0042 13.8762C18.3043 13.2114 18.8155 12.6643 19.4586 12.32C20.1016 11.9758 20.8404 11.8536 21.56 11.9725C22.2796 12.0914 22.9398 12.4447 23.4379 12.9776C24.1785 12.8311 24.8887 12.5594 25.5379 12.1743C25.2912 12.9411 24.7744 13.5921 24.0837 14.0066C24.7397 13.9276 25.3802 13.7512 25.9842 13.4833C25.5405 14.1481 24.9817 14.7283 24.3339 15.1966Z" fill="white"/>
</g>
</g>
<defs>
<clipPath id="clip0_1056_3935">
<rect width="35" height="35" fill="white" transform="translate(0 0.734375)"/>
</clipPath>
<clipPath id="clip1_1056_3935">
<rect width="35" height="35" fill="white" transform="translate(0 0.734375)"/>
</clipPath>
</defs>
</svg>
