<svg width="303" height="304" viewBox="0 0 303 304" fill="none" xmlns="http://www.w3.org/2000/svg">
<path d="M8.68516 163.397C9.89713 165.74 11.257 168.067 12.617 170.395L12.9811 171.03L11.7511 171.792L11.3869 171.156C9.99377 168.87 8.66704 166.501 7.41428 164.126L7.05013 163.49L8.36177 162.795L8.68516 163.397ZM16.9367 177.165C18.437 179.404 20.0037 181.56 21.6035 183.676L22.0341 184.23L20.8932 185.132L20.4626 184.578C18.8627 182.462 17.2553 180.272 15.7142 178.001L15.3169 177.406L16.5394 176.571L16.9367 177.165ZM116.102 148.795L116.841 148.719L116.993 150.199L116.253 150.275C114.848 150.419 113.424 150.752 112.09 151.225C111.044 151.594 110.013 152.111 109.03 152.735L108.395 153.099L107.634 151.869L108.269 151.505C109.325 150.873 110.464 150.308 111.584 149.931C113.051 149.295 114.581 148.914 116.102 148.795ZM103.614 157.14L103.19 157.744C101.819 159.678 101.174 162.137 101.306 164.889L101.342 165.595L99.8545 165.673L99.8194 164.967C99.6488 161.845 100.378 159.116 101.982 156.896L102.406 156.292L103.614 157.14ZM124.329 149.932C126.777 150.84 129.163 152.24 131.446 154.099L132.017 154.564L131.088 155.706L130.517 155.241C128.356 153.481 126.125 152.14 123.833 151.292L123.17 151.023L123.666 149.664L124.329 149.932ZM26.6839 189.846C28.4649 191.906 30.2715 193.851 32.1445 195.714L32.6822 196.22L31.6304 197.262L31.0928 196.757C29.2197 194.893 27.3723 192.915 25.5505 190.821L25.046 190.275L26.1462 189.34L26.6839 189.846ZM103.238 172.428C104.254 174.678 105.606 176.932 107.295 179.188L107.726 179.742L106.544 180.61L106.113 180.057C104.343 177.734 102.942 175.373 101.952 173.008L101.662 172.365L103.022 171.777L103.238 172.428ZM137.07 160.1C138.678 162.29 140.004 164.659 141.124 167.197L141.415 167.84L140.055 168.428L139.764 167.785C138.693 165.354 137.374 163.059 135.848 160.936L135.45 160.341L136.632 159.473L137.07 160.1ZM37.9703 201.135C40.0169 202.868 42.1299 204.52 44.2684 206.058L44.8725 206.482L44.0246 207.69L43.4205 207.266C41.282 205.729 39.1282 204.043 37.0409 202.276L36.47 201.812L37.4402 200.703L37.9703 201.135ZM112.534 185.079C114.399 186.869 116.446 188.603 118.625 190.173L119.229 190.597L118.341 191.772L117.737 191.348C115.476 189.711 113.388 187.944 111.482 186.122L110.944 185.616L111.955 184.541L112.534 185.079ZM143.495 174.28L143.645 175.012C143.866 176.073 144.046 177.101 144.193 178.17C144.401 179.831 144.46 181.507 144.405 183.157L144.367 183.871L142.905 183.834L142.944 183.12C143.007 181.544 142.954 179.942 142.754 178.355C142.615 177.36 142.435 176.332 142.255 175.304L142.105 174.572L143.495 174.28ZM50.9573 210.418C53.2618 211.751 55.666 212.962 58.0549 214.026L58.7178 214.294L58.107 215.627L57.4441 215.359C55.0144 214.263 52.5695 213.018 50.2242 211.652L49.5868 211.268L50.32 210.035L50.9573 210.418ZM125.306 194.459C127.603 195.719 130.008 196.93 132.43 197.952L133.093 198.221L132.523 199.587L131.86 199.319C129.323 198.271 126.919 197.06 124.581 195.767L123.944 195.384L124.636 194.117L125.306 194.459ZM65.5205 216.848C68.0679 217.633 70.6408 218.304 73.2318 218.786L73.9535 218.899L73.687 220.309L72.9653 220.196C70.3335 219.681 67.6866 219.018 65.0984 218.2L64.4023 217.972L64.8576 216.58L65.5205 216.848ZM143.07 190.545L142.842 191.241C141.983 193.796 140.739 196.241 139.183 198.568L138.759 199.172L137.518 198.365L137.942 197.761C139.431 195.515 140.609 193.152 141.45 190.786L141.678 190.09L143.07 190.545ZM81.074 219.813C83.7086 219.992 86.4096 220.088 89.0547 220.004L89.802 220.002L89.8389 221.456L89.0916 221.458C86.4058 221.509 83.6716 221.453 80.963 221.282L80.2489 221.243L80.3598 219.774L81.074 219.813ZM139.962 200.693C142.468 201.446 145.074 202.075 147.706 202.59L148.428 202.703L148.161 204.114L147.44 204.001C144.767 203.452 142.12 202.789 139.54 202.045L138.844 201.817L139.258 200.392L139.962 200.693ZM134.429 204.326L133.882 204.83C131.978 206.67 129.837 208.385 127.532 209.966L126.937 210.364L126.102 209.141L126.696 208.744C128.968 207.203 131.002 205.537 132.84 203.778L133.387 203.274L134.429 204.326ZM97.0259 219.374C99.6814 219.027 102.288 218.572 104.88 217.97L105.613 217.82L105.945 219.244L105.213 219.394C102.621 219.996 99.9403 220.458 97.2108 220.812L96.471 220.888L96.2862 219.449L97.0259 219.374ZM121.193 213.756L120.517 214.087C118.133 215.266 115.587 216.312 113.025 217.21L112.341 217.467L111.861 216.058L112.544 215.801C115.106 214.903 117.579 213.865 119.895 212.768L120.572 212.437L121.193 213.756ZM155.597 203.725C158.198 203.944 160.858 204.008 163.537 203.883L164.243 203.848L164.28 205.301L163.574 205.336C160.821 205.469 158.087 205.413 155.445 205.161L154.731 205.122L154.842 203.653L155.597 203.725ZM223.54 181.06L222.945 181.458C220.789 183.024 218.517 184.565 216.279 186.066L215.684 186.463L214.889 185.274L215.484 184.876C217.689 183.417 219.927 181.917 222.084 180.35L222.679 179.953L223.54 181.06ZM210.062 189.955L209.427 190.319C207.066 191.72 204.69 192.972 202.348 194.184L201.672 194.515L201.017 193.237L201.693 192.906C204.003 191.735 206.412 190.441 208.739 189.081L209.374 188.717L210.062 189.955ZM171.452 203.071C174.026 202.658 176.625 202.129 179.251 201.486L179.942 201.303L180.275 202.727L179.583 202.91C176.925 203.594 174.252 204.129 171.604 204.55L170.905 204.659L170.679 203.188L171.452 203.071ZM195.644 197.339L195.001 197.629C192.496 198.708 189.983 199.713 187.454 200.57L186.77 200.827L186.29 199.419L186.973 199.162C189.502 198.305 191.941 197.307 194.413 196.269L195.057 195.979L195.644 197.339Z" fill="black"/>
<path d="M233.991 179.458L239.206 166.889C239.206 166.889 279.67 148.163 280.176 147.625C280.648 147.128 298.598 128.992 298.598 128.992L270.932 136.575L228.721 157.947L233.991 179.458Z" fill="#F43E31"/>
<path d="M211.263 139.668L298.567 129.035L228.69 157.99L211.263 139.668Z" fill="#FF573C"/>
<path d="M239.176 166.927L257.512 186.463L298.568 129.03L239.176 166.927Z" fill="#FF573C"/>
</svg>
