<svg width="332" height="436" viewBox="0 0 332 436" fill="none" xmlns="http://www.w3.org/2000/svg">
<path d="M168.702 370.526C180.679 370.526 191.857 370.925 203.435 370.526C223.796 370.127 244.556 368.929 264.917 368.131C266.114 368.131 266.514 368.131 266.913 369.328C268.51 372.522 270.506 375.716 272.103 378.511C274.897 383.701 279.688 386.895 284.479 390.088C289.27 393.282 294.46 396.077 299.25 399.271C302.045 401.267 305.638 401.267 308.832 402.065C309.63 402.065 310.828 402.465 312.026 402.465C314.82 402.864 316.817 403.263 318.813 405.659C320.41 407.655 322.805 408.453 325.2 408.852C329.193 408.852 332.387 405.658 331.588 401.666C331.189 400.069 330.79 398.472 329.991 397.275C328.394 394.879 328.394 392.484 327.995 390.088C327.995 389.29 327.596 388.092 327.197 387.294C325.6 384.499 324.003 381.705 322.406 378.91C322.007 378.511 321.607 377.712 321.208 377.313C312.026 367.732 302.444 358.549 292.064 350.565C286.475 346.173 280.487 343.778 273.7 342.58C249.746 338.188 226.191 333.797 202.637 329.405C202.237 329.405 201.439 329.006 201.04 329.006C201.04 326.212 201.04 323.816 201.439 321.022C203.036 303.056 204.633 285.49 206.629 267.525C206.629 265.528 207.427 263.931 208.226 261.935C209.024 259.141 210.222 256.346 211.02 253.551C211.819 250.757 211.819 247.962 210.621 245.567C209.424 242.373 209.823 239.179 210.621 235.985C211.819 228.4 213.416 220.815 214.214 212.83C216.61 195.663 207.028 182.089 190.26 177.698C189.063 177.298 188.264 177.298 187.067 176.899C187.865 174.903 189.063 173.306 189.861 171.31C192.257 164.523 191.458 157.736 187.466 151.748C185.47 148.953 182.675 146.558 180.679 143.763C178.683 141.368 177.086 138.972 175.489 136.178C173.892 133.383 174.291 130.189 176.287 127.394C177.485 125.798 178.283 124.201 179.481 122.604C183.473 117.014 183.873 111.026 182.675 104.638C181.477 98.6498 178.683 93.4598 175.888 88.2698C174.291 85.4752 174.69 82.6806 177.086 80.2852C183.074 83.0798 189.063 82.6806 195.051 79.4867C199.443 77.0914 203.036 73.4983 205.032 68.7075C213.815 49.9436 213.017 31.579 200.64 14.4121C193.454 4.03207 182.675 -0.359473 170.299 0.0397586C161.915 0.43899 154.33 2.43514 146.345 5.22976C143.151 6.42746 139.558 7.62515 136.364 8.42361C132.372 9.6213 127.98 9.22207 123.988 8.42361C115.604 6.82669 107.62 8.42361 100.034 10.819C86.8596 15.2105 77.6773 23.9936 70.4911 35.1721C64.5026 44.7536 61.3088 55.5329 59.3127 66.7113C58.5142 70.7037 59.7119 74.696 60.1111 78.6883C60.5103 83.0798 61.3088 87.4714 60.1111 91.8629C58.9134 97.4521 56.1188 101.444 50.1303 102.642C47.3357 103.441 44.1419 104.239 41.3473 105.437C37.3549 107.034 34.5603 109.429 32.9634 113.022C29.3703 122.204 28.9711 131.387 32.1649 140.569C33.3626 143.763 35.3588 146.558 38.1534 148.554C38.5526 148.953 39.3511 149.352 39.7503 150.151C42.5449 152.945 42.9442 155.341 40.948 158.934C39.3511 161.329 37.3549 162.926 34.5603 163.724C32.1649 164.523 29.7696 165.321 27.3742 166.519C16.1957 170.511 8.61029 178.097 4.21875 189.275C-2.96741 207.241 0.226471 223.609 11.4049 238.78C17.3934 246.365 24.5796 252.354 32.9634 257.145C33.7619 257.544 34.1611 258.342 34.1611 259.141C38.9519 280.3 43.7426 301.459 50.5295 322.219C52.5257 328.208 54.9211 333.797 56.9173 339.785C58.5142 344.177 61.708 347.371 64.1034 350.565C66.4988 353.758 68.8942 356.553 71.2896 359.747C72.4873 360.945 73.685 362.142 75.2819 362.941C76.4796 363.739 76.4796 364.538 75.6811 365.735C67.6965 376.515 61.3088 388.092 54.9211 399.67C50.1303 408.453 45.3396 417.236 41.3473 426.419C40.5488 428.415 39.7503 430.411 38.9519 432.008C38.1534 434.403 38.9519 436 41.7465 436C44.9403 436 48.1342 436 51.328 436C96.8404 436 142.353 436 187.865 436C191.059 436 191.857 434.403 190.66 431.609C184.272 418.035 177.884 404.461 171.497 390.887C170.698 388.891 169.9 386.895 169.9 384.499C169.5 381.305 169.5 378.112 169.101 374.918C168.702 373.321 168.702 372.123 168.702 370.526ZM141.953 193.667C142.752 192.868 143.55 192.07 143.95 191.271C145.946 187.279 148.341 183.287 150.337 179.295C150.737 178.895 150.737 178.097 150.737 177.298C151.136 171.709 151.535 165.721 151.934 159.732C151.934 158.934 152.733 158.135 153.132 157.337C153.93 156.139 155.128 156.538 155.927 157.736C156.326 158.534 156.326 159.333 156.725 160.531C156.725 163.325 157.523 165.721 158.721 167.717C159.52 168.915 159.919 170.911 160.318 172.508C160.717 175.701 161.516 178.895 161.117 181.69C159.919 190.074 158.322 198.058 156.326 206.442C155.128 211.233 153.93 216.024 152.333 220.815C151.136 224.408 150.337 228.4 146.744 231.195C146.345 231.594 146.345 231.993 146.345 231.993C139.957 244.768 133.57 257.943 127.581 270.718C114.007 298.665 100.433 326.611 86.8596 354.557C84.4642 359.747 79.2742 360.545 75.6811 355.755C72.088 351.363 68.495 346.972 65.3011 342.181C64.1034 340.584 63.3049 339.386 62.5065 337.789C57.7157 326.212 54.1226 314.634 50.5295 302.657C44.9403 282.695 40.5488 262.734 36.5565 242.772C34.1611 231.195 31.7657 220.016 30.9673 208.438C30.1688 200.853 31.7657 194.066 37.7542 188.876C42.1457 184.484 47.735 181.69 53.3242 179.295C56.1188 178.097 58.5142 178.895 60.5103 180.891C61.708 182.089 62.9057 183.686 64.1034 185.283C67.2973 190.872 68.8942 197.26 70.0919 203.648C72.4873 213.229 72.4872 222.811 74.0842 232.392C74.8826 237.183 75.6811 241.974 76.4796 247.164C78.4757 260.338 80.8711 273.513 82.8673 286.688C83.2665 289.083 83.6657 291.079 84.065 293.874C84.4642 293.075 84.8634 292.676 85.2627 292.277C93.2473 281.498 101.232 271.118 109.217 260.338C116.802 250.358 124.387 239.978 131.973 229.598C132.771 228.799 132.771 228.001 132.771 226.803C131.973 220.815 131.174 214.826 130.775 209.237C130.376 205.644 130.376 202.051 131.973 198.458C134.368 192.469 136.763 186.481 139.159 180.492C140.357 177.298 142.353 174.104 145.147 172.108C145.946 171.31 146.744 170.511 147.543 170.112C147.543 170.112 147.942 170.112 147.942 170.511C147.543 172.108 147.942 173.306 147.143 174.504C144.349 180.093 143.55 186.081 142.752 191.671C141.554 192.07 141.953 192.469 141.953 193.667ZM312.026 397.674C311.227 397.674 310.03 397.275 309.231 397.275C305.638 396.875 302.045 396.077 298.851 393.682C293.262 390.089 287.673 386.495 282.084 382.902C280.487 381.705 278.89 380.507 278.091 378.91C274.897 374.119 272.103 369.328 269.308 364.538C268.51 363.34 268.11 362.941 266.913 362.941C251.343 363.739 235.374 364.538 219.804 364.937C205.032 365.336 190.26 365.336 175.888 365.735C173.892 365.735 171.497 365.735 169.5 365.735C169.5 364.937 169.5 364.138 169.9 363.739C171.497 356.553 172.694 348.968 174.291 341.782C175.09 338.588 175.489 334.995 176.687 331.801C178.683 327.409 180.679 323.018 181.877 318.626C184.272 307.847 186.667 297.467 188.663 286.688C189.063 285.49 189.462 284.691 190.26 283.494C193.454 280.3 196.249 277.106 199.044 274.311C199.443 273.912 199.842 273.513 200.241 273.114C199.044 284.292 197.846 295.071 197.047 306.25C196.249 314.634 195.85 323.018 195.45 331.402C195.45 332.2 195.85 332.998 196.648 332.998C199.044 333.398 201.439 333.797 203.834 334.196C226.59 338.588 249.746 342.979 272.502 347.371C277.293 348.169 281.684 348.968 285.677 352.162C293.661 358.549 301.247 364.538 308.433 371.724C312.824 376.515 318.014 380.507 320.41 386.895C321.208 388.891 322.406 390.887 322.406 393.282C322.406 395.279 322.805 397.275 324.402 398.872C325.2 399.67 325.6 400.868 325.6 401.666C325.6 402.465 325.6 403.263 325.2 403.662C324.801 404.062 324.003 404.062 323.204 403.662C322.406 403.263 321.208 402.465 320.41 401.666C317.216 397.674 313.623 393.282 310.429 388.891C310.03 388.492 309.63 387.693 308.832 387.294C304.44 385.298 300.448 382.902 296.057 380.906C295.258 380.507 294.46 380.507 293.262 380.108C293.661 380.906 293.661 381.305 294.06 381.305C297.654 385.697 301.247 390.089 306.437 392.484C309.63 394.081 311.227 395.678 312.026 397.674ZM93.6465 104.638C95.2434 102.642 96.8404 101.444 97.6388 99.4483C98.8365 96.6537 100.433 95.0568 103.228 93.8591C110.414 90.266 113.608 84.6767 113.608 77.0914C113.608 74.696 113.209 71.9014 113.209 69.506C113.209 65.5137 114.806 62.3198 118 59.9244C120.395 58.3275 121.992 58.3275 123.988 60.3236C124.787 61.1221 125.186 61.5213 125.984 62.3198C130.376 68.3083 135.566 73.099 141.554 77.4906C149.938 83.479 158.721 88.6691 169.9 87.0721C169.101 92.2621 168.702 97.4521 167.504 102.642C166.706 107.034 165.907 111.425 164.31 115.418C160.318 124.6 153.531 131.387 145.547 137.375C143.151 138.972 140.756 139.371 137.961 138.174C126.383 132.984 115.604 126.197 106.422 117.414C104.027 115.418 102.43 113.022 102.43 109.828C102.43 108.631 102.03 107.433 101.631 106.235C101.232 106.235 101.232 106.634 100.833 106.634C98.038 108.631 97.6388 108.631 94.8442 106.235C94.445 105.836 94.0457 105.038 93.6465 104.638ZM145.946 163.325C143.55 165.721 141.554 167.717 139.558 169.713C137.562 171.31 135.965 173.705 134.767 176.101C132.372 181.291 130.376 186.481 127.98 192.07C125.585 197.659 123.988 203.248 124.787 209.237C124.787 210.435 124.787 211.233 125.186 212.83C108.817 202.051 96.4411 188.078 85.6619 171.709C86.4603 171.31 87.2588 170.911 87.658 170.511C94.8442 166.918 102.03 163.325 109.217 159.732C110.414 159.333 110.813 158.534 110.414 157.736C109.616 150.151 108.817 142.166 108.019 134.581C107.62 130.988 107.22 127.794 106.422 124.201C109.217 126.596 112.011 128.592 114.806 130.588C121.992 135.778 129.577 140.569 137.961 143.364C138.36 143.364 138.76 144.162 138.76 144.561C139.558 149.352 140.756 154.143 141.554 158.934C142.353 161.329 142.752 163.325 145.946 163.325ZM155.927 225.206C155.927 224.408 156.326 224.008 156.326 224.008C157.923 218.02 159.919 212.031 161.117 206.043C162.713 199.256 163.512 192.469 165.109 186.081C165.907 182.089 165.907 178.097 165.109 174.504C165.109 173.705 165.109 173.306 165.109 172.508C166.307 172.508 167.105 173.306 167.504 174.504C168.303 177.298 169.5 180.093 170.299 183.287C172.694 191.671 174.69 200.055 175.489 208.838C175.888 212.83 175.489 217.221 174.291 221.214C173.093 224.408 170.698 226.005 167.504 226.005C163.512 225.605 159.919 225.605 155.927 225.206ZM205.83 229.997C200.241 214.028 194.652 198.058 189.063 182.089C189.462 182.089 189.861 182.488 190.26 182.488C203.834 186.88 211.02 198.058 209.024 212.031C208.226 217.221 207.028 222.411 206.23 227.601C206.23 228.4 206.23 229.198 205.83 229.997Z" fill="#1F1F21"/>
<path d="M31.3228 220.216C32.4947 227.247 36.3035 246.535 37.7684 255.081C38.1102 256.155 37.7684 258.186 37.7684 260.061C37.7684 262.405 34.985 259.768 34.6921 258.303C34.3991 256.839 31.0299 256.985 24.8773 252.151C18.7246 247.317 14.6229 244.094 8.47031 236.476C2.3177 228.859 0.559814 215.235 0.413315 208.936C0.26683 202.637 0.413315 191.064 8.47031 179.638C16.5273 168.212 30.4675 165.629 35.5711 163.377C40.5517 161.18 42.6026 156.346 42.3096 153.856C42.0166 151.365 36.157 146.971 33.5202 143.748C30.8834 140.525 30.1509 132.907 30.1509 131.589C30.1509 130.271 29.272 128.073 31.4693 117.526C33.6667 106.979 43.4816 104.049 50.0736 102.73C56.5954 101.426 58.0988 97.5407 59.8324 93.0605L59.8885 92.9155C61.6464 88.3743 59.8885 76.655 59.1561 72.4068C58.4236 68.1586 59.5955 63.9104 59.8885 62.5919C60.1229 61.5372 62.8183 52.2888 64.1367 47.7964C73.3656 25.9693 81.4226 22.893 85.5244 18.4983C89.6261 14.1035 108.67 5.31411 121.561 7.95094C134.452 10.5878 139.286 7.51147 140.312 7.21849C141.337 6.92551 155.547 2.09131 162.285 0.772898C169.024 -0.545518 177.227 -0.399027 187.042 2.97026C196.857 6.33954 205.207 19.2307 208.43 29.4851C211.653 39.7394 211.36 42.8157 210.188 52.0446C209.016 61.2735 205.793 65.3753 204.914 68.7445C204.035 72.1138 200.08 76.0691 197.59 77.9735C195.099 79.8778 190.265 81.9287 185.578 82.2217C181.827 82.4561 178.351 81.0498 177.081 80.3173C173.448 83.0127 175.47 87.9837 176.935 90.1322L180.45 97.4567C181.525 100.094 183.615 106.481 183.38 110.934C183.087 116.5 180.45 120.895 180.011 121.628C179.571 122.36 177.374 125.29 175.177 129.538C173.419 132.937 175.714 136.912 177.081 138.474C178.23 140.485 183.673 147.41 186.163 150.047C188.654 152.684 189.679 155.174 191.144 161.62C192.316 166.776 188.8 173.925 186.896 176.855L169.903 180.81C169.122 177.099 167.032 170.175 164.922 172.167C162.813 174.159 161.211 173.681 160.674 173.192C160.576 171.972 160.059 169.179 158.77 167.772C157.481 166.366 156.865 162.303 156.719 160.448C156.572 159.276 155.869 156.815 154.229 156.346C152.178 155.76 152.324 156.346 151.299 157.811C150.478 158.983 150.566 159.276 150.713 159.276L150.42 164.256C150.127 164.159 148.779 163.846 145.732 163.377C142.685 162.909 142.216 160.057 142.363 158.69C141.581 154.49 139.931 145.769 139.579 144.48C139.14 142.869 138.701 143.015 137.968 143.015C137.382 143.015 127.372 137.742 122.44 135.105C117.801 131.736 108.318 124.821 107.498 124.118C106.678 123.415 106.375 123.825 106.326 124.118L109.988 158.69L85.2314 172.167L61.9394 182.714C60.4745 180.077 55.3473 178.466 54.1754 178.613C53.0034 178.759 47.8763 180.81 45.9719 181.835C44.0675 182.861 33.8131 188.867 31.3228 196.484C28.5728 204.897 29.8707 211.503 31.3228 220.216Z" fill="#1F1F21"/>
<path d="M141.951 193.667C141.951 192.469 141.552 192.07 141.552 191.271C142.351 185.283 143.149 179.295 145.944 174.105C146.742 172.907 146.343 171.31 146.742 170.112C146.742 170.112 146.343 170.112 146.343 169.713C145.545 170.511 144.746 171.31 143.948 171.709C141.153 174.105 139.157 176.899 137.959 180.093C135.564 186.081 133.168 192.07 130.773 198.058C129.176 201.651 129.176 205.245 129.575 208.838C129.975 214.826 130.773 220.815 131.571 226.404C131.571 227.601 131.571 228.4 130.773 229.198C123.188 239.179 115.602 249.559 108.017 259.939C100.032 270.718 92.0475 281.098 84.0629 291.878C83.6637 292.277 83.2645 292.676 82.8652 293.475C82.466 291.079 82.0668 288.684 81.6675 286.288C79.6714 273.114 77.276 259.939 75.2799 246.765C74.4814 241.974 73.6829 237.183 72.8845 231.993C71.2876 222.411 70.8883 212.431 68.8922 203.248C67.2952 196.861 66.0975 190.872 62.9037 184.884C62.1052 183.287 60.9075 181.69 59.3106 180.492C57.3145 178.496 54.9191 177.698 52.1244 178.895C46.5352 181.291 40.946 184.085 36.5544 188.477C30.566 193.667 29.3683 200.454 29.7675 208.039C30.566 219.617 33.3606 231.195 35.3568 242.373C39.3491 262.335 43.7406 282.695 49.3298 302.258C52.5237 314.235 56.1168 326.212 61.3068 337.39C62.1052 338.987 62.9037 340.584 64.1014 341.782C67.6945 346.173 71.2875 350.565 74.4814 355.355C78.0745 359.747 83.2645 359.348 85.6599 354.158C99.2337 326.212 112.808 298.265 126.381 270.319C132.769 257.544 139.157 244.369 145.145 231.594C145.145 231.195 145.545 230.795 145.545 230.795C149.138 228.4 149.936 224.408 151.134 220.415C152.731 215.625 153.928 210.834 155.126 206.043C156.723 198.058 158.719 189.675 159.917 181.291C160.316 178.097 159.518 174.903 159.118 172.108C158.719 170.511 158.719 168.915 157.521 167.318C155.925 164.922 155.525 162.527 155.525 160.131C155.525 159.333 155.126 158.135 154.727 157.337C154.328 156.139 152.731 155.74 151.932 156.938C151.533 157.736 150.735 158.535 150.735 159.333C150.335 165.321 149.936 170.911 149.936 176.899C149.936 177.698 149.936 178.496 149.537 178.895C147.541 182.888 145.545 186.88 143.149 190.872C143.548 192.07 142.75 192.469 141.951 193.667Z" fill="white"/>
<path d="M312.029 397.674C310.831 395.678 309.633 394.48 307.637 393.283C302.447 390.488 298.854 386.096 295.261 382.104C294.862 381.705 294.862 381.306 294.462 380.906C295.66 381.306 296.459 381.306 297.257 381.705C301.649 383.701 305.641 385.697 310.032 388.092C310.831 388.492 311.23 389.29 311.629 389.689C314.823 394.081 318.017 398.073 321.61 402.465C322.409 403.263 323.207 404.062 324.405 404.461C324.804 404.86 326.002 404.461 326.401 404.461C326.8 404.062 326.8 403.263 326.8 402.465C326.401 401.267 326.002 400.469 325.602 399.67C324.405 398.073 323.606 396.077 323.606 394.081C323.606 391.686 322.409 389.689 321.61 387.693C318.815 381.306 314.025 377.313 309.633 372.522C302.447 365.336 294.862 358.949 286.877 352.96C282.885 349.766 278.493 348.968 273.702 348.169C250.946 343.778 227.791 339.386 205.035 334.995C202.639 334.596 200.244 334.196 197.848 333.797C196.651 333.797 196.651 333.398 196.651 332.2C197.05 323.816 197.848 315.432 198.248 307.049C199.046 296.269 200.244 285.091 201.442 273.912C201.042 274.312 200.643 274.711 200.244 275.11C197.449 278.304 194.255 281.498 191.461 284.292C190.662 285.091 190.263 286.289 189.864 287.486C187.868 298.266 185.472 309.045 183.077 319.425C181.879 324.216 179.883 328.607 177.887 332.599C176.29 335.793 175.891 339.386 175.492 342.58C173.895 349.766 172.697 357.352 171.1 364.538C171.1 364.937 171.1 365.736 170.701 366.534C173.096 366.534 175.092 366.534 177.088 366.534C191.86 366.135 206.632 366.135 221.004 365.736C236.574 365.336 252.543 364.538 268.113 363.739C269.311 363.739 270.109 364.139 270.509 365.336C273.303 370.127 276.098 374.918 279.292 379.709C280.09 381.306 281.687 382.503 283.284 383.701C288.873 387.294 294.462 390.887 300.052 394.48C303.245 396.476 306.839 397.674 310.432 398.073C310.432 397.275 311.23 397.275 312.029 397.674Z" fill="white"/>
<path d="M93.6468 104.64C94.0461 105.039 94.4453 105.438 95.2438 106.237C98.0384 108.632 98.0384 108.632 101.232 106.636C101.232 106.636 101.631 106.636 102.031 106.237C102.43 107.434 102.829 108.632 102.829 109.83C103.228 113.023 104.825 115.419 106.821 117.415C116.004 126.198 126.783 132.985 138.361 138.175C141.155 139.373 143.551 138.973 145.946 137.377C154.33 131.787 160.718 124.601 164.71 115.419C166.307 111.427 167.105 107.035 167.904 102.643C168.702 97.4534 169.501 92.2634 170.299 87.0734C159.121 88.6703 150.338 83.0811 141.954 77.4919C135.965 73.4996 130.775 68.3096 126.384 62.3211C125.985 61.5226 125.186 60.7242 124.388 60.3249C121.992 58.3288 120.795 58.3288 118.399 59.9257C115.205 62.3211 113.608 65.5149 113.608 69.5072C113.608 71.9026 114.008 74.6972 114.008 77.0926C114.008 85.0773 110.814 90.6665 103.628 93.8603C101.232 95.058 99.2361 96.655 98.0384 99.4496C96.4414 101.446 94.8445 103.043 93.6468 104.64Z" fill="white"/>
<path d="M145.944 163.328C142.75 163.328 142.351 160.932 142.351 158.936C141.553 154.145 140.754 149.354 139.557 144.564C139.557 144.164 139.157 143.366 138.758 143.366C130.374 140.571 122.789 135.781 115.603 130.591C112.808 128.594 110.013 126.598 107.219 124.203C107.618 127.796 108.416 130.99 108.816 134.583C109.614 142.168 110.413 150.153 111.211 157.738C111.211 158.936 110.812 159.335 110.013 159.734C102.827 163.328 95.6411 166.921 88.455 170.514C87.6565 170.913 87.2573 171.312 86.4588 171.711C96.8388 187.681 109.614 202.053 125.983 212.832C125.983 211.235 125.983 210.437 125.583 209.239C125.184 203.251 126.382 197.262 128.777 192.072C131.173 186.882 133.169 181.692 135.564 176.103C136.762 173.708 137.96 171.312 140.355 169.715C141.553 167.719 143.549 165.723 145.944 163.328Z" fill="white"/>
<path d="M155.927 225.208C159.919 225.208 163.512 225.608 167.505 225.608C170.698 225.608 173.094 223.611 174.291 220.817C175.888 216.824 175.888 212.832 175.489 208.441C175.09 199.658 172.695 191.274 170.299 182.89C169.501 180.095 168.303 177.301 167.505 174.107C167.105 172.909 166.307 172.111 165.109 172.111C165.109 172.909 165.109 173.308 165.109 174.107C165.908 178.099 165.908 181.692 165.109 185.684C163.512 192.471 162.714 199.258 161.117 205.646C159.52 211.634 157.923 217.623 156.326 223.611C155.927 224.011 155.927 224.41 155.927 225.208Z" fill="white"/>
<path d="M205.831 229.998C205.831 229.199 206.23 228.401 206.23 227.602C207.029 222.412 208.226 217.222 209.025 212.032C211.021 198.059 203.835 186.881 190.261 182.489C189.862 182.489 189.463 182.489 189.063 182.09C194.653 198.059 200.242 214.029 205.831 229.998Z" fill="white"/>
<path fill-rule="evenodd" clip-rule="evenodd" d="M141.107 128.176C139.544 128.7 137.848 128.811 136.216 128.404C134.736 128.035 133.196 127.152 132.068 125.947C131.067 124.876 130.392 123.553 130.357 122.112C130.353 121.947 130.406 121.807 130.492 121.697C130.585 121.578 130.718 121.494 130.862 121.454C131.01 121.412 131.169 121.418 131.307 121.474C131.431 121.525 131.54 121.614 131.611 121.75C131.785 121.96 131.959 122.167 132.133 122.369C133.53 123.956 134.868 125.13 136.886 125.488C137.981 125.682 139.06 125.531 140.04 125.126C141.088 124.692 142.022 123.967 142.74 123.058C143.064 122.647 143.459 122.469 143.853 122.45C144.298 122.428 144.747 122.617 145.093 122.935C145.433 123.247 145.669 123.68 145.708 124.142C145.742 124.547 145.627 124.976 145.29 125.369C144.181 126.663 142.715 127.638 141.107 128.176Z" fill="#FD3030"/>
<path fill-rule="evenodd" clip-rule="evenodd" d="M139.017 109.635C140.256 110.388 142.144 112.144 140.811 114.011C139.242 115.658 136.983 113.77 135.87 112.916C134.837 112.255 133.678 113.956 134.635 114.729C142.68 120.685 145.944 109.832 139.644 108.749C138.95 108.63 138.692 109.402 139.017 109.635Z" fill="#231F20"/>
<path fill-rule="evenodd" clip-rule="evenodd" d="M125.449 103.08C124.928 102.746 124.314 102.632 123.634 102.941C123.103 103.183 122.171 103.988 121.522 105.047C121.079 105.772 120.764 106.621 120.829 107.507C120.845 107.712 120.769 107.864 120.649 107.976C120.554 108.064 120.418 108.129 120.257 108.15C120.121 108.167 119.968 108.152 119.844 108.113C119.608 108.039 119.483 107.886 119.436 107.761C118.982 106.555 119.178 105.209 119.687 103.995C120.373 102.357 121.621 100.984 122.438 100.542C123.836 99.7842 125.486 99.7494 126.886 100.521C128.079 101.178 128.824 102.238 129.565 103.319C129.723 103.549 129.879 103.777 130.041 104.001C130.365 104.45 130.397 104.895 130.272 105.277C130.133 105.7 129.778 106.057 129.335 106.244C128.926 106.417 128.45 106.441 128.029 106.264C127.674 106.114 127.348 105.822 127.142 105.326C126.794 104.491 126.215 103.57 125.449 103.08Z" fill="#673502"/>
<path fill-rule="evenodd" clip-rule="evenodd" d="M128.074 92.3536C127.36 93.0497 126.514 93.1575 125.659 93.2534C125.183 93.3072 124.804 93.3506 124.431 93.4349C123.404 93.6665 122.39 94.0155 121.464 94.518C120.497 95.0434 119.442 95.6769 118.684 96.4886C118.503 96.6817 118.333 96.8844 118.163 97.0875C118.008 97.2727 117.858 97.451 117.7 97.6229C117.519 97.8204 117.347 98.0273 117.176 98.2338C117.071 98.4079 117.05 98.4508 117.029 98.4954C116.996 98.5624 116.959 98.6374 116.917 98.7178C116.858 98.828 116.79 98.9486 116.719 99.058C116.6 99.2578 116.536 99.3129 116.481 99.3375C116.389 99.3783 116.302 99.3984 116.218 99.3875C116.139 99.3773 116.065 99.3394 115.991 99.2773C115.624 98.9674 115.516 98.4587 115.527 97.9188C115.544 97.0995 115.846 96.1924 116.125 95.6348C116.772 94.3391 117.671 92.9921 118.751 92.0251C119.984 90.9212 121.332 90.0855 122.881 89.5097C123.844 89.1517 124.958 88.8231 126.007 88.8646C126.761 88.8945 127.482 89.1189 128.077 89.6792C128.443 90.0232 128.618 90.5124 128.618 91.0014C128.618 91.5 128.436 92.0016 128.074 92.3536Z" fill="#673502"/>
<path fill-rule="evenodd" clip-rule="evenodd" d="M154.283 104.934C153.926 105.12 153.647 105.176 153.25 105.057C153.031 104.991 152.815 104.865 152.645 104.696C152.477 104.528 152.356 104.319 152.309 104.087C152.193 103.515 151.88 102.979 151.434 102.63C151.053 102.332 150.571 102.174 150.038 102.263C149.462 102.359 148.913 102.728 148.535 103.164C148.409 103.31 148.31 103.475 148.21 103.639C148.024 103.947 147.843 104.233 147.586 104.458C147.489 104.544 147.342 104.604 147.2 104.604C147.142 104.604 147.083 104.594 147.028 104.577C146.454 104.002 146.344 103.565 146.363 103.132C146.382 102.678 146.561 102.218 146.85 101.79C147.529 100.784 148.817 99.9586 149.686 99.7718C150.877 99.5159 152.059 99.8231 153.007 100.488C153.983 101.172 154.705 102.235 154.931 103.432C154.985 103.72 154.962 104.031 154.852 104.301C154.745 104.565 154.558 104.791 154.283 104.934Z" fill="#673502"/>
<path fill-rule="evenodd" clip-rule="evenodd" d="M155.735 98.7249C155.69 98.7994 155.627 98.8507 155.557 98.8815C155.484 98.9138 155.402 98.9231 155.323 98.9099C155.245 98.8967 155.171 98.8612 155.112 98.807C155.055 98.7551 155.012 98.6862 154.993 98.6018C154.518 96.5183 153.597 94.9682 151.631 93.9686C150.664 93.4769 149.552 93.1645 148.499 92.9154C148.193 92.843 147.87 92.7961 147.545 92.7485C146.524 92.5996 145.497 92.429 144.832 91.6043C144.431 91.1075 144.263 90.4722 144.358 89.8912C144.447 89.3442 144.767 88.8426 145.348 88.542C146.795 87.794 148.593 88.528 150.054 89.1532C150.162 89.1996 150.268 89.2451 150.372 89.2891C151.801 89.8921 153.104 90.6881 154.175 91.8266C155.025 92.7297 155.813 94.0648 156.13 95.4383C156.394 96.581 156.332 97.7475 155.735 98.7249Z" fill="#673502"/>
</svg>
