<svg width="369" height="13" viewBox="0 0 369 13" fill="none" xmlns="http://www.w3.org/2000/svg">
<path d="M227.257 6.51406C236.088 0.196031 246.648 0.193091 255.29 6.50625C264.124 12.8194 274.684 12.8164 283.322 6.49845C292.153 0.18042 302.713 0.177479 311.355 6.49064C320.189 12.8037 330.749 12.8008 339.387 6.48283C348.218 0.164808 358.778 0.161867 367.42 6.47503" stroke="white" stroke-width="2.31111" stroke-miterlimit="10" stroke-linecap="round" stroke-linejoin="round"/>
<path d="M114.629 6.51406C123.46 0.196031 134.02 0.193091 142.662 6.50625C151.496 12.8194 162.056 12.8164 170.694 6.49845C179.525 0.18042 190.085 0.177479 198.727 6.49064C207.561 12.8037 218.121 12.8008 226.759 6.48283C235.59 0.164808 246.15 0.161867 254.792 6.47503" stroke="white" stroke-width="2.31111" stroke-miterlimit="10" stroke-linecap="round" stroke-linejoin="round"/>
<path d="M2.00228 6.51406C10.8327 0.196031 21.3929 0.193091 30.0348 6.50625C38.8688 12.8194 49.429 12.8164 58.0674 6.49845C66.8978 0.18042 77.458 0.177479 86.0999 6.49064C94.9338 12.8037 105.494 12.8008 114.132 6.48283C122.963 0.164808 133.523 0.161867 142.165 6.47503" stroke="white" stroke-width="2.31111" stroke-miterlimit="10" stroke-linecap="round" stroke-linejoin="round"/>
</svg>
