<svg width="41" height="42" viewBox="0 0 41 42" fill="none" xmlns="http://www.w3.org/2000/svg">
    <circle cx="20.9999" cy="22.0001" r="20" fill="#0C1011" />
    <circle cx="19.9999" cy="20.0001" r="19.5" fill="#FCFFFE" stroke="black" />
    <path
        d="M20.9099 24.4701L16.6199 27.2001L16.4399 26.5101H25.9799V29.0001H13.3799V26.5101C14.8399 25.5901 16.1399 24.8101 17.2799 24.1701C18.4199 23.5101 19.3799 22.9201 20.1599 22.4001C20.9599 21.8801 21.5699 21.3501 21.9899 20.8101C22.4099 20.2701 22.6199 19.6501 22.6199 18.9501C22.6199 18.4301 22.4999 17.9701 22.2599 17.5701C22.0199 17.1501 21.6499 16.8301 21.1499 16.6101C20.6499 16.3701 20.0099 16.2501 19.2299 16.2501C18.2299 16.2501 17.3899 16.5201 16.7099 17.0601C16.0299 17.5801 15.6799 18.2801 15.6599 19.1601H13.0499C12.9699 18.1201 13.1899 17.1901 13.7099 16.3701C14.2299 15.5501 14.9699 14.9001 15.9299 14.4201C16.8899 13.9401 17.9799 13.7001 19.1999 13.7001C20.1799 13.7001 21.0599 13.8301 21.8399 14.0901C22.6199 14.3501 23.2799 14.7101 23.8199 15.1701C24.3799 15.6101 24.7999 16.1401 25.0799 16.7601C25.3799 17.3601 25.5299 18.0101 25.5299 18.7101C25.5299 19.3101 25.4299 19.8601 25.2299 20.3601C25.0299 20.8601 24.7299 21.3401 24.3299 21.8001C23.9499 22.2401 23.4699 22.6801 22.8899 23.1201C22.3299 23.5601 21.6699 24.0101 20.9099 24.4701Z"
        fill="black" />
</svg>