<svg width="41" height="42" viewBox="0 0 41 42" fill="none" xmlns="http://www.w3.org/2000/svg">
<circle cx="20.9999" cy="22.0001" r="20" fill="#0C1011"/>
<circle cx="19.9999" cy="20.0001" r="19.5" fill="#F4FEFF" stroke="black"/>
<path d="M20.0999 20.3601L20.1299 20.2101C21.0099 20.2701 21.8199 20.3901 22.5599 20.5701C23.3199 20.7501 23.9699 21.0301 24.5099 21.4101C25.0699 21.7901 25.4999 22.2901 25.7999 22.9101C26.1199 23.5301 26.2799 24.2901 26.2799 25.1901C26.2799 26.2501 25.9999 27.2001 25.4399 28.0401C24.8799 28.9001 24.0999 29.5801 23.0999 30.0801C22.0999 30.5801 20.9299 30.8301 19.5899 30.8301C18.3099 30.8301 17.1599 30.5701 16.1399 30.0501C15.1399 29.5501 14.3599 28.8601 13.7999 27.9801C13.2599 27.1001 13.0299 26.1201 13.1099 25.0401H15.7499C15.7499 25.6601 15.8999 26.2101 16.1999 26.6901C16.5199 27.1901 16.9599 27.5801 17.5199 27.8601C18.0999 28.1401 18.7899 28.2801 19.5899 28.2801C20.7499 28.2801 21.6599 27.9801 22.3199 27.3801C22.9999 26.7801 23.3399 25.9601 23.3399 24.9201C23.3399 23.9001 22.9699 23.1101 22.2299 22.5501C21.4899 21.9701 20.4599 21.6801 19.1399 21.6801H17.1899V19.2201H19.1399C20.0199 19.2201 20.7499 19.1001 21.3299 18.8601C21.9099 18.6201 22.3399 18.2801 22.6199 17.8401C22.8999 17.3801 23.0399 16.8401 23.0399 16.2201C23.0399 15.3401 22.7499 14.6301 22.1699 14.0901C21.6099 13.5501 20.7399 13.2801 19.5599 13.2801C18.5199 13.2801 17.6699 13.5601 17.0099 14.1201C16.3499 14.6601 16.0099 15.3701 15.9899 16.2501H13.3799C13.2999 15.4501 13.4099 14.7201 13.7099 14.0601C14.0099 13.3801 14.4499 12.7901 15.0299 12.2901C15.6099 11.7701 16.2899 11.3801 17.0699 11.1201C17.8499 10.8401 18.6799 10.7001 19.5599 10.7001C20.8599 10.7001 21.9899 10.9301 22.9499 11.3901C23.9099 11.8501 24.6499 12.4801 25.1699 13.2801C25.6899 14.0801 25.9499 14.9901 25.9499 16.0101C25.9499 16.8501 25.7999 17.5501 25.4999 18.1101C25.2199 18.6701 24.8199 19.1101 24.2999 19.4301C23.7799 19.7501 23.1599 19.9801 22.4399 20.1201C21.7199 20.2601 20.9399 20.3401 20.0999 20.3601Z" fill="black"/>
</svg>
