<svg width="445" height="23" viewBox="0 0 445 23" fill="none" xmlns="http://www.w3.org/2000/svg">
<path d="M2 11.5C17.4384 -1.16667 35.8973 -1.16667 51 11.5C66.4384 24.1667 84.8973 24.1667 100 11.5C115.438 -1.16667 133.897 -1.16667 149 11.5C164.438 24.1667 182.897 24.1667 198 11.5C213.438 -1.16667 231.897 -1.16667 247 11.5" stroke="white" stroke-width="3.15329" stroke-miterlimit="10" stroke-linecap="round" stroke-linejoin="round"/>
<path d="M198 11.5C213.438 -1.16667 231.897 -1.16667 247 11.5C262.438 24.1667 280.897 24.1667 296 11.5C311.438 -1.16667 329.897 -1.16667 345 11.5C360.438 24.1667 378.897 24.1667 394 11.5C409.438 -1.16667 427.897 -1.16667 443 11.5" stroke="white" stroke-width="3.15329" stroke-miterlimit="10" stroke-linecap="round" stroke-linejoin="round"/>
</svg>
