<svg width="98" height="110" viewBox="0 0 98 110" fill="none" xmlns="http://www.w3.org/2000/svg">
<rect x="5" y="20" width="74" height="92" rx="5" transform="rotate(-13 5 20)" fill="#1F1F21"/>
<rect x="0.599661" y="17.3746" width="73" height="91" rx="4.5" transform="rotate(-13 0.599661 17.3746)" fill="#FDB8A9" stroke="#1F1F21"/>
<g clip-path="url(#clip0_1166_9255)">
<path d="M50.9814 37.6279V40.5058C50.9814 42.3525 49.8522 43.9348 48.247 44.6016L48.8847 47.3271L47.4846 44.8394C47.1826 44.9043 46.8694 44.9394 46.5478 44.9394H43.6699C43.3484 44.9394 43.0353 44.9045 42.7332 44.8394L41.333 47.3271L41.9708 44.6016C40.3654 43.9348 39.2363 42.3523 39.2363 40.5058V37.6279C39.2363 35.1793 41.2213 33.1943 43.6699 33.1943H46.5478C48.9965 33.1943 50.9814 35.1793 50.9814 37.6279Z" fill="#FD5530"/>
<path d="M53.0845 53.3308L51.3361 54.1498C51.2154 54.2063 51.0807 54.2257 50.9489 54.2057C50.8171 54.1856 50.6943 54.1268 50.5959 54.0369L47.7372 55.152C47.6126 55.2007 47.4987 55.2734 47.4021 55.3661C47.3056 55.4587 47.2282 55.5695 47.1744 55.692C47.1206 55.8146 47.0916 55.9465 47.0888 56.0803C47.086 56.2141 47.1096 56.3471 47.1583 56.4718C47.2328 56.663 47.3634 56.8272 47.5328 56.943C47.7022 57.0588 47.9026 57.1208 48.1078 57.1208C48.2345 57.1207 48.36 57.097 48.478 57.0509L54.0625 54.8725C54.2136 54.8135 54.3485 54.7193 54.4559 54.5976C54.5634 54.476 54.6402 54.3305 54.68 54.1731L54.8493 53.5036L53.3335 53.1257C53.2685 53.2134 53.183 53.2838 53.0845 53.3308ZM56.502 65.2092L56.7549 63.9387C55.924 63.8995 55.16 63.7929 54.5022 63.664L52.8377 72.8038C52.7703 73.191 52.8587 73.5891 53.0836 73.9114C53.3084 74.2337 53.6516 74.4541 54.0382 74.5245C54.4248 74.5949 54.8236 74.5096 55.1477 74.2873C55.4717 74.0649 55.6948 73.7235 55.7682 73.3375L56.9286 66.965L56.6428 66.3586C56.475 66.0001 56.4257 65.5975 56.502 65.2092Z" fill="#1F1F21"/>
<path d="M60.2173 63.6497C59.336 63.8521 58.3992 63.9552 57.4306 63.9554C57.3273 63.9553 57.2233 63.9541 57.12 63.9516L56.8557 65.2795C56.7935 65.5922 56.8333 65.9167 56.9692 66.2051L60.4967 73.6911C60.6171 73.9469 60.8078 74.1631 61.0466 74.3145C61.2853 74.4659 61.5622 74.5462 61.8449 74.546C62.0641 74.5459 62.2806 74.4973 62.4788 74.4035C63.2228 74.053 63.5419 73.1654 63.1911 72.4214L59.873 65.3795L60.2173 63.6497ZM60.1663 63.1794C64.2197 62.2265 64.9088 61.6538 64.9088 61.6538C64.9088 61.6538 63.4669 57.0755 61.2266 55.2401C61.2126 55.1889 61.1999 55.1365 61.1882 55.083L55.9027 53.7658C55.922 53.9891 55.9311 54.1987 55.9271 54.3891L55.9133 54.4133C54.3432 57.1214 53.6928 60.7183 52.2884 62.5521C52.2884 62.5523 56.1129 64.1322 60.1663 63.1794ZM57.4761 47.51C57.1849 47.51 56.9016 47.4736 56.6289 47.4092C55.0097 47.6003 54.4967 47.9979 54.4967 47.9979L54.4991 48.0048C54.3691 48.0703 54.2548 48.163 54.1638 48.2766C54.0728 48.3901 54.0072 48.5219 53.9715 48.6629L53.5485 50.3354L60.623 52.0987C60.6614 51.5445 60.6824 50.9106 60.6895 50.3293L61.0485 50.4383C61.0377 51.1594 61.006 51.9392 60.948 52.5513L52.4731 50.4392C52.2108 50.3738 51.9334 50.4153 51.7017 50.5545C51.47 50.6937 51.3031 50.9192 51.2378 51.1815C51.1724 51.4437 51.2139 51.7212 51.353 51.9528C51.4922 52.1845 51.7178 52.3514 51.98 52.4168L61.5152 54.7932C61.7642 54.8552 62.0274 54.821 62.2523 54.6974C62.4772 54.5739 62.6472 54.37 62.7283 54.1265C62.9576 53.4389 63.0444 52.1341 63.0753 51.053C63.0971 50.2881 63.091 49.6351 63.0874 49.3929C63.0838 49.1487 62.9923 48.914 62.8296 48.7319L62.8354 48.7198C62.8354 48.7198 61.6847 47.3554 58.6657 47.3109C58.2828 47.4424 57.8809 47.5097 57.4761 47.51ZM43.0663 56.4252C43.3119 56.4252 43.5521 56.3532 43.7571 56.218C43.9621 56.0828 44.123 55.8904 44.2197 55.6647C44.2845 55.5133 44.319 55.3506 44.321 55.1859C44.323 55.0212 44.2925 54.8577 44.2314 54.7048C44.1702 54.5519 44.0795 54.4125 43.9645 54.2947C43.8494 54.1768 43.7123 54.0828 43.5609 54.0179L39.4645 52.2623L38.9221 53.0777C38.873 53.1514 38.81 53.2148 38.7364 53.2641C38.6629 53.3134 38.5804 53.3478 38.4936 53.3652C38.4068 53.3827 38.3175 53.3828 38.2306 53.3657C38.1437 53.3486 38.0611 53.3146 37.9874 53.2655L36.868 52.5207C36.8497 52.5321 36.8321 52.5447 36.8133 52.5555L37.352 53.7323C37.4816 54.0155 37.712 54.2404 37.9984 54.363L42.5729 56.3236C42.7288 56.3906 42.8966 56.4251 43.0663 56.4252ZM27.2703 53.7965L26.7628 56.5964C26.7599 56.6122 26.7589 56.628 26.7567 56.6439C26.6505 56.9484 26.6233 57.2749 26.6773 57.5928L27.0265 59.6618L27.731 63.8377L25.1886 72.2112C24.8804 73.2261 25.4534 74.2986 26.4683 74.6067C26.6543 74.6631 26.8423 74.6899 27.0269 74.6901C27.8506 74.6901 28.6121 74.156 28.8639 73.3269L31.5374 64.5212C31.6237 64.237 31.6429 63.9366 31.5933 63.6437L30.8245 59.0869L30.7336 58.5476L31.8399 58.7481L34.7545 73.2493C34.9655 74.2991 35.9876 74.9785 37.037 74.7675C38.0862 74.5567 38.7664 73.5351 38.5554 72.4854L35.3719 56.647L36.0747 52.7697L27.2703 53.7965ZM32.8837 46.6017C34.8005 46.9491 36.6363 45.677 36.9839 43.76C37.3314 41.8429 36.0589 40.0074 34.142 39.66C32.225 39.3124 30.3894 40.5846 30.0419 42.5017C29.6945 44.4186 30.9665 46.2543 32.8837 46.6017ZM36.0928 44.233C34.1836 47.1534 32.2736 44.2707 32.2736 44.2707C33.8418 44.9885 36.0928 44.233 36.0928 44.233Z" fill="#1F1F21"/>
<path d="M38.6219 52.8779L41.0752 49.1907C41.1211 49.1214 41.1376 49.0368 41.1212 48.9553C41.1049 48.8739 41.0569 48.8022 40.9879 48.7559L39.3807 47.6864C39.3113 47.6406 39.2267 47.6241 39.1453 47.6404C39.0638 47.6568 38.9922 47.7047 38.9459 47.7738L37.3263 50.2078C37.4873 50.4305 37.5887 50.6906 37.6207 50.9635C37.6796 51.4691 37.4965 51.9476 37.1642 52.2845L38.1871 52.965C38.3307 53.0608 38.5264 53.0215 38.6219 52.8779ZM39.6497 48.3794L40.7429 49.1067L40.656 49.2372L39.5628 48.51L39.6497 48.3794ZM39.1195 48.0972C39.1508 48.0544 39.1974 48.0253 39.2496 48.016C39.3019 48.0067 39.3557 48.0179 39.3998 48.0473C39.444 48.0766 39.4751 48.1219 39.4868 48.1737C39.4984 48.2255 39.4896 48.2797 39.4622 48.3251C39.4309 48.368 39.3842 48.397 39.332 48.4063C39.2798 48.4156 39.226 48.4044 39.1818 48.375C39.1376 48.3457 39.1065 48.3004 39.0949 48.2486C39.0833 48.1969 39.0921 48.1426 39.1195 48.0972Z" fill="#1F1F21"/>
<path d="M36.1621 52.3964C36.3257 52.3773 36.4839 52.3262 36.6278 52.246C36.7716 52.1658 36.8983 52.058 37.0005 51.9288C37.1027 51.7997 37.1784 51.6516 37.2234 51.4932C37.2684 51.3347 37.2817 51.169 37.2626 51.0054C37.2436 50.8417 37.1925 50.6835 37.1123 50.5396C37.0321 50.3957 36.9243 50.2691 36.7951 50.1669C36.6659 50.0646 36.5179 49.9889 36.3594 49.9439C36.2009 49.899 36.0352 49.8857 35.8716 49.9048L28.8985 50.7181L29.161 50.3245L35.8299 49.5467C36.0531 49.5204 36.2793 49.5411 36.494 49.6075C36.7087 49.674 36.9071 49.7847 37.0764 49.9325L37.8435 48.7796L36.9789 46.891C36.9086 46.7372 36.808 46.5993 36.683 46.4855C36.509 46.3111 36.2858 46.1941 36.0434 46.1503L35.9735 46.1376C35.122 46.8334 33.9835 47.1675 32.8193 46.9565C31.6551 46.7455 30.7063 46.0329 30.1533 45.0826L30.0836 45.0699C29.8479 45.0268 29.6048 45.0549 29.3852 45.1506C28.4083 45.4612 26.6737 46.7825 25.0577 51.9123C25.0568 51.9151 25.0564 51.9178 25.0555 51.9206C25.0467 51.9497 25.0391 51.9792 25.0326 52.0089C25.0299 52.0205 25.0267 52.0321 25.0243 52.0437C25.0193 52.0692 25.0158 52.0951 25.0122 52.1211C25.01 52.1374 25.0071 52.1539 25.0055 52.1702C25.0036 52.1893 25.0033 52.2088 25.0024 52.228C25.0013 52.2514 24.9997 52.2748 24.9998 52.298C25 52.3122 25.0013 52.3266 25.0019 52.3409C25.003 52.369 25.0044 52.3969 25.0074 52.4245L25.008 52.4345C25.0096 52.4481 25.0125 52.4612 25.0146 52.4745C25.0179 52.4968 25.021 52.5192 25.0256 52.5411C25.0299 52.5626 25.0357 52.5836 25.0411 52.6046C25.0453 52.6209 25.0491 52.6374 25.0539 52.6535C25.0626 52.6819 25.0727 52.7095 25.0831 52.7369C25.0864 52.7456 25.089 52.7543 25.0925 52.7628C25.1068 52.7979 25.1226 52.8322 25.14 52.8656L25.1416 52.8691C25.1787 52.9401 25.222 53.0071 25.2714 53.0691C25.2775 53.0768 25.2842 53.0837 25.2905 53.0912C25.3087 53.113 25.327 53.1347 25.3465 53.1552C25.36 53.1693 25.3745 53.1823 25.3886 53.196C25.4023 53.209 25.4156 53.2221 25.4297 53.2345C25.4456 53.2483 25.4623 53.2612 25.4789 53.2744C25.4931 53.2855 25.507 53.2966 25.5216 53.3071C25.5379 53.3189 25.555 53.3299 25.5719 53.341C25.6235 53.3748 25.6776 53.4045 25.7337 53.4299C25.7473 53.436 25.7608 53.4421 25.7748 53.4479C25.8011 53.4589 25.8279 53.4686 25.8551 53.4777C25.8624 53.4802 25.8693 53.4835 25.8768 53.4858L25.8848 53.4877C25.9399 53.5047 25.9963 53.5178 26.0538 53.5271C26.0634 53.5286 26.073 53.5297 26.0827 53.5311C26.1388 53.5393 26.1954 53.5436 26.2522 53.544L26.2542 53.5442C26.2584 53.5442 26.2625 53.5432 26.2667 53.5432C26.3105 53.5428 26.3545 53.5407 26.3991 53.5355L27.0723 53.457L36.1621 52.3964ZM66.7813 47.5485C66.0186 47.9084 64.8591 47.8578 63.7242 44.9582C62.8947 42.8388 61.7248 42.1181 60.6095 41.9767C60.8053 42.3031 60.9492 42.658 61.0361 43.0286C61.1788 43.6412 61.1614 44.2654 60.9935 44.8538C61.324 46.0014 62.0622 47.6342 63.6671 48.3323C66.266 49.4628 67.5438 47.1885 66.7813 47.5485Z" fill="#1F1F21"/>
<path d="M60.685 43.1104C60.2722 41.34 58.5026 40.2393 56.7322 40.6514C54.962 41.0636 53.861 42.8331 54.2732 44.6036C54.6856 46.374 56.4549 47.475 58.2253 47.063C59.9959 46.6506 61.0976 44.8812 60.685 43.1104ZM55.0464 44.9275C56.5347 45.5567 58.6221 44.7875 58.6221 44.7875C56.914 47.5748 55.0464 44.9275 55.0464 44.9275ZM51.8929 52.7665C51.1549 52.5825 50.704 51.8323 50.8881 51.0942C50.9491 50.8482 51.0768 50.6237 51.2572 50.4457C51.4377 50.2676 51.6637 50.1429 51.9106 50.0852L51.2038 48.5765C51.1683 48.5014 51.1046 48.4434 51.0264 48.4151C50.9483 48.3868 50.8622 48.3906 50.7868 48.4256L49.0385 49.2446C48.9633 49.2801 48.9053 49.3438 48.877 49.422C48.8487 49.5001 48.8525 49.5862 48.8875 49.6616L50.7663 53.6722C50.8018 53.7473 50.8655 53.8054 50.9437 53.8337C51.0218 53.8619 51.1079 53.8582 51.1833 53.8232L52.902 53.018L51.8929 52.7665ZM49.2954 49.7699L49.2289 49.6279L50.4179 49.0709L50.4844 49.2129L49.2954 49.7699ZM50.6114 49.0453C50.5995 49.0208 50.5926 48.9942 50.5911 48.967C50.5896 48.9398 50.5935 48.9125 50.6026 48.8869C50.6117 48.8612 50.6258 48.8376 50.6441 48.8174C50.6624 48.7972 50.6845 48.7809 50.7092 48.7693C50.7339 48.7577 50.7606 48.7512 50.7878 48.7501C50.815 48.7489 50.8422 48.7532 50.8678 48.7626C50.8933 48.7721 50.9167 48.7865 50.9367 48.8051C50.9566 48.8236 50.9727 48.846 50.9839 48.8708C51.0062 48.9201 51.0081 48.9762 50.9894 49.0269C50.9707 49.0776 50.9327 49.1189 50.8837 49.1418C50.8347 49.1648 50.7787 49.1675 50.7277 49.1494C50.6768 49.1314 50.635 49.094 50.6114 49.0453Z" fill="#1F1F21"/>
<path d="M46.1933 37.2885C45.4097 37.29 45.1399 37.856 45.1087 37.9267C45.0775 37.856 44.8077 37.29 44.0242 37.2885C43.1876 37.2867 40.9978 38.6974 45.1087 41.4074C49.2197 38.6974 47.0299 37.2867 46.1933 37.2885Z" fill="#FDB8A9"/>
</g>
<defs>
<clipPath id="clip0_1166_9255">
<rect width="42" height="42" fill="white" transform="translate(25 33)"/>
</clipPath>
</defs>
</svg>
