<svg width="98" height="110" viewBox="0 0 98 110" fill="none" xmlns="http://www.w3.org/2000/svg">
<rect x="5" y="20.0001" width="74" height="92" rx="5" transform="rotate(-13 5 20.0001)" fill="#1F1F21"/>
<rect x="0.599661" y="17.3747" width="73" height="91" rx="4.5" transform="rotate(-13 0.599661 17.3747)" fill="#E0BDFD" stroke="#1F1F21"/>
<g clip-path="url(#clip0_1166_9246)">
<path d="M57.6666 53.077C56.7449 53.077 56 53.8238 56 54.7435V68.077C56 68.9952 55.2532 69.7435 54.3334 69.7435H31C30.0799 69.7435 29.3334 68.9952 29.3334 68.077V44.7435C29.3334 43.8252 30.0799 43.077 31 43.077H44.3334C45.2551 43.077 46 42.3302 46 41.4104C46 40.4903 45.2551 39.7435 44.3334 39.7435H31C28.2434 39.7435 26 41.9869 26 44.7435V68.077C26 70.8337 28.2434 73.077 31 73.077H54.3334C57.0901 73.077 59.3334 70.8337 59.3334 68.077V54.7435C59.3334 53.822 58.5881 53.077 57.6666 53.077Z" fill="black"/>
<path d="M41.6266 51.5587C41.5107 51.6751 41.4314 51.8228 41.3983 51.9836L40.22 57.8772C40.1651 58.1503 40.2517 58.4319 40.4483 58.6303C40.5259 58.7076 40.6179 58.7689 40.7192 58.8107C40.8204 58.8524 40.9289 58.8738 41.0384 58.8736C41.0916 58.8736 41.1468 58.8687 41.2017 58.8571L47.0934 57.6788C47.2567 57.6452 47.405 57.5671 47.5201 57.4502L60.7068 44.2635L54.815 38.3721L41.6266 51.5587ZM64.7799 34.2972C63.1552 32.6721 60.5117 32.6721 58.8882 34.2972L56.5816 36.6037L62.4734 42.4954L64.7799 40.1886C65.5666 39.4037 66 38.3569 66 37.2436C66 36.1303 65.5666 35.0836 64.7799 34.2972Z" fill="#E46E00"/>
</g>
<defs>
<clipPath id="clip0_1166_9246">
<rect width="40" height="40" fill="white" transform="translate(26 33.0001)"/>
</clipPath>
</defs>
</svg>
