<svg width="97" height="110" viewBox="0 0 97 110" fill="none" xmlns="http://www.w3.org/2000/svg">
<rect x="4" y="20.0001" width="74" height="92" rx="5" transform="rotate(-13 4 20.0001)" fill="#1F1F21"/>
<rect x="0.599661" y="17.3747" width="73" height="91" rx="4.5" transform="rotate(-13 0.599661 17.3747)" fill="#01D2D2" stroke="#1F1F21"/>
<path d="M38.3429 60.008L37.7537 59.4155C37.5997 59.2604 37.4165 59.1372 37.2147 59.0532C37.0129 58.9692 36.7965 58.9259 36.5779 58.9259C36.3593 58.9259 36.1428 58.9692 35.941 59.0532C35.7392 59.1372 35.556 59.2604 35.402 59.4155L31.8695 62.963C31.5565 63.2785 31.3809 63.7049 31.3809 64.1493C31.3809 64.5937 31.5565 65.0201 31.8695 65.3355L32.4579 65.9264C32.6118 66.0815 32.7949 66.2046 32.9966 66.2887C33.1984 66.3727 33.4147 66.4159 33.6333 66.4159C33.8518 66.4159 34.0682 66.3727 34.2699 66.2887C34.4717 66.2046 34.6548 66.0815 34.8087 65.9264L38.342 62.3789C38.6548 62.0637 38.8305 61.6377 38.8306 61.1936C38.8308 60.7496 38.6555 60.3234 38.3429 60.008ZM40.702 74.2064C41.0178 74.5092 41.4383 74.6782 41.8758 74.6782C42.3132 74.6782 42.7338 74.5092 43.0495 74.2064V74.2022L46.5829 70.6589L46.5879 70.6547C46.9 70.3398 47.0751 69.9143 47.0751 69.471C47.0751 69.0276 46.9 68.6021 46.5879 68.2872L45.9995 67.6947C45.6834 67.3911 45.262 67.2215 44.8237 67.2215C44.3854 67.2215 43.964 67.3911 43.6479 67.6947L40.1154 71.2422C39.802 71.5572 39.6262 71.9834 39.6262 72.4276C39.6262 72.8719 39.802 73.2981 40.1154 73.613L40.702 74.2064ZM44.8254 78.3439C44.9792 78.4988 45.1623 78.6217 45.3638 78.7055C45.5654 78.7894 45.7816 78.8326 45.9999 78.8326C46.2183 78.8326 46.4345 78.7894 46.636 78.7055C46.8376 78.6217 47.0206 78.4988 47.1745 78.3439L50.7054 74.7972C51.0184 74.4824 51.1941 74.0565 51.1941 73.6126C51.1941 73.1687 51.0184 72.7428 50.7054 72.428L50.122 71.8314C49.809 71.52 49.3852 71.3456 48.9437 71.3464C48.727 71.3461 48.5123 71.3887 48.3121 71.4716C48.1119 71.5546 47.9301 71.6763 47.777 71.8297L44.2445 75.3764C43.9324 75.6913 43.7573 76.1167 43.7573 76.5601C43.7573 77.0035 43.9324 77.4289 44.2445 77.7439L44.8254 78.3439ZM37.7554 70.5564C37.9742 70.5569 38.1909 70.5138 38.393 70.4297C38.595 70.3456 38.7782 70.2221 38.932 70.0664L42.4645 66.5197C42.7775 66.2042 42.9532 65.7779 42.9532 65.3335C42.9532 64.8891 42.7775 64.4627 42.4645 64.1472L41.8762 63.5547C41.722 63.3998 41.5387 63.2769 41.3368 63.1931C41.1349 63.1092 40.9185 63.066 40.6999 63.066C40.4814 63.066 40.2649 63.1092 40.0631 63.1931C39.8612 63.2769 39.6779 63.3998 39.5237 63.5547L35.9912 67.103C35.6782 67.4185 35.5025 67.8449 35.5025 68.2893C35.5025 68.7337 35.6782 69.1601 35.9912 69.4755L36.5804 70.0664C36.7339 70.2219 36.9169 70.3453 37.1186 70.4294C37.3204 70.5135 37.5368 70.5567 37.7554 70.5564Z" fill="#1F1F21"/>
<path d="M50.7116 53.5089L60.1333 62.9706C60.4491 63.2745 60.8704 63.4443 61.3087 63.4443C61.747 63.4443 62.1683 63.2745 62.4841 62.9706L63.0733 62.3789C63.3864 62.0638 63.5621 61.6377 63.5621 61.1935C63.5621 60.7493 63.3864 60.3231 63.0733 60.0081L50.1183 46.9997C49.961 46.8474 49.7506 46.7622 49.5316 46.7622C49.3126 46.7622 49.1022 46.8474 48.9449 46.9997L42.4683 53.4997C42.0048 53.9654 41.454 54.3348 40.8473 54.587C40.2407 54.8391 39.5902 54.9689 38.9333 54.9689C38.2763 54.9689 37.6258 54.8391 37.0192 54.587C36.4126 54.3348 35.8617 53.9654 35.3983 53.4997C34.9308 53.0289 34.6685 52.3924 34.6685 51.7289C34.6685 51.0654 34.9308 50.4289 35.3983 49.9581L44.7941 40.5256C42.2624 38.2681 38.9613 37.0676 35.5709 37.1714C32.1805 37.2751 28.9589 38.6751 26.5699 41.0831C24.073 43.6002 22.6719 47.0021 22.6719 50.5477C22.6719 54.0932 24.073 57.4951 26.5699 60.0122L29.8391 63.2956C29.9831 62.7262 30.2759 62.2054 30.6874 61.7864L34.2199 58.2389C34.5289 57.9282 34.8963 57.6817 35.3008 57.5135C35.7054 57.3453 36.1393 57.2586 36.5774 57.2586C37.0156 57.2586 37.4494 57.3453 37.854 57.5135C38.2586 57.6817 38.6259 57.9282 38.9349 58.2389L39.5233 58.8314C39.8615 59.1735 40.1215 59.5849 40.2853 60.0372C40.449 60.4896 40.5126 60.9721 40.4716 61.4514C40.9433 61.4136 41.4176 61.4768 41.8631 61.6365C42.3085 61.7963 42.7148 62.0491 43.0549 62.3781L43.6441 62.9706C43.9784 63.3091 44.2362 63.7154 44.4001 64.162C44.564 64.6087 44.6302 65.0853 44.5941 65.5597C44.6699 65.5547 44.7433 65.5381 44.8199 65.5381C45.2582 65.5372 45.6923 65.6233 46.097 65.7916C46.5017 65.9598 46.8689 66.2067 47.1774 66.5181L47.7658 67.1106C48.1042 67.4527 48.3642 67.8643 48.5279 68.3168C48.6917 68.7693 48.7552 69.2519 48.7141 69.7314C49.1855 69.6943 49.6595 69.7575 50.1048 69.9167C50.55 70.076 50.9565 70.3278 51.2974 70.6556L51.8691 71.2389C51.8741 71.2431 51.8808 71.2447 51.8849 71.2489C52.0389 71.4041 52.2221 71.5272 52.4239 71.6112C52.6257 71.6953 52.8422 71.7385 53.0608 71.7385C53.2794 71.7385 53.4958 71.6953 53.6976 71.6112C53.8994 71.5272 54.0826 71.4041 54.2366 71.2489L54.8258 70.6564C55.1382 70.3413 55.3135 69.9155 55.3135 69.4718C55.3135 69.0281 55.1382 68.6023 54.8258 68.2872L45.4083 58.8247C45.331 58.7472 45.2698 58.6551 45.2281 58.5539C45.1864 58.4526 45.1651 58.3441 45.1653 58.2346C45.1655 58.1251 45.1873 58.0168 45.2294 57.9157C45.2716 57.8146 45.3332 57.7228 45.4108 57.6456C45.4884 57.5683 45.5804 57.5071 45.6816 57.4654C45.7829 57.4237 45.8914 57.4024 46.0009 57.4026C46.222 57.4031 46.4339 57.4914 46.5899 57.6481L56.0116 67.1106C56.3277 67.414 56.7489 67.5834 57.187 67.5834C57.6252 67.5834 58.0463 67.414 58.3624 67.1106L58.9508 66.5189C59.2637 66.2036 59.4394 65.7773 59.4394 65.3331C59.4394 64.8888 59.2637 64.4626 58.9508 64.1472L49.5299 54.6856C49.4527 54.608 49.3914 54.5159 49.3498 54.4147C49.3081 54.3134 49.2867 54.205 49.287 54.0955C49.2872 53.986 49.309 53.8776 49.3511 53.7765C49.3932 53.6755 49.4548 53.5837 49.5324 53.5064C49.61 53.4291 49.7021 53.3679 49.8033 53.3262C49.9046 53.2845 50.013 53.2632 50.1225 53.2634C50.3437 53.2639 50.5556 53.3522 50.7116 53.5089Z" fill="#1F1F21"/>
<path d="M65.1044 60.3399L65.4286 60.0141C67.9255 57.4971 69.3266 54.0953 69.3266 50.5499C69.3266 47.0045 67.9255 43.6028 65.4286 41.0857C64.1946 39.8445 62.7273 38.8594 61.1113 38.1873C59.4952 37.5151 57.7622 37.1691 56.0119 37.1691C54.2616 37.1691 52.5286 37.5151 50.9125 38.1873C49.2965 38.8594 47.8293 39.8445 46.5952 41.0857L36.5827 51.1383C36.4259 51.2962 36.3379 51.5098 36.3379 51.7324C36.3379 51.955 36.4259 52.1686 36.5827 52.3266C37.2155 52.9345 38.059 53.274 38.9365 53.274C39.814 53.274 40.6574 52.9345 41.2902 52.3266L47.7669 45.8266C48.2425 45.3703 48.8761 45.1154 49.5352 45.1154C50.1944 45.1154 50.828 45.3703 51.3036 45.8266L64.2552 58.8333C64.6669 59.2513 64.96 59.7713 65.1044 60.3399Z" fill="#058D5E"/>
</svg>
