<svg width="302" height="17" viewBox="0 0 302 17" fill="none" xmlns="http://www.w3.org/2000/svg">
<path d="M2 8.5C12.4603 -0.166667 24.9671 -0.166667 35.2 8.5C45.6603 17.1667 58.1671 17.1667 68.4 8.5C78.8603 -0.166667 91.3671 -0.166667 101.6 8.5C112.06 17.1667 124.567 17.1667 134.8 8.5C145.26 -0.166667 157.767 -0.166667 168 8.5" stroke="white" stroke-width="2.31111" stroke-miterlimit="10" stroke-linecap="round" stroke-linejoin="round"/>
<path d="M134 8.5C144.46 -0.166667 156.967 -0.166667 167.2 8.5C177.66 17.1667 190.167 17.1667 200.4 8.5C210.86 -0.166667 223.367 -0.166667 233.6 8.5C244.06 17.1667 256.567 17.1667 266.8 8.5C277.26 -0.166667 289.767 -0.166667 300 8.5" stroke="white" stroke-width="2.31111" stroke-miterlimit="10" stroke-linecap="round" stroke-linejoin="round"/>
</svg>
