<svg width="375" height="874" viewBox="0 0 375 874" fill="none" xmlns="http://www.w3.org/2000/svg">
<mask id="mask0_319_2282" style="mask-type:alpha" maskUnits="userSpaceOnUse" x="0" y="0" width="375" height="874">
<rect width="375" height="873.275" fill="#D9D9D9"/>
</mask>
<g mask="url(#mask0_319_2282)">
<path fill-rule="evenodd" clip-rule="evenodd" d="M0 9.98997C0 9.98997 0 6.5843 0 5.43857C19.8983 9.65143 72.5551 19.0418 122.337 12.8167C185.948 4.86254 211.49 -1.93185 271.4 4.92102C323.658 10.8985 348.463 17.6061 375 11.2724C375 12.4819 375 12.3158 375 12.8142V873.25H0V9.98997Z" fill="#1F1F21"/>
<path fill-rule="evenodd" clip-rule="evenodd" d="M0 17.5549C0 17.5549 1.11759e-06 17.1431 1.11759e-06 15.7277C16.9945 20.4303 68.3783 32.5615 119.921 23.8848C182.93 13.2778 212.085 5.65638 269.018 15.3159C322.174 24.3344 347.695 26.1241 375 19.7925C375 20.7674 375 21.0146 375 21.9207V873.261H0V17.5549Z" fill="#42CCFF"/>
</g>
</svg>
