<svg width="375" height="772" viewBox="0 0 375 772" fill="none" xmlns="http://www.w3.org/2000/svg">
<mask id="mask0_319_2446" style="mask-type:alpha" maskUnits="userSpaceOnUse" x="0" y="0" width="375" height="772">
<path d="M375 772H1.01962e-05V-1.04486e-05H375V772Z" fill="#D9D9D9"/>
</mask>
<g mask="url(#mask0_319_2446)">
<path fill-rule="evenodd" clip-rule="evenodd" d="M375.464 755.858C375.464 755.858 297.811 746.661 247.578 750.444C201.097 754.73 152.129 760.612 143.571 761.801C135.014 762.99 85.2928 768.482 116.542 759.624C126.756 756.799 152.608 746.346 101.655 747.131C50.703 747.916 1.03637 754.339 -0.784957 754.551C-0.784957 750.672 -1.00098 0.712755 -1.00098 0.712755C-1.00098 0.712755 71.199 12.8412 158.282 4.8649C246.061 1.3813 291.584 -2.20949 375.949 5.13777C375.949 13.6298 375.464 755.858 375.464 755.858Z" fill="#1F1F21"/>
<path fill-rule="evenodd" clip-rule="evenodd" d="M376.23 751.609C376.23 751.609 297.829 742.452 247.491 746.233C200.914 750.518 151.845 756.398 143.27 757.587C134.694 758.776 84.8701 764.266 116.184 755.411C126.42 752.586 152.325 742.137 101.267 742.921C50.209 743.706 1.02861 749.914 -0.79655 750.126C-0.79655 746.245 -1 1.08852 -1 1.08852C-1 1.08852 69.4315 10.1043 157.205 5.00568C244.979 -0.0928208 291.69 -2.07446 376.23 5.27061C376.23 13.7603 376.23 751.609 376.23 751.609Z" fill="#6CA96C"/>
</g>
</svg>
