<svg width="375" height="1724" viewBox="0 0 375 1724" fill="none" xmlns="http://www.w3.org/2000/svg">
<mask id="mask0_319_2446" style="mask-type:alpha" maskUnits="userSpaceOnUse" x="0" y="0" width="375" height="1724">
<path d="M375 1724H1.01962e-05V-1.15654e-05H375V1724Z" fill="#D9D9D9"/>
</mask>
<g mask="url(#mask0_319_2446)">
<path fill-rule="evenodd" clip-rule="evenodd" d="M375.464 1687.95C375.464 1687.95 297.811 1667.41 247.578 1675.86C201.097 1685.43 152.129 1698.57 143.571 1701.22C135.014 1703.88 85.2928 1716.14 116.542 1696.36C126.756 1690.05 152.608 1666.71 101.655 1668.46C50.703 1670.21 1.03637 1684.56 -0.784957 1685.03C-0.784957 1676.37 -1.00098 1.58879 -1.00098 1.58879C-1.00098 1.58879 71.199 28.6736 158.282 10.8612C246.061 3.08175 291.584 -4.93705 375.949 11.4706C375.949 30.4347 375.464 1687.95 375.464 1687.95Z" fill="#1F1F21"/>
<path fill-rule="evenodd" clip-rule="evenodd" d="M376.23 1678.46C376.23 1678.46 297.829 1658.01 247.491 1666.45C200.914 1676.02 151.845 1689.15 143.27 1691.81C134.694 1694.46 84.8701 1706.73 116.184 1686.95C126.42 1680.64 152.325 1657.31 101.267 1659.06C50.209 1660.81 1.02861 1674.67 -0.79655 1675.15C-0.79655 1666.48 -1 2.42624 -1 2.42624C-1 2.42624 69.4315 22.5599 157.205 11.1739C244.979 -0.211882 291.69 -4.6372 376.23 11.7655C376.23 30.7243 376.23 1678.46 376.23 1678.46Z" fill="#6CA96C"/>
</g>
</svg>
