<svg width="375" height="1116" viewBox="0 0 375 1116" fill="none" xmlns="http://www.w3.org/2000/svg">
<mask id="mask0_320_2641" style="mask-type:alpha" maskUnits="userSpaceOnUse" x="0" y="0" width="375" height="1116">
<path d="M0 0H375V1116H0V0Z" fill="#D9D9D9"/>
</mask>
<g mask="url(#mask0_320_2641)">
<path fill-rule="evenodd" clip-rule="evenodd" d="M-0.517578 25.6099C-0.517578 25.6099 77.5714 48.4123 127.44 39.0346C173.584 28.4082 222.198 13.8239 230.693 10.876C239.188 7.92805 288.549 -5.68982 257.527 16.2731C247.386 23.2778 221.722 49.1933 272.305 47.2477C322.888 45.3019 373.192 29.3773 375 28.8514C375 38.4679 374.217 1092 374.217 1092C374.217 1092 302.54 1061.93 216.089 1081.71C128.947 1090.34 83.754 1099.25 0.000329554 1081.03C0.000329554 1059.97 -0.517578 25.6099 -0.517578 25.6099Z" fill="#1F1F21"/>
<path fill-rule="evenodd" clip-rule="evenodd" d="M-1 28.803C-1 28.803 77.146 51.4824 127.319 42.118C173.744 31.5064 222.654 16.9428 231.201 13.999C239.748 11.0552 289.41 -2.54362 258.199 19.3885C247.996 26.3833 222.175 52.2624 273.067 50.3194C323.958 48.3761 373.181 33.0239 375 32.499C375 42.1123 375 1092.55 375 1092.55C375 1092.55 304.5 1070.63 217.311 1082.85C129.824 1095.48 83.2643 1100.38 -1 1082.19C-1 1061.17 -1 28.803 -1 28.803Z" fill="#FFBD12"/>
</g>
</svg>
