<svg width="1920" height="1223" viewBox="0 0 1920 1223" fill="none" xmlns="http://www.w3.org/2000/svg">
<mask id="mask0_309_472" style="mask-type:alpha" maskUnits="userSpaceOnUse" x="0" y="0" width="1920" height="1223">
<rect width="1920" height="1223" fill="#E9CDFF"/>
</mask>
<g mask="url(#mask0_309_472)">
<path fill-rule="evenodd" clip-rule="evenodd" d="M0 113C0 113 396.259 218.518 652.6 175.123C889.792 125.949 1139.68 58.4601 1183.35 44.8186C1227.02 31.177 1480.74 -31.8396 1321.28 69.7938C1269.16 102.208 1137.23 222.132 1397.25 213.129C1657.26 204.124 1910.71 130.433 1920 128C1920 172.5 1920 1219.5 1920 1219.5C1920 1219.5 1559.37 1101.28 1112.38 1159.79C665.397 1218.31 423.518 1238.66 -7 1154.36C-7 1056.93 0 113 0 113Z" fill="#1F1F21"/>
<path fill-rule="evenodd" clip-rule="evenodd" d="M0 125C0 125 399.259 229.983 655.6 186.635C892.793 137.514 1142.68 70.0991 1186.35 56.4721C1230.02 42.8451 1483.74 -20.104 1324.28 81.4201C1272.16 113.799 1140.23 233.594 1400.25 224.6C1660.26 215.604 1910.71 144.43 1920 142C1920 186.5 1920 1224.5 1920 1224.5C1920 1224.5 1562.37 1113.09 1115.38 1171.54C668.397 1229.99 430.518 1252.7 0 1168.5C0 1071.17 0 125 0 125Z" fill="#FFBD12"/>
</g>
</svg>
