<svg width="1920" height="1223" viewBox="0 0 1920 1223" fill="none" xmlns="http://www.w3.org/2000/svg">
<mask id="mask0_309_759" style="mask-type:alpha" maskUnits="userSpaceOnUse" x="0" y="0" width="1920" height="1223">
<rect x="1920" y="1223" width="1920" height="1223" transform="rotate(180 1920 1223)" fill="#E9CDFF"/>
</mask>
<g mask="url(#mask0_309_759)">
<path fill-rule="evenodd" clip-rule="evenodd" d="M1920 1110C1920 1110 1523.74 1004.48 1267.4 1047.88C1030.21 1097.05 780.321 1164.54 736.652 1178.18C692.984 1191.82 439.256 1254.84 598.718 1153.21C650.844 1120.79 782.766 1000.87 522.754 1009.87C262.743 1018.88 9.29426 1092.57 0 1095C0 1050 0 155.5 0 155.5C0 155.5 360.634 273.722 807.619 215.208C1254.6 156.694 1496.48 136.341 1927 220.638C1927 318.069 1920 1110 1920 1110Z" fill="#1F1F21"/>
<path fill-rule="evenodd" clip-rule="evenodd" d="M1920 1098C1920 1098 1520.74 993.017 1264.4 1036.36C1027.21 1085.49 777.321 1152.9 733.653 1166.53C689.984 1180.15 436.255 1243.1 595.718 1141.58C647.844 1109.2 779.766 989.406 519.755 998.4C259.744 1007.4 9.29458 1078.57 0 1081C0 1036.5 0 148.5 0 148.5C0 148.5 357.635 259.913 804.619 201.463C1251.6 143.013 1489.48 120.295 1920 204.5C1920 301.826 1920 1098 1920 1098Z" fill="#6CA96C"/>
</g>
</svg>
