<svg width="1920" height="560" viewBox="0 0 1920 560" fill="none" xmlns="http://www.w3.org/2000/svg">
<mask id="mask0_310_1252" style="mask-type:alpha" maskUnits="userSpaceOnUse" x="0" y="0" width="1920" height="560">
<rect width="1920" height="560" fill="#D9D9D9"/>
</mask>
<g mask="url(#mask0_310_1252)">
<path fill-rule="evenodd" clip-rule="evenodd" d="M0 48.5068C0 48.5068 0 28.0068 0 21.1102C101.879 46.469 371.482 102.993 626.367 65.5219C952.053 17.6429 1082.83 -23.2551 1389.57 17.9949C1657.13 53.9754 1784.13 94.3514 1920 56.2265C1920 63.5068 1920 62.5068 1920 65.5068V560H0V48.5068Z" fill="#1F1F21"/>
<path fill-rule="evenodd" clip-rule="evenodd" d="M0 50.6406C0 50.6406 5.72205e-06 48.1406 5.72205e-06 39.5495C87.0121 68.0942 350.097 141.731 613.996 89.0629C936.604 24.6784 1085.87 -21.584 1377.37 37.0499C1649.53 91.7922 1780.2 102.656 1920 64.2228C1920 70.1406 1920 71.6406 1920 77.1406V560.002H0V50.6406Z" fill="#42CCFF"/>
</g>
</svg>
