<svg width="1920" height="950" viewBox="0 0 1920 950" fill="none" xmlns="http://www.w3.org/2000/svg">
<mask id="mask0_2_2122" style="mask-type:alpha" maskUnits="userSpaceOnUse" x="0" y="0" width="1920" height="950">
<path d="M1920 0H0V950H1920V0Z" fill="white"/>
</mask>
<g mask="url(#mask0_2_2122)">
<path fill-rule="evenodd" clip-rule="evenodd" d="M1924.26 935.089C1924.26 935.089 1645.44 831.222 1322.07 878.995C995.537 927.232 864.418 968.437 556.88 926.878C261.229 886.925 152.792 841.594 -1.06252 902.691L-2 -3.93853L1925 -4L1924.26 935.089Z" fill="#1F1F21"/>
<path fill-rule="evenodd" clip-rule="evenodd" d="M1923.26 921.086C1923.26 921.086 1643.57 817.18 1319.19 864.97C991.643 913.226 860.115 954.446 551.62 912.871C255.049 872.903 146.274 827.556 -8.0596 888.676L-9 0.0614969L1924 0L1923.26 921.086Z" fill="#F95A2B"/>
<path d="M223.765 180.378C222.975 180.683 221.674 180.683 220.884 180.378C214.146 177.863 199.091 167.371 199.091 149.588C199.091 141.738 204.876 135.387 212.009 135.387C216.237 135.387 219.978 137.622 222.325 141.077C224.671 137.622 228.435 135.387 232.64 135.387C239.773 135.387 245.558 141.738 245.558 149.588C245.558 167.371 230.503 177.863 223.765 180.378Z" fill="#FD5530" fill-opacity="0.03"/>
<path d="M258.237 265.617C257.232 266.005 255.576 266.005 254.57 265.617C245.995 262.416 226.834 249.062 226.834 226.429C226.834 216.439 234.197 208.355 243.275 208.355C248.656 208.355 253.417 211.201 256.404 215.598C259.39 211.201 264.18 208.355 269.532 208.355C278.61 208.355 285.973 216.439 285.973 226.429C285.973 249.062 266.812 262.416 258.237 265.617Z" fill="#FD5530" fill-opacity="0.03"/>
<path d="M171.332 310.052C170.214 310.483 168.373 310.483 167.255 310.052C157.719 306.492 136.413 291.644 136.413 266.477C136.413 255.367 144.6 246.379 154.694 246.379C160.679 246.379 165.972 249.543 169.293 254.432C172.614 249.543 177.941 246.379 183.892 246.379C193.987 246.379 202.174 255.367 202.174 266.477C202.174 291.644 180.867 306.492 171.332 310.052Z" fill="#FD5530" fill-opacity="0.03"/>
<path d="M136.974 149.097C136.463 149.294 135.621 149.294 135.109 149.097C130.747 147.469 121 140.676 121 129.163C121 124.081 124.745 119.969 129.363 119.969C132.101 119.969 134.522 121.416 136.042 123.653C137.561 121.416 139.998 119.969 142.72 119.969C147.338 119.969 151.083 124.081 151.083 129.163C151.083 140.676 141.336 147.469 136.974 149.097Z" fill="#FD5530" fill-opacity="0.03"/>
<path d="M202.735 113.128C202.224 113.325 201.381 113.325 200.87 113.128C196.508 111.5 186.761 104.707 186.761 93.194C186.761 88.1118 190.506 84 195.124 84C197.862 84 200.283 85.4474 201.803 87.6842C203.322 85.4474 205.759 84 208.481 84C213.099 84 216.844 88.1118 216.844 93.194C216.844 104.707 207.097 111.5 202.735 113.128Z" fill="#FD5530" fill-opacity="0.03"/>
<path d="M166.496 208.266C166.191 208.384 165.688 208.384 165.383 208.266C162.78 207.294 156.963 203.24 156.963 196.37C156.963 193.337 159.198 190.883 161.954 190.883C163.588 190.883 165.033 191.747 165.94 193.081C166.846 191.747 168.3 190.883 169.925 190.883C172.681 190.883 174.916 193.337 174.916 196.37C174.916 203.24 169.099 207.294 166.496 208.266Z" fill="#FD5530" fill-opacity="0.03"/>
<path d="M266.165 306.926C265.86 307.044 265.357 307.044 265.052 306.926C262.449 305.954 256.632 301.9 256.632 295.03C256.632 291.997 258.867 289.543 261.623 289.543C263.257 289.543 264.702 290.407 265.609 291.742C266.515 290.407 267.969 289.543 269.594 289.543C272.35 289.543 274.585 291.997 274.585 295.03C274.585 301.9 268.768 305.954 266.165 306.926Z" fill="#FD5530" fill-opacity="0.03"/>
<path d="M293.908 180.516C293.603 180.634 293.1 180.634 292.795 180.516C290.192 179.544 284.375 175.49 284.375 168.62C284.375 165.587 286.61 163.133 289.366 163.133C291 163.133 292.445 163.997 293.351 165.331C294.258 163.997 295.712 163.133 297.337 163.133C300.093 163.133 302.328 165.587 302.328 168.62C302.328 175.49 296.511 179.544 293.908 180.516Z" fill="#FD5530" fill-opacity="0.03"/>
<path d="M332.953 225.738C332.648 225.856 332.146 225.856 331.84 225.738C329.237 224.767 323.42 220.713 323.42 213.842C323.42 210.809 325.656 208.355 328.411 208.355C330.045 208.355 331.49 209.219 332.397 210.554C333.304 209.219 334.758 208.355 336.382 208.355C339.138 208.355 341.373 210.809 341.373 213.842C341.373 220.713 335.557 224.767 332.953 225.738Z" fill="#FD5530" fill-opacity="0.03"/>
<path d="M323.706 283.289C323.401 283.407 322.898 283.407 322.593 283.289C319.99 282.317 314.173 278.264 314.173 271.393C314.173 268.36 316.408 265.906 319.164 265.906C320.797 265.906 322.243 266.77 323.149 268.105C324.056 266.77 325.51 265.906 327.135 265.906C329.891 265.906 332.126 268.36 332.126 271.393C332.126 278.264 326.309 282.317 323.706 283.289Z" fill="#FD5530" fill-opacity="0.03"/>
<path d="M425.983 351.847C424.511 352.415 422.086 352.415 420.614 351.847C408.057 347.16 380 327.607 380 294.466C380 279.836 390.781 268 404.074 268C411.954 268 418.925 272.166 423.298 278.605C427.671 272.166 434.686 268 442.523 268C455.815 268 466.597 279.836 466.597 294.466C466.597 327.607 438.539 347.16 425.983 351.847Z" fill="#FD5530" fill-opacity="0.03"/>
<path d="M600.759 754.409C599.969 754.699 598.668 754.699 597.878 754.409C591.141 752.024 576.086 742.073 576.086 725.207C576.086 717.762 581.871 711.738 589.003 711.738C593.232 711.738 596.972 713.859 599.318 717.135C601.665 713.859 605.428 711.738 609.633 711.738C616.765 711.738 622.55 717.762 622.55 725.207C622.55 742.073 607.496 752.024 600.759 754.409Z" fill="#FD5530" fill-opacity="0.03"/>
<path d="M635.229 835.25C634.223 835.618 632.568 835.618 631.562 835.25C622.988 832.214 603.828 819.549 603.828 798.083C603.828 788.608 611.19 780.941 620.267 780.941C625.649 780.941 630.409 783.64 633.395 787.81C636.382 783.64 641.172 780.941 646.524 780.941C655.601 780.941 662.963 788.608 662.963 798.083C662.963 819.549 643.803 832.214 635.229 835.25Z" fill="#FD5530" fill-opacity="0.03"/>
<path d="M733.96 718.13C733.449 718.317 732.606 718.317 732.095 718.13C727.733 716.586 717.987 710.143 717.987 699.224C717.987 694.404 721.732 690.504 726.349 690.504C729.087 690.504 731.508 691.877 733.028 693.998C734.547 691.877 736.983 690.504 739.706 690.504C744.323 690.504 748.068 694.404 748.068 699.224C748.068 710.143 738.322 716.586 733.96 718.13Z" fill="#FD5530" fill-opacity="0.03"/>
<path d="M498 700.611C497.489 700.798 496.647 700.798 496.135 700.611C491.773 699.066 482.027 692.624 482.027 681.704C482.027 676.884 485.772 672.984 490.39 672.984C493.127 672.984 495.549 674.357 497.068 676.479C498.587 674.357 501.023 672.984 503.746 672.984C508.363 672.984 512.108 676.884 512.108 681.704C512.108 692.624 502.362 699.066 498 700.611Z" fill="#FD5530" fill-opacity="0.03"/>
<path d="M579.73 690.626C579.219 690.813 578.376 690.813 577.865 690.626C573.503 689.082 563.757 682.639 563.757 671.72C563.757 666.9 567.502 663 572.12 663C574.857 663 577.279 664.373 578.798 666.494C580.317 664.373 582.753 663 585.476 663C590.093 663 593.838 666.9 593.838 671.72C593.838 682.639 584.092 689.082 579.73 690.626Z" fill="#FD5530" fill-opacity="0.03"/>
<path d="M543.493 780.858C543.188 780.969 542.686 780.969 542.38 780.858C539.777 779.936 533.961 776.091 533.961 769.575C533.961 766.698 536.196 764.371 538.952 764.371C540.585 764.371 542.03 765.19 542.937 766.456C543.843 765.19 545.298 764.371 546.922 764.371C549.678 764.371 551.913 766.698 551.913 769.575C551.913 776.091 546.096 779.936 543.493 780.858Z" fill="#FD5530" fill-opacity="0.03"/>
<path d="M643.156 874.432C642.851 874.544 642.349 874.544 642.043 874.432C639.44 873.51 633.624 869.666 633.624 863.149C633.624 860.273 635.859 857.945 638.615 857.945C640.248 857.945 641.693 858.765 642.6 860.031C643.507 858.765 644.961 857.945 646.585 857.945C649.341 857.945 651.576 860.273 651.576 863.149C651.576 869.666 645.76 873.51 643.156 874.432Z" fill="#FD5530" fill-opacity="0.03"/>
<path d="M670.898 754.541C670.593 754.653 670.09 754.653 669.785 754.541C667.182 753.62 661.365 749.775 661.365 743.259C661.365 740.382 663.6 738.055 666.356 738.055C667.989 738.055 669.435 738.874 670.341 740.14C671.248 738.874 672.702 738.055 674.327 738.055C677.082 738.055 679.317 740.382 679.317 743.259C679.317 749.775 673.501 753.62 670.898 754.541Z" fill="#FD5530" fill-opacity="0.03"/>
<path d="M709.941 797.428C709.635 797.54 709.133 797.54 708.828 797.428C706.225 796.506 700.408 792.662 700.408 786.145C700.408 783.269 702.643 780.941 705.399 780.941C707.032 780.941 708.478 781.761 709.384 783.027C710.291 781.761 711.745 780.941 713.369 780.941C716.125 780.941 718.36 783.269 718.36 786.145C718.36 792.662 712.544 796.506 709.941 797.428Z" fill="#FD5530" fill-opacity="0.03"/>
<path d="M700.694 852.014C700.388 852.126 699.886 852.126 699.581 852.014C696.978 851.092 691.161 847.248 691.161 840.731C691.161 837.855 693.396 835.527 696.152 835.527C697.785 835.527 699.231 836.347 700.137 837.613C701.044 836.347 702.498 835.527 704.122 835.527C706.878 835.527 709.113 837.855 709.113 840.731C709.113 847.248 703.297 851.092 700.694 852.014Z" fill="#FD5530" fill-opacity="0.03"/>
<path d="M1049.77 114.378C1048.98 114.683 1047.67 114.683 1046.88 114.378C1040.15 111.863 1025.09 101.371 1025.09 83.5877C1025.09 75.7378 1030.88 69.3867 1038.01 69.3867C1042.24 69.3867 1045.98 71.6223 1048.32 75.0773C1050.67 71.6223 1054.43 69.3867 1058.64 69.3867C1065.77 69.3867 1071.56 75.7378 1071.56 83.5877C1071.56 101.371 1056.5 111.863 1049.77 114.378Z" fill="#FD5530" fill-opacity="0.03"/>
<path d="M1084.24 199.617C1083.23 200.005 1081.58 200.005 1080.57 199.617C1072 196.416 1052.83 183.062 1052.83 160.429C1052.83 150.439 1060.2 142.355 1069.27 142.355C1074.66 142.355 1079.42 145.201 1082.4 149.598C1085.39 145.201 1090.18 142.355 1095.53 142.355C1104.61 142.355 1111.97 150.439 1111.97 160.429C1111.97 183.062 1092.81 196.416 1084.24 199.617Z" fill="#FD5530" fill-opacity="0.03"/>
<path d="M1195.4 124.456C1193.93 125.024 1191.51 125.024 1190.03 124.456C1177.48 119.769 1149.42 100.216 1149.42 67.0749C1149.42 52.4455 1160.2 40.6094 1173.49 40.6094C1181.38 40.6094 1188.35 44.7757 1192.72 51.2145C1197.09 44.7757 1204.11 40.6094 1211.94 40.6094C1225.24 40.6094 1236.02 52.4455 1236.02 67.0749C1236.02 100.216 1207.96 119.769 1195.4 124.456Z" fill="#FD5530" fill-opacity="0.03"/>
<path d="M997.332 244.052C996.214 244.483 994.372 244.483 993.254 244.052C983.719 240.492 962.413 225.644 962.413 200.477C962.413 189.367 970.6 180.379 980.694 180.379C986.678 180.379 991.972 183.543 995.293 188.432C998.614 183.543 1003.94 180.379 1009.89 180.379C1019.99 180.379 1028.17 189.367 1028.17 200.477C1028.17 225.644 1006.87 240.492 997.332 244.052Z" fill="#FD5530" fill-opacity="0.03"/>
<path d="M1110.94 55.3508C1110.42 55.5481 1109.58 55.5481 1109.07 55.3508C1104.71 53.7225 1094.96 46.9298 1094.96 35.4167C1094.96 30.3345 1098.71 26.2227 1103.33 26.2227C1106.06 26.2227 1108.48 27.67 1110 29.9068C1111.52 27.67 1113.96 26.2227 1116.68 26.2227C1121.3 26.2227 1125.05 30.3345 1125.05 35.4167C1125.05 46.9298 1115.3 53.7225 1110.94 55.3508Z" fill="#FD5530" fill-opacity="0.03"/>
<path d="M962.974 83.0969C962.463 83.2942 961.621 83.2942 961.109 83.0969C956.747 81.4686 947 74.6758 947 63.1628C947 58.0806 950.745 53.9688 955.363 53.9688C958.101 53.9688 960.522 55.4161 962.042 57.6529C963.561 55.4161 965.998 53.9688 968.72 53.9688C973.338 53.9688 977.083 58.0806 977.083 63.1628C977.083 74.6758 967.336 81.4686 962.974 83.0969Z" fill="#FD5530" fill-opacity="0.03"/>
<path d="M1028.74 47.1281C1028.22 47.3255 1027.38 47.3255 1026.87 47.1281C1022.51 45.4998 1012.76 38.7071 1012.76 27.194C1012.76 22.1118 1016.51 18 1021.12 18C1023.86 18 1026.28 19.4474 1027.8 21.6842C1029.32 19.4474 1031.76 18 1034.48 18C1039.1 18 1042.84 22.1118 1042.84 27.194C1042.84 38.7071 1033.1 45.4998 1028.74 47.1281Z" fill="#FD5530" fill-opacity="0.03"/>
<path d="M992.496 142.266C992.191 142.384 991.688 142.384 991.383 142.266C988.78 141.294 982.963 137.24 982.963 130.37C982.963 127.337 985.198 124.883 987.954 124.883C989.588 124.883 991.033 125.747 991.939 127.081C992.846 125.747 994.3 124.883 995.925 124.883C998.681 124.883 1000.92 127.337 1000.92 130.37C1000.92 137.24 995.099 141.294 992.496 142.266Z" fill="#FD5530" fill-opacity="0.03"/>
<path d="M1092.16 240.926C1091.86 241.044 1091.36 241.044 1091.05 240.926C1088.45 239.954 1082.63 235.9 1082.63 229.03C1082.63 225.997 1084.87 223.543 1087.62 223.543C1089.26 223.543 1090.7 224.407 1091.61 225.742C1092.51 224.407 1093.97 223.543 1095.59 223.543C1098.35 223.543 1100.58 225.997 1100.58 229.03C1100.58 235.9 1094.77 239.954 1092.16 240.926Z" fill="#FD5530" fill-opacity="0.03"/>
<path d="M1119.91 114.516C1119.6 114.634 1119.1 114.634 1118.79 114.516C1116.19 113.544 1110.38 109.49 1110.38 102.62C1110.38 99.5866 1112.61 97.1328 1115.37 97.1328C1117 97.1328 1118.44 97.9966 1119.35 99.3314C1120.26 97.9966 1121.71 97.1328 1123.34 97.1328C1126.09 97.1328 1128.33 99.5866 1128.33 102.62C1128.33 109.49 1122.51 113.544 1119.91 114.516Z" fill="#FD5530" fill-opacity="0.03"/>
<path d="M1158.95 159.738C1158.65 159.856 1158.15 159.856 1157.84 159.738C1155.24 158.767 1149.42 154.713 1149.42 147.842C1149.42 144.809 1151.66 142.355 1154.41 142.355C1156.05 142.355 1157.49 143.219 1158.4 144.554C1159.3 143.219 1160.76 142.355 1162.38 142.355C1165.14 142.355 1167.37 144.809 1167.37 147.842C1167.37 154.713 1161.56 158.767 1158.95 159.738Z" fill="#FD5530" fill-opacity="0.03"/>
<path d="M1149.71 217.289C1149.4 217.407 1148.9 217.407 1148.59 217.289C1145.99 216.317 1140.17 212.264 1140.17 205.393C1140.17 202.36 1142.41 199.906 1145.16 199.906C1146.8 199.906 1148.24 200.77 1149.15 202.105C1150.06 200.77 1151.51 199.906 1153.13 199.906C1155.89 199.906 1158.13 202.36 1158.13 205.393C1158.13 212.264 1152.31 216.317 1149.71 217.289Z" fill="#FD5530" fill-opacity="0.03"/>
</g>
</svg>
