<svg width="20" height="20" viewBox="0 0 20 20" fill="none" xmlns="http://www.w3.org/2000/svg">
<path d="M15.6251 11.875C15.6251 11.7152 15.564 11.5552 15.4419 11.4331L10.4419 6.43313C10.1977 6.18891 9.80225 6.18891 9.55819 6.43313L4.55819 11.4331C4.31397 11.6773 4.31397 12.0728 4.55819 12.3169C4.8024 12.5609 5.19787 12.5611 5.44194 12.3169L10.0001 7.75875L14.5582 12.3169C14.8024 12.5611 15.1979 12.5611 15.4419 12.3169C15.564 12.1948 15.6251 12.0348 15.6251 11.875ZM10.0001 20C4.48615 20 6.10352e-05 15.5139 6.10352e-05 10C6.10352e-05 4.48609 4.48615 0 10.0001 0C15.514 0 20.0001 4.48609 20.0001 10C20.0001 15.5139 15.514 20 10.0001 20ZM10.0001 18.75C14.8249 18.75 18.7501 14.8248 18.7501 10C18.7501 5.17516 14.8249 1.25 10.0001 1.25C5.17522 1.25 1.25006 5.17516 1.25006 10C1.25006 14.8248 5.17522 18.75 10.0001 18.75Z" fill="#FD5530"/>
</svg>
