<svg width="20" height="20" viewBox="0 0 20 20" fill="none" xmlns="http://www.w3.org/2000/svg">
<path d="M4.37506 8.125C4.37506 8.28484 4.43615 8.44484 4.55819 8.56688L9.55819 13.5669C9.8024 13.8111 10.1979 13.8111 10.4419 13.5669L15.4419 8.56688C15.6862 8.32266 15.6862 7.92719 15.4419 7.68312C15.1977 7.43906 14.8022 7.43891 14.5582 7.68312L10.0001 12.2413L5.44194 7.68312C5.19772 7.43891 4.80225 7.43891 4.55819 7.68312C4.43615 7.80516 4.37506 7.96516 4.37506 8.125ZM10.0001 0C15.514 0 20.0001 4.48609 20.0001 10C20.0001 15.5139 15.514 20 10.0001 20C4.48615 20 6.10352e-05 15.5139 6.10352e-05 10C6.10352e-05 4.48609 4.48615 0 10.0001 0ZM10.0001 1.25C5.17522 1.25 1.25006 5.17516 1.25006 10C1.25006 14.8248 5.17522 18.75 10.0001 18.75C14.8249 18.75 18.7501 14.8248 18.7501 10C18.7501 5.17516 14.8249 1.25 10.0001 1.25Z" fill="white"/>
</svg>
