<svg width="23" height="23" viewBox="0 0 23 23" fill="none" xmlns="http://www.w3.org/2000/svg">
<path d="M7.91897 3.2806C8.49647 3.29816 9.05564 3.39899 9.59739 3.58324H9.65147C9.68814 3.60066 9.71564 3.61991 9.73397 3.63733C9.93656 3.70241 10.1281 3.77574 10.3115 3.87658L10.6598 4.03241C10.7973 4.10574 10.9623 4.24233 11.054 4.29824C11.1456 4.35233 11.2465 4.40824 11.329 4.47149C12.3474 3.69324 13.584 3.27158 14.8581 3.2806C15.4366 3.2806 16.0141 3.36233 16.5631 3.54658C19.9466 4.64658 21.1657 8.35908 20.1473 11.6041C19.5698 13.2623 18.6256 14.7757 17.3891 16.0123C15.619 17.7265 13.6766 19.2482 11.5856 20.559L11.3565 20.6974L11.1181 20.5498C9.01989 19.2482 7.06647 17.7265 5.27989 16.0032C4.05156 14.7666 3.10647 13.2623 2.51981 11.6041C1.48397 8.35908 2.70314 4.64658 6.12322 3.52733C6.38906 3.43566 6.66314 3.37149 6.93814 3.33574H7.04814C7.30572 3.29816 7.56147 3.2806 7.81814 3.2806H7.91897ZM16.0865 6.17741C15.7106 6.04816 15.2981 6.25074 15.1606 6.63574C15.0323 7.02074 15.234 7.44241 15.619 7.57899C16.2066 7.799 16.5998 8.37741 16.5998 9.01816V9.04658C16.5824 9.25649 16.6456 9.45908 16.774 9.61491C16.9023 9.77074 17.0948 9.86149 17.2965 9.88074C17.6723 9.87066 17.9931 9.56908 18.0206 9.18316V9.07408C18.0481 7.78983 17.2699 6.62658 16.0865 6.17741Z" fill="#FD5530"/>
</svg>
