<svg width="145" height="42" viewBox="0 0 145 42" fill="none" xmlns="http://www.w3.org/2000/svg">
<path d="M144.056 36.9823C144.056 39.2097 142.214 41.014 139.936 41.014H5.10966C2.83266 41.014 0.984375 39.2097 0.984375 36.9823V4.83177C0.984375 2.60545 2.83266 0.794922 5.10966 0.794922H139.935C142.214 0.794922 144.055 2.60545 144.055 4.83177L144.056 36.9823Z" fill="#001641"/>
<path d="M139.501 0.84456C141.982 0.84456 144 2.81291 144 5.23188V36.5792C144 38.9981 141.982 40.9665 139.501 40.9665H5.53816C3.0572 40.9665 1.03839 38.9981 1.03839 36.5792V5.23188C1.03839 2.81291 3.0572 0.84456 5.53816 0.84456H139.501ZM139.501 0.00732422H5.53816C2.59235 0.00732422 0.179688 2.35968 0.179688 5.23188V36.5792C0.179688 39.4514 2.59235 41.8037 5.53816 41.8037H139.501C142.446 41.8037 144.859 39.4514 144.859 36.5792V5.23188C144.859 2.35968 142.446 0.00732422 139.501 0.00732422Z" fill="#A6A6A6"/>
<path d="M32.4677 20.6796C32.4367 17.3119 35.296 15.6734 35.4267 15.5972C33.8074 13.2952 31.2974 12.9807 30.4155 12.9556C28.3074 12.7393 26.2627 14.1855 25.1888 14.1855C24.0935 14.1855 22.4399 12.9765 20.6576 13.0121C18.3642 13.0466 16.2186 14.3412 15.042 16.3516C12.6135 20.4508 14.4247 26.4746 16.7513 29.7881C17.9151 31.4108 19.2752 33.2227 21.0553 33.159C22.7968 33.089 23.4473 32.0765 25.5489 32.0765C27.6312 32.0765 28.2421 33.159 30.0575 33.1182C31.9265 33.089 33.1033 31.4882 34.2264 29.8508C35.5714 27.9909 36.1116 26.1591 36.133 26.0651C36.089 26.0505 32.5031 24.7161 32.4677 20.6796Z" fill="white"/>
<path d="M29.037 10.776C29.9737 9.63396 30.6145 8.08018 30.4366 6.50342C29.0809 6.56193 27.3855 7.41771 26.4092 8.53472C25.5454 9.51902 24.7738 11.1324 24.9731 12.6496C26.496 12.7603 28.0596 11.9004 29.037 10.776Z" fill="white"/>
<path d="M57.6694 32.9261H55.2356L53.9024 28.8416H49.2684L47.9984 32.9261H45.6289L50.22 19.0205H53.0558L57.6694 32.9261ZM53.5006 27.1279L52.2949 23.4969C52.1673 23.1259 51.9283 22.2524 51.5758 20.8773H51.5329C51.3925 21.4687 51.1664 22.3423 50.8556 23.4969L49.6713 27.1279H53.5006Z" fill="white"/>
<path d="M69.4773 27.7889C69.4773 29.4942 69.0046 30.8422 68.0599 31.8317C67.2129 32.7125 66.1619 33.1524 64.9067 33.1524C63.5521 33.1524 62.5791 32.6781 61.9865 31.7293H61.9435V37.0112H59.6589V26.1996C59.6589 25.1276 59.63 24.0273 59.574 22.8988H61.5833L61.7112 24.4881H61.7536C62.5158 23.2907 63.6719 22.693 65.2239 22.693C66.4372 22.693 67.4502 23.1601 68.2603 24.0953C69.0722 25.0314 69.4773 26.2623 69.4773 27.7889ZM67.1496 27.8704C67.1496 26.8945 66.9246 26.0899 66.4723 25.4567C65.9787 24.7964 65.3149 24.4662 64.4832 24.4662C63.9196 24.4662 63.4076 24.6501 62.9497 25.0126C62.4912 25.3783 62.1912 25.8559 62.0505 26.4473C61.9798 26.7231 61.9447 26.9488 61.9447 27.1265V28.7983C61.9447 29.5277 62.174 30.1431 62.6325 30.6457C63.0911 31.1483 63.6873 31.3991 64.4199 31.3991C65.2804 31.3991 65.9504 31.0752 66.4298 30.4294C66.9099 29.7826 67.1496 28.93 67.1496 27.8704Z" fill="white"/>
<path d="M81.305 27.7888C81.305 29.4941 80.8323 30.842 79.8858 31.8316C79.0406 32.7124 77.9889 33.1523 76.7338 33.1523C75.3791 33.1523 74.4061 32.6779 73.8149 31.7292H73.7718V37.0111H71.4872V26.1995C71.4872 25.1274 71.4583 24.0272 71.4023 22.8987H73.4116L73.5395 24.488H73.5819C74.3428 23.2906 75.4996 22.6929 77.0522 22.6929C78.2643 22.6929 79.2772 23.1599 80.0898 24.0951C80.8987 25.0313 81.305 26.2622 81.305 27.7888ZM78.9773 27.8703C78.9773 26.8944 78.7511 26.0898 78.2987 25.4566C77.8046 24.7963 77.1432 24.4661 76.3109 24.4661C75.7461 24.4661 75.2347 24.65 74.7762 25.0125C74.3176 25.3782 74.0183 25.8557 73.8782 26.4472C73.8081 26.723 73.7718 26.9487 73.7718 27.1263V28.7982C73.7718 29.5275 74.0011 30.143 74.4578 30.6456C74.9163 31.1472 75.5125 31.399 76.2476 31.399C77.1082 31.399 77.7781 31.0751 78.2569 30.4293C78.737 29.7825 78.9773 28.9299 78.9773 27.8703Z" fill="white"/>
<path d="M94.5295 29.0265C94.5295 30.2093 94.1085 31.1717 93.2627 31.9146C92.334 32.7265 91.0402 33.1319 89.3782 33.1319C87.8434 33.1319 86.6135 32.8435 85.6816 32.2657L86.2115 30.4089C87.2146 31.0003 88.3148 31.2971 89.514 31.2971C90.3745 31.2971 91.0445 31.1069 91.5257 30.7286C92.0046 30.3504 92.2437 29.8426 92.2437 29.2094C92.2437 28.6452 92.0464 28.1697 91.6511 27.7842C91.2578 27.3986 90.6007 27.0402 89.6836 26.709C87.1863 25.8009 85.9392 24.4708 85.9392 22.7216C85.9392 21.5785 86.3762 20.6412 87.2521 19.912C88.1243 19.1816 89.2878 18.8169 90.7433 18.8169C92.0414 18.8169 93.1195 19.0374 93.98 19.4773L93.409 21.2933C92.6051 20.8669 91.696 20.6538 90.6794 20.6538C89.8754 20.6538 89.2472 20.8471 88.7973 21.2316C88.4168 21.5754 88.2263 21.9944 88.2263 22.4907C88.2263 23.0403 88.4439 23.4949 88.8809 23.8522C89.2614 24.1824 89.9529 24.5398 90.9553 24.9253C92.1828 25.407 93.0839 25.9702 93.6635 26.616C94.2413 27.2596 94.5295 28.0652 94.5295 29.0265Z" fill="white"/>
<path d="M102.086 24.571H99.5673V29.4391C99.5673 30.6774 100.011 31.2959 100.901 31.2959C101.309 31.2959 101.647 31.2614 101.915 31.1924L101.979 32.8841C101.529 33.0482 100.936 33.1307 100.202 33.1307C99.2993 33.1307 98.5937 32.8622 98.0848 32.3262C97.5783 31.7891 97.3232 30.8884 97.3232 29.623V24.569H95.8223V22.8971H97.3232V21.0613L99.5673 20.4009V22.8971H102.086V24.571Z" fill="white"/>
<path d="M113.447 27.8299C113.447 29.3712 112.995 30.6365 112.093 31.626C111.147 32.6448 109.89 33.1526 108.325 33.1526C106.816 33.1526 105.615 32.6647 104.719 31.6887C103.822 30.7128 103.375 29.4809 103.375 27.9961C103.375 26.4424 103.835 25.1697 104.76 24.1801C105.683 23.1896 106.928 22.6943 108.494 22.6943C110.003 22.6943 111.217 23.1823 112.134 24.1592C113.01 25.107 113.447 26.3306 113.447 27.8299ZM111.077 27.902C111.077 26.9773 110.874 26.1843 110.464 25.5228C109.985 24.7224 109.3 24.3233 108.413 24.3233C107.494 24.3233 106.797 24.7235 106.317 25.5228C105.907 26.1853 105.705 26.9909 105.705 27.9438C105.705 28.8686 105.907 29.6617 106.317 30.322C106.812 31.1224 107.502 31.5215 108.392 31.5215C109.265 31.5215 109.949 31.114 110.443 30.3011C110.865 29.6272 111.077 28.8257 111.077 27.902Z" fill="white"/>
<path d="M120.876 24.858C120.649 24.8173 120.408 24.7964 120.155 24.7964C119.351 24.7964 118.73 25.0921 118.293 25.6846C117.912 26.207 117.721 26.8674 117.721 27.6647V32.9258H115.438L115.459 26.0565C115.459 24.9009 115.43 23.8487 115.373 22.8999H117.364L117.447 24.8183H117.51C117.751 24.159 118.132 23.6282 118.652 23.2301C119.162 22.8717 119.711 22.693 120.304 22.693C120.515 22.693 120.706 22.7076 120.876 22.7337V24.858Z" fill="white"/>
<path d="M131.094 27.4381C131.094 27.8373 131.068 28.1737 131.011 28.4485H124.156C124.183 29.4391 124.514 30.1967 125.151 30.7191C125.728 31.1862 126.476 31.4202 127.393 31.4202C128.408 31.4202 129.334 31.2625 130.166 30.9459L130.524 32.4923C129.551 32.9062 128.402 33.112 127.077 33.112C125.482 33.112 124.23 32.6543 123.319 31.74C122.41 30.8257 121.955 29.5979 121.955 28.0577C121.955 26.5458 122.378 25.2866 123.226 24.2824C124.114 23.2104 125.313 22.6743 126.822 22.6743C128.304 22.6743 129.426 23.2104 130.188 24.2824C130.791 25.134 131.094 26.1874 131.094 27.4381ZM128.916 26.8603C128.931 26.1999 128.782 25.6293 128.472 25.1476C128.076 24.528 127.469 24.2187 126.651 24.2187C125.904 24.2187 125.297 24.5207 124.833 25.1267C124.452 25.6084 124.226 26.1863 124.156 26.8592H128.916V26.8603Z" fill="white"/>
<path d="M52.7456 10.4652C52.7456 11.6951 52.3673 12.6208 51.6118 13.2425C50.912 13.8162 49.9174 14.1035 48.6292 14.1035C47.9905 14.1035 47.4439 14.0763 46.9863 14.022V7.30226C47.5833 7.20822 48.2263 7.16016 48.9208 7.16016C50.1478 7.16016 51.0727 7.42034 51.6965 7.9407C52.3952 8.52898 52.7456 9.37013 52.7456 10.4652ZM51.5614 10.4955C51.5614 9.69823 51.3449 9.08696 50.912 8.66064C50.479 8.23536 49.8467 8.0222 49.014 8.0222C48.6603 8.0222 48.3592 8.04519 48.1095 8.09326V13.2017C48.2477 13.2226 48.5006 13.232 48.8683 13.232C49.7277 13.232 50.3911 12.999 50.8584 12.5331C51.3256 12.067 51.5614 11.3878 51.5614 10.4955Z" fill="white"/>
<path d="M59.0264 11.5405C59.0264 12.2981 58.8043 12.9188 58.3606 13.4057C57.8955 13.9062 57.2793 14.1559 56.5098 14.1559C55.7682 14.1559 55.1777 13.9167 54.7372 13.436C54.2978 12.9564 54.0781 12.3514 54.0781 11.622C54.0781 10.8593 54.3043 10.2334 54.7587 9.74747C55.2131 9.26153 55.8239 9.01807 56.5934 9.01807C57.335 9.01807 57.9309 9.25735 58.3821 9.73702C58.8108 10.2031 59.0264 10.8049 59.0264 11.5405ZM57.8612 11.5761C57.8612 11.1215 57.7605 10.7318 57.5601 10.4068C57.3243 10.0139 56.9889 9.81748 56.5527 9.81748C56.1015 9.81748 55.7585 10.0139 55.5228 10.4068C55.3213 10.7318 55.2216 11.1278 55.2216 11.5959C55.2216 12.0504 55.3224 12.4402 55.5228 12.7652C55.7661 13.158 56.1047 13.3545 56.542 13.3545C56.9707 13.3545 57.3071 13.1549 57.5494 12.7547C57.7572 12.4235 57.8612 12.0306 57.8612 11.5761Z" fill="white"/>
<path d="M67.4449 9.11768L65.864 14.0434H64.8351L64.1805 11.9045C64.0145 11.3706 63.8793 10.8397 63.7742 10.3131H63.7539C63.6562 10.8544 63.5216 11.3841 63.3476 11.9045L62.6524 14.0434H61.6118L60.125 9.11768H61.2793L61.8509 11.4594C61.9886 12.0132 62.1023 12.5409 62.1933 13.0403H62.2142C62.2978 12.6286 62.4361 12.1041 62.6309 11.4698L63.3476 9.11872H64.2628L64.95 11.4197C65.116 11.9808 65.2512 12.521 65.3551 13.0414H65.3864C65.462 12.5346 65.577 11.9944 65.7294 11.4197L66.3422 9.11872H67.4449V9.11768Z" fill="white"/>
<path d="M73.2664 14.0429H72.1429V11.2216C72.1429 10.3522 71.8042 9.91752 71.125 9.91752C70.7919 9.91752 70.5226 10.0366 70.3137 10.2759C70.1071 10.5153 70.002 10.7974 70.002 11.1203V14.0419H68.8785V10.5247C68.8785 10.092 68.8649 9.62285 68.8379 9.11503H69.825L69.8773 9.88512H69.9086C70.0395 9.64584 70.2344 9.44835 70.4907 9.29057C70.7949 9.10667 71.1355 9.01367 71.5086 9.01367C71.98 9.01367 72.3727 9.16205 72.6844 9.45985C73.0722 9.82452 73.2664 10.369 73.2664 11.0921V14.0429Z" fill="white"/>
<path d="M76.3645 14.0433H75.2421V6.8573H76.3645V14.0433Z" fill="white"/>
<path d="M82.9753 11.5405C82.9753 12.2981 82.754 12.9188 82.3102 13.4057C81.8449 13.9062 81.2278 14.1559 80.4589 14.1559C79.7164 14.1559 79.1257 13.9167 78.6869 13.436C78.2474 12.9564 78.0273 12.3514 78.0273 11.622C78.0273 10.8593 78.2535 10.2334 78.7078 9.74747C79.1626 9.26153 79.7736 9.01807 80.5419 9.01807C81.2844 9.01807 81.8794 9.25735 82.3317 9.73702C82.7602 10.2031 82.9753 10.8049 82.9753 11.5405ZM81.8093 11.5761C81.8093 11.1215 81.7091 10.7318 81.5081 10.4068C81.2739 10.0139 80.9371 9.81748 80.5019 9.81748C80.0495 9.81748 79.7066 10.0139 79.4724 10.4068C79.2708 10.7318 79.1712 11.1278 79.1712 11.5959C79.1712 12.0504 79.272 12.4402 79.4724 12.7652C79.7152 13.158 80.0538 13.3545 80.4915 13.3545C80.9199 13.3545 81.2555 13.1549 81.4977 12.7547C81.7066 12.4235 81.8093 12.0306 81.8093 11.5761Z" fill="white"/>
<path d="M88.4127 14.0441H87.4047L87.3211 13.4767H87.2897C86.9449 13.9292 86.4526 14.1559 85.8139 14.1559C85.337 14.1559 84.9516 14.0065 84.6608 13.7098C84.3972 13.4402 84.2656 13.1048 84.2656 12.7066C84.2656 12.1048 84.5226 11.6461 85.0401 11.3284C85.557 11.0108 86.2835 10.8551 87.219 10.8624V10.7704C87.219 10.1215 86.8699 9.79763 86.1698 9.79763C85.6713 9.79763 85.2319 9.91988 84.8526 10.1623L84.6246 9.44334C85.0942 9.16017 85.6738 9.01807 86.3573 9.01807C87.6776 9.01807 88.3402 9.69732 88.3402 11.0557V12.8697C88.3402 13.3618 88.3647 13.7536 88.4127 14.0441ZM87.2467 12.3514V11.5917C86.0082 11.5708 85.3886 11.9021 85.3886 12.5844C85.3886 12.8414 85.4593 13.0337 85.6037 13.1622C85.7488 13.2908 85.9332 13.3545 86.1526 13.3545C86.3991 13.3545 86.6296 13.2782 86.8398 13.1267C87.0506 12.9741 87.1803 12.7808 87.2289 12.5436C87.2405 12.4904 87.2467 12.4256 87.2467 12.3514Z" fill="white"/>
<path d="M94.7933 14.0433H93.7969L93.744 13.2523H93.7133C93.3949 13.8542 92.8522 14.1551 92.0906 14.1551C91.4815 14.1551 90.975 13.9221 90.5731 13.4561C90.1711 12.99 89.9707 12.385 89.9707 11.6421C89.9707 10.8448 90.1883 10.1991 90.6253 9.7059C91.0488 9.24608 91.5676 9.0162 92.1847 9.0162C92.8632 9.0162 93.3378 9.23876 93.6082 9.685H93.6297V6.85742H94.7539V12.7163C94.7539 13.1959 94.7668 13.6379 94.7933 14.0433ZM93.6297 11.966V11.1447C93.6297 11.0026 93.6187 10.8877 93.5984 10.7999C93.5351 10.5366 93.3992 10.3151 93.1921 10.1364C92.9831 9.95772 92.7311 9.86786 92.441 9.86786C92.0218 9.86786 91.6942 10.0298 91.4526 10.3548C91.2135 10.6798 91.0924 11.0946 91.0924 11.6014C91.0924 12.0883 91.2074 12.4833 91.4379 12.7873C91.6813 13.1112 92.0089 13.2732 92.4195 13.2732C92.7883 13.2732 93.0827 13.1384 93.307 12.8678C93.5234 12.6181 93.6297 12.3171 93.6297 11.966Z" fill="white"/>
<path d="M104.399 11.5405C104.399 12.2981 104.177 12.9188 103.733 13.4057C103.268 13.9062 102.653 14.1559 101.883 14.1559C101.142 14.1559 100.551 13.9167 100.11 13.436C99.6706 12.9564 99.4512 12.3514 99.4512 11.622C99.4512 10.8593 99.6774 10.2334 100.132 9.74747C100.586 9.26153 101.197 9.01807 101.968 9.01807C102.708 9.01807 103.305 9.25735 103.755 9.73702C104.183 10.2031 104.399 10.8049 104.399 11.5405ZM103.235 11.5761C103.235 11.1215 103.134 10.7318 102.934 10.4068C102.697 10.0139 102.363 9.81748 101.926 9.81748C101.475 9.81748 101.132 10.0139 100.896 10.4068C100.694 10.7318 100.594 11.1278 100.594 11.5959C100.594 12.0504 100.695 12.4402 100.896 12.7652C101.139 13.158 101.478 13.3545 101.915 13.3545C102.344 13.3545 102.681 13.1549 102.923 12.7547C103.13 12.4235 103.235 12.0306 103.235 11.5761Z" fill="white"/>
<path d="M110.438 14.0429H109.317V11.2216C109.317 10.3522 108.978 9.91752 108.298 9.91752C107.964 9.91752 107.695 10.0366 107.487 10.2759C107.279 10.5153 107.175 10.7974 107.175 11.1203V14.0419H106.051V10.5247C106.051 10.092 106.038 9.62285 106.012 9.11503H106.998L107.05 9.88512H107.081C107.213 9.64584 107.408 9.44835 107.663 9.29057C107.968 9.10667 108.308 9.01367 108.682 9.01367C109.153 9.01367 109.545 9.16205 109.857 9.45985C110.246 9.82452 110.438 10.369 110.438 11.0921V14.0429Z" fill="white"/>
<path d="M117.996 9.93754H116.76V12.3304C116.76 12.9385 116.98 13.2426 117.415 13.2426C117.616 13.2426 117.784 13.2259 117.915 13.1914L117.944 14.0221C117.722 14.1036 117.431 14.1443 117.072 14.1443C116.628 14.1443 116.283 14.0127 116.033 13.7494C115.782 13.486 115.658 13.043 115.658 12.4213V9.93754H114.92V9.11728H115.658V8.21455L116.759 7.89062V9.11624H117.996L117.996 9.93754Z" fill="white"/>
<path d="M123.942 14.0434H122.818V11.243C122.818 10.3601 122.479 9.91802 121.801 9.91802C121.28 9.91802 120.924 10.1741 120.729 10.6861C120.696 10.7937 120.676 10.9254 120.676 11.08V14.0424H119.555V6.85742H120.676V9.82606H120.698C121.052 9.28585 121.558 9.01626 122.216 9.01626C122.681 9.01626 123.066 9.16464 123.371 9.46244C123.752 9.83338 123.942 10.3851 123.942 11.1145V14.0434Z" fill="white"/>
<path d="M130.078 11.3474C130.078 11.5439 130.062 11.709 130.036 11.8438H126.668C126.682 12.3307 126.844 12.7017 127.155 12.9587C127.44 13.1886 127.808 13.3035 128.258 13.3035C128.756 13.3035 129.211 13.2262 129.62 13.0705L129.796 13.8312C129.317 14.0339 128.753 14.1354 128.1 14.1354C127.318 14.1354 126.702 13.9106 126.256 13.4613C125.808 13.012 125.586 12.4091 125.586 11.6525C125.586 10.9096 125.793 10.291 126.21 9.79776C126.645 9.27113 127.233 9.00781 127.976 9.00781C128.703 9.00781 129.255 9.27113 129.627 9.79776C129.928 10.2157 130.078 10.733 130.078 11.3474ZM129.006 11.0642C129.014 10.7393 128.941 10.4592 128.788 10.223C128.593 9.91897 128.297 9.76641 127.895 9.76641C127.528 9.76641 127.229 9.91479 127.001 10.2126C126.814 10.4498 126.704 10.733 126.668 11.0642H129.006Z" fill="white"/>
</svg>
