<svg width="16" height="16" viewBox="0 0 16 16" fill="none" xmlns="http://www.w3.org/2000/svg">
<path d="M14.6473 12.227C14.6473 12.467 14.594 12.7137 14.4807 12.9537C14.3673 13.1937 14.2207 13.4203 14.0273 13.6337C13.7007 13.9937 13.3407 14.2537 12.934 14.4203C12.534 14.587 12.1007 14.6737 11.634 14.6737C10.954 14.6737 10.2273 14.5137 9.46065 14.187C8.69398 13.8603 7.92732 13.4203 7.16732 12.867C6.40065 12.307 5.67398 11.687 4.98065 11.0003C4.29398 10.307 3.67398 9.58033 3.12065 8.82033C2.57398 8.06033 2.13398 7.30033 1.81398 6.547C1.49398 5.787 1.33398 5.06033 1.33398 4.367C1.33398 3.91367 1.41398 3.48033 1.57398 3.08033C1.73398 2.67367 1.98732 2.30033 2.34065 1.967C2.76732 1.547 3.23398 1.34033 3.72732 1.34033C3.91398 1.34033 4.10065 1.38033 4.26732 1.46033C4.44065 1.54033 4.59398 1.66033 4.71398 1.83367L6.26065 4.01367C6.38065 4.18033 6.46732 4.33367 6.52732 4.48033C6.58732 4.62033 6.62065 4.76033 6.62065 4.887C6.62065 5.047 6.57398 5.207 6.48065 5.36033C6.39398 5.51366 6.26732 5.67366 6.10732 5.83366L5.60065 6.36033C5.52732 6.43366 5.49398 6.52033 5.49398 6.627C5.49398 6.68033 5.50065 6.727 5.51398 6.78033C5.53398 6.83366 5.55398 6.87366 5.56732 6.91366C5.68732 7.13366 5.89398 7.42033 6.18732 7.767C6.48732 8.11367 6.80732 8.467 7.15398 8.82033C7.51398 9.17367 7.86065 9.50033 8.21398 9.80033C8.56065 10.0937 8.84732 10.2937 9.07398 10.4137C9.10732 10.427 9.14732 10.447 9.19398 10.467C9.24732 10.487 9.30065 10.4937 9.36065 10.4937C9.47398 10.4937 9.56065 10.4537 9.63398 10.3803L10.1407 9.88033C10.3073 9.71367 10.4673 9.587 10.6207 9.507C10.774 9.41366 10.9273 9.367 11.094 9.367C11.2207 9.367 11.354 9.39366 11.5007 9.45366C11.6473 9.51366 11.8007 9.60033 11.9673 9.71367L14.174 11.2803C14.3473 11.4003 14.4673 11.5403 14.5407 11.707C14.6073 11.8737 14.6473 12.0403 14.6473 12.227Z" stroke="white" stroke-width="0.9375" stroke-miterlimit="10"/>
<path d="M12.3333 6.00667C12.3333 5.60667 12.02 4.99334 11.5533 4.49334C11.1267 4.03334 10.56 3.67334 10 3.67334" stroke="white" stroke-width="0.9375" stroke-linecap="round" stroke-linejoin="round"/>
<path d="M14.6667 6.007C14.6667 3.427 12.58 1.34033 10 1.34033" stroke="white" stroke-width="0.9375" stroke-linecap="round" stroke-linejoin="round"/>
</svg>
