<svg width="145" height="42" viewBox="0 0 145 42" fill="none" xmlns="http://www.w3.org/2000/svg">
<path d="M139.129 41.8037H5.35115C2.40935 41.8037 0 39.4514 0 36.5792V5.23188C0 2.35968 2.40935 0.00732422 5.35115 0.00732422H139.129C142.071 0.00732422 144.48 2.35968 144.48 5.23188V36.5792C144.48 39.4514 142.071 41.8037 139.129 41.8037Z" fill="#001641"/>
<path d="M139.129 0.84456C141.607 0.84456 143.623 2.81291 143.623 5.23188V36.5792C143.623 38.9981 141.607 40.9665 139.129 40.9665H5.35115C2.87355 40.9665 0.857518 38.9981 0.857518 36.5792V5.23188C0.857518 2.81291 2.87355 0.84456 5.35115 0.84456H139.129ZM139.129 0.00732422H5.35115C2.40935 0.00732422 0 2.35968 0 5.23188V36.5792C0 39.4514 2.40935 41.8037 5.35115 41.8037H139.129C142.071 41.8037 144.48 39.4514 144.48 36.5792V5.23188C144.48 2.35968 142.071 0.00732422 139.129 0.00732422Z" fill="#A6A6A6"/>
<path d="M50.7469 10.7116C50.7469 11.5841 50.4793 12.2829 49.9522 12.804C49.3462 13.4219 48.5569 13.7327 47.5897 13.7327C46.6652 13.7327 45.876 13.4167 45.2285 12.7936C44.5796 12.1614 44.2559 11.3856 44.2559 10.4569C44.2559 9.52826 44.5796 8.75245 45.2285 8.1255C45.876 7.49727 46.6652 7.18115 47.5897 7.18115C48.0499 7.18115 48.4887 7.2739 48.9074 7.44631C49.3248 7.62001 49.6646 7.85512 49.9108 8.14511L49.3516 8.69627C48.9221 8.20123 48.3375 7.95703 47.5897 7.95703C46.9154 7.95703 46.3308 8.18691 45.8345 8.65054C45.3435 9.11552 45.0974 9.71769 45.0974 10.4569C45.0974 11.1962 45.3435 11.8036 45.8345 12.2686C46.3308 12.727 46.9154 12.9621 47.5897 12.9621C48.3054 12.9621 48.9074 12.727 49.3823 12.2633C49.6953 11.9564 49.8733 11.5332 49.9201 10.9925H47.5897V10.2375H50.6987C50.7362 10.4008 50.7469 10.5588 50.7469 10.7116Z" fill="white" stroke="white" stroke-width="0.0983442" stroke-miterlimit="10"/>
<path d="M55.6788 8.09352H52.7584V10.0788H55.3911V10.8337H52.7584V12.819H55.6788V13.5883H51.9316V7.32422H55.6788V8.09352Z" fill="white" stroke="white" stroke-width="0.0983442" stroke-miterlimit="10"/>
<path d="M59.1613 13.5883H58.3342V8.09352H56.543V7.32422H60.9536V8.09352H59.1613V13.5883Z" fill="white" stroke="white" stroke-width="0.0983442" stroke-miterlimit="10"/>
<path d="M64.1445 13.5883V7.32422H64.97V13.5883H64.1445Z" fill="white" stroke="white" stroke-width="0.0983442" stroke-miterlimit="10"/>
<path d="M68.6301 13.5883H67.8102V8.09352H66.0117V7.32422H70.428V8.09352H68.6301V13.5883Z" fill="white" stroke="white" stroke-width="0.0983442" stroke-miterlimit="10"/>
<path d="M78.778 12.783C78.1449 13.4165 77.3612 13.7326 76.4263 13.7326C75.4853 13.7326 74.7016 13.4165 74.0691 12.783C73.4373 12.1509 73.1232 11.375 73.1232 10.4568C73.1232 9.53859 73.4373 8.76277 74.0691 8.1306C74.7016 7.49715 75.4853 7.18103 76.4263 7.18103C77.3557 7.18103 78.14 7.49715 78.7724 8.13583C79.4092 8.77322 79.7239 9.54381 79.7239 10.4568C79.7239 11.375 79.4092 12.1509 78.778 12.783ZM74.6801 12.258C75.1564 12.7269 75.7355 12.962 76.4263 12.962C77.111 12.962 77.6956 12.7269 78.1664 12.258C78.6415 11.7891 78.8825 11.187 78.8825 10.4568C78.8825 9.72667 78.6415 9.12456 78.1664 8.65564C77.6956 8.18678 77.111 7.95168 76.4263 7.95168C75.7355 7.95168 75.1564 8.18678 74.6801 8.65564C74.2056 9.12456 73.9646 9.72667 73.9646 10.4568C73.9646 11.187 74.2056 11.7891 74.6801 12.258Z" fill="white" stroke="white" stroke-width="0.0983442" stroke-miterlimit="10"/>
<path d="M80.8828 13.5883V7.32422H81.8859L85.0059 12.196H85.0422L85.0059 10.9918V7.32422H85.8314V13.5883H84.9696L81.7028 8.4762H81.6665L81.7028 9.68565V13.5883H80.8828Z" fill="white" stroke="white" stroke-width="0.0983442" stroke-miterlimit="10"/>
<path d="M72.9199 22.737C70.406 22.737 68.3524 24.6048 68.3524 27.1818C68.3524 29.7379 70.406 31.6253 72.9199 31.6253C75.4387 31.6253 77.4923 29.7379 77.4923 27.1818C77.4923 24.6048 75.4387 22.737 72.9199 22.737ZM72.9199 29.875C71.5406 29.875 70.3537 28.7635 70.3537 27.1818C70.3537 25.5791 71.5406 24.4872 72.9199 24.4872C74.2992 24.4872 75.491 25.5791 75.491 27.1818C75.491 28.7635 74.2992 29.875 72.9199 29.875ZM62.9545 22.737C60.4357 22.737 58.3873 24.6048 58.3873 27.1818C58.3873 29.7379 60.4357 31.6253 62.9545 31.6253C65.4722 31.6253 67.5214 29.7379 67.5214 27.1818C67.5214 24.6048 65.4722 22.737 62.9545 22.737ZM62.9545 29.875C61.574 29.875 60.3835 28.7635 60.3835 27.1818C60.3835 25.5791 61.574 24.4872 62.9545 24.4872C64.3338 24.4872 65.5201 25.5791 65.5201 27.1818C65.5201 28.7635 64.3338 29.875 62.9545 29.875ZM51.0964 24.0993V25.9879H55.7157C55.5806 27.0433 55.2194 27.8192 54.6656 28.3599C53.9913 29.013 52.9412 29.7379 51.0964 29.7379C48.2536 29.7379 46.0275 27.4979 46.0275 24.7223C46.0275 21.9467 48.2536 19.7067 51.0964 19.7067C52.6335 19.7067 53.7519 20.2932 54.5773 21.0533L55.9405 19.7224C54.786 18.6461 53.2502 17.8193 51.0964 17.8193C47.1981 17.8193 43.9219 20.9162 43.9219 24.7223C43.9219 28.5284 47.1981 31.6253 51.0964 31.6253C53.2034 31.6253 54.786 30.9513 56.0301 29.687C57.305 28.4422 57.7023 26.6919 57.7023 25.2787C57.7023 24.8399 57.6649 24.4362 57.598 24.0993H51.0964ZM99.5859 25.5634C99.2097 24.5695 98.0499 22.737 95.6872 22.737C93.346 22.737 91.3969 24.5381 91.3969 27.1818C91.3969 29.6713 93.3263 31.6253 95.9121 31.6253C98.0032 31.6253 99.2097 30.3805 99.7058 29.6556L98.1544 28.646C97.6362 29.3852 96.9312 29.875 95.9121 29.875C94.8992 29.875 94.1727 29.4218 93.7074 28.5284L99.7955 26.0689L99.5859 25.5634ZM93.3785 27.0433C93.3263 25.3296 94.7418 24.4519 95.7554 24.4519C96.5501 24.4519 97.2244 24.8399 97.4494 25.395L93.3785 27.0433ZM88.43 31.3549H90.4313V18.2935H88.43V31.3549ZM85.152 23.727H85.0857C84.6357 23.2072 83.7783 22.737 82.6922 22.737C80.4125 22.737 78.3282 24.691 78.3282 27.1961C78.3282 29.687 80.4125 31.6253 82.6922 31.6253C83.7783 31.6253 84.6357 31.1511 85.0857 30.6156H85.152V31.253C85.152 32.9523 84.2227 33.8653 82.7229 33.8653C81.5004 33.8653 80.7419 33.0032 80.4285 32.2783L78.6884 32.9876C79.1899 34.1657 80.5182 35.6155 82.7229 35.6155C85.0691 35.6155 87.0495 34.2676 87.0495 30.9879V23.0074H85.152V23.727ZM82.8631 29.875C81.4838 29.875 80.3295 28.7478 80.3295 27.1961C80.3295 25.6301 81.4838 24.4872 82.8631 24.4872C84.2227 24.4872 85.294 25.6301 85.294 27.1961C85.294 28.7478 84.2227 29.875 82.8631 29.875ZM108.956 18.2935H104.169V31.3549H106.165V26.406H108.956C111.172 26.406 113.346 24.8399 113.346 22.349C113.346 19.8595 111.167 18.2935 108.956 18.2935ZM109.008 24.589H106.165V20.1103H109.008C110.498 20.1103 111.348 21.3185 111.348 22.349C111.348 23.36 110.498 24.589 109.008 24.589ZM121.346 22.7121C119.904 22.7121 118.404 23.3339 117.788 24.7118L119.559 25.4368C119.94 24.7118 120.641 24.4767 121.382 24.4767C122.418 24.4767 123.468 25.0841 123.484 26.1565V26.2936C123.123 26.0898 122.349 25.7881 121.398 25.7881C119.491 25.7881 117.547 26.8135 117.547 28.7269C117.547 30.4772 119.109 31.6044 120.866 31.6044C122.209 31.6044 122.95 31.0127 123.415 30.3244H123.484V31.334H125.412V26.3236C125.412 24.0078 123.64 22.7121 121.346 22.7121ZM121.105 29.8698C120.452 29.8698 119.542 29.5537 119.542 28.7635C119.542 27.7525 120.677 27.3646 121.659 27.3646C122.538 27.3646 122.95 27.554 123.484 27.8035C123.327 29.013 122.261 29.8698 121.105 29.8698ZM132.435 22.9982L130.141 28.6603H130.073L127.701 22.9982H125.548L129.112 30.9108L127.079 35.3138H129.164L134.655 22.9982H132.435ZM114.443 31.3549H116.445V18.2935H114.443V31.3549Z" fill="white"/>
<path d="M11.1682 7.88432C10.8538 8.20566 10.6719 8.70586 10.6719 9.3537V32.4617C10.6719 33.1095 10.8538 33.6097 11.1682 33.9311L11.2458 34.0016L24.5087 21.0579V20.7523L11.2458 7.80859L11.1682 7.88432Z" fill="url(#paint0_linear_1166_10001)"/>
<path d="M28.924 25.3758L24.508 21.0591V20.7535L28.9294 16.4368L29.0284 16.4929L34.2645 19.4017C35.7587 20.2271 35.7587 21.5855 34.2645 22.4162L29.0284 25.3196L28.924 25.3758Z" fill="url(#paint1_linear_1166_10001)"/>
<path d="M29.0289 25.3187L24.5085 20.9053L11.1682 33.9314C11.6645 34.4408 12.4739 34.5022 13.3942 33.9928L29.0289 25.3187Z" fill="url(#paint2_linear_1166_10001)"/>
<path d="M29.0289 16.4925L13.3942 7.81837C12.4739 7.31424 11.6645 7.37558 11.1682 7.885L24.5085 20.9059L29.0289 16.4925Z" fill="url(#paint3_linear_1166_10001)"/>
<defs>
<linearGradient id="paint0_linear_1166_10001" x1="23.331" y1="32.7023" x2="5.80015" y2="14.7464" gradientUnits="userSpaceOnUse">
<stop stop-color="#00A0FF"/>
<stop offset="0.0066" stop-color="#00A1FF"/>
<stop offset="0.2601" stop-color="#00BEFF"/>
<stop offset="0.5122" stop-color="#00D2FF"/>
<stop offset="0.7604" stop-color="#00DFFF"/>
<stop offset="1" stop-color="#00E3FF"/>
</linearGradient>
<linearGradient id="paint1_linear_1166_10001" x1="36.2103" y1="20.9048" x2="10.3142" y2="20.9048" gradientUnits="userSpaceOnUse">
<stop stop-color="#FFE000"/>
<stop offset="0.4087" stop-color="#FFBD00"/>
<stop offset="0.7754" stop-color="#FFA500"/>
<stop offset="1" stop-color="#FF9C00"/>
</linearGradient>
<linearGradient id="paint2_linear_1166_10001" x1="26.5708" y1="18.506" x2="2.79719" y2="-5.84348" gradientUnits="userSpaceOnUse">
<stop stop-color="#FF3A44"/>
<stop offset="1" stop-color="#C31162"/>
</linearGradient>
<linearGradient id="paint3_linear_1166_10001" x1="7.81013" y1="41.62" x2="18.4261" y2="30.7469" gradientUnits="userSpaceOnUse">
<stop stop-color="#32A071"/>
<stop offset="0.0685" stop-color="#2DA771"/>
<stop offset="0.4762" stop-color="#15CF74"/>
<stop offset="0.8009" stop-color="#06E775"/>
<stop offset="1" stop-color="#00F076"/>
</linearGradient>
</defs>
</svg>
