<svg width="177" height="51" viewBox="0 0 177 51" fill="none" xmlns="http://www.w3.org/2000/svg">
<path d="M169.633 50.9603H6.52342C2.93662 50.9603 -0.000976562 48.0922 -0.000976562 44.5903V6.37004C-0.000976562 2.86811 2.93662 0 6.52342 0H169.633C173.219 0 176.157 2.86811 176.157 6.37004V44.5903C176.157 48.0922 173.219 50.9603 169.633 50.9603Z" fill="#001641"/>
<path d="M169.633 1.0208C172.653 1.0208 175.111 3.42071 175.111 6.37004V44.5903C175.111 47.5396 172.653 49.9395 169.633 49.9395H6.52342C3.50261 49.9395 1.04455 47.5396 1.04455 44.5903V6.37004C1.04455 3.42071 3.50261 1.0208 6.52342 1.0208H169.633ZM169.633 0H6.52342C2.93662 0 -0.000976562 2.86811 -0.000976562 6.37004V44.5903C-0.000976562 48.0922 2.93662 50.9603 6.52342 50.9603H169.633C173.219 50.9603 176.157 48.0922 176.157 44.5903V6.37004C176.157 2.86811 173.219 0 169.633 0Z" fill="#A6A6A6"/>
<path d="M61.8741 13.0507C61.8741 14.1144 61.5479 14.9665 60.9052 15.6018C60.1664 16.3551 59.204 16.7341 58.0247 16.7341C56.8976 16.7341 55.9353 16.3487 55.1458 15.5891C54.3547 14.8183 53.96 13.8724 53.96 12.7401C53.96 11.6078 54.3547 10.6619 55.1458 9.89749C55.9353 9.13152 56.8976 8.74609 58.0247 8.74609C58.5858 8.74609 59.1208 8.85918 59.6314 9.06939C60.1402 9.28118 60.5546 9.56783 60.8547 9.9214L60.1729 10.5934C59.6493 9.98982 58.9365 9.69208 58.0247 9.69208C57.2026 9.69208 56.4898 9.97236 55.8847 10.5376C55.286 11.1046 54.986 11.8388 54.986 12.7401C54.986 13.6415 55.286 14.382 55.8847 14.9489C56.4898 15.5079 57.2026 15.7946 58.0247 15.7946C58.8973 15.7946 59.6314 15.5079 60.2104 14.9425C60.592 14.5683 60.809 14.0523 60.8661 13.3931H58.0247V12.4726H61.8154C61.8611 12.6716 61.8741 12.8643 61.8741 13.0507Z" fill="white" stroke="white" stroke-width="0.16" stroke-miterlimit="10"/>
<path d="M67.8861 9.85886H64.3254V12.2794H67.5354V13.1998H64.3254V15.6204H67.8861V16.5584H63.3174V8.9209H67.8861V9.85886Z" fill="white" stroke="white" stroke-width="0.16" stroke-miterlimit="10"/>
<path d="M72.1308 16.5584H71.1225V9.85886H68.9385V8.9209H74.3161V9.85886H72.1308V16.5584Z" fill="white" stroke="white" stroke-width="0.16" stroke-miterlimit="10"/>
<path d="M78.2078 16.5584V8.9209H79.2142V16.5584H78.2078Z" fill="white" stroke="white" stroke-width="0.16" stroke-miterlimit="10"/>
<path d="M83.6759 16.5584H82.6762V9.85886H80.4834V8.9209H85.8679V9.85886H83.6759V16.5584Z" fill="white" stroke="white" stroke-width="0.16" stroke-miterlimit="10"/>
<path d="M96.0499 15.5763C95.278 16.3487 94.3225 16.7341 93.1826 16.7341C92.0353 16.7341 91.0798 16.3487 90.3086 15.5763C89.5382 14.8056 89.1553 13.8596 89.1553 12.7401C89.1553 11.6205 89.5382 10.6746 90.3086 9.90386C91.0798 9.13152 92.0353 8.74609 93.1826 8.74609C94.3157 8.74609 95.272 9.13152 96.0431 9.91023C96.8195 10.6874 97.2032 11.6269 97.2032 12.7401C97.2032 13.8596 96.8195 14.8056 96.0499 15.5763ZM91.0535 14.9362C91.6343 15.5079 92.3403 15.7946 93.1826 15.7946C94.0175 15.7946 94.7302 15.5079 95.3042 14.9362C95.8835 14.3644 96.1773 13.6303 96.1773 12.7401C96.1773 11.8499 95.8835 11.1157 95.3042 10.544C94.7302 9.97236 94.0175 9.68571 93.1826 9.68571C92.3403 9.68571 91.6343 9.97236 91.0535 10.544C90.475 11.1157 90.1812 11.8499 90.1812 12.7401C90.1812 13.6303 90.475 14.3644 91.0535 14.9362Z" fill="white" stroke="white" stroke-width="0.16" stroke-miterlimit="10"/>
<path d="M98.6162 16.5584V8.9209H99.8393L103.643 14.8608H103.687L103.643 13.3926V8.9209H104.65V16.5584H103.599L99.6159 10.3254H99.5717L99.6159 11.8001V16.5584H98.6162Z" fill="white" stroke="white" stroke-width="0.16" stroke-miterlimit="10"/>
<path d="M88.9076 27.7136C85.8425 27.7136 83.3387 29.9909 83.3387 33.1329C83.3387 36.2495 85.8425 38.5506 88.9076 38.5506C91.9787 38.5506 94.4825 36.2495 94.4825 33.1329C94.4825 29.9909 91.9787 27.7136 88.9076 27.7136ZM88.9076 36.4167C87.2259 36.4167 85.7788 35.0615 85.7788 33.1329C85.7788 31.1789 87.2259 29.8476 88.9076 29.8476C90.5893 29.8476 92.0424 31.1789 92.0424 33.1329C92.0424 35.0615 90.5893 36.4167 88.9076 36.4167ZM76.7574 27.7136C73.6863 27.7136 71.1888 29.9909 71.1888 33.1329C71.1888 36.2495 73.6863 38.5506 76.7574 38.5506C79.827 38.5506 82.3255 36.2495 82.3255 33.1329C82.3255 29.9909 79.827 27.7136 76.7574 27.7136ZM76.7574 36.4167C75.0742 36.4167 73.6225 35.0615 73.6225 33.1329C73.6225 31.1789 75.0742 29.8476 76.7574 29.8476C78.439 29.8476 79.8854 31.1789 79.8854 33.1329C79.8854 35.0615 78.439 36.4167 76.7574 36.4167ZM62.2993 29.3746V31.6773H67.9314C67.7667 32.9641 67.3263 33.9101 66.6511 34.5694C65.829 35.3656 64.5486 36.2495 62.2993 36.2495C58.8333 36.2495 56.1191 33.5183 56.1191 30.1342C56.1191 26.7501 58.8333 24.0189 62.2993 24.0189C64.1734 24.0189 65.537 24.734 66.5434 25.6608L68.2055 24.038C66.7979 22.7258 64.9254 21.7178 62.2993 21.7178C57.5463 21.7178 53.5518 25.4936 53.5518 30.1342C53.5518 34.7748 57.5463 38.5506 62.2993 38.5506C64.8683 38.5506 66.7979 37.7289 68.3148 36.1874C69.8692 34.6697 70.3536 32.5357 70.3536 30.8127C70.3536 30.2776 70.308 29.7854 70.2264 29.3746H62.2993ZM121.42 31.1598C120.962 29.9479 119.547 27.7136 116.667 27.7136C113.812 27.7136 111.436 29.9097 111.436 33.1329C111.436 36.1683 113.788 38.5506 116.941 38.5506C119.49 38.5506 120.962 37.033 121.566 36.1492L119.675 34.9182C119.043 35.8195 118.183 36.4167 116.941 36.4167C115.706 36.4167 114.82 35.8641 114.253 34.7748L121.676 31.7761L121.42 31.1598ZM113.852 32.9641C113.788 30.8747 115.514 29.8045 116.75 29.8045C117.719 29.8045 118.541 30.2776 118.815 30.9544L113.852 32.9641ZM107.818 38.221H110.258V22.2959H107.818V38.221ZM103.822 28.9207H103.741C103.192 28.2869 102.147 27.7136 100.823 27.7136C98.0429 27.7136 95.5017 30.096 95.5017 33.1505C95.5017 36.1874 98.0429 38.5506 100.823 38.5506C102.147 38.5506 103.192 37.9726 103.741 37.3197H103.822V38.0968C103.822 40.1686 102.689 41.2818 100.86 41.2818C99.3694 41.2818 98.4446 40.2308 98.0624 39.3469L95.9408 40.2116C96.5524 41.6481 98.1718 43.4158 100.86 43.4158C103.72 43.4158 106.135 41.7723 106.135 37.7735V28.0433H103.822V28.9207ZM101.031 36.4167C99.3492 36.4167 97.9418 35.0423 97.9418 33.1505C97.9418 31.241 99.3492 29.8476 101.031 29.8476C102.689 29.8476 103.995 31.241 103.995 33.1505C103.995 35.0423 102.689 36.4167 101.031 36.4167ZM132.844 22.2959H127.008V38.221H129.442V32.187H132.844C135.547 32.187 138.197 30.2776 138.197 27.2406C138.197 24.2053 135.54 22.2959 132.844 22.2959ZM132.908 29.9717H129.442V24.5111H132.908C134.724 24.5111 135.762 25.9841 135.762 27.2406C135.762 28.4732 134.724 29.9717 132.908 29.9717ZM147.951 27.6833C146.193 27.6833 144.364 28.4414 143.613 30.1215L145.772 31.0053C146.237 30.1215 147.091 29.8348 147.995 29.8348C149.258 29.8348 150.538 30.5753 150.557 31.8828V32.05C150.117 31.8016 149.175 31.4337 148.015 31.4337C145.689 31.4337 143.319 32.6839 143.319 35.0169C143.319 37.1508 145.224 38.5252 147.366 38.5252C149.003 38.5252 149.907 37.8038 150.474 36.9645H150.557V38.1955H152.908V32.0867C152.908 29.2631 150.748 27.6833 147.951 27.6833ZM147.658 36.4103C146.861 36.4103 145.752 36.0249 145.752 35.0615C145.752 33.8288 147.136 33.3559 148.333 33.3559C149.405 33.3559 149.907 33.5868 150.557 33.8909C150.367 35.3656 149.067 36.4103 147.658 36.4103ZM161.471 28.0321L158.674 34.9356H158.591L155.699 28.0321H153.075L157.42 37.6795L154.941 43.048H157.483L164.179 28.0321H161.471ZM139.535 38.221H141.975V22.2959H139.535V38.221Z" fill="white"/>
<path d="M13.6159 9.60405C13.2326 9.99584 13.0107 10.6057 13.0107 11.3956V39.57C13.0107 40.3599 13.2326 40.9698 13.6159 41.3616L13.7105 41.4475L29.8812 25.6659V25.2933L13.7105 9.51172L13.6159 9.60405Z" fill="url(#paint0_linear_1166_9370)"/>
<path d="M35.2641 30.9302L29.8799 25.6671V25.2944L35.2707 20.0312L35.3914 20.0997L41.7755 23.6462C43.5974 24.6527 43.5974 26.3088 41.7755 27.3216L35.3914 30.8617L35.2641 30.9302Z" fill="url(#paint1_linear_1166_9370)"/>
<path d="M35.3929 30.8606L29.8815 25.4795L13.6162 41.3616C14.2214 41.9827 15.2082 42.0576 16.3304 41.4365L35.3929 30.8606Z" fill="url(#paint2_linear_1166_9370)"/>
<path d="M35.3929 20.0991L16.3304 9.52328C15.2082 8.90861 14.2214 8.9834 13.6162 9.60451L29.8815 25.4802L35.3929 20.0991Z" fill="url(#paint3_linear_1166_9370)"/>
<defs>
<linearGradient id="paint0_linear_1166_9370" x1="28.4454" y1="39.8634" x2="7.07089" y2="17.9707" gradientUnits="userSpaceOnUse">
<stop stop-color="#00A0FF"/>
<stop offset="0.0066" stop-color="#00A1FF"/>
<stop offset="0.2601" stop-color="#00BEFF"/>
<stop offset="0.5122" stop-color="#00D2FF"/>
<stop offset="0.7604" stop-color="#00DFFF"/>
<stop offset="1" stop-color="#00E3FF"/>
</linearGradient>
<linearGradient id="paint1_linear_1166_9370" x1="44.1479" y1="25.479" x2="12.5741" y2="25.479" gradientUnits="userSpaceOnUse">
<stop stop-color="#FFE000"/>
<stop offset="0.4087" stop-color="#FFBD00"/>
<stop offset="0.7754" stop-color="#FFA500"/>
<stop offset="1" stop-color="#FF9C00"/>
</linearGradient>
<linearGradient id="paint2_linear_1166_9370" x1="32.3959" y1="22.5542" x2="3.40991" y2="-7.13394" gradientUnits="userSpaceOnUse">
<stop stop-color="#FF3A44"/>
<stop offset="1" stop-color="#C31162"/>
</linearGradient>
<linearGradient id="paint3_linear_1166_9370" x1="9.52194" y1="50.7359" x2="22.4654" y2="37.4789" gradientUnits="userSpaceOnUse">
<stop stop-color="#32A071"/>
<stop offset="0.0685" stop-color="#2DA771"/>
<stop offset="0.4762" stop-color="#15CF74"/>
<stop offset="0.8009" stop-color="#06E775"/>
<stop offset="1" stop-color="#00F076"/>
</linearGradient>
</defs>
</svg>
