<svg width="35" height="36" viewBox="0 0 35 36" fill="none" xmlns="http://www.w3.org/2000/svg">
<path d="M22.7512 17.9128C22.7512 19.3052 22.198 20.6405 21.2135 21.6251C20.2289 22.6097 18.8936 23.1628 17.5012 23.1628C16.1088 23.1628 14.7734 22.6097 13.7889 21.6251C12.8043 20.6405 12.2512 19.3052 12.2512 17.9128C12.2512 17.6135 12.2827 17.3213 12.3369 17.0378H10.5012V24.0325C10.5012 24.519 10.8949 24.9128 11.3814 24.9128H23.6227C23.8558 24.9123 24.0793 24.8194 24.244 24.6544C24.4087 24.4893 24.5012 24.2657 24.5012 24.0325V17.0378H22.6654C22.7197 17.3213 22.7512 17.6135 22.7512 17.9128ZM17.5012 21.4128C17.9609 21.4127 18.4161 21.322 18.8408 21.146C19.2655 20.9699 19.6514 20.7119 19.9764 20.3868C20.3015 20.0617 20.5592 19.6756 20.7351 19.2508C20.9109 18.8261 21.0013 18.3708 21.0012 17.911C21.001 17.4513 20.9104 16.9961 20.7343 16.5713C20.5583 16.1467 20.3003 15.7608 19.9751 15.4358C19.65 15.1108 19.264 14.853 18.8392 14.6772C18.4145 14.5014 17.9591 14.411 17.4994 14.411C16.5709 14.4113 15.6806 14.7803 15.0242 15.437C14.3678 16.0937 13.9992 16.9843 13.9994 17.9128C13.9997 18.8413 14.3687 19.7317 15.0254 20.3881C15.6821 21.0444 16.5727 21.413 17.5012 21.4128ZM21.7012 14.2378H23.7994C23.9389 14.2378 24.0725 14.1826 24.1712 14.0841C24.2701 13.9857 24.3257 13.8522 24.3262 13.7128V11.6145C24.3262 11.4749 24.2707 11.3409 24.1719 11.2421C24.0731 11.1433 23.9391 11.0878 23.7994 11.0878H21.7012C21.5615 11.0878 21.4275 11.1433 21.3287 11.2421C21.2299 11.3409 21.1744 11.4749 21.1744 11.6145V13.7128C21.1762 14.0015 21.4124 14.2378 21.7012 14.2378ZM17.5012 1.11279C13.0455 1.11279 8.77237 2.88279 5.62178 6.0334C2.47117 9.18399 0.701172 13.4572 0.701172 17.9128C0.701172 22.3684 2.47117 26.6416 5.62178 29.7922C8.77237 32.9428 13.0455 34.7128 17.5012 34.7128C19.7074 34.7128 21.892 34.2783 23.9302 33.4339C25.9685 32.5897 27.8205 31.3523 29.3805 29.7922C30.9406 28.2321 32.1781 26.3801 33.0223 24.3419C33.8666 22.3036 34.3012 20.119 34.3012 17.9128C34.3012 15.7066 33.8666 13.522 33.0223 11.4837C32.1781 9.44543 30.9406 7.59342 29.3805 6.0334C27.8205 4.47338 25.9685 3.2359 23.9302 2.39162C21.892 1.54734 19.7074 1.11279 17.5012 1.11279ZM26.2512 24.7185C26.2512 25.7878 25.3762 26.6628 24.3069 26.6628H10.6954C9.62621 26.6628 8.75121 25.7878 8.75121 24.7185V11.107C8.75121 10.0378 9.62621 9.16282 10.6954 9.16282H24.3069C25.3762 9.16282 26.2512 10.0378 26.2512 11.107V24.7185Z" fill="white"/>
</svg>
