<svg width="35" height="36" viewBox="0 0 35 36" fill="none" xmlns="http://www.w3.org/2000/svg">
<g clip-path="url(#clip0_1166_10061)">
<path d="M17.4987 0.723145C8.22158 0.723145 0.701172 8.42264 0.701172 17.9207C0.701172 27.4187 8.22158 35.1182 17.4987 35.1182C26.7758 35.1182 34.2963 27.4187 34.2963 17.9207C34.2963 8.42264 26.7758 0.723145 17.4987 0.723145ZM13.3868 25.0486H9.98529V13.8416H13.3868V25.0486ZM11.665 12.4658C10.5907 12.4658 9.89605 11.6866 9.89605 10.7228C9.89605 9.73928 10.6117 8.98331 11.7088 8.98331C12.8059 8.98331 13.4778 9.73928 13.4988 10.7228C13.4988 11.6866 12.8059 12.4658 11.665 12.4658ZM25.81 25.0486H22.4085V18.8379C22.4085 17.3922 21.9151 16.4105 20.685 16.4105C19.7454 16.4105 19.1872 17.0751 18.9405 17.7146C18.8495 17.9422 18.8267 18.2646 18.8267 18.5852V25.0469H15.4235V17.4155C15.4235 16.0164 15.3798 14.8466 15.3343 13.8399H18.2896L18.4453 15.3965H18.5135C18.9615 14.6656 20.0586 13.5872 21.8941 13.5872C24.132 13.5872 25.81 15.1225 25.81 18.4223V25.0486Z" fill="white"/>
</g>
<defs>
<clipPath id="clip0_1166_10061">
<rect width="34.9949" height="35.8281" fill="white" transform="translate(0.00195312 0.00683594)"/>
</clipPath>
</defs>
</svg>
