<svg width="35" height="36" viewBox="0 0 35 36" fill="none" xmlns="http://www.w3.org/2000/svg">
<path d="M17.5012 1.11279C8.22271 1.11279 0.701172 8.63432 0.701172 17.9128C0.701172 27.1913 8.22271 34.7128 17.5012 34.7128C26.7797 34.7128 34.3012 27.1913 34.3012 17.9128C34.3012 8.63432 26.7797 1.11279 17.5012 1.11279ZM24.3349 14.8748C24.3419 15.0183 24.3437 15.1618 24.3437 15.3018C24.3437 19.6768 21.0169 24.7185 14.9304 24.7185C13.1319 24.7215 11.3708 24.205 9.85892 23.231C10.1162 23.2625 10.3804 23.2748 10.6482 23.2748C12.1987 23.2748 13.6249 22.748 14.7572 21.859C14.0671 21.8455 13.3986 21.617 12.8446 21.2054C12.2906 20.7939 11.8788 20.2197 11.6667 19.563C12.1622 19.6573 12.6727 19.6375 13.1594 19.5053C12.4105 19.3538 11.737 18.9481 11.2531 18.3567C10.7693 17.7653 10.5049 17.0249 10.5047 16.2608V16.2205C10.9509 16.4673 11.4619 16.6178 12.0044 16.6353C11.3023 16.168 10.8053 15.45 10.615 14.6283C10.4247 13.8066 10.5555 12.9432 10.9807 12.2148C11.8118 13.2368 12.8484 14.0728 14.0232 14.6688C15.198 15.2648 16.4848 15.6075 17.8004 15.6745C17.6332 14.9646 17.7052 14.2193 18.0052 13.5544C18.3052 12.8896 18.8165 12.3425 19.4596 11.9982C20.1026 11.654 20.8414 11.5318 21.561 11.6508C22.2806 11.7696 22.9408 12.1229 23.4389 12.6558C24.1795 12.5093 24.8896 12.2376 25.5389 11.8525C25.2921 12.6193 24.7754 13.2704 24.0847 13.6848C24.7407 13.6058 25.3812 13.4294 25.9852 13.1615C25.5415 13.8264 24.9827 14.4066 24.3349 14.8748Z" fill="white"/>
</svg>
