<svg width="256" height="359" viewBox="0 0 256 359" fill="none" xmlns="http://www.w3.org/2000/svg">
<path fill-rule="evenodd" clip-rule="evenodd" d="M131.182 185.77C128.311 185.834 129.542 158.974 131.459 154.025C131.728 153.022 131.949 151.651 131.905 150.42C129.534 150.658 129.789 149.031 129.911 147.068C129.871 145.51 129.763 142.295 132.141 143.547C139.271 129.234 131.562 92.2343 150.334 88.7494C152.596 88.1985 154.934 87.6285 156.838 86.0558C158.854 82.3204 159.88 81.8433 163.219 81.6017C163.837 78.237 164.993 74.6425 168.437 73.3332C171.591 72.0941 175.261 71.9953 178.549 72.6565C181.271 73.5467 181.52 78.6194 182.124 81.1204C185.79 80.1458 190.307 78.0958 192.28 82.7429C193.236 82.4564 194.122 82.6424 195.093 82.9613C203.233 84.2765 211.131 87.9693 214.151 95.6745C216.016 100.298 214.692 105.332 213.993 110.12C213.34 115.335 215.06 120.166 215.858 125.181C217.045 132.088 217.26 137.628 216.485 142.761C218.533 143.228 218.684 145.096 217.855 147.051C217.612 147.712 217.367 148.409 216.829 148.783C215.735 149.474 214.32 148.678 213.131 148.556C212.883 151.314 212.404 154.02 211.612 157.096C211.841 158.017 212.105 159.045 212.341 159.969L212.421 159.882C215.136 171.287 223.212 182.366 220.702 194.487C220.554 194.891 220.274 194.807 220.059 194.8C218.813 195.275 217.669 194.973 216.412 195.022C213.432 195.024 210.553 195.407 207.882 195.74C207.393 198.938 205.806 204.175 202.975 205.394C202.927 205.411 202.088 205.235 202.018 205.23C209.554 235.872 223.114 264.206 228.5 295.466C228.532 295.847 227.913 295.646 227.71 295.692C227.738 296.559 227.179 296.768 226.396 297.076C227.405 299.191 228.313 301.302 229.317 303.422C229.783 304.471 230.541 305.507 230.68 306.629C231.791 307.341 232.54 308.734 232.52 310.033C235.517 311.304 234.702 317.578 235.386 320.686C236.078 325.315 239.366 328.548 241.622 332.344C242.081 333.106 242.57 334.105 242.592 335.062C243.99 335.719 244.511 337.154 244.419 339.571C244.424 342.398 243.629 343.474 241.484 343.543C235.66 344.126 228.863 343.889 223.005 343.225C218.623 342.666 215.02 343.281 216 338C216.201 336.722 216.245 335.035 217 334C217.465 330.921 216.482 327.631 215.479 324.589C214.869 322.027 213.839 316.736 214.266 313.297C214.463 311.707 217.7 310.832 218.27 310.755C218.089 309.558 218.169 307.466 218.811 306.634C217.632 306.47 217.335 306.157 217.09 304.843C216.503 302.716 216.425 300.407 214.971 298.614C212.357 298.648 209.751 297.983 207.138 297.902L207.008 297.601C205.463 297.581 203.926 297.307 202.459 296.771C202.134 296.925 201.718 297.057 201.535 296.563L200.662 293.827C190.505 261.413 179.246 228.92 168.267 196.744C167.627 195.179 166.856 193.517 165.854 192.123C165.514 211.81 161.401 231.477 161.048 251.155C160.571 264.692 160.694 278.087 159.424 291.673C159.097 294.548 158.75 294.452 158.322 294.276C158.15 294.303 157.747 294.389 157.571 294.426C157.858 297.283 158.187 301.921 159.409 304.843C162.11 305.261 161.626 307.34 161.027 309.062C161.671 309.614 161.58 310.9 161.389 311.612C163.93 311.615 164.484 313.688 164.309 314.996C164.067 317.183 164.203 320.587 162.747 322.455C161.89 324.837 160.495 327.086 159.95 329.652C159.607 331.54 159.739 334.291 159.409 336.164C160.24 336.549 159.888 337.153 160.028 338.32C160.747 343.665 158.215 342.757 153.738 343.125C151.054 343.719 130.624 344.901 131.507 341.345C131.357 339.897 132.028 339.261 132.316 337.836C132.445 337.457 134.991 333.078 136.509 331.42C141.6 326.623 141.378 320.182 141.217 312.763C141.516 310.752 143.059 308.827 145.027 309.043C144.462 306.896 145.509 305.028 147.698 304.407C147.48 301.976 147.25 298.672 146.449 296.569L147.203 295.799L146.194 295.92L145.859 295.074L145.493 296.001C143.761 296.001 141.806 295.616 140.146 295.435C139.881 295.45 140 295.088 139.956 294.949C138.389 294.624 138.217 293.788 138.494 291.799C138.129 259.491 138.288 227.487 138.787 195.119C136.337 195.229 133.949 194.333 131.542 193.736C130.687 194.274 130.444 192.357 130.544 191.944C130.68 189.802 130.944 187.714 131.182 185.77Z" fill="white"/>
<path fill-rule="evenodd" clip-rule="evenodd" d="M181.483 76.6143C181.119 76.9025 181.157 77.7014 181.121 78.1486L181.119 78.1779C181.004 79.5289 181.159 80.8861 181.488 82.1978L181.516 82.3069C181.681 82.9506 181.827 83.7551 182.343 84.206C182.9 84.6944 183.786 84.3783 183.807 83.5908C183.817 83.2248 183.695 82.8724 183.541 82.529C184.621 82.9472 185.702 83.3607 186.787 83.7641C187.48 89.5121 179.472 96.5494 174.836 99.0131C168.084 102.761 162.403 97.0206 161.539 90.2726C161.394 89.3764 161.296 88.4551 161.277 87.5464C161.262 86.7872 161.416 85.7278 160.908 85.0785C161.268 85.07 161.587 85.1207 161.939 85.176L161.922 85.2053C161.723 85.5626 161.441 86.4522 162.072 86.5198C163.435 86.376 164.069 83.9804 164.401 82.8315C164.617 82.0493 164.915 78.8028 164.256 78.4204C164.057 79.1915 164.135 80.0289 163.894 80.8022C163.344 81.0243 162.297 81.0843 162.054 81.1252C159.222 81.1581 157.616 83.1965 156.468 85.5827C153.103 88.352 148.267 87.8761 144.633 90.1568C133.514 98.2386 137.145 129.701 131.607 143.085C130.498 142.625 129.368 143.546 129.22 144.67C129.067 145.535 129.112 146.461 129.1 147.337L129.095 147.446C129.004 149.238 128.695 151.251 131.108 151.29C131.105 152.29 130.917 153.258 130.676 154.224C129.34 160.067 128.757 166.086 128.625 172.077L128.618 172.517C128.575 175.666 128.536 185.406 130.342 186.559L130.258 187.245C130.049 188.961 129.852 190.681 129.742 192.406C129.568 193.301 130.158 195.446 131.361 194.878C133.567 195.425 135.743 196.232 138.035 196.237C137.48 214.765 137.756 233.311 137.674 251.847C137.851 265.51 137.114 279.286 137.758 292.897L137.735 293.089C137.553 294.617 137.498 295.946 139.26 296.47C139.285 296.843 139.572 297.043 139.913 297.087C140.878 297.217 141.844 297.341 142.811 297.46C143.711 297.527 144.675 297.752 145.572 297.645C145.485 297.733 145.721 297.746 145.746 297.682C146.565 299.741 146.802 301.985 147.005 304.181C145.019 304.94 143.935 306.648 144.259 308.789C142.255 308.87 140.791 311.103 140.511 312.984C140.331 314.283 140.475 315.572 140.533 316.873C140.81 321.319 140.159 326.108 137.296 329.654L137.177 329.795C135.336 331.965 133.003 333.954 132.209 336.791C131.989 336.894 131.808 337.093 131.729 337.405L131.214 339.429L130.959 340.441C130.771 341.178 130.605 341.933 130.705 342.697L130.716 342.771C131.217 347.608 150.995 345.276 154.855 344.929C156.406 344.685 158.109 344.818 159.506 343.994C161.22 342.86 161.434 340.559 161.14 338.675L161.115 338.499C160.996 337.656 160.822 336.773 160.025 336.301C160.293 334.556 160.189 332.769 160.508 331.03C160.991 328.569 162.449 326.434 163.194 324.072C164.28 322.861 164.317 320.973 164.544 319.424C164.716 317.921 164.857 316.409 164.915 314.897C165.073 312.899 164.208 311.251 162.112 310.99C162.209 310.612 161.943 310.284 161.679 310.042C162.303 307.817 162.476 304.763 159.765 304.004C158.739 301.451 158.44 298.685 158.167 295.963C158.2 295.956 158.232 295.951 158.264 295.945C159.614 296.508 159.895 293.838 159.985 292.793C161.264 279.245 161.146 265.618 161.626 252.028L161.673 251.046C162.094 242.092 162.344 233.06 163.888 224.225C165.442 214.379 165.849 204.372 166.38 194.423C167.006 195.397 167.342 196.517 167.849 197.556C174.42 216.912 181.162 236.211 187.658 255.594C192.366 269.628 196.864 283.736 201.376 297.835C201.606 298.557 202.332 298.706 202.862 298.475C204.214 298.945 205.632 299.212 207.059 299.258C207.145 299.456 207.322 299.601 207.58 299.573C208.343 299.489 209.221 299.728 209.985 299.818C211.731 299.991 213.427 300.259 215.189 300.285C216.281 301.669 216.35 303.546 216.853 305.193C217.143 306.033 217.098 307.916 218.098 308.153C217.74 308.707 217.693 309.372 217.751 310.058C217.44 310.129 217.124 310.263 216.831 310.4C216.546 310.545 216.169 310.532 215.973 310.824C210.383 311.839 214.468 322.483 215.439 326.003C216.393 328.881 216.692 331.886 216.257 334.891C215.591 335.812 215.814 337.182 215.712 338.274C215.659 339.249 215.56 340.238 215.569 341.213C215.678 345.266 220.668 344.607 223.483 345.133C225.241 345.338 227.007 345.481 228.772 345.592C233.251 345.871 237.754 345.892 242.223 345.458C245.109 345.366 245.73 343.479 245.725 340.897L245.729 340.79C245.794 339.038 245.513 336.922 243.853 336.011C243.77 335.086 243.302 334.151 242.824 333.342C240.6 329.593 237.261 326.308 236.605 321.809C235.96 318.864 236.69 312.381 233.704 310.845C233.635 309.519 232.823 308.167 231.817 307.45C231.623 306.346 230.891 305.33 230.439 304.315C229.516 302.377 228.662 300.408 227.744 298.468C228.225 298.264 228.736 297.889 228.803 297.357C229.264 297.362 229.72 297.063 229.664 296.5C229.501 294.865 229.144 293.257 228.808 291.651L228.766 291.45C222.772 262.397 210.394 235.23 203.152 206.549C204.126 206.726 205.037 205.609 205.576 204.881C207.316 202.532 208.344 199.689 208.796 196.806L209.614 196.704C212.341 196.368 215.082 196.074 217.833 196.153L218.496 196.175C219.232 196.198 219.97 196.192 220.67 195.926C221.158 195.972 221.667 195.709 221.787 195.159C223.825 184.979 218.817 175.318 215.231 166.119C214.386 163.857 213.785 161.563 213.211 159.221C213.192 159.145 213.074 159.161 213.077 159.239C213.189 161.843 213.833 164.468 214.487 166.978C216.633 175.488 221.106 183.833 220.013 192.843C216.613 190.159 212.576 188.294 208.335 187.505C208.091 186.439 207.82 185.38 207.617 184.307C207.817 182.658 207.953 181 208.127 179.342C208.648 174.384 209.444 169.438 210.504 164.566C212.15 159.665 213.586 154.697 214.1 149.529L214.193 149.548C215.334 149.78 216.591 150.284 217.649 149.555C218.321 149.088 218.611 148.315 218.883 147.571C219.658 145.769 219.801 143.4 217.608 142.647C218.426 136.917 217.894 130.936 216.906 125.259C216.114 120.284 214.378 115.382 215.028 110.289C215.75 105.394 217.095 100.268 215.15 95.4771C211.954 87.4812 203.86 83.6876 195.9 82.4667L195.771 82.4287C194.786 82.1364 193.89 81.8282 192.864 82.0497C190.443 77.5467 186.518 79.3781 182.686 80.3818C182.427 79.6182 182.211 78.8371 182.008 78.0566C181.882 77.659 181.924 76.7416 181.483 76.6143ZM159.299 338.487L159.309 338.683C159.41 340.791 159.296 342.598 156.689 342.584C154.896 342.776 153.102 342.963 151.305 343.126L150.631 343.186C145.299 343.662 139.902 343.896 134.58 343.18L134.358 343.149C133.913 343.086 133.09 343.098 132.737 342.769C132.313 342.196 132.804 341.104 132.907 340.439C141.212 340.342 149.527 340.035 157.837 340.141C158.711 340.145 159.106 339.397 159.025 338.714C159.124 338.648 159.216 338.57 159.299 338.487ZM243.614 337.43C244.023 338.869 243.922 340.23 243.691 341.672C243.576 343.182 242.86 343.278 241.564 343.314C236.504 343.782 231.407 343.684 226.346 343.291C223.633 342.998 220.845 343.009 218.183 342.407C216.913 341.843 217.646 340.068 217.603 338.98C223.582 342.843 232.624 342.353 239.144 340.117L239.248 340.073C240.791 339.423 242.762 339.014 243.614 337.43ZM233.71 311.432C234.425 312.241 234.412 314.606 234.444 315.262C234.521 316.845 234.509 318.431 234.577 320.014C234.527 326.68 238.366 330.005 241.217 335.364C241.996 336.665 240.862 336.85 239.939 337.271C233.965 340.06 226.897 340.486 220.656 338.351C217.518 337.437 218.203 335.32 218.47 332.73C218.732 327.438 215.955 322.67 215.133 317.551L215.104 317.371C214.858 315.836 214.468 312.072 216.831 312.887C217.351 313.208 217.839 312.806 217.901 312.314C217.963 312.324 218.026 312.33 218.087 312.331C218.363 314.042 218.649 315.75 218.924 317.461C218.693 317.609 218.476 317.775 218.284 317.966C218.05 318.198 218.214 318.685 218.566 318.656C218.747 318.64 218.926 318.613 219.103 318.579C219.244 320.066 221.6 319.231 220.919 318.039C224.306 316.866 228.038 316.959 231.477 317.859L231.491 317.865C231.758 317.971 233.672 318.356 233.056 318.656C232.799 318.687 233.384 319.023 233.486 318.503C233.52 317.849 232.031 317.528 231.575 317.256C232.725 315.606 233.511 313.467 233.71 311.432ZM146.942 306.207C150.133 304.474 154.054 305.117 157.515 305.424L157.66 305.44C158.541 305.535 159.768 305.594 160.172 306.504C160.758 307.961 159.787 311.221 159.483 312.842L159.344 313.409C159.105 314.399 158.882 315.383 158.8 316.407C158.798 316.441 158.83 316.465 158.86 316.465C160.072 315.166 160.617 313.419 161.183 311.753C161.425 311.891 161.661 312.041 161.883 312.205C162.752 315.199 163.043 318.387 162.355 321.441L162.33 321.549C161.48 325.323 158.835 328.41 158.583 332.354C158.415 333.949 158.452 335.583 157.995 337.131C157.735 337.189 157.508 337.381 157.406 337.623L155.915 337.625C148.705 337.637 141.494 337.703 134.289 338C134.522 335.969 136.31 334.166 137.569 332.773C141.434 328.804 143.105 323.103 142.469 317.608C142.134 314.859 140.604 310.54 144.346 309.524C144.619 311.765 144.989 313.998 145.193 316.247C144.487 316.589 144.531 317.49 145.393 317.472C145.781 318.779 147.079 318.25 146.939 317.018C151.688 315.258 154.413 314.669 159.04 317.319C159.17 317.3 158.685 316.779 158.623 316.687C157.161 315.106 154.915 314.362 152.808 314.336C150.72 314.335 148.756 315.125 146.786 315.735C146.49 313.613 146.29 311.477 146.056 309.347L146.005 308.891C145.882 307.773 145.926 306.849 146.942 306.207ZM223.268 333.616C222.573 333.461 221.934 333.225 221.228 333.385C218.742 335.257 228.898 335.785 229.763 335.652C231.964 335.587 234.166 335.307 236.285 334.683L236.448 334.635C236.727 334.557 238.744 333.986 238.352 333.728C235.487 333.983 232.682 334.51 229.763 334.373C228.306 334.342 226.845 334.239 225.404 334.019C224.688 333.909 223.975 333.776 223.268 333.616ZM156.124 331.295C156.579 330.611 154.36 331.52 154.072 331.528C152.235 331.982 150.365 332.326 148.478 332.469C147.213 332.566 145.935 332.586 144.667 332.524C143.729 332.491 142.8 332.352 141.868 332.256L141.834 332.255C141.28 332.235 140.17 332.58 140.854 333.241C141.918 334.068 143.493 333.816 144.768 333.938C148.641 333.925 152.742 333.3 156.124 331.295ZM228.935 326.325C227.818 326.122 221.673 326.056 222.285 327.948C222.434 328.307 222.774 328.426 223.131 328.369C226.935 327.442 231.038 326.956 234.829 328.236C234.891 328.257 234.933 328.156 234.873 328.129C233.009 327.192 231.014 326.537 228.935 326.325ZM149.164 324.475C148.161 324.399 147.151 324.426 146.147 324.501L145.821 324.527C145.371 324.562 144.907 324.604 144.476 324.735L144.395 324.761C143.844 324.939 142.602 325.889 143.545 326.346C144.557 326.675 145.413 326.284 146.39 326.032C149.113 325.385 151.975 325.604 154.673 326.265L154.293 326.388C154.269 326.371 154.239 326.411 154.261 326.43C154.534 326.669 154.908 326.584 155.102 326.287C155.135 326.236 155.114 326.154 155.06 326.126C153.232 325.164 151.216 324.632 149.164 324.475ZM233.965 324.234C230.89 322.869 227.327 322.718 224.029 323.114L223.794 323.143C222.766 323.264 221.424 323.319 220.835 324.28C220.632 324.614 220.842 324.995 221.171 325.115C222.138 325.47 223.276 324.76 224.206 324.496C226.955 323.741 229.892 323.661 232.687 324.183C232.668 324.287 233.131 324.241 233.231 324.278C233.358 324.271 234.196 324.549 233.965 324.234ZM156.424 322.103C153.741 320.795 150.64 320.483 147.744 321.158L147.623 321.192C146.34 321.554 144.274 321.98 143.814 323.343C143.715 323.65 143.93 324.064 144.253 324.127C145.348 324.336 146.341 323.535 147.331 323.15C150.244 322.052 153.542 321.789 156.555 322.597C156.575 322.716 156.595 322.834 156.616 322.953C156.565 322.919 156.511 322.995 156.552 323.037C157.033 323.374 157.533 322.522 156.424 322.103ZM227.054 319.803C224.883 319.658 222.695 319.935 220.599 320.509L220.205 320.618C219.633 320.779 218.891 321.033 218.807 321.653C218.775 321.9 218.836 322.07 219.036 322.223C219.766 322.77 221.352 321.624 222.259 321.489C225.552 320.497 229.087 320.511 232.422 321.27L232.536 321.296L232.455 321.871C232.376 322.145 233.109 321.498 232.831 321.203C231.07 320.304 229.015 319.965 227.054 319.803ZM154.377 318.777C152.635 318.461 150.838 318.401 149.076 318.56L148.868 318.579C147.816 318.673 144.409 318.808 145.215 320.592C145.35 320.89 145.742 320.928 145.996 320.799C146.848 320.366 147.778 320.21 148.718 320.067C152.037 319.604 155.427 319.794 158.667 320.69C158.597 320.801 158.742 320.933 158.879 320.959C159.221 321.022 159.221 320.613 159.075 320.396C158.9 320.138 158.553 320.044 158.285 319.931C157.037 319.386 155.714 319.017 154.377 318.777ZM220.355 308.854L220.554 308.806C223.878 308.022 231.248 306.615 232.012 311.208C232.282 313.231 231.389 315.204 231.455 317.208C228.008 315.802 224.196 315.816 220.614 316.746C220.297 314.666 219.994 312.585 219.67 310.507L219.618 310.258C219.474 309.557 219.424 309.009 220.355 308.854ZM227.758 309.69C227.034 309.067 225.826 309.076 225.115 309.756C224.466 309.893 224.007 310.585 223.997 311.178C223.009 312.92 224.2 315.327 226.087 315.761C230.346 316.662 232.25 310.793 227.758 309.69ZM153.961 306.91C150.397 306.271 149.103 310.807 152.028 312.646C156.16 314.725 158.913 308.188 153.961 306.91ZM225.996 296.838C225.943 297.184 226.113 297.431 226.316 297.665C227.047 300.669 228.147 303.466 229.231 306.346C225.704 305.759 222.371 306.271 219.25 307.232C219.212 306.353 218.813 305.442 218.536 304.613C217.996 303.04 217.343 301.507 216.59 300.026L216.495 299.842C216.225 299.315 215.964 298.764 215.645 298.26C219.097 297.787 222.549 297.361 225.996 296.838ZM156.466 296.197L156.558 296.615C156.955 298.429 157.331 300.259 157.92 302.021L157.928 302.058C158.019 302.502 158.222 304.561 158.35 303.108C158.448 303.326 158.553 303.543 158.665 303.756L158.055 303.683C154.792 303.294 151.375 302.958 148.168 303.782C148.493 301.26 148.015 298.851 147.318 296.467C150.374 296.396 153.403 296.419 156.466 296.197ZM214.345 299.331C214.457 299.436 214.566 299.544 214.67 299.656C214.529 299.62 214.388 299.585 214.258 299.554C214.263 299.471 214.321 299.409 214.345 299.331ZM145.471 297.018L145.538 297.175C145.549 297.201 145.56 297.227 145.571 297.253C145.519 297.222 145.462 297.193 145.401 297.167C145.429 297.121 145.452 297.073 145.471 297.018ZM201.301 147.799C201.614 147.951 201.94 147.989 202.371 148.007C205.876 148.153 209.37 148.56 212.812 149.255C212.622 152.048 211.775 154.754 210.968 157.417L210.801 158C208.077 167.541 205.7 177.511 206.179 187.49C206.152 187.5 206.126 187.514 206.102 187.526C206.145 187.649 206.176 187.774 206.22 187.895L206.248 187.967L206.412 188.375C206.502 188.601 206.59 188.828 206.666 189.061C206.8 189.109 206.964 189.144 207.121 189.167C207.916 194.45 207.16 200.374 203.577 204.506C205.064 201.386 205.635 197.506 205.022 194.098C204.689 194.46 204.666 195.293 204.538 195.834C204.188 197.684 203.943 199.559 203.417 201.37L203.36 201.551C202.771 203.405 201.785 205.797 200.077 206.754C199.754 206.851 199.256 206.73 199.103 207.127C199.015 207.481 199.179 207.918 199.542 208.028L199.567 208.036C200.608 208.331 201.491 207.545 202.158 206.715L202.191 207.149C202.255 207.969 202.345 208.756 202.819 209.43C202.875 209.665 202.93 209.901 202.987 210.135C204.272 218.09 206.205 226.312 209.725 233.492L210.134 234.73C216.826 254.949 223.755 275.154 227.788 296.132C223.551 295.684 219.278 295.901 215.049 296.322C211.061 296.737 206.843 297.843 203.023 296.077C192.672 264.359 181.995 232.737 170.293 201.502C168.883 196.545 166.234 191.764 164.924 186.681L164.841 186.413C164.533 185.394 164.389 184.733 164.615 183.595L164.625 183.456C164.671 182.743 164.688 181.663 163.877 181.465C163.74 181.431 163.56 181.458 163.465 181.577C162.964 182.221 163.433 183.042 163.289 183.791C162.868 186.654 163.994 189.354 165.311 191.823C165.225 191.927 165.166 192.055 165.156 192.196C165.041 193.718 165.055 195.255 164.989 196.78C164.802 201.166 164.529 205.547 164.184 209.922C163.101 217.936 161.567 225.866 160.734 233.914C158.836 252.661 159.177 271.551 157.799 290.335C157.788 291.985 157.271 293.7 157.794 295.301C157.465 295.084 156.996 295.132 156.707 295.395C151.089 295.005 145.462 295.196 139.845 294.861C139.839 294.608 139.82 294.371 139.81 294.188C139.968 293.813 139.707 293.397 139.714 292.999C140.4 289.101 139.835 284.911 139.977 280.926C139.97 277.153 139.951 273.382 139.925 269.61C139.713 246.039 139.999 222.462 139.569 198.894C139.535 197.735 139.483 196.579 139.408 195.423C139.717 195.078 139.511 194.588 139.511 194.173L139.493 193.805C139.399 191.942 139.292 190.23 140.016 188.394C139.999 188.176 139.949 187.971 139.835 187.803C143.223 186.209 146.76 185.002 150.257 183.69C150.848 183.836 151.586 183.468 151.71 182.831C153.028 176.048 154.066 169.222 154.964 162.373C160.836 166.241 167.997 166.853 174.665 168.42L175.927 168.748C179.04 169.562 182.305 170.509 184.672 172.727C184.911 176.228 183.133 186.317 188.476 186.054C190.227 186.59 192.026 187.02 193.817 187.251C191.732 191.222 187.927 196.514 190.935 200.912C191.371 201.375 191.958 200.905 192.357 200.617C192.307 203.188 192.239 205.746 192.236 208.315C192.236 208.658 192.588 208.967 192.928 208.85C194.854 208.184 195.092 205.87 195.391 204.124C195.658 202.565 195.926 201.006 196.19 199.445C196.358 202.245 195.686 205.127 196.233 207.895C196.758 209.478 198.39 209.006 198.879 207.679L198.893 207.639C199.861 204.948 200.332 202.075 200.527 199.226L200.538 199.059C200.594 198.194 200.686 197.279 200.472 196.442C200.04 197.257 200.147 198.589 199.946 199.576C199.609 201.685 199.152 203.78 198.511 205.817L198.494 205.889C198.205 207.083 197.07 209.411 197.083 206.487C197.039 205.001 197.167 203.52 197.247 202.037L197.258 201.825C197.363 199.8 197.352 197.756 196.746 195.804C196.592 195.304 195.754 195.21 195.652 195.804C195.245 198.179 194.857 200.556 194.468 202.933C194.184 204.385 194.196 206.023 193.335 207.275C193.324 204.541 193.476 201.815 193.606 199.084L193.632 199C193.738 198.651 193.853 198.187 193.609 197.885C193.514 197.262 192.607 197.333 192.53 197.986C192.513 198.122 192.501 198.26 192.487 198.397C192.187 198.776 191.907 199.162 191.552 199.487C189.179 194.626 196.943 186.231 198.015 180.741C201.172 170.051 199.357 158.843 198.438 147.956C199.388 147.844 200.345 147.813 201.301 147.799ZM227.884 296.504C227.92 296.639 227.948 296.787 228.013 296.909C227.961 296.918 227.909 296.928 227.856 296.939C227.793 296.81 227.726 296.684 227.653 296.561C227.73 296.543 227.807 296.525 227.884 296.504ZM188.475 246.437C188.375 246.42 188.335 246.558 188.432 246.59C191.704 247.681 194.461 249.712 197.218 251.726C197.609 252.012 197.974 251.416 197.701 251.093C196.547 249.738 195.135 248.803 193.563 248.016L193.47 247.97C191.898 247.175 190.211 246.669 188.475 246.437ZM157.15 244.409C157.188 244.335 157.087 244.278 157.041 244.344C156.312 245.374 155.348 246.333 154.39 247.142C153.42 247.962 152.362 248.61 151.324 249.33C150.764 249.717 151.244 250.543 151.852 250.246C153.035 249.67 154.096 248.717 154.965 247.725C155.86 246.702 156.523 245.608 157.15 244.409ZM177.46 208.702C181.07 214.788 186.401 220.917 190.379 227.158C193.066 231.159 195.496 235.331 198.44 239.152C199.029 239.956 200.165 239.284 199.761 238.369C198.641 235.833 197.393 233.397 195.89 231.073L195.405 230.351C190.171 222.569 184.623 214.773 177.46 208.702ZM162.418 199.415C162.45 199.314 162.302 199.269 162.262 199.359L162.257 199.37C159.547 206.826 155.369 213.604 151.713 220.596C151.43 221.168 152.184 221.858 152.634 221.317C155.214 218.212 157.024 214.56 158.629 210.864C160.321 207.2 161.359 203.298 162.418 199.415ZM156.122 86.2725C154.462 89.6151 153.244 93.1526 152.4 96.7933C152.14 97.9173 153.642 98.6071 154.249 97.6224L154.267 97.592C155.014 96.3424 156.126 95.2419 157.534 94.8115C158.493 98.8473 158.026 103.112 157.528 107.187C156.644 112.865 155.94 118.566 155.835 124.32L155.83 124.628C155.522 144.275 152.645 163.835 149.493 183.071C144.455 183.883 139.842 186.174 135.198 188.188C134.391 188.504 133.567 188.779 132.722 188.97C135.055 167.161 143.929 146.707 146.671 124.978C147.396 119.327 147.43 113.588 146.429 107.969C146.412 107.861 146.26 107.898 146.253 107.993C146.143 110.301 145.75 112.579 145.517 114.874C145.358 113.563 144.992 112.235 144.696 110.979C144.333 109.749 144.199 107.776 143.139 106.974L143.072 106.742C143.044 106.642 142.896 106.684 142.92 106.784C142.931 106.831 142.942 106.878 142.952 106.925C142.271 107.107 142.907 107.918 143.076 108.307C144.17 111.252 144.495 114.44 145.242 117.476C144.162 126.953 142.216 136.309 139.819 145.52C137.618 144.937 135.409 144.376 133.201 143.806C138.125 127.697 135.246 109.719 142.622 94.3368C145.386 89.1748 152.192 89.8761 156.122 86.2725ZM193.529 83.3281C194.561 83.2725 195.64 83.8357 196.631 84.0294C197.946 84.2855 199.253 84.4883 200.538 84.8816C207.117 86.6938 213.464 91.6428 214.656 98.7733C215.475 103.669 213.446 108.44 213.518 113.322C213.732 118.16 215.319 122.809 215.937 127.597C216.681 132.494 216.938 137.619 216.299 142.539C210.398 140.857 204.235 140.752 198.183 141.62C198.688 134.163 198.026 126.668 197.659 119.216C197.396 114.429 196.944 109.622 197.104 104.826C197.107 104.72 196.935 104.694 196.919 104.8C195.104 114.594 196.168 124.536 196.352 134.414C196.468 136.909 196.161 139.429 196.285 141.91C193.534 142.506 193.633 145.73 194.474 147.855C194.623 148.366 195.13 148.277 195.539 148.215C195.983 148.684 197.042 148.072 197.646 148.072C198.119 160.332 200.989 173.428 195.107 184.887C192.648 184.901 190.28 184.048 187.89 183.564L187.76 183.538L187.757 183.537C187.405 183.077 187.233 182.339 187.186 181.798C186.852 172.356 187.898 162.893 187.286 153.45C186.537 142.969 184.211 132.552 185.287 122C186.031 112.569 188.073 103.309 189.058 93.9059L189.108 93.4194C189.169 92.8397 189.192 92.1992 189.478 91.7572C191.138 93.278 192.532 95.0864 193.53 97.1212C194.082 98.104 195.562 97.6666 195.585 96.557C195.798 94.5757 195.829 92.5869 195.614 90.6052L195.594 90.4303C195.327 87.9496 194.581 85.5819 193.529 83.3281ZM131.785 151.372C133.924 151.486 136.065 151.724 138.208 151.696L137.993 152.51C135.398 162.271 132.636 172.015 131.008 182.002L130.949 181.066C130.89 180.129 130.833 179.192 130.797 178.253C130.335 169.277 131.04 160.313 131.785 151.372ZM138.042 151.381L138.296 151.369L138.28 151.424C138.228 151.414 138.175 151.404 138.122 151.395L138.042 151.381ZM131.071 144.788C131.111 144.776 131.179 144.776 131.255 144.779C131.365 145.033 131.586 145.243 131.843 145.312L133.988 145.894C135.775 146.38 137.563 146.863 139.353 147.332C139.053 148.497 138.748 149.662 138.439 150.826C135.997 150.033 133.294 150.213 130.804 149.703C130.834 148.358 130.907 147.007 130.93 145.66C130.936 145.44 130.891 145.086 131.003 144.889C131.073 144.764 131.003 144.81 131.071 144.788ZM213.1 149.315L213.167 149.329C213.144 149.39 213.124 149.452 213.105 149.514C213.104 149.447 213.103 149.381 213.1 149.315ZM197.201 142.845C201.801 142.17 206.48 141.771 211.12 142.231C213.219 142.517 215.349 142.822 217.407 143.213C218.122 144.32 217.33 147.014 216.44 147.866C216.173 147.968 215.713 147.769 215.457 147.712C213.537 147.274 211.598 146.922 209.649 146.648C209.591 146.721 209.506 146.769 209.401 146.759L208.954 146.717C206.266 146.47 203.554 146.289 200.861 146.444L200.841 146.459C199.023 146.593 197.212 146.882 195.403 147.091C194.688 145.207 194.811 143.047 197.201 142.845ZM163.726 81.4277C163.548 82.0346 163.334 82.6244 163.068 83.1976C162.791 83.1202 162.409 83.1823 162.205 83.3585L162.118 83.3427C161.879 83.2971 161.593 83.2272 161.518 83.2192C158.231 82.7605 158.482 87.1945 158.47 89.4229C158.45 90.5401 158.427 91.6585 158.394 92.7757C157.453 92.4527 156.195 93.0334 155.373 93.5474C156.017 91.3865 156.773 89.2609 157.617 87.1726L157.809 86.6841C158.465 85.026 159.2 83.3559 160.59 82.2016C161.663 81.9185 162.704 81.867 163.726 81.4277ZM187.56 80.3152C190.616 79.2165 191.826 81.7135 192.673 84.2038C193.672 86.9618 193.945 89.9985 193.779 92.9661L193.676 92.8288C192.552 91.3179 190.931 88.8237 188.881 89.2246C188.901 88.0781 188.86 86.8187 188.642 85.6281C188.77 84.8599 188.802 84.0837 188.714 83.3075C188.667 82.3343 187.616 82.482 186.923 82.3444C186.324 81.9421 185.599 81.7801 184.87 82.0634C184.321 81.9897 183.771 81.9195 183.221 81.8492C183.137 81.6623 183.068 81.4744 182.997 81.2827C184.519 80.9655 186.041 80.6386 187.56 80.3152Z" fill="black"/>
<path fill-rule="evenodd" clip-rule="evenodd" d="M166.554 82.1207C168.974 82.135 171.03 81.448 172.599 80.3114C174.557 79.6127 176.919 78.5351 178.353 77.4037C178.913 77.5466 179.582 76.9518 180.01 76.6379C182.673 74.6483 184.763 71.736 185.382 68.8188C186.338 70.0264 187.698 70.0766 189.001 69.4764C191.733 67.9261 191.631 64.6617 190.648 62.2228C192.715 57.5804 194.148 45.3251 190.992 40.3791C190.346 39.639 189.399 39.1964 188.717 38.4375C188.11 37.7747 187.533 37.0967 186.827 36.5722C184.672 34.9311 180.961 34.0573 178.638 33.6464C168.938 31.5478 161.486 35.3198 152.7 38.5015C153.205 39.7669 153.905 40.9209 154.706 41.9969C152.525 42.8117 153.527 44.6435 155.219 45.5722L156.227 45.0822C154.656 50.7051 151.042 64.6879 152.602 69.1782C153.845 76.1836 159.302 82.1715 166.554 82.1207Z" fill="white"/>
<path fill-rule="evenodd" clip-rule="evenodd" d="M165.153 82.7243C168.295 83.047 172.027 82.3037 174.121 79.7499C174.184 79.6734 174.211 79.5869 174.213 79.5033C174.215 79.4104 174.184 79.3206 174.13 79.2507C174.073 79.1773 173.993 79.1261 173.9 79.1095C173.822 79.0955 173.734 79.1045 173.642 79.1559L173.45 79.2631C172.019 80.0537 170.534 80.7279 168.913 81.0164C167.244 81.3135 165.545 81.2803 163.891 80.903C160.878 80.216 158.439 78.4635 156.644 76.1527C154.642 73.574 153.439 70.3006 153.132 67.027C152.761 63.0597 153.623 59.1165 154.514 55.2752C155.451 51.2389 156.475 47.2232 157.665 43.2542C157.7 43.1347 157.71 43.0228 157.7 42.9198C158.05 42.7823 158.424 42.8205 158.796 42.946C159.475 43.1755 160.151 43.6929 160.715 44.12C160.92 44.2746 161.11 44.4184 161.281 44.5354C161.98 45.0145 162.745 45.3592 163.6 45.4134C164.489 45.4696 165.361 45.193 166.169 44.8468C166.579 44.671 166.983 44.4885 167.385 44.3068C168.53 43.7894 169.662 43.2771 170.899 42.9441C172.556 42.4979 174.266 42.2781 175.982 42.2938C179.045 42.3219 182.117 43.1108 183.994 45.7028C184.754 46.7528 185.25 47.9597 184.863 49.2556C184.653 49.9605 184.256 50.6005 183.823 51.1891L183.674 51.3895C183.437 51.7126 183.23 52.0344 183.168 52.377C183.116 52.664 183.156 52.9676 183.361 53.3004C183.49 53.5099 183.654 53.6978 183.819 53.885C183.938 54.0201 184.057 54.1549 184.16 54.3C184.367 54.5927 184.55 54.9079 184.694 55.2366C184.975 55.8801 185.094 56.5723 185.119 57.2704C185.15 58.1126 185.031 58.9365 184.914 59.7616C184.831 60.3467 184.748 60.9323 184.714 61.5251C184.708 61.6285 184.74 61.7056 184.784 61.7626C184.838 61.8324 184.917 61.8764 185.007 61.8886C185.035 61.8923 185.063 61.8928 185.091 61.8903C185.077 61.9473 185.065 62.0046 185.054 62.0621C185.111 61.989 185.172 61.918 185.235 61.8494C185.24 61.8473 185.244 61.8452 185.248 61.843C185.313 61.8068 185.369 61.7517 185.404 61.6807C185.495 61.5966 185.59 61.5168 185.691 61.4418C186.213 61.0517 186.824 60.8204 187.436 60.8127C188.026 60.8053 188.617 61.0064 189.072 61.4311C189.976 62.2751 190.241 63.6529 190.251 64.8359C190.26 66.0435 189.981 67.4928 188.929 68.2425C188.507 68.5433 187.991 68.724 187.472 68.7292C187.042 68.7335 186.63 68.5811 186.224 68.4359C186.099 68.3911 185.975 68.3466 185.85 68.3062C185.709 68.2602 185.581 68.2631 185.469 68.2967C185.342 68.3346 185.235 68.4128 185.155 68.517C185.075 68.6209 185.023 68.7509 185.007 68.8871C184.991 69.019 185.009 69.1559 185.065 69.2793C185.079 69.3104 185.094 69.3406 185.109 69.37L184.878 69.7508C183.992 71.2051 183.09 72.6328 181.908 73.8827C181.229 74.6002 180.51 75.2772 179.721 75.8699L179.607 75.9544C179.539 76.0045 179.464 76.0661 179.383 76.1321C179.153 76.3205 178.877 76.5731 178.62 76.5831C178.543 76.586 178.477 76.5765 178.416 76.5685C178.269 76.5492 178.146 76.5436 178.025 76.593C177.928 76.6326 177.827 76.7068 177.724 76.8598C177.654 76.9635 177.618 77.0934 177.618 77.2252C177.618 77.3577 177.654 77.4902 177.719 77.5949C177.853 77.8117 178.015 77.946 178.191 78.0222C178.387 78.1072 178.604 78.1202 178.829 78.0782C179.384 77.9746 179.999 77.5144 180.39 77.2141L180.465 77.1562C181.332 76.4948 182.153 75.7629 182.875 74.9445C184.104 73.5508 185.208 71.9084 185.775 70.1138C186.175 70.3766 186.669 70.5013 187.185 70.521C187.938 70.5496 188.734 70.3559 189.321 70.0775C190.613 69.4639 191.399 68.3033 191.767 66.9687C192.194 65.4188 192.055 63.6369 191.514 62.2446C191.499 62.2041 191.482 62.1638 191.465 62.1228C193.131 57.8994 193.643 53.2095 193.501 48.7023C193.434 46.5925 193.29 44.379 192.793 42.3214C192.57 41.3992 192.183 40.5209 191.564 39.7949C191.212 39.3809 190.779 39.0585 190.345 38.7371C189.968 38.4587 189.59 38.1809 189.272 37.8333L189.122 37.6683C189.089 37.6324 189.057 37.5965 189.024 37.5607C188.475 36.9551 187.941 36.3675 187.275 35.8708C186.502 35.2949 185.649 34.8442 184.763 34.4698C182.854 33.6637 180.8 33.1803 178.768 32.8064C174.371 31.9975 169.857 31.9576 165.514 33.0946C163.495 33.6231 161.536 34.3467 159.579 35.0693C159.398 35.1364 159.216 35.2035 159.035 35.2704C157.514 35.8306 155.993 36.3884 154.472 36.9462C153.765 37.2054 153.058 37.4646 152.351 37.7241C152.198 37.7804 152.048 37.9017 151.962 38.0525C151.879 38.1995 151.854 38.371 151.922 38.5418C152.355 39.6415 152.902 40.6732 153.569 41.6367C153.337 41.7943 153.14 42.0038 152.991 42.2491C152.803 42.5593 152.691 42.9265 152.683 43.3161C152.658 44.6209 153.845 45.5054 154.829 46.1451C154.921 46.2048 155.011 46.24 155.099 46.2562C154.145 49.9059 153.232 53.5679 152.457 57.259L152.403 57.5149C151.604 61.3778 151.088 65.3199 151.844 69.2342C152.495 72.6048 154.007 75.8578 156.37 78.3687C158.685 80.8296 161.792 82.3789 165.153 82.7243ZM185.84 60.502C186.251 59.1956 186.469 57.7743 186.312 56.45C186.213 55.6176 185.963 54.8163 185.556 54.0826C185.322 53.6624 185.038 53.2734 184.728 52.907L184.621 52.7839C184.567 52.7211 184.513 52.6633 184.496 52.5909C184.486 52.5488 184.496 52.5028 184.522 52.4478C184.578 52.3261 184.684 52.2087 184.782 52.0941C184.845 52.0213 184.906 51.9498 184.957 51.8803C185.859 50.659 186.531 49.205 186.313 47.6563C186.099 46.1453 185.11 44.7368 184.056 43.6754C181.737 41.3381 178.14 40.801 174.99 40.9299C173.156 41.0049 171.325 41.3284 169.578 41.8934C168.717 42.1721 167.875 42.5115 167.057 42.9005L166.876 42.9875C166.778 43.0349 166.68 43.0829 166.582 43.1309C165.943 43.4448 165.301 43.7617 164.606 43.9324C163.25 44.2656 162.33 43.5638 161.364 42.856C161.032 42.6134 160.696 42.3675 160.338 42.1517L160.265 42.1082C159.62 41.7339 158.848 41.4821 158.107 41.4934C157.463 41.5032 156.842 41.7089 156.336 42.1951C156.232 42.295 156.173 42.404 156.145 42.5124C156.089 42.5909 156.043 42.6845 156.014 42.7951C155.833 43.4753 155.653 44.156 155.473 44.837L155.326 44.7422C154.89 44.4592 154.417 44.1358 154.203 43.6624C154.121 43.4802 154.133 43.1766 154.236 42.9534C154.273 42.8754 154.321 42.8061 154.387 42.7628C154.435 42.7313 154.493 42.7165 154.561 42.722C154.725 42.7431 154.875 42.7191 155.003 42.6651C155.15 42.6028 155.268 42.5002 155.344 42.3767C155.422 42.2502 155.458 42.1014 155.439 41.9472C155.422 41.8145 155.365 41.676 155.252 41.5459C154.51 40.6892 153.884 39.7441 153.409 38.7183L156.553 37.5541C157.674 37.1392 158.796 36.7249 159.918 36.3121L160.532 36.0862C162.572 35.3375 164.623 34.6057 166.745 34.1236C170.961 33.1656 175.357 33.3908 179.562 34.2925L179.816 34.3475C181.58 34.7325 183.368 35.1983 184.987 36.0079C185.782 36.4053 186.538 36.8886 187.187 37.4991C187.473 37.7687 187.732 38.0639 187.991 38.3587C188.355 38.7719 188.718 39.1839 189.15 39.5319L189.551 39.8531C190.147 40.334 190.685 40.8025 191.021 41.5482C191.373 42.3278 191.541 43.1891 191.678 44.0282C192.024 46.1421 192.16 48.2898 192.147 50.4311C192.125 54.0263 191.579 57.5483 190.89 61.0579C190.337 60.2656 189.559 59.6514 188.562 59.5204C187.912 59.435 187.267 59.5564 186.708 59.8441C186.385 60.0104 186.09 60.2323 185.84 60.502ZM186.884 64.7706C187.612 64.4882 188.377 64.3957 189.147 64.5307C189.228 64.5448 189.305 64.528 189.37 64.4904C189.436 64.4522 189.487 64.3919 189.515 64.3252C189.548 64.2482 189.549 64.1649 189.521 64.0908C189.496 64.0266 189.449 63.9642 189.361 63.9226C188.527 63.5241 187.6 63.3482 186.679 63.4733L186.588 63.4863C186.117 63.5561 185.456 63.7031 184.959 63.9925C184.569 64.2198 184.284 64.5332 184.213 64.9426C184.176 65.1559 184.229 65.3786 184.352 65.5401C184.471 65.6961 184.652 65.8002 184.887 65.7935C185.302 65.7817 185.547 65.6063 185.843 65.3792C185.879 65.3517 185.915 65.3234 185.954 65.2948C186.239 65.0811 186.551 64.8996 186.884 64.7706Z" fill="black"/>
<path fill-rule="evenodd" clip-rule="evenodd" d="M164.574 73.1158C165.307 72.8166 165.961 72.3176 166.439 71.6802C166.605 71.4586 166.648 71.2246 166.613 71.0105C166.574 70.7699 166.432 70.5518 166.238 70.4055C166.043 70.2587 165.799 70.1863 165.564 70.2232C165.36 70.2553 165.156 70.3673 164.995 70.5998L164.961 70.6462C164.677 71.031 164.307 71.3466 163.885 71.5501C163.478 71.7462 163.023 71.8378 162.553 71.7845C161.656 71.6832 161.038 71.198 160.381 70.5392C160.3 70.456 160.219 70.3702 160.137 70.2831C160.085 70.204 160.013 70.1533 159.934 70.1266C159.845 70.097 159.745 70.0987 159.654 70.1307C159.565 70.1616 159.486 70.22 159.433 70.2979C159.383 70.3719 159.354 70.4632 159.364 70.5684C159.424 71.2511 159.78 71.8605 160.287 72.339C160.85 72.8704 161.596 73.238 162.298 73.3669C163.072 73.509 163.86 73.4072 164.574 73.1158ZM161.933 62.5834C161.11 63.0841 159.856 64.2517 160.742 65.493C161.784 66.5875 163.285 65.3326 164.024 64.765C164.71 64.3252 165.48 65.4565 164.844 65.9701C159.5 69.9294 157.332 62.7144 161.517 61.9947C161.978 61.9154 162.149 62.4285 161.933 62.5834ZM171.509 57.9757C171.418 56.846 169.699 56.5894 169.528 57.7073C169.375 58.7087 169.555 59.6287 170.006 60.5302C170.437 61.3916 171.519 60.9897 171.601 60.2054C171.711 59.1541 171.566 58.6784 171.509 57.9757ZM158.422 57.475C158.182 57.1608 157.836 56.9464 157.421 57.0676C156.126 57.4464 156.508 59.287 156.963 60.1829C157.21 60.6694 158.009 60.7928 158.37 60.3644C158.959 59.6659 159.241 58.2708 158.492 57.5827C158.472 57.5471 158.45 57.5112 158.422 57.475ZM170.024 53.0335L169.819 52.9976C169.186 52.888 168.399 52.7828 167.951 53.2921C167.714 53.5622 167.632 54.0642 167.951 54.3227C168.513 54.7776 169.134 54.6013 169.807 54.6398C170.361 54.6717 170.894 54.7635 171.429 54.9164C172.601 55.2516 173.556 55.8636 174.557 56.5355C174.688 56.6237 174.822 56.4556 174.759 56.3326C174.182 55.2 173.062 54.2696 171.94 53.7025C171.342 53.3998 170.686 53.1486 170.024 53.0335ZM159.603 52.5271L159.446 52.5592C157.742 52.9158 155.527 53.628 154.72 55.3035C154.689 55.5404 154.722 55.5912 154.748 55.6244L154.757 55.6354C154.779 55.6637 154.796 55.7028 154.899 55.735C154.927 55.7283 154.956 55.7211 154.985 55.7134C155.355 55.6164 155.648 55.4827 155.931 55.344L156.239 55.1925C156.595 55.0176 156.955 54.849 157.336 54.7246C158.149 54.4591 158.986 54.272 159.836 54.1722C160.02 54.1505 160.197 54.0883 160.337 53.9818C160.47 53.8806 160.571 53.7405 160.617 53.5543C160.677 53.3133 160.66 53.1309 160.531 52.9135C160.434 52.7502 160.295 52.6371 160.135 52.5721C159.972 52.5058 159.787 52.4902 159.603 52.5271Z" fill="black"/>
<path fill-rule="evenodd" clip-rule="evenodd" d="M149.275 54.2769C149.365 54.2619 149.454 54.2479 149.544 54.2347C149.614 54.1949 149.697 54.1642 149.792 54.1458C150.011 54.0902 150.228 54.0528 150.445 54.0326C153.555 53.3322 160.75 54.3267 161.047 56.9828C162.037 57.3136 162.894 57.0173 164.042 57.0468C164.916 53.3919 180.022 53.9077 180.749 56.1113C180.751 56.1105 180.754 56.1099 180.757 56.109C181.455 55.8928 182.484 55.9449 183.283 55.9107C184.989 55.8749 186.697 56.0271 188.366 56.3871C191.492 56.8842 195.758 57.4662 193.584 61.3723C193.584 61.373 193.583 61.3738 193.583 61.3744L193.582 61.3741C193.208 61.7584 192.572 61.4489 192.548 60.9287C193.279 59.0782 191.628 58.856 190.358 58.3242C187.198 57.1879 183.98 57.0304 180.712 57.3819C180.466 57.6716 180.093 57.9243 179.698 58.0565C177.513 58.4195 178.665 60.0418 177.283 60.2778C177.537 65.933 170.676 69.0199 166.701 65.3024C165.113 63.7494 164.735 61.4489 164.367 59.3753C164.173 59.3316 164.049 59.2251 163.977 59.0842C163.509 58.6166 163.215 58.1849 162.289 58.0565C161.364 57.9282 160.652 58.1857 160.555 58.2646C160.531 58.3136 160.505 58.3627 160.475 58.4118C160.432 58.485 160.375 58.5433 160.309 58.5893C161.223 64.2207 156.855 67.7821 152.444 64.8613C150.528 63.0574 150.123 60.2956 150.043 57.8305C149.783 57.6736 149.619 57.3696 149.709 56.9873C149.833 56.4605 149.542 56.0043 149.079 55.7752C148.478 55.4777 148.584 54.3913 149.275 54.2769ZM168.225 56.9461C168.773 56.8256 169.006 57.6703 168.457 57.7911C168.068 57.8766 167.739 58.0729 167.516 58.4054L167.493 58.4415C167.194 58.9173 166.438 58.4781 166.739 57.9992C167.078 57.4603 167.604 57.0828 168.225 56.9461ZM152.192 56.4237C152.385 56.2877 152.677 56.3887 152.789 56.5809C152.913 56.7926 152.832 57.0283 152.651 57.1668L152.633 57.1803C152.467 57.2972 152.306 57.5068 152.285 57.7216L152.283 57.7484C152.262 58.3105 151.389 58.3133 151.411 57.7484C151.432 57.1958 151.752 56.7341 152.192 56.4237Z" fill="black"/>
<path fill-rule="evenodd" clip-rule="evenodd" d="M58.2441 126.925L58.0895 128.767L57.9742 128.551C57.9578 132.266 57.4066 136.022 56.7988 139.729C55.2099 138.424 53.9038 137.273 54.281 135.045C55.2365 131.871 56.4619 128.774 57.4525 125.616L57.6186 126.444L58.2725 126.576L58.2441 126.925ZM171.719 322.639C171.426 321.348 171.107 319.981 170.808 318.687C170.778 318.578 170.504 318.553 170.416 318.524C168.834 314.655 167.45 313.774 164.387 313.248C159.447 312.355 154.573 310.42 149.906 307.553C150.015 307.126 150.313 306.389 150.584 305.602C150.548 305.614 150.513 305.625 150.476 305.632C150.413 305.644 150.354 305.647 150.298 305.643C149.982 306.385 149.637 307.037 149.455 307.277C148.872 306.902 148.224 306.489 147.653 306.09L147.655 306.083C147.147 305.731 146.518 305.297 146.021 305.025C145.927 304.511 145.173 304.351 144.778 304.012C144.013 303.465 143.588 303.184 142.886 303.881C141.371 301.916 140.151 299.839 138.952 297.153C138.201 295.583 137.833 293.845 136.823 292.443C136.843 292.432 137.484 292.233 137.5 292.215C126.033 266.842 124.195 238.608 121.749 211.487C121.21 205.422 120.645 199.301 119.593 193.414C119.449 192.522 119.319 191.644 118.782 190.933C125.227 185.63 125.289 175.35 122.168 167.726C129.345 148.389 115.277 127.852 116.315 108.117C116.897 94.7311 114.484 79.2207 99.3447 76.0089C97.4672 74.9296 95.2164 74.7685 93.4249 74.7394C91.812 73.9256 91.5578 72.1289 90.9836 70.6519L90.4225 70.6554C90.2579 69.9869 90.0949 69.2539 89.9533 68.5804C89.7404 68.1534 89.8666 67.5968 89.1958 67.7152C87.6755 65.5169 75.509 64.4117 75.3708 67.9513C74.9316 68.21 74.8449 68.7148 74.7427 69.3279C74.068 73.6752 69.4198 77.142 65.2316 76.4429L65.1638 76.3817C47.3337 75.7217 40.3145 88.3905 36.8304 105.656C34.1081 119.071 32.3778 133.61 34.5096 147.047C36.5923 153.136 42.9009 156.066 47.7816 159.818C47.219 161.234 47.1664 162.796 47.1493 164.328C47.0849 166.097 46.9561 167.88 46.7995 169.625C46.4785 171.837 45.9589 175.644 48.9732 175.902C50.1409 202.335 52.58 228.699 48.853 255.209C45.7591 269.87 46.9436 287.609 50.769 301.954C50.9897 302.662 51.5565 303.3 52.2806 303.073C52.6483 303.311 52.9355 303.46 53.2396 303.236C53.4187 303.567 53.6151 303.885 53.8273 304.194C53.9076 308.135 54.355 312.002 54.1513 315.968C53.8476 315.933 53.1796 315.599 52.92 315.818L52.8829 316.12L52.6358 316.204C52.1185 317.662 51.7939 319.192 51.5538 320.426C50.5071 322.542 49.1699 326.286 49.9156 328.643C49.8794 328.685 49.6786 328.918 49.647 328.953C49.4689 329.055 49.436 329.191 49.3925 329.348C48.8845 329.538 48.8324 330.118 48.7801 330.711C48.5256 332.147 48.9036 333.453 49.0335 334.858L49.0412 334.849C49.0412 334.849 49.4677 335.343 49.4683 335.343C54.8284 335.669 60.1066 335.753 65.4429 335.944C65.8456 335.174 65.9669 334.133 66.2695 333.286C72.5959 337.909 83.557 336.141 91.5034 335.005C94.7305 334.541 97.7793 334.101 100.482 333.955C100.658 333.931 100.671 333.855 100.675 333.785C100.702 332.727 100.901 331.643 100.802 330.616C101.36 330.074 101.106 329.087 100.722 328.221C99.3115 325.17 95.4777 324.836 92.3717 324.315C86.5281 323.182 81.8293 321.052 78.0281 317.795C78.2838 317.564 78.516 317.337 78.7275 317.115C78.6449 317.06 78.5623 317.005 78.4799 316.95C78.2799 316.862 78.0886 316.772 77.9132 316.659C77.8238 316.709 77.7118 316.719 77.6013 316.657C77.2192 316.443 76.9079 316.128 76.545 315.887C76.473 315.991 76.4007 316.096 76.3279 316.206C75.9799 315.84 75.5859 315.425 75.2417 315.041C75.2293 314.934 75.2573 314.67 75.1276 314.641C74.149 314.74 73.0155 315.069 71.9917 315.435C70.8346 311.637 70.1644 307.527 70.2417 303.646C71.3796 303.646 72.3763 303.635 73.2248 303.095C73.4567 303.157 73.7799 303.291 73.8399 302.927C74.1842 301.441 74.2737 299.867 74.3603 298.345C76.1215 269.557 78.805 246.425 87.7057 222.038C88.5604 225.424 89.9955 228.946 91.3014 232.317C97.2426 246.404 101.523 261.596 105.192 276.382C106.635 281.917 108.205 287.998 109.754 293.475C110.356 296.108 111.577 297.072 114.138 297.051C116.111 297.143 118.09 297.115 120.071 296.976C122.772 299.435 123.879 302.754 124.668 305.743C124.011 306.232 122.968 306.047 122.199 306.209C121.537 307.275 121.766 308.767 121.781 310.083C121.885 311.793 121.797 313.627 122.295 315.242C122.384 317.007 122.395 318.942 122.528 320.995C121.064 321.843 121.332 323.716 121.819 325.509C122.036 325.965 129.905 325.874 131.857 325.855C134.15 325.722 137.421 326.307 138.174 323.796C143.634 326.825 151.942 325.802 158.304 324.91C162.922 324.348 167.105 323.825 171.639 322.872C171.686 322.851 171.751 322.706 171.719 322.639Z" fill="white"/>
<path fill-rule="evenodd" clip-rule="evenodd" d="M75.0965 67.0006C75.4494 66.9296 75.7531 67.0343 75.9672 67.2275C76.0131 67.7042 76.0076 68.1797 75.9683 68.6553C75.9289 68.6891 75.8852 68.722 75.8372 68.7524L75.8737 68.7291C75.9068 68.7077 75.9295 68.6919 75.9442 68.6804C75.4789 71.7803 73.3242 74.4172 70.5311 75.819C70.3583 76.1037 69.9674 76.0844 69.6867 76.2128L69.2921 76.3368C68.2057 76.677 67.1062 76.9986 65.957 77.02C68.8789 85.2179 80.3052 89.6717 88.3883 90.2769C95.369 90.6444 99.2428 84.8619 97.4011 78.376C93.3572 77.8533 89.3814 73.5562 90.8473 69.404L90.8934 69.2782C90.9032 69.2358 90.96 69.2509 90.9644 69.288C91.0092 69.7113 91.2615 70.1772 91.3739 70.5906L91.4257 70.7374C91.8147 71.857 92.1598 73.192 93.2585 73.7878L93.4465 73.7921C95.4228 73.8435 97.4864 74.1043 99.2266 75.0816C101.167 75.4625 103.022 76.2303 104.749 77.1817C118.385 84.5763 116.202 100.305 116.627 113.403C117.95 131.352 128.898 149.288 122.441 167.308C125.39 174.812 125.618 184.898 119.183 190.623C119.253 190.734 119.313 190.855 119.363 190.98C119.669 191.743 119.764 192.618 119.908 193.429L119.925 193.522C120.273 195.407 120.524 197.311 120.768 199.212C121.251 202.961 121.602 206.727 121.936 210.492L121.983 211.03C122.82 220.494 123.55 229.98 124.647 239.42L124.852 240.819C126.337 250.926 127.955 261.056 130.391 270.959C130.462 271.225 130.534 271.491 130.607 271.756C131.485 274.933 132.518 278.056 133.49 281.204C133.797 282.2 134.138 283.182 134.497 284.155L134.943 285.262C135.018 285.446 135.092 285.63 135.167 285.815C135.959 287.76 136.802 289.683 137.69 291.587C137.85 291.93 137.617 292.246 137.342 292.334C138.153 293.619 138.459 295.148 139.136 296.512C140.105 298.686 141.252 300.801 142.684 302.708C143.477 302.113 144.361 302.881 145.02 303.32C145.443 303.583 145.991 303.78 146.157 304.244C146.476 304.427 146.787 304.629 147.08 304.831L147.11 304.735C147.467 303.594 148.165 302.063 149.3 301.554C150.627 300.996 151.686 302.107 151.289 303.437C151.045 304.624 150.665 305.761 150.259 306.907C154.342 309.368 158.806 311.235 163.501 312.172L163.662 312.204C164.795 312.429 165.946 312.584 166.985 313.122C168.706 314.066 169.817 315.859 170.512 317.652C170.754 317.711 170.976 317.922 171.029 318.153L171.487 320.131C171.64 320.79 171.792 321.45 171.941 322.11C172.023 322.468 171.832 322.918 171.437 322.998C168.711 323.542 165.972 324.019 163.221 324.422C155.413 325.144 145.366 327.682 138.115 324.118C136.958 326.494 133.736 325.814 131.55 325.993C130.222 325.895 120.902 326.401 120.99 325.276L120.939 325.083C120.527 323.511 120.155 321.4 121.657 320.318C121.563 318.544 121.493 316.769 121.463 314.994C120.94 313.31 121.031 311.447 120.925 309.688C120.939 308.378 120.633 306.864 121.35 305.692C121.413 304.916 123.142 305.33 123.714 305.046L123.663 304.861C122.874 302.002 121.776 299.22 119.559 297.127C117.643 297.254 115.721 297.276 113.802 297.187C110.881 297.198 109.548 295.934 108.912 293.189C108.457 291.579 108.012 289.966 107.574 288.35C104.156 275.64 101.053 262.818 97.2758 250.206C95.8319 245.979 94.2346 241.804 92.6241 237.64C91.5326 234.817 90.4393 231.995 89.347 229.173C88.7858 227.723 88.2328 226.265 87.745 224.789C87.5949 224.335 87.459 223.879 87.3307 223.421C78.8581 246.933 76.1708 271.914 74.6715 296.719C74.535 298.7 74.5109 300.703 74.0619 302.641C73.9243 303.238 73.4196 303.403 72.9739 303.272C72.1531 303.706 71.5461 303.757 70.4896 303.774L70.4974 304.114C70.5575 306.551 70.7069 308.982 71.2609 311.363C71.4805 312.357 71.8738 313.323 72.0868 314.312C72.9476 314.02 73.8271 313.8 74.7316 313.692C75.1883 313.637 75.4494 314.019 75.4679 314.411C75.6362 314.596 75.8055 314.779 75.9781 314.961L76.0653 314.849C76.8776 313.801 77.919 312.365 79.3308 312.247C79.9732 312.208 80.5599 312.57 80.6998 313.223C80.8338 314.722 79.5903 316.363 78.541 317.358C82.4287 320.57 87.247 322.425 92.1649 323.371L92.3571 323.403C95.5119 323.918 99.4036 324.325 100.908 327.584L100.94 327.654C101.292 328.448 101.626 329.652 101.051 330.38C101.119 331.374 100.935 332.397 100.911 333.4C100.886 333.808 100.611 334.045 100.221 334.09C90.1817 334.628 74.8796 339.32 66.2815 333.737C66.1045 334.356 65.9221 334.973 65.7527 335.594C65.6785 335.868 65.4021 336.091 65.1126 336.08C59.7901 335.89 54.4502 335.803 49.1343 335.479C48.9797 335.482 48.8503 335.413 48.7427 335.288C48.6179 335.441 48.2994 335.399 48.2568 335.182C48.1817 334.801 48.1812 334.415 48.1469 334.028C48.1071 333.581 47.9875 333.169 47.9174 332.731C47.7879 331.924 47.8461 331.058 47.9263 330.248L47.9468 330.043C48.003 329.508 48.1028 328.899 48.5874 328.596L48.6196 328.577C48.6213 328.576 48.6231 328.575 48.6248 328.574C48.6785 328.403 48.8056 328.256 48.9664 328.139L48.9759 328.128C48.7227 327.524 48.8203 326.761 48.8941 326.132C49.0982 323.943 49.7116 321.778 50.7227 319.835C51.0109 318.358 51.3603 316.829 51.8797 315.423C51.8655 315.358 51.9463 315.304 52.0086 315.332C52.0301 315.321 52.0513 315.312 52.0723 315.305C52.0749 315.284 52.0792 315.262 52.086 315.242C52.1757 314.977 52.453 314.833 52.7126 314.792C52.9325 314.757 53.123 314.815 53.3204 314.865C53.4626 311.046 53.0108 307.233 52.9645 303.416C52.601 303.592 52.193 303.436 51.8578 303.234C50.8855 303.383 50.1962 302.555 49.9295 301.685L49.7733 300.979C48.3716 294.625 47.1086 288.216 46.4295 281.74C45.4909 272.699 46.6248 263.651 48.0022 254.717C51.741 231.192 49.0327 207.412 48.7662 183.758C48.5433 181.175 48.4511 178.564 48.1675 175.983C47.1131 175.858 46.3159 174.873 45.9597 173.928C45.4014 172.432 45.8045 170.705 45.9455 169.167C46.1017 167.462 46.2164 165.753 46.2908 164.044L46.2995 163.545C46.3249 162.212 46.3829 160.87 46.826 159.601C42.1006 155.969 35.8342 153.115 33.8345 147.043C32.9247 146.225 33.108 142.432 32.9595 141.041C32.3525 129.007 33.381 116.893 35.9869 105.13C39.2483 89.0987 45.9296 74.7333 64.657 75.4197C64.6428 75.4089 64.6275 75.3968 64.6133 75.3848C64.8111 75.3193 65.0153 75.3837 65.1606 75.5146C68.3494 75.9235 71.3972 74.0424 72.9902 71.3388C73.3813 70.6647 73.6719 69.9611 73.8271 69.1964L73.8392 69.1353C74.0013 68.2944 74.0471 67.2113 75.0965 67.0006ZM50.9028 328.8C50.4502 329.05 49.955 329.08 49.5383 329.413C49.2455 331.012 49.2696 332.671 49.6213 334.258C54.6139 334.312 59.6129 334.564 64.6032 334.735C64.8043 333.964 64.9943 333.188 65.2041 332.419L65.2091 332.404L65.22 332.373C65.738 332.391 66.256 332.406 66.7742 332.419C74.4382 337.904 90.3167 333.242 99.5683 332.785L99.6634 331.248C99.5697 331.313 99.477 331.349 99.3879 331.362C99.4739 331.137 99.3211 330.845 99.0161 330.93C98.5237 331.068 98.0289 331.195 97.5324 331.313C97.4947 331.299 97.452 331.292 97.4042 331.296C93.0611 331.666 88.7003 331.631 84.3453 331.644C80.0054 331.657 75.6701 331.84 71.3298 331.828C69.5595 331.823 67.7893 331.796 66.0197 331.744C60.9229 330.799 55.8623 329.683 50.9028 328.8ZM169.871 319.428C169.656 319.584 169.375 319.597 169.077 319.638L169.034 319.644C168.761 319.683 168.488 319.721 168.213 319.742C167.535 320.179 166.184 320.12 165.53 320.244C151.173 321.677 136.716 319.977 122.344 321.128C121.658 322.105 121.825 323.315 122.19 324.407C126.203 324.558 130.22 324.639 134.236 324.466L134.556 324.454C135.052 324.435 135.561 324.399 136.02 324.212C136.429 324.045 136.932 323.631 136.868 323.135L136.864 323.107C136.766 322.537 137.364 321.871 137.947 322.276C143.438 325.913 150.899 324.084 157.086 323.726C161.545 323.255 165.979 322.584 170.379 321.734C170.209 320.966 170.039 320.197 169.871 319.428ZM69.5786 303.313C69.1181 303.366 68.6571 303.413 68.1955 303.455C66.3439 303.622 64.4858 303.706 62.6278 303.759L61.7603 303.783C60.0289 303.829 58.2864 303.87 56.5582 303.776C55.6842 303.729 54.788 303.626 53.943 303.389C54.6864 307.283 55.0687 311.248 55.0568 315.211C55.289 315.412 55.242 315.743 55.1803 315.997L55.2385 316.169C55.374 316.572 55.5034 316.982 55.555 317.394C60.9197 320.58 65.3735 317.317 70.2649 315.032C69.4588 312.939 69.2135 310.643 69.0785 308.42C69.0032 306.69 69.1327 305.003 69.5786 303.313ZM79.3301 313.597C79.1066 313.622 78.8992 313.762 78.7183 313.886C77.9722 314.419 77.3276 315.051 76.7388 315.734C76.9649 315.956 77.1954 316.175 77.4303 316.39C78.3116 315.681 79.0038 314.693 79.3301 313.597ZM136.349 293.351L135.623 293.595C131.139 295.097 126.562 296.508 121.799 296.929C122.055 297.182 122.27 297.482 122.459 297.8C122.624 297.94 122.79 298.118 122.743 298.33C122.896 298.639 123.031 298.952 123.16 299.248C123.914 301.037 124.783 302.798 125.418 304.64C125.603 305.409 126.327 306.484 125.99 307.228C131.053 309.43 137.352 308.45 141.221 304.422L141.084 304.221C138.861 300.932 136.908 297.32 136.349 293.351ZM150.084 302.646C149.777 302.382 149.238 303.111 149.102 303.292C148.597 303.962 148.249 304.697 147.992 305.465C148.316 305.687 148.643 305.895 148.973 306.108L148.991 306.078C149.298 305.549 150.402 302.981 150.084 302.646ZM53.785 302.589L53.7904 302.616C54.0622 302.658 54.3345 302.696 54.6081 302.727C55.2725 302.803 55.9457 302.836 56.6163 302.85C55.6725 302.714 54.7279 302.604 53.785 302.589ZM60.9816 174.575L60.7581 174.552L60.471 174.517C56.786 174.06 53.0724 173.449 49.3616 174.043C49.8755 176.417 49.9098 178.904 50.0759 181.336C50.8679 204.76 53.7199 228.318 50.5245 251.687L50.4258 252.396C49.261 260.707 47.8751 269.047 48.433 277.469C48.8682 285.145 50.4326 292.691 51.9868 300.203C52.3604 300.297 52.734 300.391 53.1087 300.483C53.1197 300.378 53.1846 300.438 53.1972 300.504C57.8005 301.731 62.6048 301.837 67.3347 301.529C68.2266 301.478 69.1144 301.405 70.0057 301.344C70.6927 301.046 71.427 300.856 72.1721 300.725C73.7431 276.887 75.8004 252.777 83.1849 229.923C87.8859 215.404 93.7575 201.266 97.2318 186.375C97.352 185.957 97.9856 186.133 97.8827 186.555L97.7742 187.126C96.8922 191.789 96.0971 196.468 94.7236 201.026C95.7663 199.892 96.9556 198.89 97.9398 197.703C98.2467 197.329 98.5286 196.935 98.7712 196.515C99.0012 195.995 99.3705 195.588 99.9422 195.466C100.204 195.36 100.448 195.583 100.534 195.802C100.775 196.407 100.673 196.839 100.323 197.372L100.236 197.503C98.691 199.783 96.2188 201.115 94.1784 202.904C92.4705 208.598 90.5047 214.211 88.5774 219.832C88.5533 220.951 88.7567 222.055 89.0843 223.121C89.4575 224.217 89.7917 225.379 90.3648 226.407C98.3334 243.041 102.349 261.165 107.191 278.864C108.465 283.584 109.756 288.302 111.145 292.99L111.165 293.076C111.482 294.397 111.976 294.929 113.426 294.927C120.694 295.261 128.156 294.076 134.776 291.157C131.129 281.439 128.597 271.381 126.628 261.189C125.635 256.371 124.83 251.515 124.152 246.64C123.208 240.415 122.375 234.177 121.532 227.97C119.805 215.805 119.881 203.426 117.68 191.335C116.929 191.36 116.285 190.468 116.742 189.802C116.583 189.14 116.725 188.416 116.962 187.805L116.933 187.672C114.355 189.958 110.991 190.247 112.717 185.852L112.837 185.554C114.133 182.329 115.783 178.884 115.051 175.346C107.573 179.332 98.433 178.689 90.3964 176.942C91.0223 179.215 89.336 180.608 87.4336 179.082C87.0906 178.805 86.7541 178.518 86.4242 178.222C86.9078 180.137 86.6482 182.144 86.2013 184.042L86.1587 184.261C85.9411 185.4 85.6944 186.912 84.827 187.7C84.1945 188.274 83.2419 188.03 82.9577 187.21C82.7991 184.501 82.0425 181.835 80.6571 179.478C80.8887 181.201 80.8319 182.97 80.407 184.622C80.2431 185.253 80.0159 185.898 79.9622 186.551L79.9704 186.659C80.052 187.81 79.8988 188.867 78.4611 188.89C75.0521 188.29 77.2027 180.234 75.0321 177.686C74.3726 180.761 75.1409 184.803 72.1437 186.844C71.3156 187.361 70.305 187.061 70.1367 186.057L70.1963 185.269C70.5539 180.456 70.4872 179.014 67.3969 174.502C65.3014 175.003 63.107 174.789 60.9816 174.575ZM121.709 298.26C121.712 298.279 121.713 298.296 121.714 298.315C121.75 298.351 121.785 298.388 121.821 298.426L121.873 298.482L121.812 298.331C121.778 298.31 121.743 298.285 121.709 298.26ZM118.896 190.871L118.755 190.989C118.732 191.009 118.708 191.029 118.684 191.048C118.809 191.603 118.925 192.16 119.039 192.716L119.017 192.35C118.996 191.989 119.053 191.334 118.896 190.871ZM116.62 141.539C115.566 136.638 114.515 134.57 115.85 141.629L115.995 142.391C116.573 145.447 117.183 148.912 117.755 152.642L117.875 153.423C118.472 157.29 119.411 162.952 119.481 167.487C119.559 172.633 116.943 174.16 115.909 174.827C115.716 175.393 115.962 175.865 116.125 176.409C116.344 177.282 116.401 178.12 116.339 179.017C116.121 182.076 114.485 184.84 113.741 187.743C114.694 187.481 115.757 186.623 116.59 185.944C118.069 184.769 119.1 183.028 119.546 181.182C119.758 180.311 119.604 179.234 120.198 178.52C120.373 178.309 120.751 178.33 120.929 178.52C121.414 179.036 121.368 179.668 121.29 180.328C121.025 182.574 120.037 184.775 118.444 186.391C118.369 187.221 118.121 187.96 117.957 188.749C118.02 188.925 118.083 189.102 118.143 189.28C119.222 188.349 120.124 187.223 120.823 185.983C123.942 180.513 122.853 174.213 122.046 168.247C121.884 168.646 121.514 168.805 121.155 168.766C120.949 169.282 120.41 168.953 120.388 168.286C120.255 164.129 119.702 158.219 118.684 152.166C118.078 148.558 117.344 144.901 116.62 141.539ZM77.2333 160.415C75.6863 165.21 69.5894 166.145 66.028 169.069C67.8168 173.782 72.8235 178.829 71.3505 184.909L71.3422 184.954C71.2979 185.187 71.1527 185.844 71.309 185.968C71.4084 186.046 72.0201 185.45 72.1273 185.332C74.2696 182.786 73.0232 179.185 74.228 176.282C74.3864 175.896 74.8802 175.668 75.2145 176.023C76.7211 177.617 77.0853 179.766 77.3161 181.866L77.324 181.938C77.5096 183.572 77.4077 185.254 77.8921 186.843L77.9103 186.899C78.0133 187.206 78.2059 187.639 78.4208 187.717C79.014 187.931 78.7912 186.982 78.8119 186.607C78.8742 185.523 79.3352 184.507 79.4969 183.439C79.8421 181.149 79.498 178.745 78.7365 176.573C78.4951 175.884 79.4455 175.64 79.8126 176.121C81.3366 178.119 82.5579 180.34 83.3631 182.724C83.6875 183.685 83.8601 184.658 84.0765 185.637C85.4258 181.546 85.387 177.245 82.3307 173.891C81.6075 173.024 82.8125 171.774 83.5914 172.633C84.3992 173.595 85.19 174.567 86.068 175.466C86.9339 176.338 87.7684 177.411 88.8395 178.033C88.6656 174.117 84.4586 172.348 82.2148 169.666C79.9274 166.966 78.6766 163.598 77.2333 160.415ZM57.0145 127.344C56.1954 129.833 55.2358 132.276 54.4954 134.791C54.3416 136.492 54.8662 137.198 56.1176 138.278C56.6591 135.192 56.8834 132.061 57.1729 128.941C57.1289 128.408 57.12 127.87 57.0145 127.344ZM57.4186 126.122L57.3367 126.374L57.3638 126.422L57.3902 126.471L57.4186 126.122ZM107.351 94.9863L107.663 97.0461C108.813 104.599 109.998 112.151 111.629 119.617C111.719 120.028 112.25 119.476 112.152 118.679C111.149 110.487 107.365 94.8895 107.35 94.9787L107.351 94.9863ZM97.6941 78.4229C97.7673 78.5101 97.8361 78.6017 97.9028 78.6945C97.8886 78.6115 97.8744 78.5275 97.8591 78.4435C97.8033 78.437 97.7487 78.4305 97.6941 78.4229Z" fill="black"/>
<path fill-rule="evenodd" clip-rule="evenodd" d="M105.318 49.0942C104.904 42.3089 102.699 34.6161 96.2096 31.2846C81.9029 25.5513 63.0926 39.9894 62.0967 54.7391C61.7495 59.788 64.5569 65.305 69.6872 66.7087C70.8278 68.2177 72.5528 69.1392 74.2554 69.939C94.5343 80.4447 107.634 71.9047 105.318 49.0942Z" fill="white"/>
<path fill-rule="evenodd" clip-rule="evenodd" d="M109.938 44.8734C109.221 42.8859 108.464 40.9136 107.668 38.9566C106.892 37.052 106.192 35.1062 105.229 33.2918C99.4757 22.4553 89.0143 22.4553 83.6067 23.8712C80.8024 22.6647 75.5498 23.005 72.6297 24.0937C67.9024 25.8562 62.1399 32.7895 60.1696 35.9045C55.8196 42.7822 53.1048 51.9364 55.9944 59.8839C56.372 60.9226 56.8537 61.8846 57.396 62.8117C57.0544 63.274 56.6612 63.7119 56.2257 64.1421C54.9313 65.4208 53.637 66.6574 52.5188 68.0996C51.4077 69.5329 50.4866 71.0571 49.8008 72.7375C48.5078 75.9067 48.4455 79.4951 50.155 82.5191C51.6423 85.1502 54.2769 87.1095 57.2452 87.2964C57.3976 87.3176 57.5503 87.337 57.7035 87.3523C58.0968 87.9992 58.5764 88.5948 59.1237 89.1141C60.8006 90.7067 64.7979 91.5238 67.0779 91.5761C67.1948 91.67 67.3127 91.7638 67.4307 91.8565C68.8258 92.9528 70.2897 94.0589 71.8912 94.8389C72.976 95.3679 74.3984 95.8097 75.5302 95.4279C76.0436 95.7705 76.8859 95.6985 77.395 95.4181C78.2318 94.9578 78.9124 94.1287 79.3264 93.2801C80.3304 91.2194 80.089 88.9646 79.8312 86.7633C79.5471 84.3318 79.274 81.8992 78.9965 79.4677C78.7791 77.5663 78.5519 75.6333 77.9729 73.8018C77.6736 72.8527 77.2814 71.9408 76.7745 71.0834C76.7876 71.0114 76.7854 70.9394 76.7646 70.8717C76.5986 70.3328 76.2556 70.0503 75.8492 69.6838C75.7967 69.6369 75.7443 69.5889 75.6929 69.5398C75.4898 69.3085 75.2724 69.0936 75.0397 68.9115C74.9501 68.8209 74.8616 68.7293 74.7731 68.6377C74.0379 67.8686 73.3431 67.0603 72.7258 66.1941C72.1272 65.3542 71.5864 64.4771 71.0719 63.5837C70.5486 62.675 70.2023 61.6726 69.6801 60.7704C69.6353 60.693 69.5217 60.6777 69.4583 60.7421C69.2966 60.909 69.1929 61.0944 69.2125 61.2897L69.1317 61.3017C69.1011 61.0071 68.8291 60.7671 68.4598 60.8315C67.907 60.9275 67.4526 60.9635 66.9741 60.7802C67.0582 60.2228 67.1358 59.6643 67.2122 59.1047C67.3521 58.0749 67.4821 57.0419 67.5935 56.0088C67.8633 56.0732 68.131 56.1659 68.3932 56.2837C68.7668 56.4506 69.1197 56.6754 69.4212 56.9513C69.7183 57.224 69.9237 57.5917 70.2864 57.7815C70.7037 57.9986 71.2073 57.6397 71.085 57.1684C70.837 56.2161 69.4332 55.6707 68.5647 55.4907C68.2665 55.4285 67.9617 55.4023 67.6569 55.4089C67.7257 54.7456 67.7869 54.0824 67.8371 53.4181C67.8612 53.1039 67.883 52.7897 67.9038 52.4745C68.5789 52.2705 69.3021 52.2094 70.0045 52.3054C70.2361 52.4897 70.4677 52.6719 70.6917 52.8563C71.4029 53.4431 72.1108 54.0333 72.81 54.6344C72.8733 54.6878 72.9356 54.7413 72.999 54.7958C73.4141 55.1525 73.9319 54.7991 73.862 54.294C73.2917 50.1553 75.8306 46.8631 78.8032 44.3127C82.0936 41.4885 88.0759 41.1596 91.9891 36.2676C93.7913 36.6339 97.8151 37.7218 99.4757 40.3638C101.8 44.0662 101.497 47.3835 101.674 51.5832C101.851 55.7863 102.301 60.1704 101.345 64.3146C100.463 68.1359 98.0762 71.4008 94.3728 72.9018C94.281 72.9389 94.1882 72.9749 94.0953 73.0098C92.1803 73.7309 90.0904 73.9348 88.0759 73.5552C85.8462 73.1342 83.9847 72.1153 82.1297 70.8619C82.0226 70.791 81.8664 70.9372 81.9472 71.0441C84.3922 74.2796 89.1946 75.3606 93.004 74.5065C93.182 74.4661 93.359 74.4225 93.5349 74.3745C92.6828 76.8212 92.8543 79.5069 93.9642 81.8894C94.6317 83.3227 95.6499 84.563 96.8898 85.5415C98.2565 86.6193 99.952 87.4898 100.9 89.0028C101.769 90.3893 101.511 91.947 100.024 92.7477C99.6494 92.9506 99.5052 93.6062 99.8766 93.8942C100.019 94.0033 100.161 94.1146 100.306 94.2236C101.138 94.8509 103.425 96.029 103.795 96.0726C107.084 96.4621 109.295 94.0513 110.712 91.2074C112.375 87.8694 111.943 83.8016 110.11 80.6229C108.639 78.0725 105.743 75.5591 106.895 72.3313C107.305 71.1783 108.145 70.1954 108.961 69.3074C109.892 68.2962 110.893 67.3494 111.785 66.3021C112.672 65.2626 113.459 64.1313 113.898 62.8267C114.539 60.9199 114.221 58.8582 113.739 56.9546C112.706 52.8683 111.366 48.8365 109.938 44.8734Z" fill="black"/>
<path fill-rule="evenodd" clip-rule="evenodd" d="M83.4301 63.5907C83.4416 62.4002 84.4875 62.1949 85.4811 62.3537C87.1631 62.622 88.8514 62.8109 90.5562 62.8449L90.85 62.85C90.8973 62.782 90.9764 62.7303 91.0837 62.719C92.0287 62.6183 92.9942 62.6346 93.9443 62.6069C94.7732 62.5829 95.625 62.5011 96.4538 62.5653L96.5198 62.571C97.5328 62.6678 98.6017 63.1777 98.4794 64.3503C98.3669 65.436 97.3146 66.3972 96.4743 67.0006C96.3044 67.1215 96.1307 67.2348 95.9519 67.3381C95.8958 67.4086 95.814 67.4578 95.7195 67.4679C94.892 67.9087 93.9789 68.1695 93.0338 68.2564C91.03 68.4403 88.7006 68.2413 86.7761 67.3848C86.1504 67.1063 85.5667 66.7586 85.0508 66.3316C84.2552 65.6729 83.4212 64.674 83.4301 63.5907ZM91.325 65.9512C90.5218 65.9273 89.7198 66.0382 88.9548 66.2826C88.4363 66.4476 87.9637 66.7649 87.4669 66.9854C89.1412 67.6152 91.0862 67.7526 92.8039 67.6379C93.5574 67.5876 94.288 67.4162 94.9687 67.1215C94.8626 67.0459 94.7553 66.9691 94.6429 66.9022C94.3033 66.6994 93.9482 66.5269 93.5778 66.3895C92.8563 66.1226 92.0951 65.9752 91.325 65.9512ZM91.5943 55.5409C91.3776 55.3874 91.5496 54.8792 92.0127 54.9578C96.2188 55.6705 94.0394 62.8169 88.6692 58.8953C88.0299 58.3865 88.8041 57.266 89.4932 57.7017L89.7379 57.8878C90.5334 58.4892 91.8493 59.3984 92.792 58.4227C93.6819 57.1932 92.4215 56.0368 91.5943 55.5409ZM94.4418 50.1322C95.3359 49.3798 96.4573 49.9343 97.1155 50.6965L97.2316 50.8327C97.3632 50.9882 97.5091 51.1693 97.5967 51.3629C98.3261 50.7503 99.3153 50.3192 100.262 50.599C101.18 50.8714 101.703 51.7358 101.546 52.6638C101.367 53.7191 100.557 54.4284 99.6875 54.9769L99.4408 55.1314C98.3955 55.7887 97.4174 56.4508 96.5571 57.3542C96.4168 57.5011 96.1135 57.4816 96.0215 57.2862L95.9474 57.1289L95.8725 56.9716C95.2622 55.6881 94.6084 54.4131 94.0715 53.0993C93.6739 52.1257 93.5447 50.8864 94.4418 50.1322ZM84.2496 50.8138L84.3858 50.6585C85.0408 49.9065 86.1505 49.403 87.0259 50.1323C87.958 50.9092 87.775 52.1938 87.3599 53.1846C86.8599 54.3796 86.276 55.5483 85.715 56.7205L85.5951 56.9717C85.5447 57.0765 85.4954 57.1813 85.4463 57.2861C85.3541 57.4817 85.0497 57.5011 84.9105 57.3542C84.077 56.479 83.1339 55.8314 82.1266 55.195L81.8226 55.0042C80.9385 54.451 80.1027 53.7368 79.9208 52.6638C79.7653 51.7379 80.2856 50.8681 81.2047 50.599C82.1533 50.3214 83.1403 50.7493 83.8709 51.363C83.958 51.1644 84.1079 50.9774 84.2496 50.8138ZM85.4482 45.4188C85.7681 45.8285 85.4265 46.4981 84.9593 46.604C84.3807 46.7353 83.7962 46.6554 83.2281 46.8182C82.7075 46.9675 82.2089 47.2664 81.7627 47.5644C81.2539 47.9041 80.7853 48.2834 80.3547 48.7154C80.0985 48.9725 79.7758 49.5814 79.3808 49.5928C78.9881 49.6041 79.5152 48.3928 79.5588 48.288C79.8685 47.5419 80.3035 46.8554 80.8476 46.254C81.9212 45.0673 84.195 43.8152 85.4482 45.4188ZM97.4378 45.0909L97.7058 45.1643C98.369 45.3462 99.077 45.5696 99.6459 45.9617L99.6906 45.9929L99.7595 46.0426C100.474 46.5679 101.484 47.6159 100.978 48.5302C100.943 48.5932 100.869 48.5995 100.81 48.5738C100.137 48.283 99.6376 47.7023 98.9217 47.4595L98.7897 47.4151C98.0964 47.1848 97.2387 46.9426 96.4924 46.9646C95.9677 47.1328 95.2591 46.9935 95.1225 46.3635L95.1163 46.3326L95.1045 46.2674C95.0259 45.8369 95.1428 45.2881 95.5941 45.0807C96.2123 44.7965 96.8154 44.9229 97.4378 45.0909Z" fill="black"/>
</svg>
