<svg width="407" height="471" viewBox="0 0 407 471" fill="none" xmlns="http://www.w3.org/2000/svg">
<path fill-rule="evenodd" clip-rule="evenodd" d="M36.6909 30.1767C40.1187 27.9603 44.4298 27.9096 48.3901 28.9949C57.9849 31.6241 67.6199 33.2339 77.5735 34.1178C96.7443 35.8193 117.215 31.5185 130.039 31.1959C159.695 30.4475 175.223 43.0138 204.906 43.153C233.606 43.2871 249.615 32.3326 278.307 32.1539C302.449 32.0027 313.852 43.2138 337.189 38.0898C349.349 35.4198 363.91 29.3632 374.256 38.3293C376.995 40.7017 380.113 44.608 380.818 49.4827C381.75 55.9229 378.218 60.8907 376.333 64.7186C368.327 80.9822 377.229 103.333 381.329 118.568C394.654 168.064 368.201 193.593 374.432 254.875C376.833 278.479 384.616 301.816 385.099 330.305C385.492 353.54 379.846 367.205 381.137 390.424C382.75 419.401 389.829 438.594 380.915 448.031C373.618 455.759 362.159 448.603 343.848 447.792C325.399 446.974 315.938 454.626 297.505 454.98C281.01 455.297 268.12 451.47 254.169 448.178C229.816 442.432 204.785 441.391 181.832 445.296C161.144 448.814 148.664 455.268 127.716 452.917C111.152 451.056 101.988 441.978 84.233 443.82C80.128 444.246 56.1341 446.843 45.516 448.28C43.7528 448.518 40.1809 448.987 37.5967 446.417C30.9126 439.772 40.1999 409.338 40.2015 395.589C40.2018 377.453 33.5997 364.09 31.4403 350.001C26.5459 318.06 33.5117 299.156 35.8793 266.818C37.999 237.863 36.7921 212.946 32.9854 190.954C28.9714 167.762 23.4608 152.62 27.0845 129.081C28.9385 117.039 37.5975 102.481 35.9586 84.8148C34.691 71.1617 23.1864 54.4412 27.344 41.5227C28.8727 36.7721 32.1592 33.107 36.6909 30.1767Z" fill="#1F1F21"/>
<path fill-rule="evenodd" clip-rule="evenodd" d="M27.7788 21.8545C31.2066 19.638 35.5177 19.5874 39.478 20.6726C49.0728 23.3018 58.7078 24.9116 68.6614 25.7956C87.8322 27.4971 108.303 23.1963 121.127 22.8737C150.783 22.1252 166.311 34.6915 195.994 34.8307C224.694 34.9648 240.703 24.0104 269.395 23.8316C293.537 23.6805 304.94 34.8915 328.277 29.7676C340.437 27.0976 354.997 21.041 365.344 30.007C368.083 32.3794 371.201 36.2858 371.906 41.1605C372.838 47.6006 369.306 52.5685 367.421 56.3963C359.415 72.66 368.317 95.0108 372.417 110.245C385.742 159.742 359.288 185.271 365.52 246.552C367.92 270.157 375.703 293.494 376.187 321.983C376.58 345.218 370.934 358.883 372.225 382.102C373.837 411.079 380.917 430.271 372.003 439.709C364.706 447.437 353.247 440.281 334.936 439.469C316.487 438.651 307.026 446.304 288.593 446.658C272.098 446.975 259.207 443.148 245.257 439.856C220.904 434.11 195.872 433.069 172.92 436.973C152.231 440.491 139.752 446.946 118.804 444.595C102.24 442.734 93.0759 433.656 75.3209 435.497C71.2159 435.924 47.222 438.52 36.6039 439.957C34.8406 440.196 31.2687 440.665 28.6846 438.095C22.0005 431.45 31.2878 401.015 31.2894 387.266C31.2897 369.131 24.6876 355.768 22.5282 341.679C17.6338 309.738 24.5996 290.834 26.9672 258.495C29.0869 229.541 27.88 204.624 24.0733 182.632C20.0592 159.44 14.5487 144.298 18.1724 120.759C20.0264 108.717 28.6854 94.1588 27.0465 76.4925C25.7788 62.8395 14.2743 46.1189 18.4319 33.2004C19.9606 28.4498 23.2471 24.7847 27.7788 21.8545Z" fill="#CFF2FF" stroke="#1F1F21" stroke-width="3.76113"/>
<path fill-rule="evenodd" clip-rule="evenodd" d="M61.1825 51.2829C63.1915 50.3903 65.4466 50.3091 67.5996 50.7507C76.112 52.4963 84.6618 53.4799 93.5299 53.9272C109.431 54.7285 126.505 51.705 137.164 51.3148C161.815 50.4108 174.521 58.1541 199.18 57.8126C223.023 57.482 236.492 50.3042 260.333 49.7754C280.393 49.33 289.693 56.2737 309.161 52.6868C319.305 50.8177 331.496 46.7665 339.953 52.3019C342.192 53.7666 344.723 56.1984 345.233 59.2791C345.908 63.3492 342.897 66.5504 341.271 69.0049C334.369 79.4333 341.419 93.4767 344.591 103.077C354.897 134.269 332.525 150.84 336.756 189.607C338.386 204.54 344.491 219.225 344.453 237.282C344.421 252.009 339.519 260.756 340.233 275.46C341.125 293.811 346.711 305.878 339.159 311.991C332.977 316.997 323.567 312.625 308.367 312.376C293.052 312.124 285.074 317.114 269.754 317.605C256.044 318.045 245.394 315.805 233.854 313.92C213.71 310.628 192.93 310.331 173.8 313.139C156.557 315.669 146.089 319.943 128.722 318.755C114.989 317.815 107.516 312.192 92.736 313.616C89.3189 313.946 69.3443 315.94 60.5004 317.005C59.0318 317.182 56.057 317.53 53.9497 315.938C48.4991 311.822 56.685 292.389 56.8987 283.671C57.179 272.172 51.9003 263.794 50.3238 254.892C46.7506 234.709 52.8298 222.622 55.2963 202.082C57.5044 183.692 56.8865 167.91 54.0635 154.02C51.0867 139.373 46.7422 129.851 50.1164 114.873C51.8427 107.211 59.2615 97.854 58.1727 86.6758C57.3303 78.037 48.0304 67.6013 51.6841 59.3498C53.2044 55.9157 56.5737 53.3306 61.1825 51.2829Z" fill="#FFC1D2" stroke="#1F1F21" stroke-width="2.68652"/>
<mask id="mask0_266_599" style="mask-type:alpha" maskUnits="userSpaceOnUse" x="47" y="48" width="302" height="273">
<path fill-rule="evenodd" clip-rule="evenodd" d="M61.1825 51.2829C63.1915 50.3903 65.4466 50.3091 67.5996 50.7507C76.112 52.4963 84.6618 53.4799 93.5299 53.9272C109.431 54.7285 126.505 51.705 137.164 51.3148C161.815 50.4108 174.521 58.1541 199.18 57.8126C223.023 57.482 236.492 50.3042 260.333 49.7754C280.393 49.33 289.693 56.2737 309.161 52.6868C319.305 50.8177 331.496 46.7665 339.953 52.3019C342.192 53.7666 344.723 56.1984 345.233 59.2791C345.908 63.3492 342.897 66.5504 341.271 69.0049C334.369 79.4333 341.419 93.4767 344.591 103.077C354.897 134.269 332.525 150.84 336.756 189.607C338.386 204.54 344.491 219.225 344.453 237.282C344.421 252.009 339.519 260.756 340.233 275.46C341.125 293.811 346.711 305.878 339.159 311.991C332.977 316.997 323.567 312.625 308.367 312.376C293.052 312.124 285.074 317.114 269.754 317.605C256.044 318.045 245.394 315.805 233.854 313.92C213.71 310.628 192.93 310.331 173.8 313.139C156.557 315.669 146.089 319.943 128.722 318.755C114.989 317.815 107.516 312.192 92.736 313.616C89.3189 313.946 69.3443 315.94 60.5004 317.005C59.0318 317.182 56.057 317.53 53.9497 315.938C48.4991 311.822 56.685 292.389 56.8987 283.671C57.179 272.172 51.9003 263.794 50.3238 254.892C46.7506 234.709 52.8298 222.622 55.2963 202.082C57.5044 183.692 56.8865 167.91 54.0635 154.02C51.0867 139.373 46.7422 129.851 50.1164 114.873C51.8427 107.211 59.2615 97.854 58.1727 86.6758C57.3303 78.037 48.0304 67.6013 51.6841 59.3498C53.2044 55.9157 56.5737 53.3306 61.1825 51.2829Z" fill="#FFC1D2" stroke="#1F1F21" stroke-width="2.68652"/>
</mask>
<g mask="url(#mask0_266_599)">
<path fill-rule="evenodd" clip-rule="evenodd" d="M242.182 257.112L242.459 260.376L242.666 259.993C242.695 266.577 243.683 273.234 244.772 279.803C247.619 277.49 249.959 275.451 249.283 271.503C247.571 265.877 245.375 260.388 243.6 254.793L243.303 256.26L242.131 256.493L242.182 257.112ZM38.8595 603.971C39.3837 601.684 39.9559 599.261 40.4918 596.967C40.5447 596.774 41.0354 596.73 41.1936 596.678C44.0276 589.822 46.5075 588.26 51.9963 587.327C60.8473 585.745 69.5816 582.316 77.9429 577.234C77.7477 576.478 77.2141 575.172 76.7291 573.777C76.7923 573.799 76.8561 573.817 76.9219 573.83C77.034 573.851 77.1395 573.857 77.2402 573.85C77.8072 575.165 78.4244 576.32 78.7509 576.746C79.7952 576.081 80.9573 575.349 81.9807 574.642L81.9764 574.63C82.8872 574.006 84.0129 573.236 84.9047 572.755C85.0719 571.843 86.4245 571.561 87.1311 570.958C88.5029 569.99 89.2638 569.491 90.522 570.727C93.236 567.245 95.4219 563.563 97.5708 558.803C98.9156 556.021 99.5762 552.94 101.384 550.456C101.35 550.436 100.2 550.083 100.172 550.051C120.719 505.083 124.011 455.046 128.394 406.979C129.361 396.23 130.372 385.382 132.257 374.948C132.516 373.368 132.748 371.812 133.71 370.552C122.163 361.153 122.051 342.935 127.644 329.422C114.784 295.152 139.991 258.755 138.131 223.78C137.088 200.056 141.411 172.567 168.538 166.875C171.902 164.962 175.935 164.677 179.145 164.625C182.035 163.183 182.491 159.999 183.52 157.381L184.525 157.387C184.82 156.203 185.112 154.904 185.366 153.71C185.747 152.953 185.521 151.967 186.723 152.176C189.447 148.28 211.247 146.322 211.495 152.595C212.281 153.053 212.437 153.948 212.62 155.035C213.829 162.739 222.158 168.883 229.662 167.644L229.783 167.536C261.731 166.366 274.308 188.819 280.551 219.418C285.429 243.193 288.529 268.959 284.709 292.774C280.977 303.566 269.674 308.759 260.929 315.408C261.937 317.917 262.031 320.686 262.062 323.401C262.177 326.536 262.408 329.696 262.688 332.789C263.264 336.709 264.195 343.455 258.794 343.913C256.701 390.76 252.331 437.483 259.009 484.466C264.553 510.449 262.43 541.889 255.576 567.311C255.18 568.567 254.165 569.697 252.867 569.296C252.208 569.716 251.694 569.98 251.149 569.583C250.828 570.17 250.476 570.735 250.096 571.282C249.952 578.266 249.151 585.119 249.515 592.149C250.06 592.087 251.257 591.494 251.722 591.882L251.788 592.417L252.231 592.567C253.158 595.15 253.739 597.862 254.17 600.049C256.045 603.799 258.441 610.434 257.105 614.611C257.17 614.686 257.53 615.099 257.586 615.162C257.905 615.342 257.964 615.584 258.042 615.861C258.952 616.198 259.046 617.226 259.14 618.276C259.595 620.822 258.918 623.136 258.685 625.627L258.672 625.61C258.672 625.61 257.908 626.485 257.906 626.487C248.302 627.064 238.845 627.212 229.283 627.552C228.562 626.186 228.344 624.341 227.802 622.841C216.467 631.034 196.827 627.9 182.588 625.888C176.806 625.064 171.343 624.286 166.5 624.027C166.185 623.984 166.162 623.85 166.154 623.726C166.106 621.851 165.749 619.928 165.928 618.108C164.928 617.148 165.383 615.4 166.071 613.864C168.598 608.456 175.467 607.864 181.033 606.942C191.503 604.934 199.922 601.158 206.733 595.386C206.275 594.977 205.859 594.575 205.48 594.181C205.628 594.084 205.776 593.987 205.924 593.888C206.282 593.733 206.625 593.574 206.939 593.373C207.099 593.462 207.3 593.48 207.498 593.37C208.183 592.991 208.74 592.432 209.391 592.005C209.52 592.188 209.649 592.375 209.78 592.57C210.403 591.921 211.109 591.185 211.726 590.505C211.748 590.317 211.698 589.847 211.93 589.796C213.684 589.971 215.715 590.555 217.549 591.204C219.622 584.473 220.823 577.189 220.685 570.31C218.646 570.31 216.86 570.291 215.34 569.334C214.924 569.444 214.345 569.682 214.238 569.037C213.621 566.402 213.46 563.613 213.305 560.916C210.149 509.896 205.341 468.899 189.393 425.679C187.862 431.68 185.29 437.922 182.95 443.895C172.305 468.862 164.636 495.786 158.062 521.991C155.475 531.8 152.663 542.578 149.886 552.285C148.809 556.951 146.62 558.659 142.032 558.622C138.497 558.786 134.95 558.735 131.401 558.489C126.562 562.847 124.577 568.73 123.164 574.027C124.341 574.893 126.211 574.566 127.588 574.852C128.775 576.743 128.364 579.387 128.337 581.719C128.15 584.749 128.309 588 127.416 590.861C127.256 593.99 127.237 597.419 126.998 601.057C129.622 602.56 129.141 605.88 128.27 609.057C127.881 609.865 113.781 609.705 110.284 609.672C106.174 609.435 100.313 610.472 98.9653 606.021C89.1806 611.391 74.2946 609.576 62.8952 607.996C54.6221 607 47.127 606.073 39.0026 604.384C38.9186 604.348 38.8006 604.089 38.8595 603.971V603.971Z" fill="white"/>
<path fill-rule="evenodd" clip-rule="evenodd" d="M211.987 150.913C211.355 150.787 210.811 150.972 210.427 151.315C210.345 152.16 210.354 153.002 210.425 153.845C210.495 153.905 210.574 153.963 210.66 154.017L210.594 153.976C210.535 153.938 210.494 153.91 210.468 153.89C211.302 159.383 215.163 164.057 220.167 166.541C220.477 167.046 221.177 167.011 221.68 167.239L222.387 167.459C224.334 168.062 226.304 168.632 228.363 168.67C223.128 183.199 202.654 191.092 188.171 192.165C175.663 192.816 168.722 182.568 172.022 171.073C179.268 170.147 186.391 162.531 183.765 155.172L183.682 154.949C183.665 154.874 183.563 154.901 183.555 154.966C183.475 155.717 183.023 156.542 182.821 157.275L182.728 157.535C182.031 159.519 181.413 161.885 179.444 162.941L179.108 162.949C175.566 163.04 171.869 163.502 168.751 165.234C165.274 165.909 161.951 167.27 158.857 168.956C134.423 182.062 138.334 209.937 137.573 233.151C135.202 264.961 115.585 296.749 127.155 328.685C121.872 341.984 121.464 359.858 132.994 370.005C132.867 370.201 132.761 370.417 132.671 370.637C132.122 371.991 131.952 373.541 131.693 374.978L131.663 375.143C131.039 378.483 130.591 381.858 130.152 385.227C129.287 391.871 128.659 398.545 128.061 405.219L127.975 406.172C126.477 422.945 125.168 439.756 123.202 456.487L122.835 458.967C120.174 476.878 117.276 494.832 112.912 512.384C112.783 512.854 112.655 513.325 112.523 513.794C110.95 519.425 109.099 524.961 107.359 530.539C106.808 532.305 106.198 534.045 105.554 535.77L104.754 537.731C104.621 538.058 104.487 538.384 104.353 538.711C102.934 542.158 101.423 545.567 99.8319 548.94C99.5449 549.549 99.9629 550.109 100.455 550.265C99.0027 552.542 98.455 555.253 97.2414 557.669C95.5058 561.522 93.4495 565.271 90.8836 568.65C89.4643 567.595 87.8788 568.957 86.6986 569.735C85.9411 570.201 84.9584 570.551 84.6609 571.372C84.0893 571.697 83.5334 572.055 83.0069 572.412L82.9543 572.243C82.3147 570.221 81.063 567.507 79.0295 566.605C76.6518 565.617 74.7551 567.586 75.4668 569.942C75.9031 572.046 76.5841 574.062 77.3107 576.092C69.9964 580.455 61.9978 583.763 53.5837 585.424L53.2967 585.48C51.2669 585.878 49.2037 586.154 47.3422 587.107C44.2586 588.779 42.2673 591.958 41.0216 595.136C40.589 595.241 40.1917 595.614 40.0957 596.024L39.2748 599.529C39.0015 600.698 38.7294 601.866 38.4613 603.036C38.3144 603.67 38.657 604.468 39.3656 604.609C44.2494 605.574 49.1568 606.419 54.0856 607.133C68.0772 608.413 86.0795 612.912 99.0716 606.595C101.145 610.805 106.917 609.601 110.834 609.919C113.213 609.745 129.914 610.642 129.755 608.648L129.847 608.305C130.585 605.52 131.251 601.777 128.561 599.86C128.729 596.716 128.855 593.57 128.907 590.425C129.844 587.44 129.682 584.138 129.872 581.021C129.848 578.699 130.396 576.017 129.111 573.94C128.998 572.563 125.9 573.298 124.875 572.793L124.965 572.466C126.38 567.4 128.347 562.469 132.319 558.76C135.753 558.985 139.197 559.024 142.634 558.866C147.869 558.886 150.256 556.645 151.396 551.78C152.212 548.927 153.009 546.068 153.794 543.204C159.918 520.679 165.479 497.954 172.246 475.603C174.833 468.112 177.695 460.713 180.581 453.332C182.537 448.33 184.496 443.328 186.453 438.326C187.459 435.757 188.449 433.173 189.323 430.557C189.592 429.753 189.836 428.944 190.066 428.132C205.247 469.803 210.062 514.075 212.748 558.037C212.993 561.547 213.036 565.097 213.841 568.532C214.087 569.59 214.992 569.882 215.79 569.65C217.261 570.42 218.348 570.51 220.241 570.539L220.227 571.142C220.12 575.462 219.852 579.77 218.86 583.989C218.466 585.75 217.761 587.463 217.38 589.217C215.837 588.699 214.261 588.308 212.641 588.117C211.823 588.02 211.355 588.697 211.321 589.391C211.02 589.719 210.717 590.044 210.407 590.367L210.251 590.168C208.796 588.311 206.93 585.766 204.4 585.557C203.249 585.487 202.198 586.129 201.947 587.285C201.707 589.942 203.935 592.852 205.815 594.614C198.849 600.306 190.216 603.594 181.404 605.271L181.06 605.327C175.407 606.241 168.434 606.961 165.738 612.737L165.682 612.861C165.049 614.269 164.452 616.402 165.482 617.692C165.36 619.454 165.69 621.267 165.732 623.045C165.778 623.769 166.271 624.188 166.97 624.268C184.957 625.222 212.376 633.537 227.782 623.643C228.099 624.739 228.426 625.833 228.729 626.933C228.862 627.418 229.357 627.815 229.876 627.796C239.413 627.457 248.981 627.304 258.506 626.73C258.783 626.735 259.015 626.613 259.207 626.392C259.431 626.663 260.002 626.589 260.078 626.204C260.213 625.528 260.214 624.843 260.275 624.159C260.346 623.366 260.561 622.635 260.686 621.86C260.918 620.429 260.814 618.894 260.67 617.459L260.633 617.095C260.533 616.147 260.354 615.069 259.486 614.531L259.428 614.497C259.425 614.495 259.422 614.493 259.419 614.492C259.323 614.189 259.095 613.928 258.807 613.721L258.789 613.702C259.243 612.632 259.068 611.279 258.936 610.164C258.57 606.286 257.471 602.448 255.66 599.005C255.143 596.387 254.517 593.676 253.587 591.185C253.612 591.071 253.467 590.974 253.356 591.024C253.317 591.004 253.279 590.989 253.242 590.977C253.237 590.938 253.229 590.9 253.217 590.864C253.056 590.395 252.559 590.139 252.094 590.066C251.7 590.005 251.359 590.108 251.005 590.196C250.75 583.428 251.56 576.671 251.643 569.905C252.294 570.217 253.025 569.94 253.626 569.582C255.368 569.847 256.603 568.38 257.081 566.837L257.361 565.586C259.872 554.326 262.135 542.967 263.352 531.489C265.034 515.467 263.002 499.431 260.534 483.597C253.835 441.904 258.688 399.76 259.165 357.839C259.565 353.261 259.73 348.634 260.238 344.06C262.127 343.838 263.556 342.091 264.194 340.417C265.194 337.765 264.472 334.705 264.219 331.979C263.94 328.957 263.734 325.93 263.601 322.9L263.585 322.015C263.54 319.653 263.436 317.274 262.642 315.026C271.109 308.588 282.337 303.531 285.92 292.77C287.55 291.319 287.222 284.599 287.488 282.133C288.575 260.805 286.732 239.336 282.063 218.487C276.219 190.076 264.248 164.617 230.692 165.834C230.718 165.814 230.745 165.793 230.771 165.772C230.416 165.656 230.05 165.77 229.79 166.002C224.076 166.726 218.615 163.393 215.761 158.601C215.06 157.406 214.539 156.159 214.261 154.804L214.24 154.696C213.949 153.205 213.867 151.286 211.987 150.913ZM255.336 614.892C256.147 615.335 257.034 615.388 257.781 615.978C258.305 618.813 258.262 621.753 257.632 624.566C248.687 624.661 239.729 625.108 230.788 625.411C230.428 624.044 230.087 622.669 229.711 621.306L229.702 621.278L229.683 621.225C228.754 621.256 227.826 621.282 226.898 621.305C213.166 631.026 184.715 622.765 168.138 621.954L167.967 619.23C168.135 619.346 168.301 619.41 168.461 619.432C168.307 619.034 168.581 618.517 169.127 618.668C170.009 618.911 170.896 619.136 171.786 619.347C171.853 619.32 171.93 619.308 172.015 619.315C179.797 619.971 187.611 619.91 195.414 619.933C203.19 619.956 210.958 620.28 218.735 620.258C221.907 620.25 225.079 620.203 228.25 620.11C237.382 618.434 246.45 616.457 255.336 614.892ZM42.1706 598.284C42.5555 598.559 43.0583 598.582 43.5929 598.654L43.6694 598.665C44.1582 598.735 44.648 598.801 45.1399 598.838C46.3553 599.614 48.776 599.509 49.948 599.73C75.6729 602.269 101.577 599.256 127.328 601.296C128.557 603.028 128.257 605.172 127.604 607.107C120.413 607.374 113.215 607.518 106.021 607.211L105.446 607.19C104.558 607.156 103.646 607.093 102.825 606.761C102.091 606.465 101.189 605.731 101.304 604.852L101.311 604.802C101.488 603.793 100.415 602.612 99.3716 603.33C89.5321 609.777 76.1629 606.535 65.0771 605.901C57.0887 605.066 49.1434 603.876 41.2588 602.37C41.5644 601.009 41.868 599.646 42.1706 598.284ZM221.873 569.722C222.698 569.815 223.524 569.899 224.351 569.973C227.669 570.268 230.998 570.417 234.327 570.511L235.882 570.553C238.984 570.636 242.106 570.709 245.203 570.542C246.769 570.458 248.375 570.276 249.889 569.855C248.557 576.757 247.872 583.785 247.893 590.808C247.477 591.164 247.561 591.751 247.672 592.2L247.567 592.506C247.325 593.22 247.093 593.946 247 594.677C237.388 600.323 229.407 594.54 220.643 590.491C222.088 586.78 222.527 582.712 222.769 578.772C222.904 575.707 222.672 572.716 221.873 569.722ZM204.402 587.949C204.802 587.994 205.174 588.242 205.498 588.461C206.835 589.406 207.99 590.526 209.045 591.736C208.64 592.13 208.227 592.519 207.806 592.9C206.227 591.643 204.987 589.892 204.402 587.949ZM102.235 552.066L103.537 552.499C111.571 555.162 119.772 557.661 128.307 558.407C127.849 558.856 127.463 559.387 127.124 559.952C126.829 560.2 126.532 560.516 126.615 560.891C126.341 561.439 126.099 561.994 125.868 562.518C124.518 565.689 122.959 568.809 121.821 572.074C121.491 573.436 120.193 575.342 120.798 576.661C111.725 580.564 100.438 578.826 93.5071 571.687L93.7515 571.331C97.7344 565.503 101.235 559.101 102.235 552.066ZM77.6265 568.54C78.1765 568.072 79.1416 569.364 79.3862 569.685C80.2906 570.874 80.913 572.175 81.375 573.536C80.794 573.93 80.2086 574.299 79.6172 574.676L79.5847 574.623C79.0347 573.685 77.0562 569.135 77.6265 568.54ZM250.172 568.439L250.162 568.487C249.675 568.562 249.187 568.629 248.697 568.684C247.507 568.818 246.3 568.877 245.099 568.902C246.79 568.661 248.482 568.465 250.172 568.439ZM237.278 341.562L237.678 341.522L238.192 341.459C244.795 340.649 251.449 339.566 258.098 340.619C257.177 344.826 257.116 349.235 256.818 353.545C255.399 395.059 250.289 436.81 256.015 478.227L256.191 479.482C258.278 494.211 260.762 508.992 259.762 523.918C258.982 537.523 256.179 550.897 253.394 564.21C252.725 564.376 252.055 564.542 251.384 564.705C251.364 564.52 251.248 564.626 251.226 564.743C242.977 566.918 234.369 567.105 225.894 566.559C224.296 566.468 222.705 566.34 221.108 566.232C219.877 565.703 218.562 565.366 217.227 565.134C214.412 522.887 210.725 480.158 197.494 439.654C189.071 413.922 178.55 388.865 172.325 362.475C172.109 361.734 170.974 362.045 171.158 362.794L171.353 363.806C172.933 372.071 174.358 380.362 176.819 388.441C174.951 386.43 172.82 384.656 171.056 382.552C170.506 381.889 170.001 381.191 169.566 380.447C169.154 379.525 168.493 378.802 167.468 378.587C166.999 378.399 166.562 378.794 166.407 379.182C165.977 380.255 166.158 381.02 166.786 381.965L166.943 382.197C169.71 386.238 174.14 388.598 177.796 391.77C180.856 401.861 184.378 411.808 187.832 421.771C187.875 423.753 187.51 425.709 186.923 427.599C186.255 429.542 185.656 431.601 184.629 433.423C170.351 462.902 163.156 495.023 154.481 526.391C152.197 534.756 149.885 543.118 147.394 551.427L147.359 551.578C146.792 553.92 145.906 554.862 143.308 554.858C130.286 555.45 116.916 553.35 105.053 548.177C111.587 530.954 116.124 513.129 119.652 495.066C121.432 486.527 122.874 477.921 124.089 469.281C125.78 458.25 127.273 447.194 128.785 436.193C131.879 414.633 131.743 392.694 135.685 371.265C137.032 371.309 138.186 369.729 137.367 368.549C137.652 367.376 137.397 366.093 136.973 365.009L137.024 364.773C141.643 368.825 147.671 369.338 144.578 361.549L144.364 361.02C142.041 355.304 139.086 349.198 140.397 342.929C153.795 349.993 170.173 348.853 184.572 345.757C183.451 349.786 186.472 352.255 189.881 349.551C190.496 349.059 191.099 348.551 191.69 348.025C190.823 351.42 191.288 354.977 192.089 358.341L192.165 358.729C192.555 360.748 192.997 363.427 194.552 364.824C195.685 365.84 197.392 365.407 197.901 363.956C198.185 359.153 199.541 354.429 202.023 350.252C201.608 353.305 201.71 356.441 202.471 359.368C202.765 360.487 203.172 361.63 203.268 362.788L203.254 362.978C203.107 365.018 203.382 366.892 205.958 366.933C212.066 365.869 208.213 351.591 212.102 347.076C213.284 352.525 211.907 359.689 217.278 363.306C218.761 364.222 220.572 363.691 220.874 361.912L220.767 360.514C220.126 351.985 220.246 349.429 225.783 341.433C229.537 342.321 233.469 341.941 237.278 341.562ZM128.467 560.768C128.463 560.801 128.461 560.832 128.459 560.864C128.395 560.929 128.331 560.994 128.268 561.06L128.173 561.16L128.283 560.893C128.343 560.855 128.406 560.811 128.467 560.768ZM133.508 370.445L133.759 370.655C133.802 370.69 133.844 370.725 133.887 370.759C133.663 371.743 133.455 372.729 133.252 373.716L133.291 373.066C133.328 372.426 133.225 371.266 133.508 370.445ZM137.585 283.014C139.474 274.329 141.357 270.664 138.965 283.173L138.705 284.524C137.669 289.941 136.577 296.082 135.551 302.692L135.337 304.076C134.267 310.93 132.584 320.964 132.46 329.002C132.319 338.122 137.006 340.829 138.859 342.01C139.205 343.013 138.765 343.85 138.473 344.813C138.079 346.36 137.978 347.847 138.09 349.436C138.479 354.858 141.411 359.755 142.744 364.9C141.036 364.437 139.131 362.917 137.639 361.712C134.99 359.63 133.141 356.545 132.342 353.273C131.962 351.729 132.238 349.821 131.174 348.554C130.86 348.181 130.183 348.218 129.864 348.554C128.995 349.469 129.077 350.59 129.218 351.76C129.692 355.739 131.463 359.64 134.317 362.505C134.452 363.975 134.896 365.285 135.19 366.683C135.077 366.996 134.963 367.309 134.856 367.624C132.922 365.975 131.306 363.98 130.054 361.782C124.465 352.087 126.417 340.922 127.864 330.348C128.154 331.056 128.815 331.338 129.459 331.269C129.829 332.183 130.795 331.6 130.833 330.418C131.073 323.051 132.063 312.577 133.887 301.848C134.973 295.455 136.289 288.973 137.585 283.014ZM208.159 316.467C210.931 324.965 221.855 326.622 228.236 331.806C225.031 340.158 216.06 349.103 218.7 359.877L218.714 359.958C218.794 360.371 219.054 361.535 218.774 361.754C218.596 361.893 217.5 360.836 217.308 360.627C213.469 356.115 215.702 349.733 213.544 344.588C213.26 343.904 212.375 343.5 211.776 344.128C209.077 346.953 208.424 350.763 208.011 354.484L207.996 354.613C207.664 357.507 207.846 360.49 206.978 363.305L206.946 363.404C206.761 363.948 206.416 364.715 206.031 364.853C204.968 365.234 205.367 363.552 205.33 362.887C205.219 360.965 204.393 359.166 204.103 357.273C203.484 353.213 204.101 348.954 205.465 345.105C205.898 343.883 204.195 343.45 203.537 344.302C200.807 347.844 198.618 351.78 197.176 356.005C196.594 357.708 196.285 359.432 195.897 361.168C193.48 353.918 193.549 346.295 199.025 340.351C200.321 338.814 198.162 336.598 196.766 338.122C195.319 339.825 193.902 341.548 192.329 343.143C190.777 344.687 189.282 346.589 187.363 347.691C187.675 340.751 195.213 337.615 199.233 332.863C203.332 328.077 205.573 322.108 208.159 316.467ZM244.387 257.858C245.855 262.267 247.574 266.599 248.901 271.054C249.176 274.07 248.236 275.321 245.994 277.235C245.024 271.765 244.622 266.217 244.103 260.688C244.182 259.743 244.198 258.79 244.387 257.858ZM243.661 255.691L243.808 256.138L243.759 256.223L243.712 256.309L243.661 255.691ZM154.194 200.509L153.633 204.159C151.574 217.545 149.45 230.929 146.527 244.161C146.366 244.89 145.415 243.911 145.59 242.499C147.388 227.981 154.169 200.337 154.195 200.495L154.194 200.509ZM171.496 171.154C171.365 171.309 171.242 171.471 171.122 171.636C171.148 171.489 171.173 171.34 171.201 171.191C171.3 171.179 171.398 171.168 171.496 171.154Z" fill="black"/>
<path fill-rule="evenodd" clip-rule="evenodd" d="M157.837 119.175C158.578 107.15 162.529 93.5157 174.157 87.6115C199.792 77.4505 233.496 103.039 235.28 129.179C235.903 138.127 230.872 147.905 221.68 150.393C219.636 153.067 216.545 154.7 213.495 156.118C177.159 174.737 153.688 159.601 157.837 119.175V119.175Z" fill="white"/>
<path fill-rule="evenodd" clip-rule="evenodd" d="M149.559 111.694C150.843 108.171 152.2 104.676 153.627 101.207C155.017 97.8319 156.272 94.3834 157.998 91.1678C168.306 71.9625 187.05 71.9625 196.74 74.4719C201.764 72.3337 211.176 72.9368 216.408 74.8663C224.878 77.9899 235.204 90.2775 238.734 95.7982C246.528 107.987 251.393 124.211 246.215 138.296C245.538 140.137 244.675 141.842 243.704 143.485C244.316 144.305 245.02 145.081 245.801 145.843C248.12 148.109 250.439 150.301 252.443 152.857C254.433 155.397 256.084 158.098 257.313 161.076C259.629 166.693 259.741 173.053 256.678 178.412C254.013 183.075 249.292 186.548 243.974 186.879C243.701 186.916 243.427 186.951 243.153 186.978C242.448 188.124 241.589 189.18 240.608 190.1C237.603 192.923 230.441 194.371 226.356 194.464C226.146 194.63 225.935 194.796 225.724 194.96C223.224 196.903 220.601 198.864 217.731 200.246C215.788 201.184 213.239 201.967 211.211 201.29C210.291 201.897 208.782 201.769 207.87 201.273C206.37 200.457 205.151 198.987 204.409 197.483C202.61 193.831 203.043 189.835 203.505 185.934C204.014 181.625 204.503 177.313 205 173.004C205.39 169.634 205.797 166.209 206.834 162.963C207.371 161.281 208.073 159.664 208.982 158.145C208.958 158.017 208.962 157.89 208.999 157.77C209.297 156.815 209.911 156.314 210.639 155.664C210.733 155.581 210.827 155.496 210.919 155.409C211.283 154.999 211.673 154.618 212.09 154.296C212.25 154.135 212.409 153.973 212.568 153.81C213.885 152.447 215.13 151.015 216.236 149.48C217.309 147.991 218.277 146.437 219.199 144.853C220.137 143.243 220.758 141.466 221.693 139.867C221.773 139.73 221.977 139.703 222.091 139.817C222.38 140.113 222.566 140.442 222.531 140.788L222.676 140.809C222.731 140.287 223.218 139.862 223.88 139.976C224.87 140.146 225.684 140.21 226.542 139.885C226.391 138.897 226.252 137.907 226.115 136.915C225.865 135.09 225.632 133.259 225.432 131.429C224.948 131.543 224.469 131.707 223.999 131.916C223.33 132.212 222.697 132.61 222.157 133.099C221.625 133.582 221.257 134.234 220.607 134.57C219.859 134.955 218.957 134.319 219.176 133.484C219.62 131.796 222.136 130.829 223.692 130.51C224.226 130.4 224.772 130.354 225.318 130.365C225.195 129.19 225.085 128.014 224.995 126.837C224.952 126.28 224.913 125.723 224.876 125.165C223.666 124.803 222.37 124.695 221.112 124.865C220.697 125.192 220.282 125.515 219.881 125.841C218.606 126.882 217.338 127.927 216.085 128.993C215.972 129.087 215.86 129.182 215.746 129.279C215.003 129.911 214.075 129.285 214.2 128.389C215.222 121.055 210.673 115.22 205.347 110.7C199.451 105.695 188.732 105.112 181.72 96.4418C178.491 97.0909 171.281 99.0189 168.306 103.701C164.14 110.263 164.684 116.142 164.367 123.585C164.05 131.034 163.244 138.804 164.957 146.149C166.536 152.921 170.813 158.707 177.449 161.368C177.613 161.433 177.78 161.497 177.946 161.559C181.378 162.837 185.122 163.198 188.732 162.526C192.727 161.779 196.062 159.974 199.386 157.752C199.578 157.627 199.858 157.886 199.713 158.075C195.332 163.809 186.727 165.725 179.902 164.211C179.583 164.14 179.266 164.063 178.95 163.978C180.477 168.314 180.17 173.074 178.181 177.296C176.985 179.836 175.161 182.034 172.939 183.769C170.49 185.679 167.452 187.221 165.753 189.903C164.197 192.36 164.659 195.121 167.323 196.54C167.995 196.9 168.253 198.061 167.587 198.572C167.333 198.765 167.078 198.962 166.818 199.156C165.327 200.267 161.23 202.355 160.566 202.433C154.674 203.123 150.712 198.85 148.173 193.81C145.192 187.894 145.967 180.685 149.252 175.051C151.887 170.531 157.076 166.077 155.013 160.356C154.277 158.313 152.771 156.571 151.309 154.997C149.642 153.205 147.848 151.527 146.249 149.671C144.66 147.829 143.25 145.824 142.464 143.512C141.315 140.132 141.886 136.478 142.749 133.105C144.599 125.863 147.001 118.717 149.559 111.694Z" fill="#9B2D15"/>
<path fill-rule="evenodd" clip-rule="evenodd" d="M176.507 142.62C175.836 141.45 173.832 141.64 173.525 143.005C172.904 145.773 176.245 148.328 178.783 148.392C181.304 148.455 184.134 146.335 183.769 143.658C183.679 142.995 182.783 143.076 182.477 143.491L182.359 143.65C181.53 144.751 180.435 145.89 178.896 145.621C178.258 145.51 177.679 145.117 177.293 144.61C176.828 143.999 176.879 143.268 176.507 142.62ZM192.542 122.377C192.2 122.284 191.855 122.32 191.553 122.447C190.876 122.569 190.312 123.126 190.113 123.762C190.098 123.817 190.08 123.871 190.061 123.925L190.031 124.005L190.112 123.801C190.074 124.002 189.909 124.213 189.849 124.414C189.776 124.662 189.758 124.943 189.783 125.216C189.568 125.218 189.353 125.225 189.139 125.243L188.931 125.262C187.772 125.368 186.499 125.563 185.812 126.553C185.426 127.109 185.788 128.11 186.497 128.217C187.589 128.382 188.529 127.785 189.617 127.666C190.646 127.553 191.722 127.617 192.737 127.801C194.833 128.179 196.759 129.018 198.801 129.545L199.079 129.615V129.615L199.079 129.613C199.429 129.697 199.826 129.216 199.48 128.935C197.844 127.607 195.749 126.532 193.685 125.876C193.986 125.404 194.079 124.782 193.873 124.275C193.841 124.17 193.802 124.068 193.76 123.966L193.673 123.756V123.756C193.665 123.657 193.646 123.56 193.618 123.464L193.613 123.435V123.435L193.611 123.437V123.437C193.457 122.943 193.056 122.517 192.542 122.377ZM171.666 122.452C171.219 122.01 170.59 122.075 170.123 122.423L170.061 122.471V122.471C169.621 122.664 169.257 123.086 169.017 123.478C168.769 123.884 168.604 124.297 168.597 124.745C167.514 124.748 166.477 125.069 165.681 125.933C165.424 126.212 165.249 126.642 165.39 127.02L165.475 127.244V127.244C165.742 127.958 166.942 128.369 167.35 127.53L167.369 127.489C167.803 126.492 169.467 126.597 170.352 126.698C170.968 126.77 171.577 126.921 172.173 127.091C172.383 127.15 172.59 127.215 172.798 127.281L173.006 127.348C173.117 127.383 173.694 127.693 173.335 127.62C173.238 127.6 173.166 127.739 173.264 127.785C173.692 127.987 174.148 127.585 174.12 127.131C174.07 126.343 172.803 125.911 172.194 125.639L172.157 125.623C171.924 125.516 171.679 125.414 171.426 125.319C171.568 125.11 171.686 124.878 171.783 124.629C171.876 124.394 171.937 124.166 171.971 123.916C172.004 123.793 172.004 123.671 171.971 123.549L171.966 123.514V123.514C171.983 123.433 171.991 123.35 171.99 123.265L171.994 123.233H171.99C171.978 122.938 171.86 122.643 171.666 122.452ZM178.817 130.842C177.098 131.367 174.261 132.796 175.157 135.002C176.408 137.028 179.726 135.539 181.334 134.885C182.778 134.412 183.53 136.411 182.133 137.014C170.593 141.523 170.635 129.622 178.398 129.797C179.253 129.816 179.28 130.668 178.817 130.842ZM194.086 115.326L193.792 115.242C192.269 114.806 190.713 114.053 189.36 115.228C188.829 115.689 188.719 116.647 189.099 117.223C189.965 118.534 191.25 118.333 192.648 118.445C193.713 118.53 194.762 118.839 195.756 119.225C196.568 119.541 197.322 119.985 198.033 120.481C198.732 120.969 199.209 121.73 199.926 122.169C200.189 122.33 200.492 122.164 200.587 121.904C200.921 120.979 200.356 119.826 199.878 119.038C199.295 118.076 198.408 117.29 197.455 116.695C196.412 116.043 195.257 115.667 194.086 115.326V115.326ZM171.881 114.33C169.305 114.329 166.827 115.744 165.386 117.819C164.897 118.523 165.255 119.567 165.958 119.973C166.746 120.428 167.589 120.1 168.109 119.448L168.14 119.408C168.966 118.322 170.031 117.466 171.294 116.909C171.91 116.636 172.591 116.416 173.257 116.304L173.472 116.268C173.774 116.218 174.124 116.17 174.397 116.217C174.543 116.236 174.678 116.283 174.801 116.356C174.742 116.484 174.896 116.639 175.038 116.562C175.678 116.215 175.599 115.595 175.07 115.114C174.322 114.433 172.847 114.33 171.881 114.33Z" fill="black"/>
</g>
<path fill-rule="evenodd" clip-rule="evenodd" d="M61.6434 51.2829C63.6524 50.3903 65.9076 50.3091 68.0606 50.7507C76.573 52.4963 85.1227 53.4799 93.9908 53.9272C109.892 54.7285 126.965 51.705 137.625 51.3148C162.276 50.4108 174.982 58.1541 199.641 57.8126C223.484 57.482 236.953 50.3042 260.794 49.7754C280.854 49.33 290.154 56.2737 309.622 52.6868C319.766 50.8177 331.957 46.7665 340.414 52.3019C342.653 53.7666 345.184 56.1984 345.694 59.2791C346.369 63.3492 343.358 66.5504 341.732 69.0049C334.83 79.4333 341.88 93.4767 345.052 103.077C355.358 134.269 332.986 150.84 337.217 189.607C338.846 204.54 344.952 219.225 344.914 237.282C344.882 252.009 339.98 260.756 340.694 275.46C341.586 293.811 347.172 305.878 339.62 311.991C333.438 316.997 324.028 312.625 308.828 312.376C293.513 312.124 285.534 317.114 270.215 317.605C256.505 318.045 245.855 315.805 234.315 313.92C214.171 310.628 193.391 310.331 174.261 313.139C157.018 315.669 146.55 319.943 129.183 318.755C115.45 317.815 107.976 312.192 93.1969 313.616C89.7798 313.946 69.8052 315.94 60.9613 317.005C59.4927 317.182 56.5179 317.53 54.4106 315.938C48.96 311.822 57.146 292.389 57.3596 283.671C57.64 272.172 52.3612 263.794 50.7847 254.892C47.2116 234.709 53.2908 222.622 55.7572 202.082C57.9654 183.692 57.3475 167.91 54.5244 154.02C51.5476 139.373 47.2032 129.851 50.5773 114.873C52.3036 107.211 59.7225 97.854 58.6336 86.6758C57.7913 78.037 48.4913 67.6013 52.145 59.3498C53.6653 55.9157 57.0346 53.3306 61.6434 51.2829Z" stroke="#1F1F21" stroke-width="2.68652"/>
<path d="M61.8925 356.733H60.7705L68.3385 343.775H70.8245V358.031H68.3385V347.361L68.9105 347.515L62.7065 358.031H59.9785L53.7745 347.559L54.3685 347.383V358.031H51.8605V343.775H54.3685L61.8925 356.733ZM78.7793 358.273C77.7819 358.273 76.8653 358.031 76.0293 357.547C75.2079 357.063 74.5479 356.396 74.0493 355.545C73.5653 354.68 73.3233 353.69 73.3233 352.575C73.3233 351.431 73.5726 350.434 74.0713 349.583C74.5699 348.718 75.2446 348.043 76.0953 347.559C76.9459 347.075 77.8993 346.833 78.9553 346.833C80.1286 346.833 81.0599 347.09 81.7493 347.603C82.4386 348.117 82.9299 348.806 83.2233 349.671C83.5166 350.537 83.6633 351.505 83.6633 352.575C83.6633 353.177 83.5753 353.815 83.3993 354.489C83.2233 355.149 82.9446 355.765 82.5633 356.337C82.1966 356.909 81.6979 357.379 81.0673 357.745C80.4513 358.097 79.6886 358.273 78.7793 358.273ZM79.5273 356.249C80.3486 356.249 81.0453 356.095 81.6173 355.787C82.2039 355.465 82.6439 355.025 82.9373 354.467C83.2453 353.91 83.3993 353.279 83.3993 352.575C83.3993 351.798 83.2453 351.138 82.9373 350.595C82.6293 350.038 82.1893 349.613 81.6173 349.319C81.0453 349.011 80.3486 348.857 79.5273 348.857C78.3539 348.857 77.4446 349.202 76.7993 349.891C76.1539 350.581 75.8313 351.475 75.8313 352.575C75.8313 353.294 75.9853 353.932 76.2933 354.489C76.6159 355.047 77.0559 355.479 77.6133 355.787C78.1706 356.095 78.8086 356.249 79.5273 356.249ZM83.3993 347.075H85.8633V358.031H83.5753C83.5753 358.031 83.5606 357.892 83.5312 357.613C83.5019 357.335 83.4726 356.997 83.4433 356.601C83.4139 356.191 83.3993 355.802 83.3993 355.435V347.075ZM93.4316 358.273C92.4196 358.273 91.4956 358.031 90.6596 357.547C89.8383 357.063 89.1856 356.396 88.7016 355.545C88.2176 354.68 87.9756 353.69 87.9756 352.575C87.9756 351.431 88.2103 350.434 88.6796 349.583C89.1636 348.718 89.8089 348.043 90.6156 347.559C91.4369 347.075 92.3756 346.833 93.4316 346.833C94.3556 346.833 95.1329 346.987 95.7636 347.295C96.3943 347.589 96.8929 347.999 97.2596 348.527C97.6263 349.041 97.8903 349.642 98.0516 350.331C98.2276 351.021 98.3156 351.769 98.3156 352.575C98.3156 353.177 98.2276 353.815 98.0516 354.489C97.8756 355.149 97.5969 355.765 97.2156 356.337C96.8489 356.909 96.3503 357.379 95.7196 357.745C95.1036 358.097 94.3409 358.273 93.4316 358.273ZM94.1796 356.249C95.0009 356.249 95.6976 356.095 96.2696 355.787C96.8563 355.465 97.2963 355.025 97.5896 354.467C97.8976 353.91 98.0516 353.279 98.0516 352.575C98.0516 351.798 97.8976 351.138 97.5896 350.595C97.2816 350.038 96.8416 349.605 96.2696 349.297C95.6976 348.989 95.0009 348.835 94.1796 348.835C93.0063 348.835 92.0969 349.187 91.4516 349.891C90.8063 350.581 90.4836 351.475 90.4836 352.575C90.4836 353.294 90.6376 353.932 90.9456 354.489C91.2683 355.047 91.7083 355.479 92.2656 355.787C92.8229 356.095 93.4609 356.249 94.1796 356.249ZM98.0516 342.675H100.516V358.031H98.2276C98.1983 357.694 98.1616 357.276 98.1176 356.777C98.0736 356.279 98.0516 355.831 98.0516 355.435V342.675ZM102.64 347.075H105.258L109.68 357.591L107.568 358.031L102.64 347.075ZM114.85 347.075L107.81 362.431H105.236L108.25 356.425L112.232 347.075H114.85ZM122.029 358.031V343.775H129.289C131.034 343.775 132.369 344.105 133.293 344.765C134.231 345.411 134.701 346.349 134.701 347.581C134.701 348.373 134.517 349.004 134.151 349.473C133.799 349.928 133.293 350.273 132.633 350.507C131.973 350.727 131.195 350.867 130.301 350.925L130.389 350.793C131.034 350.808 131.643 350.867 132.215 350.969C132.801 351.057 133.315 351.219 133.755 351.453C134.209 351.688 134.561 352.018 134.811 352.443C135.075 352.854 135.207 353.389 135.207 354.049C135.207 354.929 134.987 355.655 134.547 356.227C134.107 356.799 133.498 357.239 132.721 357.547C131.943 357.841 131.049 358.002 130.037 358.031H122.029ZM124.537 355.897H129.663C130.616 355.897 131.357 355.736 131.885 355.413C132.413 355.076 132.677 354.555 132.677 353.851C132.677 353.294 132.515 352.891 132.193 352.641C131.87 352.377 131.452 352.209 130.939 352.135C130.44 352.062 129.905 352.025 129.333 352.025H124.537V355.897ZM124.537 349.935H129.135C130.088 349.935 130.821 349.774 131.335 349.451C131.863 349.114 132.127 348.586 132.127 347.867C132.127 347.163 131.863 346.665 131.335 346.371C130.821 346.063 130.147 345.909 129.311 345.909H124.537V349.935ZM137.489 347.075H139.931V358.031H137.489V347.075ZM143.891 349.165C143.099 349.165 142.417 349.334 141.845 349.671C141.288 350.009 140.84 350.419 140.503 350.903C140.166 351.387 139.931 351.857 139.799 352.311L139.777 351.079C139.792 350.918 139.843 350.676 139.931 350.353C140.019 350.016 140.151 349.649 140.327 349.253C140.518 348.857 140.767 348.476 141.075 348.109C141.398 347.728 141.786 347.42 142.241 347.185C142.71 346.951 143.26 346.833 143.891 346.833V349.165ZM157.157 358.031H154.715V347.075H157.157V358.031ZM154.847 352.817L154.869 353.521C154.84 353.712 154.774 353.998 154.671 354.379C154.583 354.761 154.429 355.179 154.209 355.633C154.004 356.073 153.725 356.499 153.373 356.909C153.036 357.305 152.61 357.635 152.097 357.899C151.584 358.149 150.96 358.273 150.227 358.273C149.699 358.273 149.164 358.2 148.621 358.053C148.093 357.921 147.609 357.694 147.169 357.371C146.744 357.049 146.399 356.609 146.135 356.051C145.871 355.494 145.739 354.79 145.739 353.939V347.075H148.181V353.477C148.181 354.167 148.291 354.709 148.511 355.105C148.746 355.487 149.068 355.758 149.479 355.919C149.89 356.081 150.366 356.161 150.909 356.161C151.686 356.161 152.346 355.985 152.889 355.633C153.432 355.281 153.864 354.849 154.187 354.335C154.524 353.807 154.744 353.301 154.847 352.817ZM159.37 354.423H161.636C161.754 354.981 162.054 355.435 162.538 355.787C163.022 356.125 163.675 356.293 164.496 356.293C165.024 356.293 165.435 356.235 165.728 356.117C166.036 356 166.249 355.839 166.366 355.633C166.498 355.428 166.564 355.193 166.564 354.929C166.564 354.607 166.469 354.357 166.278 354.181C166.102 354.005 165.838 353.859 165.486 353.741C165.134 353.624 164.694 353.521 164.166 353.433C163.624 353.301 163.088 353.155 162.56 352.993C162.032 352.832 161.556 352.634 161.13 352.399C160.705 352.15 160.368 351.842 160.118 351.475C159.884 351.094 159.766 350.632 159.766 350.089C159.766 349.591 159.876 349.143 160.096 348.747C160.331 348.337 160.654 347.992 161.064 347.713C161.475 347.435 161.959 347.222 162.516 347.075C163.074 346.914 163.682 346.833 164.342 346.833C165.296 346.833 166.088 346.987 166.718 347.295C167.364 347.603 167.848 348.036 168.17 348.593C168.508 349.151 168.676 349.789 168.676 350.507H166.52C166.403 349.921 166.176 349.495 165.838 349.231C165.501 348.967 164.995 348.835 164.32 348.835C163.646 348.835 163.132 348.953 162.78 349.187C162.428 349.422 162.252 349.745 162.252 350.155C162.252 350.463 162.362 350.713 162.582 350.903C162.817 351.079 163.147 351.233 163.572 351.365C163.998 351.497 164.496 351.629 165.068 351.761C165.596 351.908 166.095 352.062 166.564 352.223C167.034 352.37 167.452 352.561 167.818 352.795C168.2 353.015 168.5 353.309 168.72 353.675C168.94 354.042 169.05 354.497 169.05 355.039C169.05 355.714 168.867 356.293 168.5 356.777C168.148 357.261 167.635 357.635 166.96 357.899C166.286 358.149 165.472 358.273 164.518 358.273C163.682 358.273 162.956 358.178 162.34 357.987C161.739 357.797 161.233 357.547 160.822 357.239C160.426 356.931 160.118 356.601 159.898 356.249C159.678 355.897 159.524 355.56 159.436 355.237C159.363 354.915 159.341 354.643 159.37 354.423ZM170.778 354.423H173.044C173.162 354.981 173.462 355.435 173.946 355.787C174.43 356.125 175.083 356.293 175.904 356.293C176.432 356.293 176.843 356.235 177.136 356.117C177.444 356 177.657 355.839 177.774 355.633C177.906 355.428 177.972 355.193 177.972 354.929C177.972 354.607 177.877 354.357 177.686 354.181C177.51 354.005 177.246 353.859 176.894 353.741C176.542 353.624 176.102 353.521 175.574 353.433C175.032 353.301 174.496 353.155 173.968 352.993C173.44 352.832 172.964 352.634 172.538 352.399C172.113 352.15 171.776 351.842 171.526 351.475C171.292 351.094 171.174 350.632 171.174 350.089C171.174 349.591 171.284 349.143 171.504 348.747C171.739 348.337 172.062 347.992 172.472 347.713C172.883 347.435 173.367 347.222 173.924 347.075C174.482 346.914 175.09 346.833 175.75 346.833C176.704 346.833 177.496 346.987 178.126 347.295C178.772 347.603 179.256 348.036 179.578 348.593C179.916 349.151 180.084 349.789 180.084 350.507H177.928C177.811 349.921 177.584 349.495 177.246 349.231C176.909 348.967 176.403 348.835 175.728 348.835C175.054 348.835 174.54 348.953 174.188 349.187C173.836 349.422 173.66 349.745 173.66 350.155C173.66 350.463 173.77 350.713 173.99 350.903C174.225 351.079 174.555 351.233 174.98 351.365C175.406 351.497 175.904 351.629 176.476 351.761C177.004 351.908 177.503 352.062 177.972 352.223C178.442 352.37 178.86 352.561 179.226 352.795C179.608 353.015 179.908 353.309 180.128 353.675C180.348 354.042 180.458 354.497 180.458 355.039C180.458 355.714 180.275 356.293 179.908 356.777C179.556 357.261 179.043 357.635 178.368 357.899C177.694 358.149 176.88 358.273 175.926 358.273C175.09 358.273 174.364 358.178 173.748 357.987C173.147 357.797 172.641 357.547 172.23 357.239C171.834 356.931 171.526 356.601 171.306 356.249C171.086 355.897 170.932 355.56 170.844 355.237C170.771 354.915 170.749 354.643 170.778 354.423ZM182.847 361.243L182.407 360.605C182.641 360.253 182.854 359.872 183.045 359.461C183.25 359.065 183.36 358.669 183.375 358.273L182.209 358.031V355.655H185.223V357.349C185.223 358.347 184.995 359.146 184.541 359.747C184.101 360.363 183.536 360.862 182.847 361.243ZM198.537 354.709L195.215 356.557L195.083 356.029H202.651V358.031H192.245V356.029C193.433 355.384 194.497 354.841 195.435 354.401C196.374 353.947 197.166 353.536 197.811 353.169C198.471 352.803 198.97 352.429 199.307 352.047C199.659 351.666 199.835 351.241 199.835 350.771C199.835 350.39 199.74 350.06 199.549 349.781C199.359 349.503 199.058 349.29 198.647 349.143C198.251 348.982 197.738 348.901 197.107 348.901C196.286 348.901 195.611 349.092 195.083 349.473C194.555 349.84 194.277 350.339 194.247 350.969H191.937C191.879 350.163 192.055 349.451 192.465 348.835C192.891 348.219 193.499 347.735 194.291 347.383C195.098 347.017 196.022 346.833 197.063 346.833C197.87 346.833 198.596 346.921 199.241 347.097C199.887 347.273 200.437 347.53 200.891 347.867C201.361 348.19 201.72 348.579 201.969 349.033C202.219 349.473 202.343 349.965 202.343 350.507C202.343 350.947 202.263 351.351 202.101 351.717C201.955 352.069 201.72 352.414 201.397 352.751C201.089 353.074 200.693 353.397 200.209 353.719C199.74 354.027 199.183 354.357 198.537 354.709ZM214.477 346.987V361.221H212.035V349.231L212.717 349.473L206.733 357.041L206.337 356.183H212.387V358.185H204.533V356.183L212.035 346.987H214.477ZM214.125 358.185V356.183H216.831V358.185H214.125Z" fill="#1F1F21"/>
<path d="M95.0378 395.342L90.8258 383.642H92.3738L95.9918 393.794H95.5598L99.0338 383.642H100.582L104.056 393.794H103.624L107.242 383.642H108.754L104.578 395.342H103.066L99.6098 384.83H100.006L96.5498 395.342H95.0378ZM113.296 395.522C112.528 395.522 111.808 395.336 111.136 394.964C110.464 394.592 109.918 394.058 109.498 393.362C109.09 392.654 108.886 391.82 108.886 390.86C108.886 389.9 109.09 389.072 109.498 388.376C109.918 387.668 110.464 387.122 111.136 386.738C111.808 386.354 112.528 386.162 113.296 386.162C114.064 386.162 114.778 386.354 115.438 386.738C116.11 387.122 116.65 387.668 117.058 388.376C117.466 389.072 117.67 389.9 117.67 390.86C117.67 391.82 117.466 392.654 117.058 393.362C116.65 394.058 116.11 394.592 115.438 394.964C114.778 395.336 114.064 395.522 113.296 395.522ZM113.296 394.172C113.8 394.172 114.274 394.046 114.718 393.794C115.162 393.542 115.522 393.17 115.798 392.678C116.086 392.174 116.23 391.568 116.23 390.86C116.23 390.152 116.086 389.552 115.798 389.06C115.522 388.556 115.162 388.172 114.718 387.908C114.274 387.644 113.8 387.512 113.296 387.512C112.792 387.512 112.312 387.644 111.856 387.908C111.412 388.16 111.046 388.538 110.758 389.042C110.47 389.534 110.326 390.14 110.326 390.86C110.326 391.568 110.464 392.174 110.74 392.678C111.028 393.17 111.4 393.542 111.856 393.794C112.312 394.046 112.792 394.172 113.296 394.172ZM123.403 395.522C122.635 395.522 121.915 395.336 121.243 394.964C120.571 394.592 120.025 394.058 119.605 393.362C119.197 392.654 118.993 391.82 118.993 390.86C118.993 389.9 119.197 389.072 119.605 388.376C120.025 387.668 120.571 387.122 121.243 386.738C121.915 386.354 122.635 386.162 123.403 386.162C124.171 386.162 124.885 386.354 125.545 386.738C126.217 387.122 126.757 387.668 127.165 388.376C127.573 389.072 127.777 389.9 127.777 390.86C127.777 391.82 127.573 392.654 127.165 393.362C126.757 394.058 126.217 394.592 125.545 394.964C124.885 395.336 124.171 395.522 123.403 395.522ZM123.403 394.172C123.907 394.172 124.381 394.046 124.825 393.794C125.269 393.542 125.629 393.17 125.905 392.678C126.193 392.174 126.337 391.568 126.337 390.86C126.337 390.152 126.193 389.552 125.905 389.06C125.629 388.556 125.269 388.172 124.825 387.908C124.381 387.644 123.907 387.512 123.403 387.512C122.899 387.512 122.419 387.644 121.963 387.908C121.519 388.16 121.153 388.538 120.865 389.042C120.577 389.534 120.433 390.14 120.433 390.86C120.433 391.568 120.571 392.174 120.847 392.678C121.135 393.17 121.507 393.542 121.963 393.794C122.419 394.046 122.899 394.172 123.403 394.172ZM133.007 395.522C132.287 395.522 131.627 395.324 131.027 394.928C130.439 394.52 129.971 393.968 129.623 393.272C129.275 392.564 129.101 391.76 129.101 390.86C129.101 389.96 129.269 389.156 129.605 388.448C129.941 387.74 130.403 387.182 130.991 386.774C131.579 386.366 132.251 386.162 133.007 386.162C133.679 386.162 134.225 386.288 134.645 386.54C135.077 386.78 135.407 387.116 135.635 387.548C135.863 387.98 136.019 388.478 136.103 389.042C136.199 389.606 136.247 390.212 136.247 390.86C136.247 391.316 136.199 391.814 136.103 392.354C136.007 392.882 135.839 393.392 135.599 393.884C135.371 394.364 135.047 394.76 134.627 395.072C134.207 395.372 133.667 395.522 133.007 395.522ZM133.367 394.154C133.979 394.154 134.483 394.004 134.879 393.704C135.287 393.404 135.587 393.008 135.779 392.516C135.971 392.012 136.067 391.46 136.067 390.86C136.067 390.2 135.965 389.624 135.761 389.132C135.569 388.628 135.269 388.238 134.861 387.962C134.465 387.674 133.967 387.53 133.367 387.53C132.467 387.53 131.771 387.848 131.279 388.484C130.787 389.108 130.541 389.9 130.541 390.86C130.541 391.496 130.661 392.066 130.901 392.57C131.153 393.062 131.489 393.452 131.909 393.74C132.341 394.016 132.827 394.154 133.367 394.154ZM136.067 382.742H137.507V395.342H136.193C136.169 395.078 136.139 394.766 136.103 394.406C136.079 394.046 136.067 393.758 136.067 393.542V382.742ZM140.296 382.742H141.736V395.342H140.296V382.742ZM147.667 395.522C146.959 395.522 146.305 395.324 145.705 394.928C145.117 394.52 144.643 393.968 144.283 393.272C143.935 392.564 143.761 391.76 143.761 390.86C143.761 389.96 143.941 389.156 144.301 388.448C144.661 387.74 145.147 387.182 145.759 386.774C146.383 386.366 147.079 386.162 147.847 386.162C148.687 386.162 149.323 386.378 149.755 386.81C150.199 387.23 150.499 387.794 150.655 388.502C150.823 389.21 150.907 389.996 150.907 390.86C150.907 391.316 150.859 391.814 150.763 392.354C150.667 392.882 150.499 393.392 150.259 393.884C150.031 394.364 149.707 394.76 149.287 395.072C148.867 395.372 148.327 395.522 147.667 395.522ZM148.027 394.154C148.639 394.154 149.143 394.004 149.539 393.704C149.947 393.404 150.247 393.008 150.439 392.516C150.631 392.012 150.727 391.46 150.727 390.86C150.727 390.2 150.625 389.624 150.421 389.132C150.229 388.628 149.929 388.238 149.521 387.962C149.125 387.674 148.627 387.53 148.027 387.53C147.127 387.53 146.431 387.848 145.939 388.484C145.447 389.108 145.201 389.9 145.201 390.86C145.201 391.496 145.321 392.066 145.561 392.57C145.813 393.062 146.149 393.452 146.569 393.74C147.001 394.016 147.487 394.154 148.027 394.154ZM150.727 386.342H152.167V395.342H150.853C150.853 395.342 150.841 395.234 150.817 395.018C150.805 394.802 150.787 394.55 150.763 394.262C150.739 393.974 150.727 393.734 150.727 393.542V386.342ZM154.513 386.342H155.953V395.342H154.513V386.342ZM159.049 386.162C159.529 386.162 159.961 386.234 160.345 386.378C160.729 386.522 161.053 386.732 161.317 387.008C161.581 387.284 161.785 387.62 161.929 388.016C162.073 388.4 162.145 388.838 162.145 389.33V395.342H160.705V389.69C160.705 388.994 160.543 388.472 160.219 388.124C159.895 387.776 159.409 387.602 158.761 387.602C158.269 387.602 157.813 387.728 157.393 387.98C156.973 388.232 156.625 388.58 156.349 389.024C156.085 389.456 155.923 389.96 155.863 390.536L155.845 389.492C155.905 388.988 156.025 388.532 156.205 388.124C156.397 387.716 156.631 387.368 156.907 387.08C157.195 386.78 157.519 386.552 157.879 386.396C158.251 386.24 158.641 386.162 159.049 386.162ZM167.882 395.522C167.162 395.522 166.502 395.324 165.902 394.928C165.314 394.52 164.846 393.968 164.498 393.272C164.15 392.564 163.976 391.76 163.976 390.86C163.976 389.96 164.144 389.156 164.48 388.448C164.816 387.74 165.278 387.182 165.866 386.774C166.454 386.366 167.126 386.162 167.882 386.162C168.554 386.162 169.1 386.288 169.52 386.54C169.952 386.78 170.282 387.116 170.51 387.548C170.738 387.98 170.894 388.478 170.978 389.042C171.074 389.606 171.122 390.212 171.122 390.86C171.122 391.316 171.074 391.814 170.978 392.354C170.882 392.882 170.714 393.392 170.474 393.884C170.246 394.364 169.922 394.76 169.502 395.072C169.082 395.372 168.542 395.522 167.882 395.522ZM168.242 394.154C168.854 394.154 169.358 394.004 169.754 393.704C170.162 393.404 170.462 393.008 170.654 392.516C170.846 392.012 170.942 391.46 170.942 390.86C170.942 390.2 170.84 389.624 170.636 389.132C170.444 388.628 170.144 388.238 169.736 387.962C169.34 387.674 168.842 387.53 168.242 387.53C167.342 387.53 166.646 387.848 166.154 388.484C165.662 389.108 165.416 389.9 165.416 390.86C165.416 391.496 165.536 392.066 165.776 392.57C166.028 393.062 166.364 393.452 166.784 393.74C167.216 394.016 167.702 394.154 168.242 394.154ZM170.942 382.742H172.382V395.342H171.068C171.044 395.078 171.014 394.766 170.978 394.406C170.954 394.046 170.942 393.758 170.942 393.542V382.742ZM180.355 388.826H187.771V390.176H180.355V388.826ZM187.681 383.642H189.121V395.342H187.681V383.642ZM179.041 383.642H180.481V395.342H179.041V383.642ZM193.508 382.742V384.488H191.636V382.742H193.508ZM191.852 386.342H193.292V395.342H191.852V386.342ZM195.931 382.742H197.371V395.342H195.931V382.742ZM200.079 382.742H201.519V395.342H200.079V382.742ZM203.616 392.444H204.948C204.984 392.96 205.176 393.38 205.524 393.704C205.884 394.028 206.4 394.19 207.072 394.19C207.48 394.19 207.798 394.136 208.026 394.028C208.266 393.92 208.44 393.776 208.548 393.596C208.656 393.404 208.71 393.194 208.71 392.966C208.71 392.69 208.638 392.474 208.494 392.318C208.362 392.15 208.176 392.012 207.936 391.904C207.708 391.796 207.444 391.694 207.144 391.598C206.796 391.466 206.436 391.328 206.064 391.184C205.704 391.028 205.362 390.848 205.038 390.644C204.726 390.428 204.474 390.17 204.282 389.87C204.09 389.558 203.994 389.186 203.994 388.754C203.994 388.394 204.066 388.058 204.21 387.746C204.354 387.422 204.558 387.146 204.822 386.918C205.098 386.678 205.416 386.492 205.776 386.36C206.148 386.228 206.556 386.162 207 386.162C207.6 386.162 208.104 386.282 208.512 386.522C208.932 386.762 209.25 387.104 209.466 387.548C209.694 387.98 209.814 388.484 209.826 389.06H208.584C208.5 388.52 208.326 388.13 208.062 387.89C207.81 387.638 207.444 387.512 206.964 387.512C206.472 387.512 206.094 387.62 205.83 387.836C205.566 388.052 205.434 388.34 205.434 388.7C205.434 388.964 205.53 389.186 205.722 389.366C205.914 389.534 206.16 389.69 206.46 389.834C206.772 389.966 207.102 390.104 207.45 390.248C207.798 390.392 208.134 390.536 208.458 390.68C208.782 390.824 209.07 390.992 209.322 391.184C209.574 391.376 209.772 391.616 209.916 391.904C210.072 392.18 210.15 392.528 210.15 392.948C210.15 393.452 210.03 393.902 209.79 394.298C209.562 394.682 209.22 394.982 208.764 395.198C208.32 395.414 207.774 395.522 207.126 395.522C206.538 395.522 206.034 395.45 205.614 395.306C205.206 395.15 204.864 394.952 204.588 394.712C204.312 394.46 204.096 394.196 203.94 393.92C203.796 393.644 203.7 393.374 203.652 393.11C203.604 392.846 203.592 392.624 203.616 392.444Z" fill="#787885"/>
<path d="M77.6375 384.68C76.2375 378.473 70.8642 375.678 66.1442 375.678C66.1442 375.678 66.1442 375.678 66.1308 375.678C61.4242 375.678 56.0375 378.459 54.6375 384.667C53.0775 391.6 57.2908 397.472 61.1042 401.168C62.5175 402.538 64.3308 403.223 66.1442 403.223C67.9575 403.223 69.7708 402.538 71.1708 401.168C74.9842 397.472 79.1975 391.614 77.6375 384.68ZM66.1442 391.412C63.8242 391.412 61.9442 389.518 61.9442 387.18C61.9442 384.842 63.8242 382.947 66.1442 382.947C68.4642 382.947 70.3442 384.842 70.3442 387.18C70.3442 389.518 68.4642 391.412 66.1442 391.412Z" fill="#1F1F21"/>
<rect x="288.206" y="342.143" width="56.4125" height="56.8589" rx="7.89439" fill="#1F1F21" stroke="#1F1F21" stroke-width="1.05259"/>
<rect x="285.671" y="339.589" width="56.4125" height="56.8589" rx="7.89439" fill="white" stroke="#1F1F21" stroke-width="1.05259"/>
<path d="M321.482 353.17C318.431 353.17 315.701 354.665 313.998 356.958C312.296 354.665 309.566 353.17 306.515 353.17C301.341 353.17 297.145 357.416 297.145 362.664C297.145 364.686 297.465 366.554 298.021 368.286C300.684 376.779 308.892 381.857 312.954 383.25C313.527 383.454 314.47 383.454 315.043 383.25C319.105 381.857 327.313 376.779 329.976 368.286C330.532 366.554 330.852 364.686 330.852 362.664C330.852 357.416 326.656 353.17 321.482 353.17Z" fill="#FD5530"/>
</svg>
