<svg width="407" height="471" viewBox="0 0 407 471" fill="none" xmlns="http://www.w3.org/2000/svg">
<path fill-rule="evenodd" clip-rule="evenodd" d="M36.6909 30.1767C40.1187 27.9603 44.4298 27.9096 48.3901 28.9949C57.9849 31.6241 67.6199 33.2339 77.5735 34.1178C96.7443 35.8193 117.215 31.5185 130.039 31.1959C159.695 30.4475 175.223 43.0138 204.906 43.153C233.606 43.2871 249.615 32.3326 278.307 32.1539C302.449 32.0027 313.852 43.2138 337.189 38.0898C349.349 35.4198 363.91 29.3632 374.256 38.3293C376.995 40.7017 380.113 44.608 380.818 49.4827C381.75 55.9229 378.218 60.8907 376.333 64.7186C368.327 80.9822 377.229 103.333 381.329 118.568C394.654 168.064 368.201 193.593 374.432 254.875C376.833 278.479 384.616 301.816 385.099 330.305C385.492 353.54 379.846 367.205 381.137 390.424C382.75 419.401 389.829 438.594 380.915 448.031C373.618 455.759 362.159 448.603 343.848 447.792C325.399 446.974 315.938 454.626 297.505 454.98C281.01 455.297 268.12 451.47 254.169 448.178C229.816 442.432 204.785 441.391 181.832 445.296C161.144 448.814 148.664 455.268 127.716 452.917C111.152 451.056 101.988 441.978 84.233 443.82C80.128 444.246 56.1341 446.843 45.516 448.28C43.7528 448.518 40.1809 448.987 37.5967 446.417C30.9126 439.772 40.1999 409.338 40.2015 395.589C40.2018 377.453 33.5997 364.09 31.4403 350.001C26.5459 318.06 33.5117 299.156 35.8793 266.818C37.999 237.863 36.7921 212.946 32.9854 190.954C28.9714 167.762 23.4608 152.62 27.0845 129.081C28.9385 117.039 37.5975 102.481 35.9586 84.8148C34.691 71.1617 23.1864 54.4412 27.344 41.5227C28.8727 36.7721 32.1592 33.107 36.6909 30.1767Z" fill="#1F1F21"/>
<path fill-rule="evenodd" clip-rule="evenodd" d="M27.7788 21.8545C31.2066 19.638 35.5177 19.5874 39.478 20.6726C49.0728 23.3018 58.7078 24.9116 68.6614 25.7956C87.8322 27.4971 108.303 23.1963 121.127 22.8737C150.783 22.1252 166.311 34.6915 195.994 34.8307C224.694 34.9648 240.703 24.0104 269.395 23.8316C293.537 23.6805 304.94 34.8915 328.277 29.7676C340.437 27.0976 354.997 21.041 365.344 30.007C368.083 32.3794 371.201 36.2858 371.906 41.1605C372.838 47.6006 369.306 52.5685 367.421 56.3963C359.415 72.66 368.317 95.0108 372.417 110.245C385.742 159.742 359.288 185.271 365.52 246.552C367.92 270.157 375.703 293.494 376.187 321.983C376.58 345.218 370.934 358.883 372.225 382.102C373.837 411.079 380.917 430.271 372.003 439.709C364.706 447.437 353.247 440.281 334.936 439.469C316.487 438.651 307.026 446.304 288.593 446.658C272.098 446.975 259.207 443.148 245.257 439.856C220.904 434.11 195.872 433.069 172.92 436.973C152.231 440.491 139.752 446.946 118.804 444.595C102.24 442.734 93.0759 433.656 75.3209 435.497C71.2159 435.924 47.222 438.52 36.6039 439.957C34.8406 440.196 31.2687 440.665 28.6846 438.095C22.0005 431.45 31.2878 401.015 31.2894 387.266C31.2897 369.131 24.6876 355.768 22.5282 341.679C17.6338 309.738 24.5996 290.834 26.9672 258.495C29.0869 229.541 27.88 204.624 24.0733 182.632C20.0592 159.44 14.5487 144.298 18.1724 120.759C20.0264 108.717 28.6854 94.1588 27.0465 76.4925C25.7788 62.8395 14.2743 46.1189 18.4319 33.2004C19.9606 28.4498 23.2471 24.7847 27.7788 21.8545Z" fill="#FFDEE7" stroke="#1F1F21" stroke-width="3.76113"/>
<path fill-rule="evenodd" clip-rule="evenodd" d="M61.1825 51.2829C63.1915 50.3903 65.4466 50.3091 67.5996 50.7507C76.112 52.4963 84.6618 53.4799 93.5299 53.9272C109.431 54.7285 126.505 51.705 137.164 51.3148C161.815 50.4108 174.521 58.1541 199.18 57.8126C223.023 57.482 236.492 50.3042 260.333 49.7754C280.393 49.33 289.693 56.2737 309.161 52.6868C319.305 50.8177 331.496 46.7665 339.953 52.3019C342.192 53.7666 344.723 56.1984 345.233 59.2791C345.908 63.3492 342.897 66.5504 341.271 69.0049C334.369 79.4333 341.419 93.4767 344.591 103.077C354.897 134.269 332.525 150.84 336.756 189.607C338.386 204.54 344.491 219.225 344.453 237.282C344.421 252.009 339.519 260.756 340.233 275.46C341.125 293.811 346.711 305.878 339.159 311.991C332.977 316.997 323.567 312.625 308.367 312.376C293.052 312.124 285.074 317.114 269.754 317.605C256.044 318.045 245.394 315.805 233.854 313.92C213.71 310.628 192.93 310.331 173.8 313.139C156.557 315.669 146.089 319.943 128.722 318.755C114.989 317.815 107.516 312.192 92.736 313.616C89.3189 313.946 69.3443 315.94 60.5004 317.005C59.0318 317.182 56.057 317.53 53.9497 315.938C48.4991 311.822 56.685 292.389 56.8987 283.671C57.179 272.172 51.9003 263.794 50.3238 254.892C46.7506 234.709 52.8298 222.622 55.2963 202.082C57.5044 183.692 56.8865 167.91 54.0635 154.02C51.0867 139.373 46.7422 129.851 50.1164 114.873C51.8427 107.211 59.2615 97.854 58.1727 86.6758C57.3303 78.037 48.0304 67.6013 51.6841 59.3498C53.2044 55.9157 56.5737 53.3306 61.1825 51.2829Z" fill="#D7A4FF" stroke="#1F1F21" stroke-width="2.68652"/>
<mask id="mask0_266_546" style="mask-type:alpha" maskUnits="userSpaceOnUse" x="47" y="48" width="302" height="273">
<path fill-rule="evenodd" clip-rule="evenodd" d="M61.1825 51.2829C63.1915 50.3903 65.4466 50.3091 67.5996 50.7507C76.112 52.4963 84.6618 53.4799 93.5299 53.9272C109.431 54.7285 126.505 51.705 137.164 51.3148C161.815 50.4108 174.521 58.1541 199.18 57.8126C223.023 57.482 236.492 50.3042 260.333 49.7754C280.393 49.33 289.693 56.2737 309.161 52.6868C319.305 50.8177 331.496 46.7665 339.953 52.3019C342.192 53.7666 344.723 56.1984 345.233 59.2791C345.908 63.3492 342.897 66.5504 341.271 69.0049C334.369 79.4333 341.419 93.4767 344.591 103.077C354.897 134.269 332.525 150.84 336.756 189.607C338.386 204.54 344.491 219.225 344.453 237.282C344.421 252.009 339.519 260.756 340.233 275.46C341.125 293.811 346.711 305.878 339.159 311.991C332.977 316.997 323.567 312.625 308.367 312.376C293.052 312.124 285.074 317.114 269.754 317.605C256.044 318.045 245.394 315.805 233.854 313.92C213.71 310.628 192.93 310.331 173.8 313.139C156.557 315.669 146.089 319.943 128.722 318.755C114.989 317.815 107.516 312.192 92.736 313.616C89.3189 313.946 69.3443 315.94 60.5004 317.005C59.0318 317.182 56.057 317.53 53.9497 315.938C48.4991 311.822 56.685 292.389 56.8987 283.671C57.179 272.172 51.9003 263.794 50.3238 254.892C46.7506 234.709 52.8298 222.622 55.2963 202.082C57.5044 183.692 56.8865 167.91 54.0635 154.02C51.0867 139.373 46.7422 129.851 50.1164 114.873C51.8427 107.211 59.2615 97.854 58.1727 86.6758C57.3303 78.037 48.0304 67.6013 51.6841 59.3498C53.2044 55.9157 56.5737 53.3306 61.1825 51.2829Z" fill="#D7A4FF" stroke="#1F1F21" stroke-width="2.68652"/>
</mask>
<g mask="url(#mask0_266_546)">
<path fill-rule="evenodd" clip-rule="evenodd" d="M267.117 311.545C266.582 306.535 266.252 301.49 266.063 296.455C265.874 291.425 266.121 286.334 266.23 281.303C266.451 271.067 266.811 260.808 266.002 250.588C265.238 240.93 263.485 231.339 260.717 222.059C259.37 217.539 257.949 212.838 255.733 208.662C253.504 204.463 249.974 201.667 246.096 199.103C241.967 196.373 237.871 193.592 233.759 190.836C230.307 188.523 224.094 185.832 221.261 182.74C218.281 179.486 217.721 171.422 215.736 167.568C213.803 163.814 208.331 161.365 204.118 161.365C197.144 161.365 191.861 161.006 186.126 167.509C183.265 170.754 185.542 174.034 182.543 177.149C179.786 180.012 172.735 182.955 169.181 184.616C164.925 186.606 160.562 188.363 156.135 189.928C151.62 191.525 146.99 192.715 142.449 194.221C138.097 195.666 132.413 201.619 129.034 204.768C125.893 207.697 125.113 207.369 122.725 210.927C117.483 218.734 112.236 226.631 108.062 235.084C105.983 239.295 103.97 243.724 103.216 248.4C102.411 253.388 103.209 258.208 104.514 263.037C105.842 267.952 110.06 272.631 111.434 277.533C112.067 279.792 109.893 282.257 110.893 284.386C111.393 285.449 112.021 286.396 112.737 287.322C113.289 288.036 115.44 287.878 115.719 288.751C116 289.634 114.443 291.465 114.42 292.378C114.387 293.685 114.336 294.992 114.293 296.298L114.042 304.024C113.877 309.101 113.711 314.179 113.546 319.256C113.492 320.913 113.413 322.532 113.808 324.105C113.665 323.972 113.53 323.827 113.407 323.665C113.045 323.189 112.278 323.592 112.585 324.149C113.097 325.077 113.834 325.731 114.699 326.201C115.705 327.695 267.987 331.033 268.737 326.664C269.157 324.212 268.392 321.588 268.086 319.152C267.767 316.615 267.389 314.089 267.117 311.545Z" fill="white"/>
<path fill-rule="evenodd" clip-rule="evenodd" d="M112.429 248.408C112.801 247.333 114.505 247.798 114.13 248.881C112.202 254.451 113.57 260.511 115.655 265.828C116.073 266.894 114.366 267.353 113.953 266.3C111.76 260.708 110.403 254.257 112.429 248.408M125.361 280.22C130.8 280.991 136.244 281.467 141.72 281.852C141.965 281.869 142.177 281.832 142.36 281.751C142.197 284.28 142.064 286.81 141.961 289.341C140.468 289.299 138.943 289.399 137.463 289.359C135.529 289.305 133.597 289.207 131.667 289.059C127.931 288.774 124.201 288.32 120.506 287.693C119.126 287.46 117.372 287.317 115.8 286.855C114.313 286.417 112.99 285.692 112.295 284.326C111.704 283.17 111.596 281.754 111.596 280.475C111.596 279.595 111.746 278.701 111.836 277.813C111.949 277.734 112.05 277.638 112.132 277.531C113.773 278.054 115.475 278.421 117.143 278.776C119.858 279.359 122.613 279.83 125.361 280.22M122.292 259.66C122.322 261.359 122.789 262.903 123.696 264.334C124.31 265.303 122.782 266.194 122.172 265.232C121.104 263.547 120.563 261.656 120.528 259.66C120.507 258.513 122.272 258.516 122.292 259.66M261.717 278.201C262.453 278.242 263.194 278.268 263.933 278.307C264.584 278.869 265.487 279.157 266.31 278.978C266.339 279.05 266.365 279.131 266.388 279.223C266.534 279.795 266.607 280.409 266.69 280.991C266.774 281.565 266.838 282.143 266.882 282.721C266.904 283.013 267.043 283.671 266.867 283.924C266.708 284.153 266.357 284.133 266.115 284.162C265.462 284.233 264.8 284.267 264.143 284.323C262.901 284.431 261.659 284.54 260.42 284.649C259.204 284.756 257.87 284.723 256.681 285.045C256.478 282.641 256.293 280.238 256.121 277.831C257.963 278.105 259.888 278.098 261.717 278.201M107.296 274.214C108.037 275.656 108.721 277.075 110.139 277.942C110.324 278.054 110.531 278.114 110.743 278.129C110.584 278.816 110.485 279.519 110.397 280.168C110.203 281.598 110.161 283.077 110.516 284.487C110.862 285.859 111.436 287.084 112.561 287.962C113.083 288.371 113.655 288.683 114.255 288.929C114.153 289.216 114.094 289.501 114.124 289.815C113.981 290.542 113.886 291.282 113.783 291.991C113.555 293.566 113.328 295.142 113.149 296.725C112.792 299.874 112.512 303.023 112.276 306.183C112.04 309.334 111.87 312.489 111.729 315.647C111.656 317.261 111.592 318.875 111.533 320.492C111.473 322.153 111.206 323.852 111.934 325.393C112.521 326.638 114.504 326.567 115.113 325.393C115.884 323.901 115.657 322.128 115.677 320.492C115.697 318.951 115.723 317.408 115.757 315.867C115.823 312.711 115.92 309.558 115.997 306.403C116.072 303.323 116.165 300.245 116.226 297.166C116.257 295.554 116.259 293.941 116.268 292.329C116.273 291.435 116.31 290.482 116.244 289.55C116.795 289.681 117.351 289.792 117.9 289.906C122.093 290.773 126.33 291.404 130.594 291.796C132.736 291.991 134.884 292.129 137.032 292.207C138.611 292.265 140.248 292.376 141.851 292.316C141.726 296.176 141.668 300.039 141.675 303.901C141.679 306.687 141.717 309.474 141.785 312.26C141.823 313.725 141.854 315.191 141.898 316.656C141.918 317.314 141.918 317.979 141.962 318.635C141.975 318.84 142.004 319.038 142.041 319.233C141.896 319.649 141.774 320.06 141.675 320.445C141.19 322.313 141.19 324.108 141.406 326.011C141.591 327.625 142.939 329.122 144.719 328.555C145.008 328.463 145.297 328.368 145.583 328.27C148.204 328.57 150.839 328.639 153.497 328.69C157.381 328.766 161.268 328.79 165.154 328.81C172.777 328.851 180.402 328.871 188.027 328.893C203.349 328.937 218.672 328.979 233.994 329.024C238.247 329.037 242.499 329.048 246.752 329.062C248.953 329.068 251.15 329.071 253.349 329.155C254.374 329.195 255.402 329.251 256.428 329.266C257.617 329.286 258.669 328.942 259.805 328.628C260.446 328.448 260.7 327.799 260.563 327.25C261.591 327.496 262.837 326.972 263.188 325.804C263.444 324.957 263.349 324.038 262.968 323.254V323.251C262.231 318.562 261.296 313.894 260.561 309.202C259.756 304.063 258.982 298.914 258.3 293.755C257.789 289.859 257.367 292.621 257.003 288.707C258.589 288.832 260.383 288.345 261.953 288.138C263.08 287.991 264.216 287.873 265.345 287.717C265.261 288.865 265.286 290.035 265.255 291.135C265.195 293.321 265.222 295.498 265.277 297.684C265.383 301.902 265.619 299.447 265.996 303.648C266.377 307.879 266.845 312.095 267.412 316.307C267.703 318.475 268.014 320.641 268.343 322.804C268.495 323.814 268.651 324.821 268.812 325.831C269.004 327.02 269.066 328.148 269.951 329.042C270.623 329.72 271.997 329.662 272.443 328.717C273.008 327.523 272.752 326.5 272.542 325.246C272.372 324.239 272.209 323.231 272.048 322.224C271.704 320.065 271.378 317.903 271.071 315.74C270.48 311.571 269.922 307.394 269.423 303.214C268.921 299 268.4 301.462 267.906 297.248C267.657 295.122 267.407 293.001 267.116 290.882C266.969 289.792 266.876 288.632 266.682 287.508C266.744 287.5 266.805 287.488 266.867 287.477C268.208 287.231 269.353 286.468 269.69 285.076C270.012 283.744 269.629 282.212 269.357 280.904C269.126 279.791 268.916 278.369 268.205 277.415C270.711 274.198 272.341 270.149 273.38 266.256C274.513 262.016 274.987 257.589 275.087 253.207C275.203 248.13 274.824 243.082 273.961 238.118C273.94 237.066 273.892 236.014 273.815 234.964C273.056 224.655 269.871 212.454 259.774 207.637C259.734 207.618 259.692 207.6 259.65 207.582C258.858 206.628 257.87 205.77 257.072 204.967C255.658 203.544 254.18 202.183 252.614 200.929C249.513 198.445 246.112 196.462 242.576 194.676C239.001 192.868 235.373 191.172 231.879 189.199C228.835 187.478 226.096 185.406 223.495 183.066C220.573 180.436 218.493 176.889 217.677 173.018C217.635 172.815 217.337 172.871 217.333 173.064C217.119 180.16 221.87 186.431 227.338 190.398C233.875 195.136 241.769 197.38 248.399 201.974C250.047 203.115 251.589 204.402 253.055 205.77C250.808 205.538 248.521 205.685 246.414 206.312C245.585 206.261 244.751 206.246 243.92 206.205C242.018 206.11 240.115 206.021 238.211 205.936C234.332 205.763 230.45 205.605 226.568 205.467C218.952 205.196 211.334 204.991 203.715 204.856C188.406 204.582 173.077 204.529 157.77 204.976C153.619 205.096 131.792 204.262 129.771 204.498C132.742 201.905 136.002 199.788 139.586 198.047C144.07 195.874 148.704 194.425 153.493 193.099C163.354 190.371 173.595 187.74 181.487 180.809C183.448 179.086 185.19 177.105 186.617 174.91C187.98 172.815 189.495 170.134 189.533 167.579C189.559 165.764 187.054 165.104 186.163 166.658C185.609 167.621 185.336 168.677 184.883 169.687C184.434 170.687 183.9 171.652 183.306 172.575C182.14 174.39 180.693 176.008 179.118 177.469C175.761 180.587 171.694 182.871 167.485 184.598C157.931 188.519 147.48 190.173 138.426 195.341C134.465 197.602 130.673 200.722 128.293 204.702C127.91 204.763 127.528 204.833 127.146 204.914C127.431 204.551 127.718 204.189 128.007 203.828C128.196 203.593 127.903 203.282 127.671 203.49C123.17 207.529 119.023 211.889 115.265 216.643C111.67 221.193 108.317 225.961 105.944 231.288C101.678 240.859 100.738 251.806 102.942 262.039C103.542 264.827 104.389 267.558 105.467 270.197C106.023 271.561 106.625 272.904 107.296 274.214" fill="#4B0C7C"/>
<path fill-rule="evenodd" clip-rule="evenodd" d="M204.482 74.6149C217.005 74.6149 232.691 89.0176 237.282 95.1465C241.141 100.299 240.595 126.845 240.595 142.593C240.595 145.886 239.119 152.119 238.582 155.27C236.618 166.814 228.06 176.495 211.121 176.495C197.328 176.495 186.714 172.091 176.45 160.826C174.109 158.256 162.673 167.456 160.334 164.143C154.225 164.143 149.117 106.6 161.111 89.3407C173.105 72.0812 191.958 74.6149 204.482 74.6149Z" fill="white"/>
<path fill-rule="evenodd" clip-rule="evenodd" d="M166.838 78.6697C174.075 72.0321 183.716 68.8389 193.443 69.0747C198.481 69.197 203.501 70.1642 208.258 71.8208C210.638 72.6525 212.943 73.7376 215.146 74.9651C215.94 75.4064 216.672 75.9235 217.377 76.4726L217.553 76.6106H217.555C219.445 77.2955 221.132 78.5251 222.663 79.9638C225.731 79.717 228.824 79.995 231.79 80.9489C235.919 82.2786 239.741 84.7135 242.426 88.1713C245.552 92.1968 246.592 97.0797 246.221 102.12L246.152 102.977C245.786 107.429 245.129 113.157 241.504 116.082C241.228 116.305 240.924 116.474 240.608 116.576C242.944 120.61 244.861 125.088 246.008 129.611C250.386 146.887 247.02 164.902 241.755 181.553C241.323 182.925 239.265 183.837 238.217 182.496C236.347 180.099 233.63 178.271 230.573 177.929C228.687 177.717 226.81 178.1 225.028 177.237C224.328 176.897 223.654 176.341 223.168 175.665C220.16 176.815 216.92 177.357 213.706 177.224C208.432 177.006 202.795 175.165 199.167 171.126C198.584 170.478 198.437 169.75 198.571 169.095C199.026 168.931 199.493 168.809 199.974 168.733C204.575 171.466 209.647 173.293 215.097 173.408C218.247 173.474 221.319 173.03 223.873 171.048C224.425 170.618 224.933 170.143 225.403 169.633C230.742 166.17 234.507 160.289 236.296 153.989C237.964 148.114 237.759 141.997 237.185 135.971L236.883 132.791C236.442 128.124 236.032 123.442 235.918 118.755L235.952 118.753V118.753C237.08 118.68 237.088 116.901 235.952 116.975C233.015 117.166 230.099 116.68 227.171 116.892C227.146 115.496 227.046 114.107 226.64 112.761C226.407 111.991 225.079 111.84 224.938 112.761C224.75 113.992 224.681 115.217 224.66 116.455C220.278 116.396 215.899 116.024 211.515 116.177C210.707 115.308 210.449 113.766 210.071 112.694C210.016 112.536 209.961 112.38 209.904 112.222C209.571 113.755 209.1 115.254 208.48 116.721L207.405 116.725C201.306 116.754 195.082 116.937 189.126 118.214C188.712 117.894 188.465 117.335 188.399 116.827C187.967 113.524 187.35 110.308 186.257 107.16L186.101 106.716C186.088 106.679 186.075 106.64 186.06 106.599C185.255 107.909 184.294 109.131 183.246 110.268C182.629 110.939 181.981 111.58 181.317 112.203C180.671 112.925 180.004 113.637 179.357 114.362C179.383 114.494 179.405 114.628 179.423 114.764C179.62 116.268 179.641 117.794 179.496 119.304C179.234 122.034 178.469 124.665 177.241 127.098L177.203 127.342C177.016 128.482 176.751 129.661 176.131 130.52C176.904 131.393 177.5 132.436 177.845 133.596C178.153 134.628 176.737 135.522 176.002 134.677C175.419 134.007 174.771 133.451 174.059 133.008C174.014 133.07 173.932 133.1 173.841 133.049C171.859 131.939 168.49 132.275 166.51 133.32C164.046 134.619 163.084 137.285 163.358 139.987C163.62 142.568 164.741 145.586 166.913 146.909C167.91 147.516 168.687 147.567 169.745 147.276C170.084 147.183 170.504 146.899 170.684 146.757L170.861 146.614C171.555 146.061 172.202 145.683 173.021 145.668C173.859 145.405 174.701 145.77 175.021 146.656L175.041 146.713C175.191 147.165 175.465 147.732 175.405 148.421C175.343 149.159 175.008 149.831 174.507 150.371C174.421 150.464 174.329 150.558 174.234 150.645C182.858 160.057 183.965 174.724 179.543 186.483C179.351 186.999 179.146 187.508 178.932 188.013C178.193 189.743 175.348 189.207 174.986 187.492C174.878 186.979 174.759 186.467 174.629 185.96C174.39 185.023 174.116 184.095 173.807 183.181L173.689 182.838C173.427 182.082 173.182 181.32 172.917 180.564L172.891 180.477C172.881 180.443 172.87 180.404 172.858 180.359L172.41 181.344V181.344L171.049 184.317C170.412 185.704 168.389 184.95 168.314 183.614L168.312 183.568C168.305 183.321 168.296 183.076 168.281 182.834C168.184 181.017 167.873 179.252 167.379 177.524L167.201 177.747C164.546 181.055 161.431 184.156 157.158 184.92C156.086 185.111 154.873 183.981 155.61 182.89C155.914 182.438 156.207 181.976 156.485 181.506C156.245 181.393 156.018 181.275 155.808 181.155C154.187 180.237 152.837 178.929 151.721 177.446C149.354 174.302 148.507 170.344 148.3 166.47C148.08 162.376 148.437 158.06 149.546 154.111C150.027 152.403 150.678 150.765 151.43 149.175C151.377 149.032 151.326 148.89 151.275 148.748C150.464 146.466 149.798 144.134 149.244 141.774C148.128 137.011 147.528 132.097 147.455 127.203C147.323 118.435 148.823 109.527 151.983 101.351C155.248 92.9188 160.158 84.7958 166.838 78.6697ZM162.774 155.328C162.174 154.376 160.674 155.234 161.231 156.192L161.252 156.226C162.202 157.736 162.648 159.453 163.195 161.136C163.546 162.219 165.251 161.757 164.895 160.663L164.778 160.297C164.234 158.59 163.737 156.855 162.774 155.328ZM167.993 137.164L168.391 136.969C169.648 136.365 170.748 135.953 172.232 136.481C174.22 137.186 176.348 139.429 175.005 141.606C174.511 142.409 173.633 142.729 172.729 142.54C171.204 142.222 170.811 140.838 170.037 139.701L169.904 139.509C169.432 138.821 168.836 137.871 168.051 137.602C167.872 137.539 167.797 137.259 167.993 137.164ZM169.116 90.9442L169.244 90.8283C170.097 90.0678 168.845 88.8137 167.995 89.5697C164.109 93.032 162.759 98.451 160.743 103.069C160.291 104.108 161.811 105.015 162.267 103.968C164.19 99.5607 165.467 94.2887 169.116 90.9442V90.9442ZM215.817 89.4293C214.801 88.968 213.913 90.4578 214.889 90.9484L214.926 90.9659C218.357 92.5291 219.818 96.0691 221.216 99.3557C221.662 100.405 223.181 99.5002 222.74 98.4596L222.488 97.8699C221.029 94.4829 219.327 91.0307 215.817 89.4293ZM221.197 87.2912C220.12 86.9154 219.659 88.632 220.727 89.0078C223.636 90.0285 225.632 92.2299 227.315 94.747C227.946 95.6899 229.475 94.8004 228.837 93.8487C226.883 90.9268 224.563 88.4742 221.197 87.2912Z" fill="black"/>
<path fill-rule="evenodd" clip-rule="evenodd" d="M215.287 160.882C213.804 160.273 212.481 159.255 211.514 157.956C211.178 157.504 211.091 157.027 211.161 156.591C211.241 156.101 211.529 155.656 211.921 155.358C212.315 155.058 212.808 154.911 213.284 154.986C213.698 155.052 214.11 155.28 214.436 155.754L214.504 155.848C215.079 156.633 215.828 157.276 216.682 157.691C217.505 158.091 218.425 158.277 219.378 158.169C221.191 157.962 222.442 156.973 223.77 155.63C223.935 155.461 224.1 155.286 224.266 155.108C224.37 154.947 224.515 154.844 224.677 154.789C224.855 154.729 225.058 154.732 225.243 154.798C225.422 154.86 225.582 154.98 225.689 155.138C225.791 155.289 225.849 155.475 225.83 155.69C225.708 157.082 224.987 158.324 223.961 159.299C222.823 160.382 221.313 161.132 219.892 161.394C218.327 161.684 216.732 161.477 215.287 160.882V160.882ZM220.631 139.412C222.297 140.432 224.835 142.812 223.043 145.343C220.934 147.574 217.897 145.016 216.401 143.859C215.013 142.962 213.454 145.268 214.742 146.315C225.555 154.386 229.943 139.679 221.474 138.212C220.541 138.05 220.195 139.096 220.631 139.412ZM201.255 130.025C201.439 127.722 204.918 127.199 205.264 129.478C205.573 131.519 205.209 133.394 204.297 135.232C203.425 136.988 201.235 136.169 201.069 134.57C200.847 132.427 201.14 131.457 201.255 130.025ZM227.738 129.004C228.223 128.364 228.923 127.926 229.762 128.173C232.384 128.946 231.611 132.698 230.69 134.524C230.19 135.516 228.573 135.767 227.842 134.894C226.651 133.47 226.081 130.626 227.595 129.223C227.636 129.151 227.682 129.078 227.738 129.004ZM204.26 119.947L204.674 119.874C205.955 119.65 207.548 119.436 208.454 120.474C208.935 121.025 209.1 122.048 208.454 122.575C207.318 123.502 206.062 123.143 204.7 123.221C203.578 123.286 202.499 123.474 201.418 123.785C199.047 124.468 197.114 125.716 195.089 127.086C194.823 127.265 194.552 126.923 194.679 126.672C195.848 124.363 198.114 122.467 200.383 121.311C201.595 120.694 202.92 120.182 204.26 119.947ZM225.348 118.913L225.665 118.978C229.114 119.705 233.595 121.157 235.228 124.572C235.29 125.055 235.225 125.159 235.171 125.226L235.153 125.249C235.109 125.307 235.074 125.386 234.867 125.452C234.809 125.438 234.751 125.424 234.692 125.408C233.943 125.21 233.351 124.938 232.777 124.655L232.156 124.346C231.434 123.99 230.707 123.646 229.935 123.392C228.289 122.851 226.597 122.47 224.877 122.266C224.505 122.222 224.146 122.095 223.863 121.878C223.594 121.672 223.389 121.386 223.295 121.007C223.174 120.515 223.209 120.144 223.47 119.7C223.667 119.368 223.948 119.137 224.271 119.004C224.6 118.869 224.975 118.838 225.348 118.913Z" fill="black"/>
<path fill-rule="evenodd" clip-rule="evenodd" d="M239.232 141.399C237.747 143.41 234.993 144.051 232.454 143.829C226.977 143.298 225.254 137.027 225.074 132.153C228.747 133.195 224.763 125.818 237.318 125.007C241.743 124.635 240.523 127.33 242.479 129.298C242.438 133.43 241.756 137.92 239.232 141.399M213.146 136.651C209.912 151.917 192.206 148.286 190.346 134.524C192.063 133.302 191.611 130.285 193.745 129.191C197.126 127.013 201.354 127.106 205.194 127.157C210.102 127.497 211.501 129.547 214.023 131.784C213.901 133.278 213.552 135.048 213.146 136.651M246.247 122.478C246.065 122.448 245.883 122.419 245.702 122.392C245.56 122.311 245.393 122.248 245.2 122.211C244.757 122.098 244.318 122.021 243.88 121.98C237.587 120.552 223.028 122.58 222.427 127.994C220.423 128.668 218.689 128.064 216.366 128.124C214.598 120.674 184.032 121.726 182.562 126.217C182.556 126.216 182.551 126.214 182.545 126.213C181.132 125.772 179.05 125.878 177.433 125.808C173.981 125.736 170.525 126.046 167.148 126.78C160.823 127.793 152.191 128.979 156.59 136.942C156.591 136.943 156.591 136.945 156.593 136.946L156.593 136.945C157.351 137.729 158.638 137.098 158.686 136.037C157.207 132.265 160.547 131.812 163.117 130.728C169.512 128.412 176.023 128.091 182.636 128.807C183.134 129.398 183.889 129.913 184.687 130.183C189.109 130.923 186.779 134.23 189.574 134.711C189.06 146.238 202.943 152.531 210.987 144.953C214.198 141.787 214.964 137.098 215.708 132.871C216.102 132.782 216.352 132.565 216.499 132.277C217.446 131.324 218.04 130.444 219.913 130.183C221.785 129.921 223.227 130.446 223.421 130.607C223.471 130.707 223.523 130.807 223.585 130.907C223.67 131.056 223.787 131.175 223.919 131.269C222.07 142.748 230.91 150.008 239.833 144.054C243.711 140.377 244.53 134.747 244.692 129.722C245.218 129.402 245.551 128.782 245.369 128.003C245.118 126.929 245.706 125.999 246.642 125.532C247.859 124.926 247.644 122.711 246.247 122.478" fill="black"/>
</g>
<path fill-rule="evenodd" clip-rule="evenodd" d="M61.6434 51.2829C63.6524 50.3903 65.9076 50.3091 68.0606 50.7507C76.573 52.4963 85.1227 53.4799 93.9908 53.9272C109.892 54.7285 126.965 51.705 137.625 51.3148C162.276 50.4108 174.982 58.1541 199.641 57.8126C223.484 57.482 236.953 50.3042 260.794 49.7754C280.854 49.33 290.154 56.2737 309.622 52.6868C319.766 50.8177 331.957 46.7665 340.414 52.3019C342.653 53.7666 345.184 56.1984 345.694 59.2791C346.369 63.3492 343.358 66.5504 341.732 69.0049C334.83 79.4333 341.88 93.4767 345.052 103.077C355.358 134.269 332.986 150.84 337.217 189.607C338.846 204.54 344.952 219.225 344.914 237.282C344.882 252.009 339.98 260.756 340.694 275.46C341.586 293.811 347.172 305.878 339.62 311.991C333.438 316.997 324.028 312.625 308.828 312.376C293.513 312.124 285.534 317.114 270.215 317.605C256.505 318.045 245.855 315.805 234.315 313.92C214.171 310.628 193.391 310.331 174.261 313.139C157.018 315.669 146.55 319.943 129.183 318.755C115.45 317.815 107.976 312.192 93.1969 313.616C89.7798 313.946 69.8052 315.94 60.9613 317.005C59.4927 317.182 56.5179 317.53 54.4106 315.938C48.96 311.822 57.146 292.389 57.3596 283.671C57.64 272.172 52.3612 263.794 50.7847 254.892C47.2116 234.709 53.2908 222.622 55.7572 202.082C57.9654 183.692 57.3475 167.91 54.5244 154.02C51.5476 139.373 47.2032 129.851 50.5773 114.873C52.3036 107.211 59.7225 97.854 58.6336 86.6758C57.7913 78.037 48.4913 67.6013 52.145 59.3498C53.6653 55.9157 57.0346 53.3306 61.6434 51.2829Z" stroke="#1F1F21" stroke-width="2.68652"/>
<path d="M54.3685 351.959V355.875H64.3785V358.031H51.8605V343.775H64.3565V345.931H54.3685V349.891H62.5525V351.959H54.3685ZM67.0632 347.075H69.5052V358.031H67.0632V347.075ZM74.1252 346.833C74.7559 346.833 75.3352 346.921 75.8632 347.097C76.4059 347.273 76.8679 347.545 77.2492 347.911C77.6452 348.263 77.9459 348.703 78.1512 349.231C78.3712 349.759 78.4812 350.383 78.4812 351.101V358.031H76.0392V351.585C76.0392 350.691 75.8192 350.031 75.3792 349.605C74.9539 349.165 74.2792 348.945 73.3552 348.945C72.6512 348.945 72.0059 349.099 71.4192 349.407C70.8472 349.701 70.3779 350.089 70.0112 350.573C69.6446 351.043 69.4319 351.563 69.3732 352.135L69.3512 350.947C69.4246 350.405 69.5859 349.891 69.8352 349.407C70.0846 348.909 70.4146 348.469 70.8252 348.087C71.2359 347.691 71.7199 347.383 72.2772 347.163C72.8346 346.943 73.4506 346.833 74.1252 346.833ZM82.8592 346.833C83.5046 346.833 84.0912 346.921 84.6192 347.097C85.1472 347.273 85.6019 347.545 85.9832 347.911C86.3792 348.263 86.6872 348.703 86.9072 349.231C87.1272 349.759 87.2372 350.383 87.2372 351.101V358.031H84.7732V351.585C84.7732 350.691 84.5532 350.031 84.1132 349.605C83.6879 349.165 83.0132 348.945 82.0892 348.945C81.3852 348.945 80.7399 349.099 80.1532 349.407C79.5812 349.701 79.1119 350.089 78.7452 350.573C78.3932 351.043 78.1879 351.563 78.1292 352.135L78.0852 350.903C78.1586 350.375 78.3272 349.869 78.5912 349.385C78.8552 348.887 79.1926 348.447 79.6032 348.065C80.0139 347.684 80.4906 347.383 81.0332 347.163C81.5906 346.943 82.1992 346.833 82.8592 346.833ZM92.7826 342.433V344.787H89.8566V342.433H92.7826ZM90.0766 347.075H92.5406V358.031H90.0766V347.075ZM95.6856 342.675H98.1276V358.031H95.6856V342.675ZM100.104 347.075H102.722L107.144 357.591L105.032 358.031L100.104 347.075ZM112.314 347.075L105.274 362.431H102.7L105.714 356.425L109.696 347.075H112.314ZM124.135 358.031L118.217 343.775H120.945L126.027 356.513H125.213L130.273 343.775H132.957L127.105 358.031H124.135ZM138.334 358.273C137.337 358.273 136.42 358.031 135.584 357.547C134.763 357.063 134.103 356.396 133.604 355.545C133.12 354.68 132.878 353.69 132.878 352.575C132.878 351.431 133.127 350.434 133.626 349.583C134.125 348.718 134.799 348.043 135.65 347.559C136.501 347.075 137.454 346.833 138.51 346.833C139.683 346.833 140.615 347.09 141.304 347.603C141.993 348.117 142.485 348.806 142.778 349.671C143.071 350.537 143.218 351.505 143.218 352.575C143.218 353.177 143.13 353.815 142.954 354.489C142.778 355.149 142.499 355.765 142.118 356.337C141.751 356.909 141.253 357.379 140.622 357.745C140.006 358.097 139.243 358.273 138.334 358.273ZM139.082 356.249C139.903 356.249 140.6 356.095 141.172 355.787C141.759 355.465 142.199 355.025 142.492 354.467C142.8 353.91 142.954 353.279 142.954 352.575C142.954 351.798 142.8 351.138 142.492 350.595C142.184 350.038 141.744 349.613 141.172 349.319C140.6 349.011 139.903 348.857 139.082 348.857C137.909 348.857 136.999 349.202 136.354 349.891C135.709 350.581 135.386 351.475 135.386 352.575C135.386 353.294 135.54 353.932 135.848 354.489C136.171 355.047 136.611 355.479 137.168 355.787C137.725 356.095 138.363 356.249 139.082 356.249ZM142.954 347.075H145.418V358.031H143.13C143.13 358.031 143.115 357.892 143.086 357.613C143.057 357.335 143.027 356.997 142.998 356.601C142.969 356.191 142.954 355.802 142.954 355.435V347.075ZM148.102 347.075H150.544V358.031H148.102V347.075ZM155.164 346.833C155.795 346.833 156.374 346.921 156.902 347.097C157.445 347.273 157.907 347.545 158.288 347.911C158.684 348.263 158.985 348.703 159.19 349.231C159.41 349.759 159.52 350.383 159.52 351.101V358.031H157.078V351.585C157.078 350.691 156.858 350.031 156.418 349.605C155.993 349.165 155.318 348.945 154.394 348.945C153.69 348.945 153.045 349.099 152.458 349.407C151.886 349.701 151.417 350.089 151.05 350.573C150.684 351.043 150.471 351.563 150.412 352.135L150.39 350.947C150.464 350.405 150.625 349.891 150.874 349.407C151.124 348.909 151.454 348.469 151.864 348.087C152.275 347.691 152.759 347.383 153.316 347.163C153.874 346.943 154.49 346.833 155.164 346.833ZM174.482 343.775C176.022 343.775 177.312 343.966 178.354 344.347C179.395 344.729 180.224 345.249 180.84 345.909C181.456 346.555 181.896 347.303 182.16 348.153C182.438 349.004 182.578 349.899 182.578 350.837C182.578 351.791 182.431 352.7 182.138 353.565C181.844 354.431 181.375 355.201 180.73 355.875C180.099 356.535 179.27 357.063 178.244 357.459C177.217 357.841 175.963 358.031 174.482 358.031H167.64V343.775H174.482ZM170.148 355.831H174.46C175.545 355.831 176.447 355.692 177.166 355.413C177.884 355.135 178.456 354.761 178.882 354.291C179.307 353.807 179.608 353.272 179.784 352.685C179.96 352.084 180.048 351.468 180.048 350.837C180.048 350.207 179.96 349.605 179.784 349.033C179.608 348.447 179.307 347.926 178.882 347.471C178.456 347.002 177.884 346.635 177.166 346.371C176.447 346.093 175.545 345.953 174.46 345.953H170.148V355.831ZM194.207 354.423H196.561C196.444 355.171 196.151 355.839 195.681 356.425C195.227 356.997 194.603 357.452 193.811 357.789C193.019 358.112 192.073 358.273 190.973 358.273C189.727 358.273 188.612 358.046 187.629 357.591C186.647 357.122 185.877 356.462 185.319 355.611C184.762 354.761 184.483 353.749 184.483 352.575C184.483 351.417 184.755 350.405 185.297 349.539C185.84 348.674 186.588 348.007 187.541 347.537C188.509 347.068 189.624 346.833 190.885 346.833C192.191 346.833 193.276 347.068 194.141 347.537C195.021 347.992 195.674 348.681 196.099 349.605C196.525 350.515 196.701 351.666 196.627 353.059H186.969C187.043 353.675 187.241 354.233 187.563 354.731C187.901 355.215 188.355 355.597 188.927 355.875C189.499 356.139 190.167 356.271 190.929 356.271C191.78 356.271 192.491 356.103 193.063 355.765C193.65 355.428 194.031 354.981 194.207 354.423ZM190.819 348.813C189.822 348.813 189.001 349.063 188.355 349.561C187.71 350.045 187.292 350.669 187.101 351.431H194.163C194.105 350.61 193.775 349.972 193.173 349.517C192.572 349.048 191.787 348.813 190.819 348.813ZM203.689 358.273C202.692 358.273 201.775 358.031 200.939 357.547C200.118 357.063 199.458 356.396 198.959 355.545C198.475 354.68 198.233 353.69 198.233 352.575C198.233 351.431 198.483 350.434 198.981 349.583C199.48 348.718 200.155 348.043 201.005 347.559C201.856 347.075 202.809 346.833 203.865 346.833C205.039 346.833 205.97 347.09 206.659 347.603C207.349 348.117 207.84 348.806 208.133 349.671C208.427 350.537 208.573 351.505 208.573 352.575C208.573 353.177 208.485 353.815 208.309 354.489C208.133 355.149 207.855 355.765 207.473 356.337C207.107 356.909 206.608 357.379 205.977 357.745C205.361 358.097 204.599 358.273 203.689 358.273ZM204.437 356.249C205.259 356.249 205.955 356.095 206.527 355.787C207.114 355.465 207.554 355.025 207.847 354.467C208.155 353.91 208.309 353.279 208.309 352.575C208.309 351.798 208.155 351.138 207.847 350.595C207.539 350.038 207.099 349.613 206.527 349.319C205.955 349.011 205.259 348.857 204.437 348.857C203.264 348.857 202.355 349.202 201.709 349.891C201.064 350.581 200.741 351.475 200.741 352.575C200.741 353.294 200.895 353.932 201.203 354.489C201.526 355.047 201.966 355.479 202.523 355.787C203.081 356.095 203.719 356.249 204.437 356.249ZM208.309 347.075H210.773V358.031H208.485C208.485 358.031 208.471 357.892 208.441 357.613C208.412 357.335 208.383 356.997 208.353 356.601C208.324 356.191 208.309 355.802 208.309 355.435V347.075ZM224.876 358.031H222.434V347.075H224.876V358.031ZM222.566 352.817L222.588 353.521C222.558 353.712 222.492 353.998 222.39 354.379C222.302 354.761 222.148 355.179 221.928 355.633C221.722 356.073 221.444 356.499 221.092 356.909C220.754 357.305 220.329 357.635 219.816 357.899C219.302 358.149 218.679 358.273 217.946 358.273C217.418 358.273 216.882 358.2 216.34 358.053C215.812 357.921 215.328 357.694 214.888 357.371C214.462 357.049 214.118 356.609 213.854 356.051C213.59 355.494 213.458 354.79 213.458 353.939V347.075H215.9V353.477C215.9 354.167 216.01 354.709 216.23 355.105C216.464 355.487 216.787 355.758 217.198 355.919C217.608 356.081 218.085 356.161 218.628 356.161C219.405 356.161 220.065 355.985 220.608 355.633C221.15 355.281 221.583 354.849 221.906 354.335C222.243 353.807 222.463 353.301 222.566 352.817ZM238.705 347.075L233.557 353.125L229.685 358.031H226.693L232.105 351.651L235.735 347.075H238.705ZM226.693 347.075H229.707L233.579 351.651L238.991 358.031H235.999L231.995 353.169L226.693 347.075ZM241.005 361.243L240.565 360.605C240.8 360.253 241.012 359.872 241.203 359.461C241.408 359.065 241.518 358.669 241.533 358.273L240.367 358.031V355.655H243.381V357.349C243.381 358.347 243.154 359.146 242.699 359.747C242.259 360.363 241.694 360.862 241.005 361.243ZM256.696 354.709L253.374 356.557L253.242 356.029H260.81V358.031H250.404V356.029C251.592 355.384 252.655 354.841 253.594 354.401C254.532 353.947 255.324 353.536 255.97 353.169C256.63 352.803 257.128 352.429 257.466 352.047C257.818 351.666 257.994 351.241 257.994 350.771C257.994 350.39 257.898 350.06 257.708 349.781C257.517 349.503 257.216 349.29 256.806 349.143C256.41 348.982 255.896 348.901 255.266 348.901C254.444 348.901 253.77 349.092 253.242 349.473C252.714 349.84 252.435 350.339 252.406 350.969H250.096C250.037 350.163 250.213 349.451 250.624 348.835C251.049 348.219 251.658 347.735 252.45 347.383C253.256 347.017 254.18 346.833 255.222 346.833C256.028 346.833 256.754 346.921 257.4 347.097C258.045 347.273 258.595 347.53 259.05 347.867C259.519 348.19 259.878 348.579 260.128 349.033C260.377 349.473 260.502 349.965 260.502 350.507C260.502 350.947 260.421 351.351 260.26 351.717C260.113 352.069 259.878 352.414 259.556 352.751C259.248 353.074 258.852 353.397 258.368 353.719C257.898 354.027 257.341 354.357 256.696 354.709ZM269.709 352.245C270.398 352.245 271.036 352.348 271.623 352.553C272.209 352.744 272.723 353.037 273.163 353.433C273.603 353.829 273.94 354.313 274.175 354.885C274.424 355.457 274.549 356.117 274.549 356.865C274.549 357.863 274.307 358.713 273.823 359.417C273.353 360.121 272.693 360.657 271.843 361.023C271.007 361.405 270.046 361.595 268.961 361.595C268.169 361.595 267.421 361.493 266.717 361.287C266.013 361.082 265.389 360.789 264.847 360.407C264.319 360.041 263.886 359.579 263.549 359.021C263.226 358.479 263.05 357.863 263.021 357.173H265.375C265.433 357.672 265.624 358.09 265.947 358.427C266.269 358.779 266.68 359.043 267.179 359.219C267.692 359.395 268.257 359.483 268.873 359.483C269.298 359.483 269.701 359.425 270.083 359.307C270.464 359.205 270.809 359.043 271.117 358.823C271.425 358.618 271.667 358.347 271.843 358.009C272.019 357.672 272.107 357.283 272.107 356.843C272.107 356.403 272.019 356.015 271.843 355.677C271.681 355.34 271.454 355.061 271.161 354.841C270.882 354.621 270.552 354.453 270.171 354.335C269.789 354.218 269.386 354.159 268.961 354.159C268.535 354.159 268.11 354.211 267.685 354.313C267.259 354.401 266.863 354.555 266.497 354.775C266.13 354.995 265.829 355.311 265.595 355.721L263.439 355.303L264.011 347.031H273.185V349.187H266.299L265.903 354.819L265.639 354.665C265.829 354.123 266.13 353.675 266.541 353.323C266.951 352.971 267.428 352.707 267.971 352.531C268.528 352.341 269.107 352.245 269.709 352.245Z" fill="#1F1F21"/>
<path d="M96.9217 395.522C96.0697 395.522 95.3017 395.378 94.6177 395.09C93.9457 394.802 93.3697 394.4 92.8897 393.884C92.4097 393.356 92.0437 392.726 91.7917 391.994C91.5397 391.262 91.4137 390.458 91.4137 389.582C91.4137 388.694 91.5517 387.878 91.8277 387.134C92.1037 386.378 92.4937 385.73 92.9977 385.19C93.5017 384.638 94.0957 384.212 94.7797 383.912C95.4757 383.612 96.2377 383.462 97.0657 383.462C97.9657 383.462 98.7637 383.636 99.4597 383.984C100.156 384.32 100.72 384.8 101.152 385.424C101.584 386.036 101.842 386.756 101.926 387.584H100.702C100.546 387.008 100.294 386.516 99.9457 386.108C99.5977 385.688 99.1777 385.37 98.6857 385.154C98.2057 384.926 97.6657 384.812 97.0657 384.812C96.2377 384.812 95.5057 385.022 94.8697 385.442C94.2457 385.85 93.7537 386.414 93.3937 387.134C93.0337 387.854 92.8537 388.67 92.8537 389.582C92.8537 390.494 93.0157 391.298 93.3397 391.994C93.6637 392.678 94.1317 393.212 94.7437 393.596C95.3557 393.98 96.0817 394.172 96.9217 394.172C97.5697 394.172 98.1337 394.046 98.6137 393.794C99.1057 393.542 99.5017 393.176 99.8017 392.696C100.102 392.204 100.306 391.604 100.414 390.896H101.296C101.104 392.444 100.618 393.602 99.8377 394.37C99.0577 395.138 98.0857 395.522 96.9217 395.522ZM101.008 395.342C101.008 394.946 101.014 394.502 101.026 394.01C101.05 393.506 101.08 392.996 101.116 392.48C101.152 391.964 101.182 391.502 101.206 391.094H97.2457V389.744H102.412V395.342H101.008ZM104.836 382.742H106.276V395.342H104.836V382.742ZM115.177 392.444H116.527C116.431 393.032 116.215 393.56 115.879 394.028C115.555 394.484 115.123 394.85 114.583 395.126C114.055 395.39 113.443 395.522 112.747 395.522C111.907 395.522 111.151 395.324 110.479 394.928C109.807 394.52 109.273 393.968 108.877 393.272C108.493 392.564 108.301 391.76 108.301 390.86C108.301 389.96 108.487 389.156 108.859 388.448C109.243 387.74 109.765 387.182 110.425 386.774C111.085 386.366 111.829 386.162 112.657 386.162C113.533 386.162 114.271 386.36 114.871 386.756C115.483 387.14 115.933 387.71 116.221 388.466C116.521 389.21 116.641 390.128 116.581 391.22H109.741C109.801 391.808 109.963 392.324 110.227 392.768C110.491 393.212 110.839 393.56 111.271 393.812C111.703 394.052 112.195 394.172 112.747 394.172C113.359 394.172 113.875 394.016 114.295 393.704C114.727 393.38 115.021 392.96 115.177 392.444ZM112.711 387.512C111.967 387.512 111.343 387.728 110.839 388.16C110.335 388.592 109.999 389.18 109.831 389.924H115.105C115.057 389.132 114.799 388.532 114.331 388.124C113.875 387.716 113.335 387.512 112.711 387.512ZM118.438 386.342H119.878V395.342H118.438V386.342ZM122.974 386.162C123.454 386.162 123.886 386.234 124.27 386.378C124.654 386.522 124.978 386.732 125.242 387.008C125.506 387.284 125.71 387.62 125.854 388.016C125.998 388.4 126.07 388.838 126.07 389.33V395.342H124.63V389.69C124.63 388.994 124.468 388.472 124.144 388.124C123.82 387.776 123.334 387.602 122.686 387.602C122.194 387.602 121.738 387.728 121.318 387.98C120.898 388.232 120.55 388.58 120.274 389.024C120.01 389.456 119.848 389.96 119.788 390.536L119.77 389.492C119.83 388.988 119.95 388.532 120.13 388.124C120.322 387.716 120.556 387.368 120.832 387.08C121.12 386.78 121.444 386.552 121.804 386.396C122.176 386.24 122.566 386.162 122.974 386.162ZM131.806 395.522C131.086 395.522 130.426 395.324 129.826 394.928C129.238 394.52 128.77 393.968 128.422 393.272C128.074 392.564 127.9 391.76 127.9 390.86C127.9 389.96 128.068 389.156 128.404 388.448C128.74 387.74 129.202 387.182 129.79 386.774C130.378 386.366 131.05 386.162 131.806 386.162C132.478 386.162 133.024 386.288 133.444 386.54C133.876 386.78 134.206 387.116 134.434 387.548C134.662 387.98 134.818 388.478 134.902 389.042C134.998 389.606 135.046 390.212 135.046 390.86C135.046 391.316 134.998 391.814 134.902 392.354C134.806 392.882 134.638 393.392 134.398 393.884C134.17 394.364 133.846 394.76 133.426 395.072C133.006 395.372 132.466 395.522 131.806 395.522ZM132.166 394.154C132.778 394.154 133.282 394.004 133.678 393.704C134.086 393.404 134.386 393.008 134.578 392.516C134.77 392.012 134.866 391.46 134.866 390.86C134.866 390.2 134.764 389.624 134.56 389.132C134.368 388.628 134.068 388.238 133.66 387.962C133.264 387.674 132.766 387.53 132.166 387.53C131.266 387.53 130.57 387.848 130.078 388.484C129.586 389.108 129.34 389.9 129.34 390.86C129.34 391.496 129.46 392.066 129.7 392.57C129.952 393.062 130.288 393.452 130.708 393.74C131.14 394.016 131.626 394.154 132.166 394.154ZM134.866 382.742H136.306V395.342H134.992C134.968 395.078 134.938 394.766 134.902 394.406C134.878 394.046 134.866 393.758 134.866 393.542V382.742ZM142.318 395.522C141.61 395.522 140.956 395.324 140.356 394.928C139.768 394.52 139.294 393.968 138.934 393.272C138.586 392.564 138.412 391.76 138.412 390.86C138.412 389.96 138.592 389.156 138.952 388.448C139.312 387.74 139.798 387.182 140.41 386.774C141.034 386.366 141.73 386.162 142.498 386.162C143.338 386.162 143.974 386.378 144.406 386.81C144.85 387.23 145.15 387.794 145.306 388.502C145.474 389.21 145.558 389.996 145.558 390.86C145.558 391.316 145.51 391.814 145.414 392.354C145.318 392.882 145.15 393.392 144.91 393.884C144.682 394.364 144.358 394.76 143.938 395.072C143.518 395.372 142.978 395.522 142.318 395.522ZM142.678 394.154C143.29 394.154 143.794 394.004 144.19 393.704C144.598 393.404 144.898 393.008 145.09 392.516C145.282 392.012 145.378 391.46 145.378 390.86C145.378 390.2 145.276 389.624 145.072 389.132C144.88 388.628 144.58 388.238 144.172 387.962C143.776 387.674 143.278 387.53 142.678 387.53C141.778 387.53 141.082 387.848 140.59 388.484C140.098 389.108 139.852 389.9 139.852 390.86C139.852 391.496 139.972 392.066 140.212 392.57C140.464 393.062 140.8 393.452 141.22 393.74C141.652 394.016 142.138 394.154 142.678 394.154ZM145.378 386.342H146.818V395.342H145.504C145.504 395.342 145.492 395.234 145.468 395.018C145.456 394.802 145.438 394.55 145.414 394.262C145.39 393.974 145.378 393.734 145.378 393.542V386.342ZM149.344 382.742H150.784V395.342H149.344V382.742ZM159.685 392.444H161.035C160.939 393.032 160.723 393.56 160.387 394.028C160.063 394.484 159.631 394.85 159.091 395.126C158.563 395.39 157.951 395.522 157.255 395.522C156.415 395.522 155.659 395.324 154.987 394.928C154.315 394.52 153.781 393.968 153.385 393.272C153.001 392.564 152.809 391.76 152.809 390.86C152.809 389.96 152.995 389.156 153.367 388.448C153.751 387.74 154.273 387.182 154.933 386.774C155.593 386.366 156.337 386.162 157.165 386.162C158.041 386.162 158.779 386.36 159.379 386.756C159.991 387.14 160.441 387.71 160.729 388.466C161.029 389.21 161.149 390.128 161.089 391.22H154.249C154.309 391.808 154.471 392.324 154.735 392.768C154.999 393.212 155.347 393.56 155.779 393.812C156.211 394.052 156.703 394.172 157.255 394.172C157.867 394.172 158.383 394.016 158.803 393.704C159.235 393.38 159.529 392.96 159.685 392.444ZM157.219 387.512C156.475 387.512 155.851 387.728 155.347 388.16C154.843 388.592 154.507 389.18 154.339 389.924H159.613C159.565 389.132 159.307 388.532 158.839 388.124C158.383 387.716 157.843 387.512 157.219 387.512Z" fill="#787885"/>
<path d="M77.6375 384.68C76.2375 378.473 70.8642 375.678 66.1442 375.678C66.1442 375.678 66.1442 375.678 66.1308 375.678C61.4242 375.678 56.0375 378.459 54.6375 384.667C53.0775 391.6 57.2908 397.472 61.1042 401.168C62.5175 402.538 64.3308 403.223 66.1442 403.223C67.9575 403.223 69.7708 402.538 71.1708 401.168C74.9842 397.472 79.1975 391.614 77.6375 384.68ZM66.1442 391.412C63.8242 391.412 61.9442 389.518 61.9442 387.18C61.9442 384.842 63.8242 382.947 66.1442 382.947C68.4642 382.947 70.3442 384.842 70.3442 387.18C70.3442 389.518 68.4642 391.412 66.1442 391.412Z" fill="#1F1F21"/>
<rect x="288.206" y="342.143" width="56.4125" height="56.8589" rx="7.89439" fill="#1F1F21" stroke="#1F1F21" stroke-width="1.05259"/>
<rect x="285.671" y="339.589" width="56.4125" height="56.8589" rx="7.89439" fill="white" stroke="#1F1F21" stroke-width="1.05259"/>
<path d="M321.482 353.17C318.431 353.17 315.701 354.665 313.998 356.958C312.296 354.665 309.566 353.17 306.515 353.17C301.341 353.17 297.145 357.416 297.145 362.664C297.145 364.686 297.465 366.554 298.021 368.286C300.684 376.779 308.892 381.857 312.954 383.25C313.527 383.454 314.47 383.454 315.043 383.25C319.105 381.857 327.313 376.779 329.976 368.286C330.532 366.554 330.852 364.686 330.852 362.664C330.852 357.416 326.656 353.17 321.482 353.17Z" fill="#FD5530"/>
</svg>
