<svg width="407" height="471" viewBox="0 0 407 471" fill="none" xmlns="http://www.w3.org/2000/svg">
<path fill-rule="evenodd" clip-rule="evenodd" d="M36.6909 30.1767C40.1187 27.9603 44.4298 27.9096 48.3901 28.9949C57.9849 31.6241 67.6199 33.2339 77.5735 34.1178C96.7443 35.8193 117.215 31.5185 130.039 31.1959C159.695 30.4475 175.223 43.0138 204.906 43.153C233.606 43.2871 249.615 32.3326 278.307 32.1539C302.449 32.0027 313.852 43.2138 337.189 38.0898C349.349 35.4198 363.91 29.3632 374.256 38.3293C376.995 40.7017 380.113 44.608 380.818 49.4827C381.75 55.9229 378.218 60.8907 376.333 64.7186C368.327 80.9822 377.229 103.333 381.329 118.568C394.654 168.064 368.201 193.593 374.432 254.875C376.833 278.479 384.616 301.816 385.099 330.305C385.492 353.54 379.846 367.205 381.137 390.424C382.75 419.401 389.829 438.594 380.915 448.031C373.618 455.759 362.159 448.603 343.848 447.792C325.399 446.974 315.938 454.626 297.505 454.98C281.01 455.297 268.12 451.47 254.169 448.178C229.816 442.432 204.785 441.391 181.832 445.296C161.144 448.814 148.664 455.268 127.716 452.917C111.152 451.056 101.988 441.978 84.233 443.82C80.128 444.246 56.1341 446.843 45.516 448.28C43.7528 448.518 40.1809 448.987 37.5967 446.417C30.9126 439.772 40.1999 409.338 40.2015 395.589C40.2018 377.453 33.5997 364.09 31.4403 350.001C26.5459 318.06 33.5117 299.156 35.8793 266.818C37.999 237.863 36.7921 212.946 32.9854 190.954C28.9714 167.762 23.4608 152.62 27.0845 129.081C28.9385 117.039 37.5975 102.481 35.9586 84.8148C34.691 71.1617 23.1864 54.4412 27.344 41.5227C28.8727 36.7721 32.1592 33.107 36.6909 30.1767Z" fill="#1F1F21"/>
<path fill-rule="evenodd" clip-rule="evenodd" d="M27.7788 21.8545C31.2066 19.638 35.5177 19.5874 39.478 20.6726C49.0728 23.3018 58.7078 24.9116 68.6614 25.7956C87.8322 27.4971 108.303 23.1963 121.127 22.8737C150.783 22.1252 166.311 34.6915 195.994 34.8307C224.694 34.9648 240.703 24.0104 269.395 23.8316C293.537 23.6805 304.94 34.8915 328.277 29.7676C340.437 27.0976 354.997 21.041 365.344 30.007C368.083 32.3794 371.201 36.2858 371.906 41.1605C372.838 47.6006 369.306 52.5685 367.421 56.3963C359.415 72.66 368.317 95.0108 372.417 110.245C385.742 159.742 359.288 185.271 365.52 246.552C367.92 270.157 375.703 293.494 376.187 321.983C376.58 345.218 370.934 358.883 372.225 382.102C373.837 411.079 380.917 430.271 372.003 439.709C364.706 447.437 353.247 440.281 334.936 439.469C316.487 438.651 307.026 446.304 288.593 446.658C272.098 446.975 259.207 443.148 245.257 439.856C220.904 434.11 195.872 433.069 172.92 436.973C152.231 440.491 139.752 446.946 118.804 444.595C102.24 442.734 93.0759 433.656 75.3209 435.497C71.2159 435.924 47.222 438.52 36.6039 439.957C34.8406 440.196 31.2687 440.665 28.6846 438.095C22.0005 431.45 31.2878 401.015 31.2894 387.266C31.2897 369.131 24.6876 355.768 22.5282 341.679C17.6338 309.738 24.5996 290.834 26.9672 258.495C29.0869 229.541 27.88 204.624 24.0733 182.632C20.0592 159.44 14.5487 144.298 18.1724 120.759C20.0264 108.717 28.6854 94.1588 27.0465 76.4925C25.7788 62.8395 14.2743 46.1189 18.4319 33.2004C19.9606 28.4498 23.2471 24.7847 27.7788 21.8545Z" fill="#FFF5BE" stroke="#1F1F21" stroke-width="3.76113"/>
<path fill-rule="evenodd" clip-rule="evenodd" d="M61.1825 51.2829C63.1915 50.3903 65.4466 50.3091 67.5996 50.7507C76.112 52.4963 84.6618 53.4799 93.5299 53.9272C109.431 54.7285 126.505 51.705 137.164 51.3148C161.815 50.4108 174.521 58.1541 199.18 57.8126C223.023 57.482 236.492 50.3042 260.333 49.7754C280.393 49.33 289.693 56.2737 309.161 52.6868C319.305 50.8177 331.496 46.7665 339.953 52.3019C342.192 53.7666 344.723 56.1984 345.233 59.2791C345.908 63.3492 342.897 66.5504 341.271 69.0049C334.369 79.4333 341.419 93.4767 344.591 103.077C354.897 134.269 332.525 150.84 336.756 189.607C338.386 204.54 344.491 219.225 344.453 237.282C344.421 252.009 339.519 260.756 340.233 275.46C341.125 293.811 346.711 305.878 339.159 311.991C332.977 316.997 323.567 312.625 308.367 312.376C293.052 312.124 285.074 317.114 269.754 317.605C256.044 318.045 245.394 315.805 233.854 313.92C213.71 310.628 192.93 310.331 173.8 313.139C156.557 315.669 146.089 319.943 128.722 318.755C114.989 317.815 107.516 312.192 92.736 313.616C89.3189 313.946 69.3443 315.94 60.5004 317.005C59.0318 317.182 56.057 317.53 53.9497 315.938C48.4991 311.822 56.685 292.389 56.8987 283.671C57.179 272.172 51.9003 263.794 50.3238 254.892C46.7506 234.709 52.8298 222.622 55.2963 202.082C57.5044 183.692 56.8865 167.91 54.0635 154.02C51.0867 139.373 46.7422 129.851 50.1164 114.873C51.8427 107.211 59.2615 97.854 58.1727 86.6758C57.3303 78.037 48.0304 67.6013 51.6841 59.3498C53.2044 55.9157 56.5737 53.3306 61.1825 51.2829Z" fill="#021123" stroke="#1F1F21" stroke-width="2.68652"/>
<path fill-rule="evenodd" clip-rule="evenodd" d="M61.1825 51.2829C63.1915 50.3903 65.4466 50.3091 67.5996 50.7507C76.112 52.4963 84.6618 53.4799 93.5299 53.9272C109.431 54.7285 126.505 51.705 137.164 51.3148C161.815 50.4108 174.521 58.1541 199.18 57.8126C223.023 57.482 236.492 50.3042 260.333 49.7754C280.393 49.33 289.693 56.2737 309.161 52.6868C319.305 50.8177 331.496 46.7665 339.953 52.3019C342.192 53.7666 344.723 56.1984 345.233 59.2791C345.908 63.3492 342.897 66.5504 341.271 69.0049C334.369 79.4333 341.419 93.4767 344.591 103.077C354.897 134.269 332.525 150.84 336.756 189.607C338.386 204.54 344.491 219.225 344.453 237.282C344.421 252.009 339.519 260.756 340.233 275.46C341.125 293.811 346.711 305.878 339.159 311.991C332.977 316.997 323.567 312.625 308.367 312.376C293.052 312.124 285.074 317.114 269.754 317.605C256.044 318.045 245.394 315.805 233.854 313.92C213.71 310.628 192.93 310.331 173.8 313.139C156.557 315.669 146.089 319.943 128.722 318.755C114.989 317.815 107.516 312.192 92.736 313.616C89.3189 313.946 69.3443 315.94 60.5004 317.005C59.0318 317.182 56.057 317.53 53.9497 315.938C48.4991 311.822 56.685 292.389 56.8987 283.671C57.179 272.172 51.9003 263.794 50.3238 254.892C46.7506 234.709 52.8298 222.622 55.2963 202.082C57.5044 183.692 56.8865 167.91 54.0635 154.02C51.0867 139.373 46.7422 129.851 50.1164 114.873C51.8427 107.211 59.2615 97.854 58.1727 86.6758C57.3303 78.037 48.0304 67.6013 51.6841 59.3498C53.2044 55.9157 56.5737 53.3306 61.1825 51.2829Z" fill="#E6A108" stroke="#1F1F21" stroke-width="2.68652"/>
<mask id="mask0_266_512" style="mask-type:alpha" maskUnits="userSpaceOnUse" x="47" y="48" width="302" height="273">
<path fill-rule="evenodd" clip-rule="evenodd" d="M61.1825 51.2829C63.1915 50.3903 65.4466 50.3091 67.5996 50.7507C76.112 52.4963 84.6618 53.4799 93.5299 53.9272C109.431 54.7285 126.505 51.705 137.164 51.3148C161.815 50.4108 174.521 58.1541 199.18 57.8126C223.023 57.482 236.492 50.3042 260.333 49.7754C280.393 49.33 289.693 56.2737 309.161 52.6868C319.305 50.8177 331.496 46.7665 339.953 52.3019C342.192 53.7666 344.723 56.1984 345.233 59.2791C345.908 63.3492 342.897 66.5504 341.271 69.0049C334.369 79.4333 341.419 93.4767 344.591 103.077C354.897 134.269 332.525 150.84 336.756 189.607C338.386 204.54 344.491 219.225 344.453 237.282C344.421 252.009 339.519 260.756 340.233 275.46C341.125 293.811 346.711 305.878 339.159 311.991C332.977 316.997 323.567 312.625 308.367 312.376C293.052 312.124 285.074 317.114 269.754 317.605C256.044 318.045 245.394 315.805 233.854 313.92C213.71 310.628 192.93 310.331 173.8 313.139C156.557 315.669 146.089 319.943 128.722 318.755C114.989 317.815 107.516 312.192 92.736 313.616C89.3189 313.946 69.3443 315.94 60.5004 317.005C59.0318 317.182 56.057 317.53 53.9497 315.938C48.4991 311.822 56.685 292.389 56.8987 283.671C57.179 272.172 51.9003 263.794 50.3238 254.892C46.7506 234.709 52.8298 222.622 55.2963 202.082C57.5044 183.692 56.8865 167.91 54.0635 154.02C51.0867 139.373 46.7422 129.851 50.1164 114.873C51.8427 107.211 59.2615 97.854 58.1727 86.6758C57.3303 78.037 48.0304 67.6013 51.6841 59.3498C53.2044 55.9157 56.5737 53.3306 61.1825 51.2829Z" fill="#E6A108" stroke="#1F1F21" stroke-width="2.68652"/>
</mask>
<g mask="url(#mask0_266_512)">
<path fill-rule="evenodd" clip-rule="evenodd" d="M241.581 114.561C240.848 102.438 236.945 88.6936 225.456 82.7413C200.129 72.4978 166.829 98.294 165.066 124.647C164.451 133.668 169.421 143.525 178.504 146.033C180.523 148.729 183.577 150.375 186.591 151.804C222.491 170.574 245.68 155.316 241.581 114.561V114.561Z" fill="white"/>
<path fill-rule="evenodd" clip-rule="evenodd" d="M249.76 107.019C248.491 103.468 247.151 99.9438 245.741 96.4473C244.368 93.0444 243.127 89.5679 241.422 86.3262C231.238 66.9648 212.718 66.9648 203.145 69.4946C198.18 67.339 188.882 67.947 183.712 69.8922C175.344 73.0412 165.142 85.4287 161.654 90.9942C153.953 103.282 149.147 119.638 154.263 133.838C154.931 135.693 155.784 137.412 156.744 139.069C156.139 139.895 155.443 140.677 154.672 141.446C152.381 143.73 150.089 145.94 148.11 148.516C146.143 151.077 144.512 153.8 143.298 156.803C141.009 162.465 140.899 168.876 143.925 174.279C146.558 178.98 151.222 182.481 156.477 182.815C156.747 182.853 157.017 182.887 157.288 182.915C157.985 184.071 158.834 185.135 159.803 186.062C162.771 188.908 169.848 190.368 173.884 190.461C174.091 190.629 174.3 190.797 174.509 190.962C176.978 192.921 179.57 194.897 182.405 196.291C184.325 197.236 186.844 198.025 188.847 197.343C189.756 197.955 191.247 197.827 192.148 197.326C193.63 196.503 194.835 195.022 195.568 193.506C197.345 189.824 196.918 185.795 196.461 181.862C195.958 177.518 195.475 173.172 194.984 168.827C194.599 165.43 194.196 161.977 193.171 158.704C192.642 157.009 191.947 155.379 191.05 153.847C191.073 153.719 191.069 153.59 191.033 153.469C190.739 152.506 190.131 152.002 189.412 151.347C189.319 151.263 189.226 151.177 189.135 151.09C188.776 150.676 188.391 150.292 187.979 149.967C187.82 149.805 187.664 149.641 187.507 149.478C186.205 148.104 184.975 146.659 183.883 145.112C182.823 143.611 181.865 142.044 180.955 140.448C180.028 138.824 179.415 137.033 178.491 135.422C178.411 135.283 178.21 135.256 178.098 135.371C177.812 135.669 177.628 136 177.663 136.349L177.52 136.371C177.466 135.844 176.984 135.416 176.33 135.531C175.352 135.702 174.547 135.766 173.7 135.439C173.849 134.443 173.986 133.445 174.122 132.445C174.369 130.606 174.599 128.76 174.797 126.914C175.274 127.029 175.748 127.195 176.212 127.405C176.874 127.703 177.499 128.105 178.032 128.598C178.558 129.085 178.922 129.742 179.564 130.081C180.303 130.469 181.194 129.828 180.978 128.986C180.539 127.284 178.054 126.31 176.516 125.988C175.988 125.877 175.449 125.83 174.909 125.842C175.031 124.657 175.139 123.472 175.228 122.285C175.271 121.724 175.309 121.163 175.346 120.599C176.541 120.235 177.821 120.126 179.065 120.297C179.475 120.627 179.885 120.952 180.282 121.281C181.541 122.33 182.794 123.384 184.032 124.458C184.144 124.554 184.254 124.649 184.366 124.747C185.101 125.384 186.018 124.753 185.894 123.85C184.884 116.456 189.379 110.574 194.641 106.017C200.466 100.971 211.057 100.383 217.984 91.643C221.175 92.2974 228.298 94.2411 231.238 98.9615C235.353 105.576 234.816 111.503 235.129 119.007C235.442 126.517 236.239 134.35 234.547 141.754C232.986 148.581 228.761 154.415 222.204 157.096C222.042 157.163 221.878 157.227 221.713 157.289C218.323 158.578 214.623 158.942 211.057 158.264C207.11 157.511 203.814 155.691 200.53 153.452C200.341 153.325 200.064 153.586 200.207 153.777C204.536 159.558 213.037 161.489 219.781 159.963C220.096 159.891 220.41 159.813 220.721 159.727C219.212 164.099 219.516 168.898 221.481 173.154C222.663 175.715 224.465 177.931 226.66 179.679C229.08 181.605 232.081 183.16 233.76 185.864C235.297 188.341 234.841 191.124 232.209 192.555C231.545 192.917 231.29 194.088 231.948 194.603C232.199 194.798 232.451 194.997 232.708 195.192C234.181 196.312 238.229 198.417 238.885 198.495C244.706 199.191 248.621 194.884 251.129 189.803C254.074 183.839 253.309 176.571 250.063 170.891C247.46 166.335 242.333 161.844 244.372 156.077C245.099 154.017 246.586 152.261 248.031 150.674C249.678 148.868 251.45 147.176 253.03 145.305C254.6 143.447 255.993 141.426 256.77 139.095C257.906 135.689 257.341 132.005 256.488 128.604C254.66 121.303 252.287 114.099 249.76 107.019Z" fill="black"/>
<path fill-rule="evenodd" clip-rule="evenodd" d="M147.694 322.077C143.855 331.739 139.261 342.707 135.034 352.12C135.372 355.102 136.643 358.151 135.649 361.138C140.03 358.266 144.955 356.463 149.983 355.1L150.266 357.008C150.826 356.99 151.834 356.98 152.401 356.973C152.313 356.213 152.193 354.86 152.139 354.095L152.137 354.096C151.436 345.872 152.746 337.452 154.346 329.415C154.736 326.515 153.784 322.009 150.157 321.935C149.618 322.018 148.73 320.548 148.403 320.264L147.694 322.077ZM198.417 433.233C180.144 434.265 169.695 419.198 160.861 405.1C159.931 405.721 158.901 406.416 157.961 406.977C156.516 409.317 153.575 410.027 151.036 410.286C141.985 410.752 140.046 402.562 137.799 395.516C137.371 395.818 136.414 397.359 135.695 397.021C131.63 396.113 127.673 395.027 123.364 395.299C118.419 394.235 92.7919 405.61 95.1572 395.689C96.3124 391.375 102.67 389.331 105.945 386.353C110.707 380.893 109.547 373.869 111.822 367.368C113.713 360.845 115.923 354.701 120.012 348.705C120.381 326.295 121.214 298.867 126.971 278.937C130.641 264.95 135.188 250.489 133.44 235.812L132.448 235.785C132.013 235.537 131.346 235.35 130.813 235.433C130.364 234.932 129.531 235.084 128.92 234.881C127.819 224.515 127.394 215.642 128.791 206.238C130.089 190.709 139.813 184.357 154.015 180.975C169.622 175.816 180.212 170.558 188.299 157.729C189.828 155.125 190.758 152.043 192.795 149.848C197.855 143.394 212.407 144.458 216.165 151.253C217.806 155.229 217.948 159.869 219.196 164.001C224.104 181.555 246.677 179.487 258.627 189.085C263.888 193.017 265.583 199.087 266.265 205.265C267.124 213.035 268.766 220.516 268.555 228.239C269.104 228.343 270.361 227.949 270.574 228.742C270.074 230.411 263.666 230.405 261.878 230.7C264.229 243.244 262.097 255.841 263.987 268.426C266.899 282.565 272.629 295.697 277.13 309.356C278.862 313.87 280.022 318.71 282.598 322.821L282.552 322.857C282.959 323.538 283.406 324.202 283.87 324.84C284.347 325.014 284.845 325.296 285.316 325.47L285.421 325.292L285.676 325.636L286.423 325.318C287.522 325.871 288.715 326.512 289.886 327.186C304.286 335.992 313.709 344.928 324.999 355.994L323.501 357.218C324.046 357.983 324.706 358.995 325.236 359.801C325.678 359.408 326.622 358.746 327.166 358.518C336.792 370.05 337.969 390.041 333.281 402.193C331.789 405.834 329.43 408.824 326.581 411.342C325.404 413.125 323.289 415.587 320.587 416.769C320.587 416.769 320.246 417.255 320.235 417.272C320.091 417.291 319.206 417.496 319.154 417.704C311.961 418.926 304.747 422.116 297.293 422.163C285.136 422.056 274.69 412.108 264.939 405.539C258.771 401.106 251.583 398.061 244.923 395.097C245.419 397.652 245.278 398.528 242.521 399.495C240.066 400.479 237.112 399.709 234.828 398.627C234.887 402.862 235.222 407.092 235.106 411.609C235.106 417.076 235.287 423.799 229.44 426.323C219.485 430.275 208.237 433.114 198.417 433.233V433.233Z" fill="white"/>
<path fill-rule="evenodd" clip-rule="evenodd" d="M189.473 152.307C190.254 150.8 192.616 151.86 192.157 153.447C190.989 157.486 188.185 161.303 185.479 164.447C182.758 167.609 179.565 170.353 176.129 172.699C175.751 173.986 175.833 175.223 176.343 176.478C176.539 176.958 176.336 177.322 175.999 177.508C176.343 178.794 176.556 180.135 176.916 181.411C177.854 184.74 179.358 187.927 181.325 190.765C184.864 195.873 189.875 199.771 195.934 201.274C201.876 202.747 208.422 201.901 213.584 198.502C218.233 195.44 221.554 190.634 222.099 184.994C222.353 182.362 222.117 179.723 221.511 177.157C221.19 175.796 220.776 174.459 220.289 173.152C219.775 171.773 219.086 170.46 218.707 169.039C218.672 168.909 218.663 168.778 218.672 168.649C217.92 167.419 217.678 165.878 218.121 164.455C218.142 164.385 218.169 164.32 218.202 164.262C218.173 164.02 218.144 163.777 218.121 163.533C218.024 162.564 218.055 161.615 218.009 160.653C217.962 159.729 217.796 158.914 217.856 157.986C217.864 157.865 218.009 157.83 218.077 157.928C218.68 158.795 218.787 159.605 219.091 160.577L219.125 160.682C219.461 161.725 219.724 162.761 220.005 163.822C220.438 165.465 221.047 167.012 221.956 168.449C223.548 170.959 225.751 172.992 228.213 174.617C237.732 180.897 249.979 181.076 259.034 188.289C261.212 190.024 263.102 192.197 264.374 194.694C265.959 197.802 266.52 201.221 267.017 204.638L267.101 205.218C267.673 209.194 268.188 213.18 268.635 217.172C268.857 219.152 269.062 221.136 269.252 223.12C269.377 224.434 269.7 225.876 269.546 227.205C269.72 227.207 269.892 227.226 270.062 227.275C270.793 227.478 271.396 228.032 271.422 228.827C271.484 230.893 268.549 231.114 267.053 231.364L266.964 231.38C265.633 231.612 264.291 231.793 262.943 231.893C263.421 234.494 263.595 237.141 263.73 239.796C263.861 242.341 263.907 244.895 263.94 247.447L263.978 250.578C264.045 256.489 263.846 262.505 264.819 268.354C265.659 273.412 267.251 278.291 268.903 283.132L269.596 285.157C271.603 291.021 273.593 296.891 275.665 302.733C276.701 305.654 277.732 308.58 278.765 311.503C279.281 312.965 279.792 314.429 280.314 315.888C280.505 316.42 280.722 316.951 280.915 317.485C281.006 317.584 281.084 317.701 281.132 317.845C281.625 319.321 282.271 320.722 283.043 322.053C283.975 322.77 284.876 323.491 285.733 324.3C285.741 324.306 285.745 324.316 285.75 324.324C285.988 324.222 286.269 324.213 286.561 324.359C287.76 324.961 288.939 325.6 290.102 326.263C290.115 326.269 290.127 326.273 290.139 326.279C290.142 326.282 290.144 326.286 290.146 326.29C297.296 330.375 303.79 335.54 310.016 340.935C313.178 343.675 316.311 346.457 319.402 349.279C322.332 351.955 325.194 354.726 327.691 357.823C330.172 360.901 332.255 364.259 333.647 367.979C335.131 371.943 335.831 376.161 336.293 380.358L336.322 380.621C337.117 388.003 336.954 395.84 334.036 402.771C332.576 406.238 330.402 409.324 327.59 411.811C327.472 411.916 327.35 412.015 327.23 412.119C325.641 414.49 323.546 416.628 321.045 417.817L320.764 418.22V418.22L320.622 418.42L319.641 418.673L319.549 418.766V418.766C319.228 419.084 318.843 419.106 318.525 418.963L315.114 419.849V419.849L311.702 420.733C307.15 421.916 302.541 423.263 297.813 423.438C293.382 423.604 289.131 422.427 285.131 420.577C281.235 418.776 277.653 416.35 274.139 413.892C270.721 411.502 267.36 409.031 263.958 406.616C262.755 405.763 261.547 404.925 260.326 404.104C260.059 403.964 259.793 403.825 259.53 403.695L259.332 403.599C258.106 403.017 256.921 402.333 255.714 401.711C253.3 400.465 250.848 399.292 248.388 398.142C247.603 397.774 246.806 397.423 246.005 397.082C246.034 397.322 246.032 397.565 245.995 397.795C245.756 399.372 243.938 400.204 242.623 400.709C241.52 401.134 240.298 401.284 239.122 401.223C237.952 401.163 236.767 400.927 235.676 400.483C235.676 400.493 235.676 400.5 235.678 400.51C235.889 403.654 235.973 406.812 235.963 409.964L235.957 411.043C235.943 414.141 235.984 417.369 235.333 420.398C234.637 423.641 232.585 426.104 229.62 427.504C227.022 428.731 224.194 429.532 221.443 430.36L220.875 430.533C214.882 432.361 208.739 433.793 202.489 434.331C196.565 434.84 190.388 434.409 184.804 432.226C178.815 429.884 174.009 425.777 170.029 420.757C166.859 416.757 164.003 412.497 161.163 408.239L160.229 406.839C159.672 407.211 159.108 407.573 158.535 407.924C158.346 408.302 158.073 408.644 157.682 408.959C157.046 409.476 156.383 409.942 155.648 410.302C154.112 411.054 152.495 411.473 150.792 411.575C147.633 411.76 144.361 410.635 142.06 408.433C139.068 405.566 138.319 401.514 137.014 397.795C136.559 398.263 135.877 398.409 135.194 398.296C133.142 397.965 131.166 397.271 129.104 396.946C127.12 396.63 125.091 396.534 123.083 396.589C119.243 396.694 115.593 397.618 111.92 398.661L110.965 398.933C107.63 399.884 104.243 400.797 100.767 400.961L100.336 400.979C98.6854 401.045 96.692 401.036 95.2516 400.284C93.4298 399.333 93.1319 397.25 93.7469 395.433C94.6308 392.814 96.6402 391.022 98.8836 389.557C100.85 388.273 103.171 387.206 104.836 385.624C107.011 383.555 107.639 380.423 108.164 377.576L108.186 377.457C108.82 374.004 109.48 370.577 110.389 367.184C111.296 363.797 112.47 360.487 113.851 357.268C115.201 354.116 116.742 350.912 118.765 348.135C118.767 348.129 118.769 348.125 118.771 348.121C118.749 348.008 118.732 347.893 118.724 347.768C118.691 347.267 118.726 346.753 118.732 346.25L118.761 343.02V343.02C118.782 340.929 118.807 338.84 118.842 336.749C118.912 332.443 119.005 328.134 119.2 323.833C119.89 308.611 121.676 293.516 125.536 278.76C127.406 271.605 129.454 264.468 130.864 257.202C131.624 253.286 132.105 249.377 132.32 245.45C132.392 242.661 132.307 239.864 132.063 237.075C131.922 237.071 131.773 237.036 131.622 236.956C131.421 236.849 131.208 236.773 130.99 236.71L130.417 236.726V236.726C130.083 236.736 129.839 236.601 129.684 236.401C129.587 236.373 129.491 236.344 129.396 236.311C128.841 236.274 128.292 236.155 127.742 235.956C127.599 235.903 127.526 235.8 127.51 235.648C127.445 235.048 127.381 234.446 127.319 233.843C127.191 233.302 127.149 232.731 127.151 232.152C126.63 226.687 126.317 221.175 126.489 215.686C126.365 215.429 126.394 215.154 126.516 214.921C126.632 211.995 126.89 209.079 127.332 206.181L127.396 205.77C128.457 199.044 130.407 192.1 135.863 187.652C140.913 183.536 147.276 181.879 153.358 179.979L153.899 179.808C161.567 177.38 169.111 174.275 175.659 169.503C178.664 167.312 181.416 164.743 183.783 161.867C184.973 160.422 186.046 158.883 186.984 157.261C187.918 155.651 188.618 153.954 189.473 152.307ZM259.141 314.015C258.665 314.769 258.1 315.453 257.449 316.038C256.955 316.284 256.47 316.547 255.988 316.814C255.634 316.939 255.284 317.069 254.936 317.205C254.257 317.443 253.584 317.702 252.911 317.966C252.751 317.948 252.59 317.921 252.438 317.874C250.738 318.62 248.956 319.172 247.123 319.515L247.092 319.519V319.519C245.595 320.178 244.081 320.792 242.572 321.377C238.592 322.92 234.508 324.179 230.367 325.204C222.979 327.033 215.423 328.134 207.854 328.849C200.653 329.527 193.393 329.975 186.16 329.927C176.194 329.86 165.469 328.633 156.849 323.472C156.824 323.762 156.783 324.053 156.75 324.336L156.717 324.639C156.934 326.602 156.965 328.574 156.826 330.578C156.605 333.764 155.986 336.906 155.71 340.087C155.654 340.736 155.387 341.194 155.021 341.484C154.391 348.074 154.513 354.814 155.762 361.298C155.957 361.405 156.122 361.555 156.247 361.729C156.305 362.124 156.381 362.512 156.479 362.894C156.477 362.906 156.476 362.919 156.472 362.931C156.418 363.143 156.336 363.338 156.238 363.52C157.328 368.143 159.021 372.612 161.461 376.771C164.395 381.765 168.248 386.086 172.1 390.371L173.189 391.583C175.324 393.959 177.446 396.351 179.416 398.869C180.463 400.206 181.482 401.566 182.431 402.975L182.767 403.473C183.603 404.719 184.394 405.974 184.772 407.446C185.238 409.269 182.905 410.773 181.559 409.331C180.298 407.978 179.461 406.32 178.42 404.794C177.465 403.394 176.446 402.044 175.38 400.726C173.3 398.154 171.082 395.697 168.879 393.231L168.047 392.298C164 387.749 160.001 383.056 157.085 377.671C155.207 374.204 153.766 370.524 152.722 366.728C152.459 366.979 152.2 367.235 151.952 367.501C150.552 369.01 149.411 370.733 148.568 372.618C147.74 374.471 147.198 376.556 147.018 378.581C146.927 379.599 146.869 380.618 146.86 381.638C147.825 381.396 148.827 381.858 149.405 382.709L152.445 387.185V387.185L158.472 396.054V396.054L164.498 404.924C168.021 410.109 171.354 415.568 175.579 420.214C179.42 424.438 184.06 427.509 189.599 428.913C194.948 430.267 200.659 430.117 206.107 429.277C211.805 428.4 217.401 426.863 222.918 425.202L223.322 425.081C225.596 424.393 228.592 423.839 230.133 421.828C231.739 419.733 231.545 416.462 231.621 413.951L231.624 413.847C232.059 401.024 230.783 388.177 227.973 375.666C226.569 369.417 224.88 363.214 222.788 357.164L222.26 355.637C221.379 353.093 220.491 350.548 219.539 348.027C218.198 345.207 216.723 342.451 215.116 339.769C214.47 338.691 216.143 337.713 216.785 338.785C219.179 342.782 221.281 346.941 223.086 351.235C223.265 351.601 223.443 351.97 223.619 352.338C224.085 350.656 224.76 349.04 225.55 347.479C226.52 345.558 227.746 343.78 229.106 342.116L229.242 341.95C230.631 340.271 232.19 338.757 234.423 338.383C235.649 338.179 236.525 339.28 235.989 340.438C235.113 342.328 233.62 343.57 232.237 345.059C230.98 346.413 229.895 347.893 228.93 349.471C227.926 351.108 227.085 352.862 226.335 354.63C226.062 355.273 225.813 355.926 225.528 356.562C228.822 364.282 231.268 372.388 232.982 380.562C233.007 380.677 233.028 380.794 233.051 380.909C234.117 381.534 235.136 382.324 236.155 382.963L236.944 383.456C237.996 384.114 239.053 384.764 240.136 385.368C241.491 386.122 242.876 386.832 244.288 387.477C245.804 388.171 247.34 388.617 248.639 389.685C249.345 390.266 248.742 391.459 247.914 391.447C246.5 391.426 245.229 390.868 243.973 390.255L243.112 389.831C241.619 389.102 240.167 388.295 238.764 387.401C237.325 386.483 235.945 385.5 234.645 384.395L234.284 384.089C234.041 383.881 233.793 383.667 233.548 383.446L233.702 384.269C233.727 384.407 233.752 384.544 233.777 384.682C234.018 384.817 234.262 384.943 234.504 385.064C234.552 385.224 234.602 385.383 234.655 385.541C234.465 385.67 234.337 385.9 234.401 386.169C234.63 387.155 234.751 388.158 234.886 389.157L234.92 389.406L234.477 389.067C234.572 389.718 234.659 390.371 234.744 391.024C239.803 391.4 244.816 393.218 249.529 394.959C252.175 395.935 254.76 397.045 257.313 398.243L257.929 398.532C258.956 399.017 259.98 399.516 260.968 400.071C261.078 400.134 261.187 400.197 261.295 400.261L261.456 400.358L261.839 400.255C262.378 400.424 262.916 400.597 263.454 400.773C265.612 402.272 267.741 403.813 269.861 405.359L272.21 407.074C274.758 408.929 277.316 410.771 279.937 412.517L280.332 412.78C283.565 414.917 286.958 416.909 290.663 418.076C294.68 419.343 298.72 419.271 302.82 418.446C307.285 417.546 311.693 416.299 316.11 415.19C317.634 414.808 319.158 414.428 320.684 414.048C321.194 413.673 321.688 413.274 322.159 412.851C326.598 407.021 329.557 400.104 330.845 392.844C332.317 384.545 331.427 375.987 328.286 368.178C325.188 360.475 320.059 353.769 314.153 348.041C308.049 342.12 301.095 337.16 293.904 332.675C288.762 329.469 283.495 326.452 278.161 323.565C277.43 323.289 276.723 322.951 276.024 322.593C274.616 321.979 273.216 321.353 271.826 320.708C270.482 320.106 269.138 319.498 267.799 318.884C266.73 318.394 265.663 317.9 264.598 317.402L263.533 316.903C262.436 316.389 261.293 315.915 260.344 315.141C259.994 314.855 259.709 314.547 259.481 314.22C259.369 314.151 259.253 314.085 259.141 314.015ZM194.436 397.958C194.523 397.802 194.743 397.939 194.67 398.096C193.84 399.907 193.337 401.961 192.875 403.896C192.458 405.643 192.144 407.397 191.994 409.186L191.949 409.765C191.818 411.389 191.623 413.229 192.401 414.708C192.93 415.712 193.967 416.913 195.083 417.238L195.151 417.257C196.48 417.598 196.3 419.375 195.151 419.795C192.956 420.592 190.633 419.555 189.432 417.619C188.169 415.588 188.181 413.039 188.668 410.772C189.162 408.479 190.156 406.224 191.105 404.088C192.063 401.938 193.3 400.004 194.436 397.958ZM150.83 356.256L149.969 356.482C144.497 357.918 138.764 359.572 135.525 364.651C132.809 368.911 132.484 374.302 132.831 379.218C132.911 380.354 133.028 381.489 133.186 382.619L133.241 382.995C133.426 384.244 133.479 385.854 134.103 386.965C134.709 388.043 136.142 388.633 137.031 389.446C137.967 390.302 138.753 391.372 139.371 392.479C140.601 394.683 141.288 397.148 142.087 399.532L142.171 399.781C142.876 401.856 143.694 403.881 145.287 405.36C145.91 405.939 146.823 406.437 147.66 406.706C148.811 407.075 149.536 407.163 150.792 407.086C151.546 407.04 152.789 406.734 153.509 406.365C154.733 405.74 155.3 404.908 156.727 404.621C157.16 404.533 157.651 404.609 158.059 404.822C158.245 404.689 158.431 404.56 158.62 404.44C158.427 404.153 158.233 403.867 158.04 403.582L145.444 385.043V385.043C144.974 384.351 145.05 383.437 145.454 382.73C145.324 382.393 145.216 382.057 145.125 381.748C144.798 380.625 144.62 379.485 144.585 378.315C144.518 375.963 144.893 373.605 145.655 371.381C146.446 369.073 147.593 366.919 149.13 365.031L149.275 364.854C149.898 364.1 150.746 363.134 151.7 362.365C151.486 361.252 151.3 360.133 151.147 359.01C151.022 358.094 150.917 357.176 150.83 356.256ZM234.904 392.308C235.146 394.3 235.347 396.298 235.511 398.295C236.612 398.408 237.718 398.309 238.811 397.921C239.615 397.639 240.391 397.204 241.097 396.724C241.607 396.375 242.048 395.972 242.561 395.662L241.396 395.19C239.198 394.295 237.01 393.378 234.904 392.308ZM152.619 237.602C146.421 236.917 140.189 236.602 133.956 236.656C134.494 242.427 134.356 248.241 133.558 253.969C133.413 255.836 133.215 257.69 132.989 259.522C131.154 274.42 126.895 288.874 125.218 303.797C124.364 311.398 123.952 319.037 123.694 326.679C123.567 330.479 123.489 334.28 123.437 338.08C123.41 340.043 123.389 342.008 123.371 343.97L123.348 346.82V346.82C123.344 347.324 123.389 347.894 123.254 348.387C123.128 348.847 122.831 349.228 122.555 349.61L122.453 349.753C121.801 350.683 120.652 350.815 119.883 350.096C118.962 351.768 118.018 353.425 117.165 355.136C116.053 357.37 115.075 359.665 114.324 362.037C113.684 364.731 113.162 367.458 112.708 370.184C112.154 373.486 111.783 376.819 111.207 380.116C110.669 383.194 109.638 386.141 107.463 388.439C105.763 390.232 103.626 391.432 101.574 392.758L101.245 392.971C100.399 393.523 99.7729 393.969 99.044 394.709C98.4541 395.307 98.0422 395.905 97.812 396.617L97.9756 396.658C98.046 396.676 98.1124 396.69 98.1698 396.697C98.9724 396.788 99.7866 396.81 100.593 396.792C102.272 396.753 103.925 396.5 105.56 396.131C108.913 395.375 112.168 394.239 115.518 393.479C118.983 392.691 122.557 392.348 126.106 392.557L126.472 392.579C129.411 392.765 132.692 393.148 135.459 394.317C135.335 394.105 135.205 393.896 135.068 393.689C134.397 392.691 133.225 391.898 132.194 391.078C130.736 389.916 129.941 388.402 129.626 386.566C129.112 383.574 128.804 380.51 128.787 377.472C128.752 371.662 129.895 365.45 134.097 361.166C134.109 361.156 134.121 361.145 134.132 361.133C134.142 360.932 134.148 360.734 134.15 360.533C133.349 360.235 132.744 359.471 132.753 358.543C132.771 356.988 132.856 355.432 133.115 353.898C132.506 353.643 132.038 353.068 132.034 352.275C132.028 350.984 132.663 349.852 133.176 348.699L133.221 348.597C133.683 347.543 134.146 346.486 134.608 345.43L136.454 341.208C136.761 340.504 137.07 339.801 137.379 339.098C140.599 331.795 143.999 324.578 147.287 317.306C148.591 314.423 149.857 311.523 151.022 308.58C151.789 305.378 152.725 302.219 153.596 299.044C154.462 295.877 155.276 292.69 155.812 289.447C156.367 286.091 156.597 282.682 156.636 279.281C156.713 272.52 156.004 265.765 155.162 259.064L155.106 258.618C154.222 251.619 153.367 244.62 152.619 237.602ZM300.932 369.703C300.795 369.6 300.922 369.366 301.069 369.465C304.736 371.933 308.194 374.94 310.896 378.464C313.774 382.214 315.988 386.41 317.556 390.875C318.14 392.544 315.365 393.339 314.917 391.608C312.727 383.188 307.931 374.944 300.932 369.703ZM267.008 341.852C267.08 341.762 267.223 341.879 267.165 341.975C265.883 344.059 265.08 346.35 264.193 348.619L264.014 349.073C263.096 351.382 262.318 353.774 261.701 356.183C260.446 361.081 260.1 366.144 259.241 371.118C259.071 372.102 257.497 372.067 257.3 371.118C256.199 365.776 257.28 360.34 259.056 355.275C259.94 352.753 261.028 350.328 262.359 348.013C263.643 345.777 265.419 343.863 267.008 341.852ZM179.142 350.255L179.41 350.109C183.538 347.875 188.433 346.008 193.159 346.432C194.466 346.548 194.832 348.406 193.478 348.8C189.065 350.084 184.582 350.786 180.323 352.604C176.067 354.421 172.348 357.03 168.638 359.763C168.491 359.872 168.29 359.659 168.389 359.513C171.046 355.584 175.036 352.51 179.142 350.255ZM148.461 322.628C147.423 325.284 146.344 327.925 145.266 330.564C143.853 334.022 142.393 337.465 140.922 340.899L137.944 347.838V347.838C137.513 348.838 137.084 349.84 136.654 350.84C136.418 351.391 136.209 351.945 135.931 352.453C135.989 352.816 136.025 353.135 136.055 353.309L136.061 353.34C136.345 354.886 136.598 356.437 136.939 357.971C137.012 358.298 137.014 358.624 136.956 358.932C137.37 358.684 137.793 358.458 138.229 358.25C139.702 357.351 141.441 356.739 142.915 356.17C145.435 355.197 148.032 354.459 150.633 353.742C150.339 348.939 150.521 344.11 151.153 339.333C151.378 337.653 151.637 335.978 151.95 334.312C152.258 332.681 152.697 331.057 152.88 329.406C153.12 327.259 152.741 323.409 149.891 323.23L149.803 323.226C149.196 323.203 148.749 322.969 148.461 322.628ZM324.134 356.661C324.498 357.176 324.852 357.696 325.198 358.222C325.26 358.174 325.327 358.129 325.399 358.092C324.987 357.608 324.563 357.131 324.134 356.661ZM150.782 355.722L149.923 355.962V355.962C150.217 355.954 150.509 355.946 150.801 355.942C150.793 355.868 150.788 355.796 150.782 355.722ZM283.232 322.373C283.519 322.851 283.823 323.32 284.144 323.78L284.306 324.009L284.909 324.264C284.996 324.299 285.071 324.344 285.139 324.394C285.228 324.429 285.319 324.463 285.408 324.496C284.642 323.825 283.932 323.11 283.232 322.373ZM251.082 230.474C251.004 232.897 250.91 235.318 250.813 237.738C250.49 245.858 250.024 253.981 249.858 262.107L249.847 262.655C249.716 269.791 249.919 276.998 251.954 283.891C252.968 287.329 254.522 290.438 256.299 293.527L256.926 294.612C258.55 297.431 260.157 300.372 260.844 303.57C261.164 305.049 261.233 306.69 261.048 308.321C261.158 308.512 261.194 308.756 261.107 309.037L260.955 309.532C260.645 310.551 260.342 311.727 260.794 312.701C260.846 312.814 260.908 312.919 260.976 313.02L262.033 313.497C262.562 313.737 263.09 313.979 263.616 314.229C265.057 314.917 266.482 315.642 267.9 316.377C268.134 316.281 268.41 316.277 268.694 316.421C271.992 318.094 275.282 319.799 278.546 321.551L279.066 321.779V321.779C279.032 321.711 279.001 321.645 278.968 321.577C278.774 321.504 278.594 321.401 278.434 321.267C277.009 320.068 276.708 318.067 276.155 316.344L274.556 311.469C273.469 308.16 272.384 304.848 271.303 301.537C269.387 295.668 267.356 289.835 265.383 283.984L265.179 283.375C263.343 277.89 261.687 272.367 261.048 266.591C260.369 260.464 260.667 254.254 260.779 248.105L260.789 247.478C260.87 242.352 260.848 237.012 261.837 231.958C261.62 231.965 261.401 231.971 261.183 231.975C259.404 232.001 257.646 231.89 255.882 231.644C254.944 231.513 254.008 231.361 253.085 231.143C252.623 231.034 252.157 230.923 251.701 230.788C251.42 230.705 251.269 230.588 251.082 230.474ZM142.131 267.446C143.701 267.424 145.275 267.492 146.84 267.652L147.654 267.74C149.247 267.916 150.792 268.128 152.018 269.292C152.741 269.982 152.387 271.293 151.43 271.537C149.751 271.966 148.182 271.371 146.544 271.021C145.028 270.693 143.496 270.457 141.949 270.321C138.774 270.04 135.598 270.052 132.413 270.013C131.993 270.009 131.985 269.475 132.322 269.331C135.407 268.023 138.797 267.491 142.131 267.446Z" fill="#9B2D15"/>
<path fill-rule="evenodd" clip-rule="evenodd" d="M215.443 147.027C214.018 147.443 212.489 147.48 211.037 147.051C209.72 146.661 208.367 145.804 207.398 144.67C206.536 143.662 205.979 142.437 206.001 141.13C206.003 140.981 206.056 140.856 206.138 140.759C206.225 140.655 206.348 140.584 206.479 140.553C206.614 140.521 206.757 140.532 206.878 140.588C206.988 140.638 207.083 140.724 207.141 140.849C207.29 141.046 207.439 141.24 207.588 141.429C208.786 142.92 209.946 144.034 211.747 144.433C212.724 144.65 213.701 144.554 214.596 144.223C215.555 143.869 216.421 143.246 217.101 142.45C217.407 142.09 217.77 141.943 218.124 141.94C218.526 141.937 218.922 142.125 219.221 142.426C219.515 142.721 219.712 143.123 219.73 143.543C219.746 143.911 219.626 144.296 219.309 144.639C218.264 145.771 216.909 146.599 215.443 147.027Z" fill="black"/>
<path fill-rule="evenodd" clip-rule="evenodd" d="M213.463 131.389C214.891 132.171 217.068 133.994 215.531 135.932C213.722 137.641 211.118 135.682 209.835 134.795C208.645 134.109 207.308 135.875 208.412 136.677C217.685 142.859 221.449 131.594 214.185 130.47C213.386 130.346 213.089 131.147 213.463 131.389Z" fill="#231F20"/>
<path fill-rule="evenodd" clip-rule="evenodd" d="M224.257 125.155C223.985 125.298 223.773 125.341 223.472 125.25C223.306 125.199 223.141 125.103 223.012 124.973C222.885 124.844 222.793 124.684 222.757 124.507C222.669 124.069 222.431 123.659 222.092 123.392C221.803 123.163 221.437 123.042 221.031 123.11C220.594 123.184 220.177 123.467 219.89 123.8C219.794 123.912 219.719 124.039 219.643 124.164C219.502 124.4 219.364 124.619 219.169 124.791C219.095 124.857 218.984 124.903 218.876 124.903C218.832 124.903 218.787 124.896 218.745 124.882C218.309 124.442 218.226 124.108 218.24 123.776C218.254 123.429 218.39 123.077 218.61 122.748C219.126 121.978 220.104 121.347 220.765 121.203C221.669 121.008 222.567 121.243 223.287 121.752C224.028 122.276 224.577 123.089 224.749 124.005C224.79 124.226 224.772 124.464 224.689 124.671C224.607 124.873 224.465 125.046 224.257 125.155Z" fill="black"/>
<path fill-rule="evenodd" clip-rule="evenodd" d="M206.293 114.045C205.65 114.676 204.889 114.774 204.119 114.861C203.691 114.91 203.35 114.949 203.014 115.025C202.09 115.235 201.177 115.552 200.344 116.008C199.473 116.484 198.524 117.059 197.841 117.795C197.679 117.97 197.526 118.154 197.373 118.338C197.233 118.506 197.098 118.668 196.957 118.824C196.794 119.003 196.639 119.191 196.485 119.378C196.39 119.536 196.371 119.575 196.352 119.615C196.323 119.676 196.29 119.744 196.251 119.817C196.199 119.917 196.137 120.026 196.073 120.125C195.966 120.307 195.908 120.357 195.859 120.379C195.776 120.416 195.698 120.434 195.622 120.424C195.551 120.415 195.484 120.381 195.418 120.324C195.088 120.043 194.991 119.582 195.001 119.092C195.016 118.349 195.288 117.526 195.539 117.021C196.121 115.845 196.93 114.624 197.902 113.747C199.012 112.745 200.225 111.988 201.619 111.465C202.485 111.141 203.488 110.843 204.432 110.88C205.112 110.907 205.76 111.111 206.296 111.619C206.625 111.931 206.782 112.375 206.782 112.818C206.782 113.27 206.619 113.725 206.293 114.045Z" fill="#231F20"/>
<path fill-rule="evenodd" clip-rule="evenodd" d="M204.134 121.718C203.738 121.463 203.272 121.375 202.755 121.612C202.352 121.797 201.644 122.414 201.151 123.224C200.814 123.779 200.575 124.43 200.625 125.107C200.636 125.265 200.579 125.381 200.488 125.467C200.416 125.534 200.312 125.584 200.19 125.6C200.086 125.613 199.97 125.601 199.876 125.571C199.697 125.515 199.602 125.398 199.566 125.302C199.221 124.379 199.37 123.349 199.757 122.419C200.278 121.165 201.226 120.114 201.847 119.775C202.909 119.195 204.162 119.169 205.226 119.759C206.132 120.262 206.698 121.074 207.261 121.901C207.381 122.077 207.5 122.252 207.622 122.423C207.868 122.767 207.893 123.108 207.798 123.4C207.692 123.724 207.423 123.998 207.086 124.141C206.775 124.273 206.414 124.291 206.094 124.156C205.824 124.041 205.577 123.817 205.42 123.438C205.156 122.798 204.716 122.093 204.134 121.718V121.718Z" fill="black"/>
<path fill-rule="evenodd" clip-rule="evenodd" d="M229.077 119.825C229.036 119.893 228.98 119.939 228.917 119.967C228.851 119.997 228.777 120.005 228.706 119.993C228.636 119.981 228.569 119.949 228.516 119.9C228.465 119.853 228.426 119.79 228.409 119.714C227.982 117.824 227.153 116.418 225.383 115.511C224.513 115.065 223.512 114.782 222.565 114.556C222.289 114.49 221.998 114.448 221.705 114.405C220.787 114.27 219.862 114.115 219.264 113.367C218.903 112.916 218.752 112.34 218.837 111.813C218.918 111.317 219.206 110.862 219.729 110.589C221.031 109.911 222.649 110.577 223.964 111.144C224.061 111.186 224.157 111.227 224.251 111.267C225.536 111.814 226.709 112.536 227.673 113.568C228.438 114.388 229.147 115.599 229.432 116.844C229.67 117.881 229.614 118.939 229.077 119.825Z" fill="#231F20"/>
</g>
<path fill-rule="evenodd" clip-rule="evenodd" d="M61.6434 51.2829C63.6524 50.3903 65.9076 50.3091 68.0606 50.7507C76.573 52.4963 85.1227 53.4799 93.9908 53.9272C109.892 54.7285 126.965 51.705 137.625 51.3148C162.276 50.4108 174.982 58.1541 199.641 57.8126C223.484 57.482 236.953 50.3042 260.794 49.7754C280.854 49.33 290.154 56.2737 309.622 52.6868C319.766 50.8177 331.957 46.7665 340.414 52.3019C342.653 53.7666 345.184 56.1984 345.694 59.2791C346.369 63.3492 343.358 66.5504 341.732 69.0049C334.83 79.4333 341.88 93.4767 345.052 103.077C355.358 134.269 332.986 150.84 337.217 189.607C338.846 204.54 344.952 219.225 344.914 237.282C344.882 252.009 339.98 260.756 340.694 275.46C341.586 293.811 347.172 305.878 339.62 311.991C333.438 316.997 324.028 312.625 308.828 312.376C293.513 312.124 285.534 317.114 270.215 317.605C256.505 318.045 245.855 315.805 234.315 313.92C214.171 310.628 193.391 310.331 174.261 313.139C157.018 315.669 146.55 319.943 129.183 318.755C115.45 317.815 107.976 312.192 93.1969 313.616C89.7798 313.946 69.8052 315.94 60.9613 317.005C59.4927 317.182 56.5179 317.53 54.4106 315.938C48.96 311.822 57.146 292.389 57.3596 283.671C57.64 272.172 52.3612 263.794 50.7847 254.892C47.2116 234.709 53.2908 222.622 55.7572 202.082C57.9654 183.692 57.3475 167.91 54.5244 154.02C51.5476 139.373 47.2032 129.851 50.5773 114.873C52.3036 107.211 59.7225 97.854 58.6336 86.6758C57.7913 78.037 48.4913 67.6013 52.145 59.3498C53.6653 55.9157 57.0346 53.3306 61.6434 51.2829Z" stroke="#1F1F21" stroke-width="2.68652"/>
<path d="M53.8405 354.687V352.553H62.3325V354.687H53.8405ZM50.5405 358.031L56.7665 343.775H59.4505L65.7205 358.031H63.0145L57.5585 345.161H58.6585L53.2245 358.031H50.5405ZM67.7129 342.675H70.1549V358.031H67.7129V342.675ZM75.9818 342.433V344.787H73.0558V342.433H75.9818ZM73.2758 347.075H75.7398V358.031H73.2758V347.075ZM78.6648 347.075H81.1068V358.031H78.6648V347.075ZM85.7268 346.833C86.3574 346.833 86.9368 346.921 87.4648 347.097C88.0074 347.273 88.4694 347.545 88.8508 347.911C89.2468 348.263 89.5474 348.703 89.7528 349.231C89.9728 349.759 90.0828 350.383 90.0828 351.101V358.031H87.6408V351.585C87.6408 350.691 87.4208 350.031 86.9808 349.605C86.5554 349.165 85.8808 348.945 84.9568 348.945C84.2528 348.945 83.6074 349.099 83.0208 349.407C82.4488 349.701 81.9794 350.089 81.6128 350.573C81.2461 351.043 81.0334 351.563 80.9748 352.135L80.9528 350.947C81.0261 350.405 81.1874 349.891 81.4368 349.407C81.6861 348.909 82.0161 348.469 82.4268 348.087C82.8374 347.691 83.3214 347.383 83.8788 347.163C84.4361 346.943 85.0521 346.833 85.7268 346.833ZM97.664 358.273C96.6667 358.273 95.75 358.031 94.914 357.547C94.0927 357.063 93.4327 356.396 92.934 355.545C92.45 354.68 92.208 353.69 92.208 352.575C92.208 351.431 92.4573 350.434 92.956 349.583C93.4547 348.718 94.1293 348.043 94.98 347.559C95.8307 347.075 96.784 346.833 97.84 346.833C99.0133 346.833 99.9447 347.09 100.634 347.603C101.323 348.117 101.815 348.806 102.108 349.671C102.401 350.537 102.548 351.505 102.548 352.575C102.548 353.177 102.46 353.815 102.284 354.489C102.108 355.149 101.829 355.765 101.448 356.337C101.081 356.909 100.583 357.379 99.952 357.745C99.336 358.097 98.5733 358.273 97.664 358.273ZM98.412 356.249C99.2333 356.249 99.93 356.095 100.502 355.787C101.089 355.465 101.529 355.025 101.822 354.467C102.13 353.91 102.284 353.279 102.284 352.575C102.284 351.798 102.13 351.138 101.822 350.595C101.514 350.038 101.074 349.613 100.502 349.319C99.93 349.011 99.2333 348.857 98.412 348.857C97.2387 348.857 96.3293 349.202 95.684 349.891C95.0387 350.581 94.716 351.475 94.716 352.575C94.716 353.294 94.87 353.932 95.178 354.489C95.5007 355.047 95.9407 355.479 96.498 355.787C97.0553 356.095 97.6933 356.249 98.412 356.249ZM102.284 347.075H104.748V358.031H102.46C102.46 358.031 102.445 357.892 102.416 357.613C102.387 357.335 102.357 356.997 102.328 356.601C102.299 356.191 102.284 355.802 102.284 355.435V347.075ZM120.775 352.751V343.775H123.261V352.861C123.261 353.595 123.136 354.291 122.887 354.951C122.637 355.611 122.271 356.191 121.787 356.689C121.303 357.173 120.701 357.555 119.983 357.833C119.279 358.112 118.457 358.251 117.519 358.251C116.771 358.251 116.052 358.149 115.363 357.943C114.673 357.738 114.057 357.437 113.515 357.041C112.987 356.645 112.554 356.147 112.217 355.545C111.894 354.929 111.718 354.225 111.689 353.433H114.043C114.189 354.299 114.578 354.951 115.209 355.391C115.854 355.831 116.624 356.051 117.519 356.051C118.281 356.051 118.897 355.905 119.367 355.611C119.851 355.318 120.203 354.929 120.423 354.445C120.657 353.947 120.775 353.382 120.775 352.751ZM131.223 358.273C130.225 358.273 129.309 358.031 128.473 357.547C127.651 357.063 126.991 356.396 126.493 355.545C126.009 354.68 125.767 353.69 125.767 352.575C125.767 351.431 126.016 350.434 126.515 349.583C127.013 348.718 127.688 348.043 128.539 347.559C129.389 347.075 130.343 346.833 131.399 346.833C132.572 346.833 133.503 347.09 134.193 347.603C134.882 348.117 135.373 348.806 135.667 349.671C135.96 350.537 136.107 351.505 136.107 352.575C136.107 353.177 136.019 353.815 135.843 354.489C135.667 355.149 135.388 355.765 135.007 356.337C134.64 356.909 134.141 357.379 133.511 357.745C132.895 358.097 132.132 358.273 131.223 358.273ZM131.971 356.249C132.792 356.249 133.489 356.095 134.061 355.787C134.647 355.465 135.087 355.025 135.381 354.467C135.689 353.91 135.843 353.279 135.843 352.575C135.843 351.798 135.689 351.138 135.381 350.595C135.073 350.038 134.633 349.613 134.061 349.319C133.489 349.011 132.792 348.857 131.971 348.857C130.797 348.857 129.888 349.202 129.243 349.891C128.597 350.581 128.275 351.475 128.275 352.575C128.275 353.294 128.429 353.932 128.737 354.489C129.059 355.047 129.499 355.479 130.057 355.787C130.614 356.095 131.252 356.249 131.971 356.249ZM135.843 347.075H138.307V358.031H136.019C136.019 358.031 136.004 357.892 135.975 357.613C135.945 357.335 135.916 356.997 135.887 356.601C135.857 356.191 135.843 355.802 135.843 355.435V347.075ZM140.991 347.075H143.433V358.031H140.991V347.075ZM148.053 346.833C148.684 346.833 149.263 346.921 149.791 347.097C150.334 347.273 150.796 347.545 151.177 347.911C151.573 348.263 151.874 348.703 152.079 349.231C152.299 349.759 152.409 350.383 152.409 351.101V358.031H149.967V351.585C149.967 350.691 149.747 350.031 149.307 349.605C148.882 349.165 148.207 348.945 147.283 348.945C146.579 348.945 145.934 349.099 145.347 349.407C144.775 349.701 144.306 350.089 143.939 350.573C143.572 351.043 143.36 351.563 143.301 352.135L143.279 350.947C143.352 350.405 143.514 349.891 143.763 349.407C144.012 348.909 144.342 348.469 144.753 348.087C145.164 347.691 145.648 347.383 146.205 347.163C146.762 346.943 147.378 346.833 148.053 346.833ZM164.258 354.423H166.612C166.495 355.171 166.202 355.839 165.732 356.425C165.278 356.997 164.654 357.452 163.862 357.789C163.07 358.112 162.124 358.273 161.024 358.273C159.778 358.273 158.663 358.046 157.68 357.591C156.698 357.122 155.928 356.462 155.37 355.611C154.813 354.761 154.534 353.749 154.534 352.575C154.534 351.417 154.806 350.405 155.348 349.539C155.891 348.674 156.639 348.007 157.592 347.537C158.56 347.068 159.675 346.833 160.936 346.833C162.242 346.833 163.327 347.068 164.192 347.537C165.072 347.992 165.725 348.681 166.15 349.605C166.576 350.515 166.752 351.666 166.678 353.059H157.02C157.094 353.675 157.292 354.233 157.614 354.731C157.952 355.215 158.406 355.597 158.978 355.875C159.55 356.139 160.218 356.271 160.98 356.271C161.831 356.271 162.542 356.103 163.114 355.765C163.701 355.428 164.082 354.981 164.258 354.423ZM160.87 348.813C159.873 348.813 159.052 349.063 158.406 349.561C157.761 350.045 157.343 350.669 157.152 351.431H164.214C164.156 350.61 163.826 349.972 163.224 349.517C162.623 349.048 161.838 348.813 160.87 348.813ZM169.252 351.101H176.248V353.059H169.252V351.101ZM182.222 343.775V355.875H191.11V358.031H179.714V343.775H182.222ZM202.243 354.423H204.597C204.479 355.171 204.186 355.839 203.717 356.425C203.262 356.997 202.639 357.452 201.847 357.789C201.055 358.112 200.109 358.273 199.009 358.273C197.762 358.273 196.647 358.046 195.665 357.591C194.682 357.122 193.912 356.462 193.355 355.611C192.797 354.761 192.519 353.749 192.519 352.575C192.519 351.417 192.79 350.405 193.333 349.539C193.875 348.674 194.623 348.007 195.577 347.537C196.545 347.068 197.659 346.833 198.921 346.833C200.226 346.833 201.311 347.068 202.177 347.537C203.057 347.992 203.709 348.681 204.135 349.605C204.56 350.515 204.736 351.666 204.663 353.059H195.005C195.078 353.675 195.276 354.233 195.599 354.731C195.936 355.215 196.391 355.597 196.963 355.875C197.535 356.139 198.202 356.271 198.965 356.271C199.815 356.271 200.527 356.103 201.099 355.765C201.685 355.428 202.067 354.981 202.243 354.423ZM198.855 348.813C197.857 348.813 197.036 349.063 196.391 349.561C195.745 350.045 195.327 350.669 195.137 351.431H202.199C202.14 350.61 201.81 349.972 201.209 349.517C200.607 349.048 199.823 348.813 198.855 348.813ZM215.993 354.423H218.347C218.229 355.171 217.936 355.839 217.467 356.425C217.012 356.997 216.389 357.452 215.597 357.789C214.805 358.112 213.859 358.273 212.759 358.273C211.512 358.273 210.397 358.046 209.415 357.591C208.432 357.122 207.662 356.462 207.105 355.611C206.547 354.761 206.269 353.749 206.269 352.575C206.269 351.417 206.54 350.405 207.083 349.539C207.625 348.674 208.373 348.007 209.327 347.537C210.295 347.068 211.409 346.833 212.671 346.833C213.976 346.833 215.061 347.068 215.927 347.537C216.807 347.992 217.459 348.681 217.885 349.605C218.31 350.515 218.486 351.666 218.413 353.059H208.755C208.828 353.675 209.026 354.233 209.349 354.731C209.686 355.215 210.141 355.597 210.713 355.875C211.285 356.139 211.952 356.271 212.715 356.271C213.565 356.271 214.277 356.103 214.849 355.765C215.435 355.428 215.817 354.981 215.993 354.423ZM212.605 348.813C211.607 348.813 210.786 349.063 210.141 349.561C209.495 350.045 209.077 350.669 208.887 351.431H215.949C215.89 350.61 215.56 349.972 214.959 349.517C214.357 349.048 213.573 348.813 212.605 348.813ZM220.552 361.243L220.112 360.605C220.346 360.253 220.559 359.872 220.75 359.461C220.955 359.065 221.065 358.669 221.08 358.273L219.914 358.031V355.655H222.928V357.349C222.928 358.347 222.7 359.146 222.246 359.747C221.806 360.363 221.241 360.862 220.552 361.243ZM236.243 354.709L232.921 356.557L232.789 356.029H240.357V358.031H229.951V356.029C231.139 355.384 232.202 354.841 233.141 354.401C234.079 353.947 234.871 353.536 235.517 353.169C236.177 352.803 236.675 352.429 237.013 352.047C237.365 351.666 237.541 351.241 237.541 350.771C237.541 350.39 237.445 350.06 237.255 349.781C237.064 349.503 236.763 349.29 236.353 349.143C235.957 348.982 235.443 348.901 234.813 348.901C233.991 348.901 233.317 349.092 232.789 349.473C232.261 349.84 231.982 350.339 231.953 350.969H229.643C229.584 350.163 229.76 349.451 230.171 348.835C230.596 348.219 231.205 347.735 231.997 347.383C232.803 347.017 233.727 346.833 234.769 346.833C235.575 346.833 236.301 346.921 236.947 347.097C237.592 347.273 238.142 347.53 238.597 347.867C239.066 348.19 239.425 348.579 239.675 349.033C239.924 349.473 240.049 349.965 240.049 350.507C240.049 350.947 239.968 351.351 239.807 351.717C239.66 352.069 239.425 352.414 239.103 352.751C238.795 353.074 238.399 353.397 237.915 353.719C237.445 354.027 236.888 354.357 236.243 354.709ZM242.041 349.231V347.075H253.063V349.231L246.595 361.331H243.713L251.039 348.263L251.589 349.231H242.041Z" fill="#1F1F21"/>
<path d="M101.931 391.436C101.811 392.276 101.523 393.002 101.067 393.614C100.611 394.226 100.029 394.7 99.3207 395.036C98.6247 395.36 97.8447 395.522 96.9807 395.522C96.1767 395.522 95.4327 395.384 94.7487 395.108C94.0647 394.82 93.4647 394.412 92.9487 393.884C92.4447 393.356 92.0487 392.72 91.7607 391.976C91.4727 391.232 91.3287 390.404 91.3287 389.492C91.3287 388.568 91.4727 387.74 91.7607 387.008C92.0487 386.264 92.4447 385.628 92.9487 385.1C93.4647 384.572 94.0647 384.17 94.7487 383.894C95.4327 383.606 96.1767 383.462 96.9807 383.462C97.8567 383.462 98.6427 383.63 99.3387 383.966C100.047 384.29 100.629 384.764 101.085 385.388C101.541 386 101.829 386.732 101.949 387.584H100.617C100.449 386.984 100.185 386.48 99.8247 386.072C99.4767 385.664 99.0567 385.352 98.5647 385.136C98.0727 384.92 97.5447 384.812 96.9807 384.812C96.2487 384.812 95.5587 384.992 94.9107 385.352C94.2747 385.712 93.7587 386.24 93.3627 386.936C92.9667 387.632 92.7687 388.484 92.7687 389.492C92.7687 390.5 92.9667 391.352 93.3627 392.048C93.7587 392.744 94.2747 393.272 94.9107 393.632C95.5587 393.992 96.2487 394.172 96.9807 394.172C97.5447 394.172 98.0667 394.07 98.5467 393.866C99.0387 393.65 99.4587 393.338 99.8067 392.93C100.167 392.522 100.431 392.024 100.599 391.436H101.931ZM111.658 395.342H110.218V386.342H111.658V395.342ZM110.308 391.148L110.326 391.652C110.314 391.796 110.278 392.018 110.218 392.318C110.17 392.618 110.08 392.954 109.948 393.326C109.828 393.686 109.648 394.034 109.408 394.37C109.18 394.706 108.88 394.982 108.508 395.198C108.148 395.414 107.698 395.522 107.158 395.522C106.81 395.522 106.45 395.468 106.078 395.36C105.718 395.264 105.382 395.102 105.07 394.874C104.758 394.634 104.506 394.304 104.314 393.884C104.122 393.464 104.026 392.942 104.026 392.318V386.342H105.466V391.958C105.466 392.498 105.55 392.924 105.718 393.236C105.898 393.536 106.138 393.752 106.438 393.884C106.738 394.016 107.074 394.082 107.446 394.082C108.058 394.082 108.568 393.926 108.976 393.614C109.384 393.302 109.696 392.918 109.912 392.462C110.128 392.006 110.26 391.568 110.308 391.148ZM114.173 382.742H115.613V395.342H114.173V382.742ZM121.616 394.1H121.184L123.938 386.342H125.504L122.084 395.342H120.734L117.332 386.342H118.898L121.616 394.1ZM133.145 392.444H134.495C134.399 393.032 134.183 393.56 133.847 394.028C133.523 394.484 133.091 394.85 132.551 395.126C132.023 395.39 131.411 395.522 130.715 395.522C129.875 395.522 129.119 395.324 128.447 394.928C127.775 394.52 127.241 393.968 126.845 393.272C126.461 392.564 126.269 391.76 126.269 390.86C126.269 389.96 126.455 389.156 126.827 388.448C127.211 387.74 127.733 387.182 128.393 386.774C129.053 386.366 129.797 386.162 130.625 386.162C131.501 386.162 132.239 386.36 132.839 386.756C133.451 387.14 133.901 387.71 134.189 388.466C134.489 389.21 134.609 390.128 134.549 391.22H127.709C127.769 391.808 127.931 392.324 128.195 392.768C128.459 393.212 128.807 393.56 129.239 393.812C129.671 394.052 130.163 394.172 130.715 394.172C131.327 394.172 131.843 394.016 132.263 393.704C132.695 393.38 132.989 392.96 133.145 392.444ZM130.679 387.512C129.935 387.512 129.311 387.728 128.807 388.16C128.303 388.592 127.967 389.18 127.799 389.924H133.073C133.025 389.132 132.767 388.532 132.299 388.124C131.843 387.716 131.303 387.512 130.679 387.512ZM136.405 386.342H137.845V395.342H136.405V386.342ZM140.725 387.692C140.113 387.692 139.597 387.848 139.177 388.16C138.769 388.46 138.445 388.832 138.205 389.276C137.977 389.708 137.827 390.128 137.755 390.536L137.737 389.492C137.737 389.384 137.761 389.204 137.809 388.952C137.857 388.7 137.947 388.418 138.079 388.106C138.211 387.782 138.385 387.476 138.601 387.188C138.829 386.888 139.117 386.642 139.465 386.45C139.813 386.258 140.233 386.162 140.725 386.162V387.692ZM156.458 391.436C156.338 392.276 156.05 393.002 155.594 393.614C155.138 394.226 154.556 394.7 153.848 395.036C153.152 395.36 152.372 395.522 151.508 395.522C150.704 395.522 149.96 395.384 149.276 395.108C148.592 394.82 147.992 394.412 147.476 393.884C146.972 393.356 146.576 392.72 146.288 391.976C146 391.232 145.856 390.404 145.856 389.492C145.856 388.568 146 387.74 146.288 387.008C146.576 386.264 146.972 385.628 147.476 385.1C147.992 384.572 148.592 384.17 149.276 383.894C149.96 383.606 150.704 383.462 151.508 383.462C152.384 383.462 153.17 383.63 153.866 383.966C154.574 384.29 155.156 384.764 155.612 385.388C156.068 386 156.356 386.732 156.476 387.584H155.144C154.976 386.984 154.712 386.48 154.352 386.072C154.004 385.664 153.584 385.352 153.092 385.136C152.6 384.92 152.072 384.812 151.508 384.812C150.776 384.812 150.086 384.992 149.438 385.352C148.802 385.712 148.286 386.24 147.89 386.936C147.494 387.632 147.296 388.484 147.296 389.492C147.296 390.5 147.494 391.352 147.89 392.048C148.286 392.744 148.802 393.272 149.438 393.632C150.086 393.992 150.776 394.172 151.508 394.172C152.072 394.172 152.594 394.07 153.074 393.866C153.566 393.65 153.986 393.338 154.334 392.93C154.694 392.522 154.958 392.024 155.126 391.436H156.458ZM160.336 382.742V384.488H158.464V382.742H160.336ZM158.68 386.342H160.12V395.342H158.68V386.342ZM161.949 386.342H167.241V387.692H161.949V386.342ZM163.875 384.002H165.315V395.342H163.875V384.002ZM168.132 386.342H169.68L172.902 394.982L171.642 395.342L168.132 386.342ZM176.502 386.342L171.48 398.942H169.914L172.092 394.082L174.972 386.342H176.502Z" fill="#787885"/>
<path d="M77.6375 384.68C76.2375 378.473 70.8642 375.678 66.1442 375.678C66.1442 375.678 66.1442 375.678 66.1308 375.678C61.4242 375.678 56.0375 378.459 54.6375 384.667C53.0775 391.6 57.2908 397.472 61.1042 401.168C62.5175 402.538 64.3308 403.223 66.1442 403.223C67.9575 403.223 69.7708 402.538 71.1708 401.168C74.9842 397.472 79.1975 391.614 77.6375 384.68ZM66.1442 391.412C63.8242 391.412 61.9442 389.518 61.9442 387.18C61.9442 384.842 63.8242 382.947 66.1442 382.947C68.4642 382.947 70.3442 384.842 70.3442 387.18C70.3442 389.518 68.4642 391.412 66.1442 391.412Z" fill="#1F1F21"/>
<rect x="288.206" y="342.143" width="56.4125" height="56.8589" rx="7.89439" fill="#1F1F21" stroke="#1F1F21" stroke-width="1.05259"/>
<rect x="285.671" y="339.589" width="56.4125" height="56.8589" rx="7.89439" fill="white" stroke="#1F1F21" stroke-width="1.05259"/>
<path d="M321.482 353.17C318.431 353.17 315.701 354.665 313.998 356.958C312.296 354.665 309.566 353.17 306.515 353.17C301.341 353.17 297.145 357.416 297.145 362.664C297.145 364.686 297.465 366.554 298.021 368.286C300.684 376.779 308.892 381.857 312.954 383.25C313.527 383.454 314.47 383.454 315.043 383.25C319.105 381.857 327.313 376.779 329.976 368.286C330.532 366.554 330.852 364.686 330.852 362.664C330.852 357.416 326.656 353.17 321.482 353.17Z" fill="#FD5530"/>
</svg>
