<svg width="400" height="18" viewBox="0 0 400 18" fill="none" xmlns="http://www.w3.org/2000/svg">
<path d="M218 9C229.342 -0.333334 242.904 -0.333334 254 9C265.342 18.3333 278.904 18.3333 290 9C301.342 -0.333334 314.904 -0.333334 326 9C337.342 18.3333 350.904 18.3333 362 9C373.342 -0.333334 386.904 -0.333334 398 9" stroke="white" stroke-width="2.82033" stroke-miterlimit="10" stroke-linecap="round" stroke-linejoin="round"/>
<path d="M74 9C85.3425 -0.333334 98.9041 -0.333334 110 9C121.342 18.3333 134.904 18.3333 146 9C157.342 -0.333334 170.904 -0.333334 182 9C193.342 18.3333 206.904 18.3333 218 9C229.342 -0.333334 242.904 -0.333334 254 9" stroke="white" stroke-width="2.82033" stroke-miterlimit="10" stroke-linecap="round" stroke-linejoin="round"/>
<path d="M2 9C13.3425 -0.333334 26.9041 -0.333334 38 9C49.3425 18.3333 62.9041 18.3333 74 9C85.3425 -0.333334 98.9041 -0.333334 110 9C121.342 18.3333 134.904 18.3333 146 9C157.342 -0.333334 170.904 -0.333334 182 9" stroke="white" stroke-width="2.82033" stroke-miterlimit="10" stroke-linecap="round" stroke-linejoin="round"/>
</svg>
